<svg width="20" height="20" viewBox="0 0 20 20" fill="none" xmlns="http://www.w3.org/2000/svg">
<mask id="mask0_553_17894" style="mask-type:alpha" maskUnits="userSpaceOnUse" x="0" y="0" width="20" height="20">
<path d="M14.9147 3.72868C14.2272 3.72868 13.6718 4.28409 13.6718 4.97157C13.6718 5.65904 14.2272 6.21446 14.9147 6.21446C15.6022 6.21446 16.1576 5.65904 16.1576 4.97157C16.1576 4.28409 15.6022 3.72868 14.9147 3.72868Z" fill="#6B6C7E"/>
<path fill-rule="evenodd" clip-rule="evenodd" d="M4.97157 9.9431C5.14247 16.4566 14.7788 16.4916 14.9147 9.9431C14.67 3.24315 5.21626 3.42958 4.97157 9.9431ZM12.4289 9.9431C12.4289 13.2911 7.45735 13.3649 7.45735 9.9431C7.45735 6.74266 12.4289 6.59507 12.4289 9.9431Z" fill="#6B6C7E"/>
<path fill-rule="evenodd" clip-rule="evenodd" d="M13.6718 0H6.21446C2.79651 0 0 2.79651 0 6.21446V13.6718C0 17.0898 2.79651 19.8863 6.21446 19.8863H13.6718C17.0898 19.8863 19.8863 17.0898 19.8863 13.6718V6.21446C19.8863 2.79651 17.0898 0 13.6718 0ZM13.6718 2.48578C15.7265 2.48578 17.4005 4.1598 17.4005 6.21446V13.6718C17.4005 15.7265 15.7265 17.4005 13.6718 17.4005H6.21446C4.1598 17.4005 2.48578 15.7265 2.48578 13.6718V6.21446C2.48578 4.1598 4.1598 2.48578 6.21446 2.48578H13.6718Z" fill="#6B6C7E"/>
</mask>
<g mask="url(#mask0_553_17894)">
<rect width="19.8863" height="19.8863" fill="#F178B6"/>
</g>
</svg>
