<svg width="23" height="23" viewBox="0 0 23 23" fill="none" xmlns="http://www.w3.org/2000/svg">
<g clip-path="url(#clip0_518_14840)">
<path d="M10.2883 10.689C10.0074 11.1614 5.62504 11.2407 3.23424 9.90087C0.84344 8.561 2.00498 4.46423 4.42996 3.38847C6.85494 2.31271 10.5693 10.2167 10.2883 10.689Z" fill="#8B5CF6"/>
<path d="M10.255 12.3292C10.5359 12.8015 8.41564 16.5251 6.02482 17.865C3.63402 19.2049 0.559754 16.1801 0.812477 13.6037C1.0652 11.0273 9.97407 11.8568 10.255 12.3292Z" fill="#8B5CF6"/>
<path d="M11.7009 13.1774C12.2629 13.1774 14.5248 16.8217 14.5248 19.5014C14.5248 22.1811 10.289 23.2531 8.11676 21.7524C5.94449 20.2518 11.1391 13.1773 11.7009 13.1774Z" fill="#8B5CF6"/>
<path d="M13.1806 12.3843C13.4615 11.9119 17.8439 11.8326 20.2347 13.1724C22.6255 14.5123 21.464 18.609 19.039 19.6848C16.6139 20.7605 12.8996 12.8566 13.1806 12.3843Z" fill="#8B5CF6"/>
<path d="M13.2141 10.7455C12.9331 10.2731 15.0534 6.54949 17.4442 5.20959C19.8351 3.86973 22.9093 6.89457 22.6567 9.47093C22.4039 12.0474 13.495 11.2179 13.2141 10.7455Z" fill="#8B5CF6"/>
<path d="M11.7675 9.89664C11.2055 9.89664 8.9436 6.25235 8.9436 3.57262C8.9436 0.892883 13.1794 -0.179059 15.3516 1.3216C17.5239 2.82225 12.3293 9.8967 11.7675 9.89664Z" fill="#8B5CF6"/>
</g>
<defs>
<clipPath id="clip0_518_14840">
<rect width="21.8749" height="21.8749" fill="white" transform="translate(0.796875 0.59922)"/>
</clipPath>
</defs>
</svg>
