<svg width="22" height="22" viewBox="0 0 22 22" fill="none" xmlns="http://www.w3.org/2000/svg">
<mask id="mask0_553_17897" style="mask-type:alpha" maskUnits="userSpaceOnUse" x="0" y="0" width="22" height="22">
<path fill-rule="evenodd" clip-rule="evenodd" d="M1.61552 0H20.2554C21.1486 0 21.8749 0.704953 21.8789 1.57646V20.2984C21.8789 21.1656 21.1526 21.8749 20.2594 21.8749H1.61552C0.72231 21.8749 0 21.1656 0 20.2941V1.57646C0 0.704953 0.72231 0 1.61552 0ZM3.24305 18.6405H6.49011V8.19875H3.24305V18.6405ZM2.9827 4.89612C2.9827 2.30712 6.74645 2.30712 6.74645 4.89612C6.74645 7.47677 2.9827 7.39132 2.9827 4.89612ZM15.3981 18.6407H18.6399V12.9113C18.6399 10.1002 18.0337 7.93823 14.7479 7.93823C13.1711 7.93823 12.1124 8.80557 11.6811 9.62584H11.6384V8.19892H8.52753V18.6407H11.7666V13.4796C11.7666 12.1167 12.0229 10.7964 13.7105 10.7964C15.3768 10.7964 15.3981 12.3559 15.3981 13.565V18.6407Z" fill="#6B6C7E"/>
</mask>
<g mask="url(#mask0_553_17897)">
<rect width="21.8749" height="21.8749" fill="#34AADF"/>
</g>
</svg>
