<svg width="22" height="22" viewBox="0 0 22 22" fill="none" xmlns="http://www.w3.org/2000/svg">
<mask id="mask0_553_17901" style="mask-type:alpha" maskUnits="userSpaceOnUse" x="0" y="2" width="22" height="18">
<path fill-rule="evenodd" clip-rule="evenodd" d="M19.1405 2.73436H2.73436C1.22566 2.73436 0 3.96056 0 5.46873V16.4062C0 17.9143 1.22566 19.1405 2.73436 19.1405H19.1405C20.6492 19.1405 21.8749 17.9143 21.8749 16.4062V5.46873C21.8749 3.96056 20.6492 2.73436 19.1405 2.73436ZM17.7734 5.46873L11.7572 9.98043C11.2752 10.3436 10.5997 10.3436 10.1177 9.98043L4.10154 5.46873H17.7734ZM2.73436 7.86129V16.4062H19.1405V7.86129L13.3981 12.1679C11.7706 13.2873 9.8907 13.2446 8.47679 12.1679L2.73436 7.86129Z" fill="#6B6C7E"/>
</mask>
<g mask="url(#mask0_553_17901)">
<rect width="21.8749" height="21.8749" fill="#7879F1"/>
</g>
</svg>
