<svg width="23" height="18" viewBox="0 0 23 18" fill="none" xmlns="http://www.w3.org/2000/svg">
<path d="M7.67609 17.8688C15.9308 17.8688 20.4458 11.2557 20.4458 5.52085C20.4458 5.33302 20.4458 5.14603 20.4327 4.95989C21.311 4.34555 22.0692 3.58488 22.6718 2.7135C21.8527 3.06447 20.9838 3.29463 20.094 3.3963C21.0309 2.85394 21.7321 2.0009 22.0672 0.995929C21.1862 1.50143 20.2224 1.85769 19.2173 2.04932C18.5406 1.35356 17.6457 0.892848 16.6709 0.738473C15.6962 0.584099 14.696 0.74467 13.8252 1.19534C12.9543 1.64601 12.2613 2.36165 11.8535 3.23152C11.4456 4.10139 11.3456 5.07699 11.569 6.00735C9.78462 5.92086 8.03904 5.47248 6.44553 4.69133C4.85203 3.91018 3.44622 2.81372 2.31937 1.47313C1.74545 2.42851 1.56967 3.55948 1.82782 4.63578C2.08597 5.71208 2.75864 6.65278 3.70886 7.26635C2.99464 7.24588 2.29599 7.05957 1.67187 6.72315C1.67187 6.74092 1.67187 6.75953 1.67187 6.77815C1.67215 7.78011 2.03085 8.75113 2.68711 9.52652C3.34338 10.3019 4.25681 10.8339 5.27248 11.0323C4.61174 11.2066 3.91849 11.232 3.24599 11.1068C3.53278 11.9691 4.09112 12.7232 4.84292 13.2635C5.59472 13.8039 6.50239 14.1036 7.43897 14.1206C5.84975 15.3283 3.88654 15.9839 1.86525 15.982C1.50816 15.9813 1.15143 15.9604 0.796875 15.9194C2.8493 17.193 5.2374 17.8685 7.67609 17.8654" fill="#56CCF2"/>
</svg>
