<svg width="22" height="22" viewBox="0 0 22 22" fill="none" xmlns="http://www.w3.org/2000/svg">
<mask id="mask0_553_17904" style="mask-type:alpha" maskUnits="userSpaceOnUse" x="0" y="0" width="22" height="22">
<path d="M5.46873 16.4062L13.6718 13.6718L16.4062 5.46873L8.20309 8.20309L5.46873 16.4062Z" fill="#6B6C7E"/>
<path fill-rule="evenodd" clip-rule="evenodd" d="M10.9375 0C13.8601 0 16.6064 1.13645 18.6706 3.20433C20.7387 5.26795 21.8749 8.01508 21.8749 10.9375C21.8749 13.8598 20.7387 16.6027 18.6706 18.6706C16.6064 20.7384 13.8601 21.8749 10.9375 21.8749C8.01483 21.8749 5.27246 20.7384 3.20433 18.6706C1.1362 16.6069 0 13.8598 0 10.9375C0 8.01508 1.1362 5.26795 3.20433 3.20433C5.26845 1.13645 8.01483 0 10.9375 0ZM2.73436 10.9375C2.73436 15.462 6.41267 19.1405 10.9375 19.1405C15.4622 19.1405 19.1405 15.462 19.1405 10.9375C19.1405 6.41292 15.4622 2.73436 10.9375 2.73436C6.41267 2.73436 2.73436 6.41292 2.73436 10.9375Z" fill="#6B6C7E"/>
</mask>
<g mask="url(#mask0_553_17904)">
<rect width="21.8749" height="21.8749" fill="#C490DD"/>
</g>
</svg>
