<?xml version="1.0" standalone="no"?>
<!DOCTYPE svg PUBLIC "-//W3C//DTD SVG 20010904//EN"
 "http://www.w3.org/TR/2001/REC-SVG-20010904/DTD/svg10.dtd">
<svg version="1.0" xmlns="http://www.w3.org/2000/svg"
 width="700.000000pt" height="700.000000pt" viewBox="0 0 700.000000 700.000000"
 preserveAspectRatio="xMidYMid meet">
<metadata>
Created by potrace 1.14, written by Peter Selinger 2001-2017
</metadata>
<g transform="translate(0.000000,700.000000) scale(0.100000,-0.100000)"
fill="#000000" stroke="none">
<path d="M607 5468 c-322 -466 -514 -986 -589 -1598 -17 -139 -17 -602 0 -745
84 -709 349 -1336 788 -1865 524 -632 1294 -1076 2094 -1209 235 -39 321 -46
605 -45 232 0 309 4 445 22 1054 142 1960 723 2520 1617 100 159 242 446 305
615 222 599 280 1264 162 1879 l-22 114 0 -154 c0 -322 -25 -651 -65 -849 -24
-119 -64 -289 -86 -365 -40 -141 -105 -338 -119 -359 -7 -12 -29 -61 -48 -111
-53 -134 -203 -413 -297 -555 -151 -227 -258 -359 -435 -536 -244 -244 -438
-398 -701 -555 -330 -196 -680 -328 -1084 -409 -545 -109 -1151 -67 -1675 117
-255 89 -530 228 -728 365 -382 266 -662 554 -909 933 -82 126 -215 381 -268
517 -23 56 -45 112 -50 123 -16 33 -70 204 -96 300 -107 395 -169 969 -129
1195 2 14 7 57 10 95 5 62 14 129 31 212 3 16 9 53 14 83 8 49 39 203 60 300
39 181 166 561 245 735 32 72 94 225 90 225 -2 0 -33 -42 -68 -92z"/>
<path d="M4363 4238 c-64 -21 -90 -63 -182 -299 -48 -123 -90 -232 -94 -242
-6 -15 -29 10 -119 125 -208 267 -225 286 -269 300 -71 21 -156 -13 -196 -77
-17 -28 -18 -59 -18 -415 0 -586 18 -721 104 -777 66 -44 168 -18 213 55 21
34 21 38 9 251 -6 119 -14 251 -17 295 -3 48 -2 76 4 72 5 -3 55 -66 111 -139
118 -156 153 -182 233 -175 82 8 107 42 193 259 l73 183 76 -152 c104 -208
200 -366 237 -393 69 -49 177 -25 227 51 37 54 27 110 -36 212 -116 190 -228
424 -314 658 -58 157 -74 182 -128 204 -45 18 -61 18 -107 4z"/>
<path d="M2158 4129 c-70 -36 -73 -51 -71 -341 l1 -258 -106 98 c-175 160
-410 339 -519 396 -84 43 -187 -5 -213 -99 -10 -36 -8 -65 10 -186 30 -202 83
-452 141 -664 71 -260 97 -302 192 -312 89 -10 177 57 177 136 0 19 -20 104
-44 190 -49 169 -109 422 -102 428 7 8 213 -186 382 -360 144 -148 176 -177
208 -182 52 -10 119 17 154 63 l27 35 0 491 0 491 -22 31 c-45 63 -142 82
-215 43z"/>
<path d="M2965 4021 c-23 -10 -49 -30 -59 -45 -11 -18 -53 -206 -116 -529
-106 -535 -107 -546 -63 -605 25 -33 80 -62 118 -62 46 1 112 35 133 70 21 34
212 966 212 1033 0 56 -33 113 -80 137 -48 25 -93 25 -145 1z"/>
<path d="M5550 4029 c-28 -11 -67 -46 -81 -71 -14 -25 -199 -976 -199 -1021 0
-111 102 -182 205 -142 85 32 81 21 188 556 53 266 97 504 97 529 0 112 -109
189 -210 149z"/>
</g>
</svg>
