<svg width="82" height="23" viewBox="0 0 82 23" fill="none" xmlns="http://www.w3.org/2000/svg">
<mask id="path-1-outside-1_2347_64104" maskUnits="userSpaceOnUse" x="0" y="0" width="82" height="23" fill="black">
<rect fill="white" width="82" height="23"/>
<path d="M3.99446 10.8064C1.84055 10.8064 1 12.3824 1 13.5732C1 14.7115 1.7705 16.2875 4.27464 16.2875C5.69307 16.2875 6.84883 15.7797 7.74191 15.0092C8.88015 15.9723 9.80826 16.6202 11.4718 16.6202C16.2875 16.6202 18.7216 11.3843 18.7216 7.4267C18.7216 3.66174 16.5327 1 12.2248 1C7.65435 1 5.18524 4.0645 5.18524 7.18154C5.18524 8.93269 5.99076 10.106 5.99076 10.106L7.84698 8.72255C7.84698 8.72255 7.44421 7.95205 7.44421 7.1115C7.44421 5.4304 8.98522 3.15391 12.0497 3.15391C14.834 3.15391 15.9548 5.02763 15.9548 7.39168C15.9548 10.5262 14.0285 14.3612 11.3318 14.3612C10.4737 14.3612 9.75573 13.976 9.07278 13.4682C9.49305 12.8202 9.86079 12.1198 10.1235 11.4193C10.1235 11.4018 11.8571 7.14652 11.8571 7.14652C12.3649 5.88569 13.2755 5.50044 13.2755 5.50044L12.7677 4.01197C11.0166 4.01197 9.79075 5.34284 9.30043 6.55113L7.61933 10.7013C7.44421 11.1216 7.25159 11.5419 7.02394 11.9271C5.83316 11.1216 4.94008 10.8064 3.99446 10.8064ZM4.11704 14.1161C3.52165 14.1161 3.08386 13.9059 3.08386 13.4156C3.08386 12.9953 3.43409 12.6101 4.09953 12.6101C4.58985 12.6101 5.08017 12.8377 5.83316 13.4156C5.32533 13.8534 4.76496 14.1161 4.11704 14.1161Z"/>
<path d="M29.5665 10.7714C28.3057 12.9253 27.1149 14.1511 26.4145 14.1511C26.0992 14.1511 25.8016 13.8884 26.5896 11.9096L28.761 6.55113H25.9767L25.4863 7.74191C25.4863 7.74191 25.1011 6.32348 23.4025 6.32348C20.0578 6.32348 18.5693 11.6995 18.5693 13.5732C18.5693 14.834 19.2348 15.8672 20.5481 15.8672C22.0891 15.8672 23.2974 14.4138 23.2974 14.4138C23.2974 14.4138 23.5251 15.8672 25.3463 15.8672C27.4827 15.8672 29.1813 13.8534 30.5472 11.4718C30.4071 11.1391 29.9343 10.8064 29.5665 10.7714ZM21.844 13.6433C21.4937 13.6433 21.2836 13.4506 21.2836 12.9953C21.2836 11.8746 22.5794 8.59997 23.9628 8.59997C24.7334 8.59997 24.7509 9.58061 24.7509 9.58061L23.6126 12.3824C23.6126 12.3824 22.8071 13.6433 21.844 13.6433Z"/>
<path d="M33.5368 5.81565C34.3599 5.81565 35.0778 5.09768 35.0778 4.27464C35.0778 3.41658 34.3599 2.75114 33.5368 2.75114C32.6788 2.75114 31.9958 3.41658 31.9958 4.27464C31.9958 5.09768 32.6788 5.81565 33.5368 5.81565ZM34.8327 10.7714C33.5894 12.9253 32.3811 14.1511 31.6806 14.1511C31.3829 14.1511 31.0677 13.9059 31.8732 11.9096L34.0271 6.55113H31.2428L29.264 11.4368C27.9857 14.6064 29.1064 15.8672 30.7 15.8672C32.7138 15.8672 34.4649 13.8359 35.8133 11.4718C35.6732 11.1391 35.2004 10.8064 34.8327 10.7714Z"/>
<path d="M43.7772 10.7714C42.674 12.6451 41.5883 12.9778 40.6251 12.5751C42.6915 10.0709 43.3044 7.60182 43.5145 6.32348L41.2906 6.55113C40.5201 9.98337 38.6463 12.1373 36.9302 13.4156L38.4362 6.55113H35.7044L33.7081 15.6396H36.4399C38.9615 14.3787 39.5569 13.7133 39.5569 13.7133C41.7984 14.7115 43.5846 13.5382 44.7578 11.4718C44.6177 11.1391 44.1449 10.8064 43.7772 10.7714Z"/>
<path d="M47.7478 5.81565C48.5708 5.81565 49.2888 5.09768 49.2888 4.27464C49.2888 3.41658 48.5708 2.75114 47.7478 2.75114C46.8897 2.75114 46.2068 3.41658 46.2068 4.27464C46.2068 5.09768 46.8897 5.81565 47.7478 5.81565ZM49.0436 10.7714C47.8003 12.9253 46.592 14.1511 45.8916 14.1511C45.5939 14.1511 45.2787 13.9059 46.0842 11.9096L48.2381 6.55113H45.4538L43.475 11.4368C42.1966 14.6064 43.3174 15.8672 44.9109 15.8672C46.9247 15.8672 48.6759 13.8359 50.0243 11.4718C49.8842 11.1391 49.4114 10.8064 49.0436 10.7714Z"/>
<path d="M59.284 10.7714C58.0407 12.9253 56.8324 14.1511 56.1319 14.1511C55.8342 14.1511 55.5015 13.9235 56.307 11.9096L57.1651 9.82577C57.5328 8.91518 57.6905 8.31979 57.6905 7.84698C57.6905 6.91887 57.1126 6.32348 56.0094 6.32348C54.5209 6.32348 53.225 7.39168 53.1375 7.47924L53.5052 6.55113H50.7209L47.0435 15.6396H49.8278L52.1919 9.80826C52.9273 8.96771 53.7329 8.56495 54.1531 8.56495C54.4158 8.56495 54.6259 8.70504 54.6259 8.9502C54.6259 9.21287 54.3458 9.87831 54.013 10.7189L53.7504 11.3668C52.5071 14.4663 53.2601 15.8672 55.0812 15.8672C57.1826 15.8672 58.8637 13.9059 60.2646 11.4718C60.1245 11.1391 59.6517 10.8064 59.284 10.7714Z"/>
<path d="M63.2584 5.81565C64.0814 5.81565 64.7994 5.09768 64.7994 4.27464C64.7994 3.41658 64.0814 2.75114 63.2584 2.75114C62.4003 2.75114 61.7174 3.41658 61.7174 4.27464C61.7174 5.09768 62.4003 5.81565 63.2584 5.81565ZM64.5543 10.7714C63.3109 12.9253 62.1027 14.1511 61.4022 14.1511C61.1045 14.1511 60.7893 13.9059 61.5948 11.9096L63.7487 6.55113H60.9644L58.9856 11.4368C57.7073 14.6064 58.828 15.8672 60.4216 15.8672C62.4354 15.8672 64.1865 13.8359 65.5349 11.4718C65.3948 11.1391 64.922 10.8064 64.5543 10.7714Z"/>
<path d="M70.1191 10.7714C68.8582 12.9078 67.6675 14.1511 66.8094 14.1511C66.4242 14.1511 66.0389 13.9059 66.8619 11.9096L69.0158 6.55113H70.3993L70.9771 5.15021H69.5762L70.4168 3.08386H67.6324L66.7919 5.15021H65.356L64.7781 6.55113H66.2315L64.2527 11.4368C62.9919 14.5714 64.0776 15.8672 65.8113 15.8672C68.0177 15.8672 69.8039 13.7483 71.0997 11.4718C70.9596 11.1391 70.4868 10.8064 70.1191 10.7714Z"/>
<path d="M80.0193 10.7714C78.776 12.9428 77.6028 14.1336 75.9567 14.9741L79.3889 6.55113H76.6046L74.7309 11.1566C73.6802 12.9603 72.9972 13.9059 72.3143 13.9059C71.9641 13.9059 71.7189 13.6608 72.4369 11.9096L74.5908 6.55113H71.8065L69.8277 11.4368C68.5318 14.6589 69.7576 15.8672 71.1585 15.8672C72.4719 15.8672 73.2774 14.7815 73.2774 14.7815L72.8396 15.8497C72.4544 16.0598 71.4737 16.4626 70.8258 16.7778C69.9327 17.1806 68.8645 18.0036 68.847 19.2469C68.8295 20.2451 69.5125 21.1732 71.0009 21.1732C73.1023 21.1732 74.153 19.422 74.871 17.6884C75.0111 17.3382 75.2737 16.6903 75.2737 16.6903C77.3226 15.7271 79.1963 14.6239 81 11.4718C80.8599 11.1391 80.3871 10.8064 80.0193 10.7714ZM70.1604 19.0018C70.1604 18.7041 70.4231 18.3889 70.8258 18.1437C71.2986 17.8635 71.6664 17.7234 72.1917 17.4783C71.6138 19.0368 71.0184 19.4746 70.6332 19.4746C70.3355 19.4746 70.1604 19.2644 70.1604 19.0018Z"/>
</mask>
<path d="M3.99446 10.8064C1.84055 10.8064 1 12.3824 1 13.5732C1 14.7115 1.7705 16.2875 4.27464 16.2875C5.69307 16.2875 6.84883 15.7797 7.74191 15.0092C8.88015 15.9723 9.80826 16.6202 11.4718 16.6202C16.2875 16.6202 18.7216 11.3843 18.7216 7.4267C18.7216 3.66174 16.5327 1 12.2248 1C7.65435 1 5.18524 4.0645 5.18524 7.18154C5.18524 8.93269 5.99076 10.106 5.99076 10.106L7.84698 8.72255C7.84698 8.72255 7.44421 7.95205 7.44421 7.1115C7.44421 5.4304 8.98522 3.15391 12.0497 3.15391C14.834 3.15391 15.9548 5.02763 15.9548 7.39168C15.9548 10.5262 14.0285 14.3612 11.3318 14.3612C10.4737 14.3612 9.75573 13.976 9.07278 13.4682C9.49305 12.8202 9.86079 12.1198 10.1235 11.4193C10.1235 11.4018 11.8571 7.14652 11.8571 7.14652C12.3649 5.88569 13.2755 5.50044 13.2755 5.50044L12.7677 4.01197C11.0166 4.01197 9.79075 5.34284 9.30043 6.55113L7.61933 10.7013C7.44421 11.1216 7.25159 11.5419 7.02394 11.9271C5.83316 11.1216 4.94008 10.8064 3.99446 10.8064ZM4.11704 14.1161C3.52165 14.1161 3.08386 13.9059 3.08386 13.4156C3.08386 12.9953 3.43409 12.6101 4.09953 12.6101C4.58985 12.6101 5.08017 12.8377 5.83316 13.4156C5.32533 13.8534 4.76496 14.1161 4.11704 14.1161Z" fill="url(#paint0_linear_2347_64104)"/>
<path d="M29.5665 10.7714C28.3057 12.9253 27.1149 14.1511 26.4145 14.1511C26.0992 14.1511 25.8016 13.8884 26.5896 11.9096L28.761 6.55113H25.9767L25.4863 7.74191C25.4863 7.74191 25.1011 6.32348 23.4025 6.32348C20.0578 6.32348 18.5693 11.6995 18.5693 13.5732C18.5693 14.834 19.2348 15.8672 20.5481 15.8672C22.0891 15.8672 23.2974 14.4138 23.2974 14.4138C23.2974 14.4138 23.5251 15.8672 25.3463 15.8672C27.4827 15.8672 29.1813 13.8534 30.5472 11.4718C30.4071 11.1391 29.9343 10.8064 29.5665 10.7714ZM21.844 13.6433C21.4937 13.6433 21.2836 13.4506 21.2836 12.9953C21.2836 11.8746 22.5794 8.59997 23.9628 8.59997C24.7334 8.59997 24.7509 9.58061 24.7509 9.58061L23.6126 12.3824C23.6126 12.3824 22.8071 13.6433 21.844 13.6433Z" fill="url(#paint1_linear_2347_64104)"/>
<path d="M33.5368 5.81565C34.3599 5.81565 35.0778 5.09768 35.0778 4.27464C35.0778 3.41658 34.3599 2.75114 33.5368 2.75114C32.6788 2.75114 31.9958 3.41658 31.9958 4.27464C31.9958 5.09768 32.6788 5.81565 33.5368 5.81565ZM34.8327 10.7714C33.5894 12.9253 32.3811 14.1511 31.6806 14.1511C31.3829 14.1511 31.0677 13.9059 31.8732 11.9096L34.0271 6.55113H31.2428L29.264 11.4368C27.9857 14.6064 29.1064 15.8672 30.7 15.8672C32.7138 15.8672 34.4649 13.8359 35.8133 11.4718C35.6732 11.1391 35.2004 10.8064 34.8327 10.7714Z" fill="url(#paint2_linear_2347_64104)"/>
<path d="M43.7772 10.7714C42.674 12.6451 41.5883 12.9778 40.6251 12.5751C42.6915 10.0709 43.3044 7.60182 43.5145 6.32348L41.2906 6.55113C40.5201 9.98337 38.6463 12.1373 36.9302 13.4156L38.4362 6.55113H35.7044L33.7081 15.6396H36.4399C38.9615 14.3787 39.5569 13.7133 39.5569 13.7133C41.7984 14.7115 43.5846 13.5382 44.7578 11.4718C44.6177 11.1391 44.1449 10.8064 43.7772 10.7714Z" fill="url(#paint3_linear_2347_64104)"/>
<path d="M47.7478 5.81565C48.5708 5.81565 49.2888 5.09768 49.2888 4.27464C49.2888 3.41658 48.5708 2.75114 47.7478 2.75114C46.8897 2.75114 46.2068 3.41658 46.2068 4.27464C46.2068 5.09768 46.8897 5.81565 47.7478 5.81565ZM49.0436 10.7714C47.8003 12.9253 46.592 14.1511 45.8916 14.1511C45.5939 14.1511 45.2787 13.9059 46.0842 11.9096L48.2381 6.55113H45.4538L43.475 11.4368C42.1966 14.6064 43.3174 15.8672 44.9109 15.8672C46.9247 15.8672 48.6759 13.8359 50.0243 11.4718C49.8842 11.1391 49.4114 10.8064 49.0436 10.7714Z" fill="url(#paint4_linear_2347_64104)"/>
<path d="M59.284 10.7714C58.0407 12.9253 56.8324 14.1511 56.1319 14.1511C55.8342 14.1511 55.5015 13.9235 56.307 11.9096L57.1651 9.82577C57.5328 8.91518 57.6905 8.31979 57.6905 7.84698C57.6905 6.91887 57.1126 6.32348 56.0094 6.32348C54.5209 6.32348 53.225 7.39168 53.1375 7.47924L53.5052 6.55113H50.7209L47.0435 15.6396H49.8278L52.1919 9.80826C52.9273 8.96771 53.7329 8.56495 54.1531 8.56495C54.4158 8.56495 54.6259 8.70504 54.6259 8.9502C54.6259 9.21287 54.3458 9.87831 54.013 10.7189L53.7504 11.3668C52.5071 14.4663 53.2601 15.8672 55.0812 15.8672C57.1826 15.8672 58.8637 13.9059 60.2646 11.4718C60.1245 11.1391 59.6517 10.8064 59.284 10.7714Z" fill="url(#paint5_linear_2347_64104)"/>
<path d="M63.2584 5.81565C64.0814 5.81565 64.7994 5.09768 64.7994 4.27464C64.7994 3.41658 64.0814 2.75114 63.2584 2.75114C62.4003 2.75114 61.7174 3.41658 61.7174 4.27464C61.7174 5.09768 62.4003 5.81565 63.2584 5.81565ZM64.5543 10.7714C63.3109 12.9253 62.1027 14.1511 61.4022 14.1511C61.1045 14.1511 60.7893 13.9059 61.5948 11.9096L63.7487 6.55113H60.9644L58.9856 11.4368C57.7073 14.6064 58.828 15.8672 60.4216 15.8672C62.4354 15.8672 64.1865 13.8359 65.5349 11.4718C65.3948 11.1391 64.922 10.8064 64.5543 10.7714Z" fill="url(#paint6_linear_2347_64104)"/>
<path d="M70.1191 10.7714C68.8582 12.9078 67.6675 14.1511 66.8094 14.1511C66.4242 14.1511 66.0389 13.9059 66.8619 11.9096L69.0158 6.55113H70.3993L70.9771 5.15021H69.5762L70.4168 3.08386H67.6324L66.7919 5.15021H65.356L64.7781 6.55113H66.2315L64.2527 11.4368C62.9919 14.5714 64.0776 15.8672 65.8113 15.8672C68.0177 15.8672 69.8039 13.7483 71.0997 11.4718C70.9596 11.1391 70.4868 10.8064 70.1191 10.7714Z" fill="url(#paint7_linear_2347_64104)"/>
<path d="M80.0193 10.7714C78.776 12.9428 77.6028 14.1336 75.9567 14.9741L79.3889 6.55113H76.6046L74.7309 11.1566C73.6802 12.9603 72.9972 13.9059 72.3143 13.9059C71.9641 13.9059 71.7189 13.6608 72.4369 11.9096L74.5908 6.55113H71.8065L69.8277 11.4368C68.5318 14.6589 69.7576 15.8672 71.1585 15.8672C72.4719 15.8672 73.2774 14.7815 73.2774 14.7815L72.8396 15.8497C72.4544 16.0598 71.4737 16.4626 70.8258 16.7778C69.9327 17.1806 68.8645 18.0036 68.847 19.2469C68.8295 20.2451 69.5125 21.1732 71.0009 21.1732C73.1023 21.1732 74.153 19.422 74.871 17.6884C75.0111 17.3382 75.2737 16.6903 75.2737 16.6903C77.3226 15.7271 79.1963 14.6239 81 11.4718C80.8599 11.1391 80.3871 10.8064 80.0193 10.7714ZM70.1604 19.0018C70.1604 18.7041 70.4231 18.3889 70.8258 18.1437C71.2986 17.8635 71.6664 17.7234 72.1917 17.4783C71.6138 19.0368 71.0184 19.4746 70.6332 19.4746C70.3355 19.4746 70.1604 19.2644 70.1604 19.0018Z" fill="url(#paint8_linear_2347_64104)"/>
<path d="M3.99446 10.8064C1.84055 10.8064 1 12.3824 1 13.5732C1 14.7115 1.7705 16.2875 4.27464 16.2875C5.69307 16.2875 6.84883 15.7797 7.74191 15.0092C8.88015 15.9723 9.80826 16.6202 11.4718 16.6202C16.2875 16.6202 18.7216 11.3843 18.7216 7.4267C18.7216 3.66174 16.5327 1 12.2248 1C7.65435 1 5.18524 4.0645 5.18524 7.18154C5.18524 8.93269 5.99076 10.106 5.99076 10.106L7.84698 8.72255C7.84698 8.72255 7.44421 7.95205 7.44421 7.1115C7.44421 5.4304 8.98522 3.15391 12.0497 3.15391C14.834 3.15391 15.9548 5.02763 15.9548 7.39168C15.9548 10.5262 14.0285 14.3612 11.3318 14.3612C10.4737 14.3612 9.75573 13.976 9.07278 13.4682C9.49305 12.8202 9.86079 12.1198 10.1235 11.4193C10.1235 11.4018 11.8571 7.14652 11.8571 7.14652C12.3649 5.88569 13.2755 5.50044 13.2755 5.50044L12.7677 4.01197C11.0166 4.01197 9.79075 5.34284 9.30043 6.55113L7.61933 10.7013C7.44421 11.1216 7.25159 11.5419 7.02394 11.9271C5.83316 11.1216 4.94008 10.8064 3.99446 10.8064ZM4.11704 14.1161C3.52165 14.1161 3.08386 13.9059 3.08386 13.4156C3.08386 12.9953 3.43409 12.6101 4.09953 12.6101C4.58985 12.6101 5.08017 12.8377 5.83316 13.4156C5.32533 13.8534 4.76496 14.1161 4.11704 14.1161Z" stroke="black" stroke-width="1.69002" stroke-linejoin="round" mask="url(#path-1-outside-1_2347_64104)"/>
<path d="M29.5665 10.7714C28.3057 12.9253 27.1149 14.1511 26.4145 14.1511C26.0992 14.1511 25.8016 13.8884 26.5896 11.9096L28.761 6.55113H25.9767L25.4863 7.74191C25.4863 7.74191 25.1011 6.32348 23.4025 6.32348C20.0578 6.32348 18.5693 11.6995 18.5693 13.5732C18.5693 14.834 19.2348 15.8672 20.5481 15.8672C22.0891 15.8672 23.2974 14.4138 23.2974 14.4138C23.2974 14.4138 23.5251 15.8672 25.3463 15.8672C27.4827 15.8672 29.1813 13.8534 30.5472 11.4718C30.4071 11.1391 29.9343 10.8064 29.5665 10.7714ZM21.844 13.6433C21.4937 13.6433 21.2836 13.4506 21.2836 12.9953C21.2836 11.8746 22.5794 8.59997 23.9628 8.59997C24.7334 8.59997 24.7509 9.58061 24.7509 9.58061L23.6126 12.3824C23.6126 12.3824 22.8071 13.6433 21.844 13.6433Z" stroke="black" stroke-width="1.69002" stroke-linejoin="round" mask="url(#path-1-outside-1_2347_64104)"/>
<path d="M33.5368 5.81565C34.3599 5.81565 35.0778 5.09768 35.0778 4.27464C35.0778 3.41658 34.3599 2.75114 33.5368 2.75114C32.6788 2.75114 31.9958 3.41658 31.9958 4.27464C31.9958 5.09768 32.6788 5.81565 33.5368 5.81565ZM34.8327 10.7714C33.5894 12.9253 32.3811 14.1511 31.6806 14.1511C31.3829 14.1511 31.0677 13.9059 31.8732 11.9096L34.0271 6.55113H31.2428L29.264 11.4368C27.9857 14.6064 29.1064 15.8672 30.7 15.8672C32.7138 15.8672 34.4649 13.8359 35.8133 11.4718C35.6732 11.1391 35.2004 10.8064 34.8327 10.7714Z" stroke="black" stroke-width="1.69002" stroke-linejoin="round" mask="url(#path-1-outside-1_2347_64104)"/>
<path d="M43.7772 10.7714C42.674 12.6451 41.5883 12.9778 40.6251 12.5751C42.6915 10.0709 43.3044 7.60182 43.5145 6.32348L41.2906 6.55113C40.5201 9.98337 38.6463 12.1373 36.9302 13.4156L38.4362 6.55113H35.7044L33.7081 15.6396H36.4399C38.9615 14.3787 39.5569 13.7133 39.5569 13.7133C41.7984 14.7115 43.5846 13.5382 44.7578 11.4718C44.6177 11.1391 44.1449 10.8064 43.7772 10.7714Z" stroke="black" stroke-width="1.69002" stroke-linejoin="round" mask="url(#path-1-outside-1_2347_64104)"/>
<path d="M47.7478 5.81565C48.5708 5.81565 49.2888 5.09768 49.2888 4.27464C49.2888 3.41658 48.5708 2.75114 47.7478 2.75114C46.8897 2.75114 46.2068 3.41658 46.2068 4.27464C46.2068 5.09768 46.8897 5.81565 47.7478 5.81565ZM49.0436 10.7714C47.8003 12.9253 46.592 14.1511 45.8916 14.1511C45.5939 14.1511 45.2787 13.9059 46.0842 11.9096L48.2381 6.55113H45.4538L43.475 11.4368C42.1966 14.6064 43.3174 15.8672 44.9109 15.8672C46.9247 15.8672 48.6759 13.8359 50.0243 11.4718C49.8842 11.1391 49.4114 10.8064 49.0436 10.7714Z" stroke="black" stroke-width="1.69002" stroke-linejoin="round" mask="url(#path-1-outside-1_2347_64104)"/>
<path d="M59.284 10.7714C58.0407 12.9253 56.8324 14.1511 56.1319 14.1511C55.8342 14.1511 55.5015 13.9235 56.307 11.9096L57.1651 9.82577C57.5328 8.91518 57.6905 8.31979 57.6905 7.84698C57.6905 6.91887 57.1126 6.32348 56.0094 6.32348C54.5209 6.32348 53.225 7.39168 53.1375 7.47924L53.5052 6.55113H50.7209L47.0435 15.6396H49.8278L52.1919 9.80826C52.9273 8.96771 53.7329 8.56495 54.1531 8.56495C54.4158 8.56495 54.6259 8.70504 54.6259 8.9502C54.6259 9.21287 54.3458 9.87831 54.013 10.7189L53.7504 11.3668C52.5071 14.4663 53.2601 15.8672 55.0812 15.8672C57.1826 15.8672 58.8637 13.9059 60.2646 11.4718C60.1245 11.1391 59.6517 10.8064 59.284 10.7714Z" stroke="black" stroke-width="1.69002" stroke-linejoin="round" mask="url(#path-1-outside-1_2347_64104)"/>
<path d="M63.2584 5.81565C64.0814 5.81565 64.7994 5.09768 64.7994 4.27464C64.7994 3.41658 64.0814 2.75114 63.2584 2.75114C62.4003 2.75114 61.7174 3.41658 61.7174 4.27464C61.7174 5.09768 62.4003 5.81565 63.2584 5.81565ZM64.5543 10.7714C63.3109 12.9253 62.1027 14.1511 61.4022 14.1511C61.1045 14.1511 60.7893 13.9059 61.5948 11.9096L63.7487 6.55113H60.9644L58.9856 11.4368C57.7073 14.6064 58.828 15.8672 60.4216 15.8672C62.4354 15.8672 64.1865 13.8359 65.5349 11.4718C65.3948 11.1391 64.922 10.8064 64.5543 10.7714Z" stroke="black" stroke-width="1.69002" stroke-linejoin="round" mask="url(#path-1-outside-1_2347_64104)"/>
<path d="M70.1191 10.7714C68.8582 12.9078 67.6675 14.1511 66.8094 14.1511C66.4242 14.1511 66.0389 13.9059 66.8619 11.9096L69.0158 6.55113H70.3993L70.9771 5.15021H69.5762L70.4168 3.08386H67.6324L66.7919 5.15021H65.356L64.7781 6.55113H66.2315L64.2527 11.4368C62.9919 14.5714 64.0776 15.8672 65.8113 15.8672C68.0177 15.8672 69.8039 13.7483 71.0997 11.4718C70.9596 11.1391 70.4868 10.8064 70.1191 10.7714Z" stroke="black" stroke-width="1.69002" stroke-linejoin="round" mask="url(#path-1-outside-1_2347_64104)"/>
<path d="M80.0193 10.7714C78.776 12.9428 77.6028 14.1336 75.9567 14.9741L79.3889 6.55113H76.6046L74.7309 11.1566C73.6802 12.9603 72.9972 13.9059 72.3143 13.9059C71.9641 13.9059 71.7189 13.6608 72.4369 11.9096L74.5908 6.55113H71.8065L69.8277 11.4368C68.5318 14.6589 69.7576 15.8672 71.1585 15.8672C72.4719 15.8672 73.2774 14.7815 73.2774 14.7815L72.8396 15.8497C72.4544 16.0598 71.4737 16.4626 70.8258 16.7778C69.9327 17.1806 68.8645 18.0036 68.847 19.2469C68.8295 20.2451 69.5125 21.1732 71.0009 21.1732C73.1023 21.1732 74.153 19.422 74.871 17.6884C75.0111 17.3382 75.2737 16.6903 75.2737 16.6903C77.3226 15.7271 79.1963 14.6239 81 11.4718C80.8599 11.1391 80.3871 10.8064 80.0193 10.7714ZM70.1604 19.0018C70.1604 18.7041 70.4231 18.3889 70.8258 18.1437C71.2986 17.8635 71.6664 17.7234 72.1917 17.4783C71.6138 19.0368 71.0184 19.4746 70.6332 19.4746C70.3355 19.4746 70.1604 19.2644 70.1604 19.0018Z" stroke="black" stroke-width="1.69002" stroke-linejoin="round" mask="url(#path-1-outside-1_2347_64104)"/>
<path d="M15.3433 21.6307V18.7239H17.0079C17.3685 18.7239 17.6783 18.7802 17.9374 18.8929C18.1994 19.0056 18.3994 19.1703 18.5374 19.3872C18.6782 19.6041 18.7486 19.8675 18.7486 20.1773C18.7486 20.4871 18.6782 20.7505 18.5374 20.9674C18.3994 21.1843 18.1994 21.3491 17.9374 21.4617C17.6783 21.5744 17.3685 21.6307 17.0079 21.6307H15.3433ZM16.315 20.942H16.9488C17.0727 20.942 17.1826 20.9251 17.2783 20.8913C17.3769 20.8547 17.4614 20.8054 17.5318 20.7435C17.6023 20.6815 17.6558 20.6069 17.6924 20.5195C17.7318 20.4322 17.7515 20.3336 17.7515 20.2238V20.1224C17.7515 20.0153 17.7318 19.9182 17.6924 19.8309C17.6558 19.7435 17.6023 19.6689 17.5318 19.6069C17.4614 19.545 17.3769 19.4971 17.2783 19.4633C17.1826 19.4295 17.0727 19.4126 16.9488 19.4126H16.315V20.942Z" fill="black"/>
<path d="M19.2836 21.6307V18.7239H22.3594V19.4126H20.2596V19.8351H22.0806V20.49H20.2596V20.942H22.3932V21.6307H19.2836Z" fill="black"/>
<path d="M24.0466 21.6307L22.6355 18.7239H23.7128L24.2874 20.021C24.31 20.0689 24.3367 20.1336 24.3677 20.2153C24.3987 20.2942 24.4311 20.3773 24.4649 20.4646C24.4987 20.5491 24.5269 20.6252 24.5494 20.6928H24.579C24.6015 20.6308 24.6283 20.559 24.6593 20.4773C24.6902 20.3956 24.7212 20.3139 24.7522 20.2322C24.786 20.1505 24.817 20.0801 24.8452 20.021L25.424 18.7239H26.4591L25.048 21.6307H24.0466Z" fill="black"/>
<path d="M28.389 21.6814C27.9749 21.6814 27.6299 21.6251 27.3538 21.5124C27.0806 21.3969 26.8764 21.2279 26.7412 21.0054C26.606 20.7829 26.5384 20.5069 26.5384 20.1773C26.5384 19.6957 26.6961 19.3253 27.0116 19.0661C27.3271 18.8042 27.789 18.6732 28.3974 18.6732C28.7326 18.6732 29.027 18.7253 29.2805 18.8295C29.5368 18.9337 29.7368 19.0788 29.8804 19.2647C30.0241 19.4478 30.0959 19.6619 30.0959 19.9069H29.1537C29.1537 19.7999 29.1213 19.7055 29.0565 19.6238C28.9917 19.5421 28.9016 19.4788 28.7861 19.4337C28.6706 19.3858 28.5354 19.3619 28.3805 19.3619C28.1918 19.3619 28.0341 19.3957 27.9073 19.4633C27.7834 19.5281 27.6904 19.6182 27.6285 19.7337C27.5665 19.8463 27.5355 19.9759 27.5355 20.1224V20.228C27.5355 20.3688 27.5665 20.497 27.6285 20.6125C27.6904 20.728 27.782 20.8209 27.9031 20.8913C28.027 20.9589 28.1805 20.9927 28.3636 20.9927C28.5326 20.9927 28.6777 20.9716 28.7988 20.9294C28.9227 20.8843 29.0171 20.8223 29.0819 20.7435C29.1467 20.6646 29.1791 20.5716 29.1791 20.4646H30.1001C30.1001 20.7012 30.0311 20.9125 29.8931 21.0984C29.7551 21.2815 29.5579 21.4251 29.3016 21.5293C29.0481 21.6307 28.7439 21.6814 28.389 21.6814Z" fill="black"/>
<path d="M32.4342 21.6814C32.0426 21.6814 31.7018 21.6223 31.4117 21.504C31.1244 21.3829 30.9019 21.211 30.7441 20.9885C30.5892 20.7632 30.5118 20.4928 30.5118 20.1773C30.5118 19.8618 30.5892 19.5928 30.7441 19.3703C30.9019 19.145 31.1244 18.9732 31.4117 18.8549C31.7018 18.7338 32.0426 18.6732 32.4342 18.6732C32.8341 18.6732 33.1778 18.7338 33.4651 18.8549C33.7524 18.9732 33.9735 19.145 34.1284 19.3703C34.2861 19.5928 34.365 19.8618 34.365 20.1773C34.365 20.4928 34.2861 20.7632 34.1284 20.9885C33.9735 21.211 33.7524 21.3829 33.4651 21.504C33.1778 21.6223 32.8341 21.6814 32.4342 21.6814ZM32.4384 20.9927C32.5792 20.9927 32.706 20.9744 32.8186 20.9378C32.9341 20.9012 33.0327 20.8491 33.1144 20.7815C33.1961 20.7139 33.258 20.6336 33.3003 20.5407C33.3425 20.4449 33.3637 20.3393 33.3637 20.2238V20.1224C33.3637 20.0097 33.3425 19.9069 33.3003 19.814C33.258 19.7182 33.1961 19.6379 33.1144 19.5731C33.0327 19.5055 32.9341 19.4534 32.8186 19.4168C32.706 19.3802 32.5792 19.3619 32.4384 19.3619C32.2975 19.3619 32.1694 19.3802 32.0539 19.4168C31.9412 19.4534 31.8441 19.5055 31.7624 19.5731C31.6807 19.6379 31.6187 19.7182 31.5765 19.814C31.5342 19.9069 31.5131 20.0097 31.5131 20.1224V20.2238C31.5131 20.3393 31.5342 20.4449 31.5765 20.5407C31.6187 20.6336 31.6807 20.7139 31.7624 20.7815C31.8441 20.8491 31.9412 20.9012 32.0539 20.9378C32.1694 20.9744 32.2975 20.9927 32.4384 20.9927Z" fill="black"/>
<path d="M34.9006 21.6307V18.7239H35.754L37.2201 19.9914C37.2399 20.0083 37.2666 20.0337 37.3004 20.0675C37.3342 20.1013 37.3694 20.1365 37.406 20.1731C37.4455 20.2069 37.4807 20.2379 37.5117 20.266H37.5497C37.5497 20.2238 37.5497 20.1675 37.5497 20.097C37.5497 20.0266 37.5497 19.9604 37.5497 19.8985V18.7239H38.4623V21.6307H37.6173L36.2146 20.4139C36.1526 20.3632 36.0864 20.3055 36.016 20.2407C35.9484 20.1759 35.8935 20.1238 35.8512 20.0844H35.8132C35.8132 20.1238 35.8132 20.1815 35.8132 20.2576C35.816 20.3308 35.8174 20.4083 35.8174 20.49V21.6307H34.9006Z" fill="black"/>
<path d="M40.2534 20.8153V20.1224H41.5885V20.8153H40.2534Z" fill="black"/>
<path d="M43.3754 21.6307V18.7239H45.8386C45.9964 18.7239 46.14 18.7549 46.2696 18.8168C46.3992 18.876 46.502 18.9591 46.578 19.0661C46.6569 19.1732 46.6963 19.2971 46.6963 19.4379C46.6963 19.5731 46.6724 19.6858 46.6245 19.7759C46.5766 19.8661 46.5132 19.9379 46.4344 19.9914C46.3555 20.0449 46.2696 20.0858 46.1766 20.1139V20.1308C46.2865 20.1534 46.3851 20.1928 46.4724 20.2491C46.5625 20.3055 46.6329 20.3829 46.6836 20.4815C46.7372 20.5801 46.7639 20.704 46.7639 20.8533C46.7639 21.0139 46.7231 21.1519 46.6414 21.2674C46.5625 21.3829 46.4541 21.473 46.3161 21.5378C46.1809 21.5997 46.0288 21.6307 45.8598 21.6307H43.3754ZM44.3472 20.9801H45.4922C45.5739 20.9801 45.6401 20.9575 45.6908 20.9125C45.7415 20.8646 45.7668 20.7928 45.7668 20.697C45.7668 20.6519 45.7555 20.6097 45.733 20.5702C45.7105 20.5308 45.6781 20.5012 45.6358 20.4815C45.5936 20.459 45.5443 20.4477 45.488 20.4477H44.3472V20.9801ZM44.3472 19.8647H45.4246C45.4809 19.8647 45.5288 19.8534 45.5682 19.8309C45.6105 19.8083 45.6429 19.7773 45.6654 19.7379C45.6879 19.6957 45.6992 19.645 45.6992 19.5858C45.6992 19.5154 45.6724 19.4576 45.6189 19.4126C45.5682 19.3675 45.5049 19.345 45.4288 19.345H44.3472V19.8647Z" fill="black"/>
<path d="M49.0785 21.6814C48.687 21.6814 48.3462 21.6223 48.0561 21.504C47.7688 21.3829 47.5462 21.211 47.3885 20.9885C47.2336 20.7632 47.1561 20.4928 47.1561 20.1773C47.1561 19.8618 47.2336 19.5928 47.3885 19.3703C47.5462 19.145 47.7688 18.9732 48.0561 18.8549C48.3462 18.7338 48.687 18.6732 49.0785 18.6732C49.4785 18.6732 49.8221 18.7338 50.1094 18.8549C50.3967 18.9732 50.6178 19.145 50.7728 19.3703C50.9305 19.5928 51.0094 19.8618 51.0094 20.1773C51.0094 20.4928 50.9305 20.7632 50.7728 20.9885C50.6178 21.211 50.3967 21.3829 50.1094 21.504C49.8221 21.6223 49.4785 21.6814 49.0785 21.6814ZM49.0827 20.9927C49.2236 20.9927 49.3503 20.9744 49.463 20.9378C49.5785 20.9012 49.6771 20.8491 49.7587 20.7815C49.8404 20.7139 49.9024 20.6336 49.9447 20.5407C49.9869 20.4449 50.008 20.3393 50.008 20.2238V20.1224C50.008 20.0097 49.9869 19.9069 49.9447 19.814C49.9024 19.7182 49.8404 19.6379 49.7587 19.5731C49.6771 19.5055 49.5785 19.4534 49.463 19.4168C49.3503 19.3802 49.2236 19.3619 49.0827 19.3619C48.9419 19.3619 48.8137 19.3802 48.6983 19.4168C48.5856 19.4534 48.4884 19.5055 48.4067 19.5731C48.3251 19.6379 48.2631 19.7182 48.2208 19.814C48.1786 19.9069 48.1575 20.0097 48.1575 20.1224V20.2238C48.1575 20.3393 48.1786 20.4449 48.2208 20.5407C48.2631 20.6336 48.3251 20.7139 48.4067 20.7815C48.4884 20.8491 48.5856 20.9012 48.6983 20.9378C48.8137 20.9744 48.9419 20.9927 49.0827 20.9927Z" fill="black"/>
<path d="M53.1885 21.6814C52.6026 21.6814 52.1618 21.5575 51.8661 21.3096C51.5703 21.0618 51.4224 20.6843 51.4224 20.1773C51.4224 19.8449 51.4999 19.5675 51.6548 19.345C51.8097 19.1225 52.0336 18.9549 52.3266 18.8422C52.6195 18.7295 52.973 18.6732 53.3871 18.6732C53.6378 18.6732 53.8715 18.6971 54.0884 18.745C54.3053 18.7901 54.4954 18.8577 54.6588 18.9478C54.825 19.038 54.9532 19.152 55.0433 19.29C55.1362 19.4281 55.1827 19.5886 55.1827 19.7717H54.2405C54.2405 19.7041 54.218 19.645 54.1729 19.5943C54.1307 19.5436 54.0715 19.5013 53.9955 19.4675C53.9194 19.4337 53.8335 19.4084 53.7378 19.3915C53.642 19.3717 53.5392 19.3619 53.4293 19.3619C53.266 19.3619 53.1209 19.3788 52.9941 19.4126C52.8702 19.4464 52.7646 19.4957 52.6773 19.5605C52.5899 19.6252 52.5252 19.7055 52.4829 19.8013C52.4407 19.8942 52.4195 20.0027 52.4195 20.1266V20.228C52.4195 20.4026 52.4547 20.5477 52.5252 20.6632C52.5956 20.7759 52.7012 20.8589 52.842 20.9125C52.9829 20.966 53.1561 20.9927 53.3617 20.9927C53.5279 20.9927 53.6772 20.9787 53.8096 20.9505C53.942 20.9195 54.0462 20.8744 54.1222 20.8153C54.1983 20.7561 54.2363 20.6857 54.2363 20.604V20.5829H53.3026V20.0083H55.1869V21.6307H54.6335L54.5447 21.3012C54.4321 21.3857 54.3067 21.4575 54.1687 21.5166C54.0335 21.573 53.8842 21.6138 53.7208 21.6392C53.5575 21.6673 53.38 21.6814 53.1885 21.6814Z" fill="black"/>
<path d="M57.6194 21.6814C57.2279 21.6814 56.887 21.6223 56.5969 21.504C56.3096 21.3829 56.0871 21.211 55.9294 20.9885C55.7744 20.7632 55.697 20.4928 55.697 20.1773C55.697 19.8618 55.7744 19.5928 55.9294 19.3703C56.0871 19.145 56.3096 18.9732 56.5969 18.8549C56.887 18.7338 57.2279 18.6732 57.6194 18.6732C58.0193 18.6732 58.363 18.7338 58.6503 18.8549C58.9376 18.9732 59.1587 19.145 59.3136 19.3703C59.4714 19.5928 59.5502 19.8618 59.5502 20.1773C59.5502 20.4928 59.4714 20.7632 59.3136 20.9885C59.1587 21.211 58.9376 21.3829 58.6503 21.504C58.363 21.6223 58.0193 21.6814 57.6194 21.6814ZM57.6236 20.9927C57.7644 20.9927 57.8912 20.9744 58.0039 20.9378C58.1193 20.9012 58.2179 20.8491 58.2996 20.7815C58.3813 20.7139 58.4433 20.6336 58.4855 20.5407C58.5278 20.4449 58.5489 20.3393 58.5489 20.2238V20.1224C58.5489 20.0097 58.5278 19.9069 58.4855 19.814C58.4433 19.7182 58.3813 19.6379 58.2996 19.5731C58.2179 19.5055 58.1193 19.4534 58.0039 19.4168C57.8912 19.3802 57.7644 19.3619 57.6236 19.3619C57.4828 19.3619 57.3546 19.3802 57.2391 19.4168C57.1265 19.4534 57.0293 19.5055 56.9476 19.5731C56.8659 19.6379 56.8039 19.7182 56.7617 19.814C56.7194 19.9069 56.6983 20.0097 56.6983 20.1224V20.2238C56.6983 20.3393 56.7194 20.4449 56.7617 20.5407C56.8039 20.6336 56.8659 20.7139 56.9476 20.7815C57.0293 20.8491 57.1265 20.9012 57.2391 20.9378C57.3546 20.9744 57.4828 20.9927 57.6236 20.9927Z" fill="black"/>
<path d="M60.976 21.6307V19.4802H59.7339V18.7239H63.19V19.4802H61.9478V21.6307H60.976Z" fill="black"/>
<path d="M62.7528 21.6307L64.1682 18.7239H65.2414L66.6568 21.6307H65.609L65.4188 21.2167H63.9443L63.7542 21.6307H62.7528ZM64.2485 20.528H65.1146L64.8865 19.9999C64.878 19.9745 64.8654 19.9407 64.8485 19.8985C64.8316 19.8562 64.8133 19.8097 64.7935 19.759C64.7766 19.7083 64.7597 19.6604 64.7428 19.6154C64.7259 19.5675 64.7119 19.5267 64.7006 19.4929H64.671C64.6513 19.5407 64.6288 19.5971 64.6034 19.6619C64.5809 19.7266 64.5583 19.79 64.5358 19.852C64.5133 19.9111 64.4936 19.9604 64.4767 19.9999L64.2485 20.528Z" fill="black"/>
<defs>
<linearGradient id="paint0_linear_2347_64104" x1="41" y1="1" x2="41" y2="21.1732" gradientUnits="userSpaceOnUse">
<stop stop-color="#FFC353"/>
<stop offset="1" stop-color="#FF9B53"/>
</linearGradient>
<linearGradient id="paint1_linear_2347_64104" x1="41" y1="1" x2="41" y2="21.1732" gradientUnits="userSpaceOnUse">
<stop stop-color="#FFC353"/>
<stop offset="1" stop-color="#FF9B53"/>
</linearGradient>
<linearGradient id="paint2_linear_2347_64104" x1="41" y1="1" x2="41" y2="21.1732" gradientUnits="userSpaceOnUse">
<stop stop-color="#FFC353"/>
<stop offset="1" stop-color="#FF9B53"/>
</linearGradient>
<linearGradient id="paint3_linear_2347_64104" x1="41" y1="1" x2="41" y2="21.1732" gradientUnits="userSpaceOnUse">
<stop stop-color="#FFC353"/>
<stop offset="1" stop-color="#FF9B53"/>
</linearGradient>
<linearGradient id="paint4_linear_2347_64104" x1="41" y1="1" x2="41" y2="21.1732" gradientUnits="userSpaceOnUse">
<stop stop-color="#FFC353"/>
<stop offset="1" stop-color="#FF9B53"/>
</linearGradient>
<linearGradient id="paint5_linear_2347_64104" x1="41" y1="1" x2="41" y2="21.1732" gradientUnits="userSpaceOnUse">
<stop stop-color="#FFC353"/>
<stop offset="1" stop-color="#FF9B53"/>
</linearGradient>
<linearGradient id="paint6_linear_2347_64104" x1="41" y1="1" x2="41" y2="21.1732" gradientUnits="userSpaceOnUse">
<stop stop-color="#FFC353"/>
<stop offset="1" stop-color="#FF9B53"/>
</linearGradient>
<linearGradient id="paint7_linear_2347_64104" x1="41" y1="1" x2="41" y2="21.1732" gradientUnits="userSpaceOnUse">
<stop stop-color="#FFC353"/>
<stop offset="1" stop-color="#FF9B53"/>
</linearGradient>
<linearGradient id="paint8_linear_2347_64104" x1="41" y1="1" x2="41" y2="21.1732" gradientUnits="userSpaceOnUse">
<stop stop-color="#FFC353"/>
<stop offset="1" stop-color="#FF9B53"/>
</linearGradient>
</defs>
</svg>
