<svg width="142" height="18" viewBox="0 0 142 18" fill="none" xmlns="http://www.w3.org/2000/svg">
<path d="M43.1911 0.0361328C38.2855 0.0361328 34.3088 4.01279 34.3088 8.91837C34.3088 13.824 38.2855 17.8006 43.1911 17.8006C48.0967 17.8006 52.0733 13.824 52.0733 8.91837C52.0733 4.01279 48.0967 0.0361328 43.1911 0.0361328ZM43.1911 14.057C40.6435 14.057 38.5786 11.7569 38.5786 8.91941C38.5786 6.0819 40.6435 3.78186 43.1911 3.78186C45.7386 3.78186 47.8036 6.0819 47.8036 8.91941C47.8036 11.7569 45.7386 14.057 43.1911 14.057Z" fill="black"/>
<path d="M0 17.8701V0H7.03268C9.98618 0 11.7788 0.742517 13.3146 2.22755C14.8493 3.71258 16.0765 6.39372 16.0682 8.73519C16.0589 11.3542 14.812 13.9287 13.2017 15.5059C11.5913 17.0831 9.74385 17.8711 6.75721 17.8711H0V17.8701ZM6.83281 13.8158C9.66929 13.8158 11.5044 12.1723 11.5044 8.88535C11.5044 7.25015 10.9006 6.03644 10.242 5.24422C9.5823 4.45199 8.43383 4.05536 7.08239 4.05536H4.4696V13.8168H6.83178L6.83281 13.8158Z" fill="black"/>
<path d="M29.152 17.7622L28.135 14.3634H22.1566L21.1645 17.7622H16.377L22.5283 0.0505371H27.9362L34.0886 17.7632H29.152V17.7622ZM25.1577 4.46629L23.3216 10.569H26.9679L25.1567 4.46629H25.1577Z" fill="black"/>
<path d="M79.7206 0.0217285C74.815 0.0217285 70.8384 3.99839 70.8384 8.90397C70.8384 13.8096 74.815 17.7862 79.7206 17.7862C84.6262 17.7862 88.6029 13.8096 88.6029 8.90397C88.6029 3.99839 84.6272 0.0217285 79.7206 0.0217285ZM79.7206 14.0426C77.1731 14.0426 75.1081 11.7425 75.1081 8.90501C75.1081 6.06749 77.1731 3.76745 79.7206 3.76745C82.2682 3.76745 84.3331 6.06749 84.3331 8.90501C84.3331 11.7425 82.2682 14.0426 79.7206 14.0426Z" fill="black"/>
<path d="M132.747 0.0217285C127.841 0.0217285 123.864 3.99839 123.864 8.90397C123.864 13.8096 127.841 17.7862 132.747 17.7862C137.652 17.7862 141.629 13.8096 141.629 8.90397C141.629 3.99839 137.652 0.0217285 132.747 0.0217285ZM132.747 14.0426C130.199 14.0426 128.134 11.7425 128.134 8.90501C128.134 6.06749 130.199 3.76745 132.747 3.76745C135.294 3.76745 137.359 6.06749 137.359 8.90501C137.359 11.7425 135.294 14.0426 132.747 14.0426Z" fill="black"/>
<path d="M60.3304 17.7127V4.04397H55.2197V0H70.2037V4.04397H65.093V17.7127H60.3304Z" fill="black"/>
<path d="M101.982 17.7127L97.7398 10.0473L95.9782 12.0066V17.7127H91.2156V0H95.9782V6.42583L101.361 0H106.546L100.915 6.69819L107.192 17.7127H101.982Z" fill="black"/>
<path d="M113.542 17.7127V10.8416L107.588 0H112.749L115.949 6.77275L119.198 0H124.21L118.331 10.8405V17.7127H113.543H113.542Z" fill="black"/>
</svg>
