<svg width="142" height="10" viewBox="0 0 142 10" fill="none" xmlns="http://www.w3.org/2000/svg">
<path d="M0.867432 0.314876H4.50837C7.2852 0.314876 9.17344 2.06757 9.17344 4.63468C9.17344 7.20141 7.28557 8.9541 4.50837 8.9541H0.867432V0.3145V0.314876ZM4.4342 7.8799C6.56906 7.8799 7.93921 6.57149 7.93921 4.6343C7.93921 2.69674 6.56943 1.38871 4.43382 1.38871H2.10204V7.8799H4.43457H4.4342ZM19.8169 7.67959V8.7538H13.5478V0.114944H19.6444V1.18878H14.7817V3.84248H19.1135V4.89109H14.7817V7.67996H19.8169V7.67959ZM31.6479 0.315253L27.8593 8.9541H26.6375L22.8366 0.315253H24.1691L27.2791 7.41151L30.4136 0.315253H31.6479ZM34.4258 4.6343C34.4258 2.08037 36.3754 0.216605 39.0043 0.216605C40.3368 0.216605 41.4972 0.672946 42.2872 1.56153L41.4848 2.33904C40.8184 1.6357 40.0043 1.31491 39.0536 1.31491C37.104 1.31491 35.66 2.72159 35.66 4.6343C35.66 6.5474 37.104 7.95407 39.0536 7.95407C40.0043 7.95407 40.8187 7.62123 41.4848 6.91751L42.2872 7.69502C41.4976 8.58361 40.3372 9.05238 38.9922 9.05238C36.3754 9.05238 34.4258 7.18936 34.4258 4.6343ZM45.6337 4.6343C45.6337 2.10447 47.5833 0.216605 50.237 0.216605C52.8655 0.216605 54.8154 2.09242 54.8154 4.6343C54.8154 7.17656 52.8655 9.05238 50.237 9.05238C47.5833 9.05238 45.6337 7.16451 45.6337 4.6343ZM53.5812 4.6343C53.5812 2.72159 52.1497 1.31491 50.237 1.31491C48.2994 1.31491 46.8679 2.72159 46.8679 4.6343C46.8679 6.5474 48.2994 7.95407 50.237 7.95407C52.1501 7.95407 53.5812 6.5474 53.5812 4.6343ZM66.6024 0.315253V8.9541H65.5903L60.4067 2.51224V8.9541H59.1729V0.315253H60.185L65.3681 6.75712V0.315253H66.6024ZM81.5204 5.26196C81.8002 5.62417 81.9406 6.06018 81.9406 6.57036C81.9406 7.32792 81.6274 7.91454 81.002 8.32946C80.3766 8.74514 79.4714 8.95335 78.2861 8.95335H73.4223V0.311487H78.0395C79.1917 0.311487 80.0618 0.51782 80.6507 0.928979C81.2388 1.34089 81.5329 1.8876 81.5329 2.57098C81.5329 2.97423 81.4323 3.33644 81.2305 3.65761C81.0287 3.97878 80.7301 4.23745 80.3355 4.4355C80.8457 4.62451 81.2411 4.90012 81.5204 5.26158V5.26196ZM76.2868 2.34846V3.63239H77.6449C78.2782 3.63239 78.5953 3.4189 78.5953 2.9908C78.5953 2.56307 78.2782 2.34883 77.6449 2.34883H76.2868V2.34846ZM79.0023 6.2379C79.0023 5.78494 78.6811 5.55828 78.0395 5.55828H76.2868V6.91638H78.0395C78.6811 6.91638 79.0023 6.6901 79.0023 6.23752V6.2379ZM87.2119 8.57118C86.4713 8.1845 85.8911 7.64721 85.4712 6.95968C85.0518 6.27291 84.8417 5.49691 84.8417 4.6328C84.8417 3.76906 85.0518 2.99343 85.4712 2.30591C85.8911 1.61876 86.4713 1.08185 87.2119 0.69516C87.9529 0.308475 88.788 0.114944 89.718 0.114944C90.648 0.114944 91.4835 0.308475 92.2237 0.694784C92.9647 1.08185 93.5446 1.61876 93.9644 2.30629C94.3842 2.99343 94.5943 3.76906 94.5943 4.63317C94.5943 5.49691 94.3842 6.27291 93.9644 6.96006C93.5446 7.64721 92.9647 8.1845 92.2237 8.57118C91.4831 8.95749 90.648 9.15102 89.718 9.15102C88.788 9.15102 87.9529 8.95787 87.2119 8.57118ZM90.6996 6.52782C90.9918 6.35085 91.2241 6.10009 91.3973 5.77478C91.5701 5.44984 91.6567 5.06956 91.6567 4.6328C91.6567 4.19679 91.5701 3.81613 91.3973 3.49119C91.2244 3.16625 90.9918 2.91512 90.6996 2.73815C90.407 2.56119 90.0802 2.47271 89.718 2.47271C89.3558 2.47271 89.0286 2.56119 88.7364 2.73778C88.4442 2.91474 88.2119 3.16625 88.0387 3.49081C87.8659 3.81613 87.7793 4.19679 87.7793 4.6328C87.7793 5.06956 87.8659 5.44984 88.0387 5.77515C88.2115 6.10009 88.4442 6.35123 88.7364 6.52819C89.0286 6.70516 89.3558 6.79326 89.718 6.79326C90.0802 6.79326 90.407 6.70516 90.6996 6.52782ZM103.593 4.3986H106.124V8.05272C105.614 8.40665 105.021 8.67812 104.346 8.86751C103.671 9.05652 103.008 9.1514 102.358 9.1514C101.436 9.1514 100.609 8.96051 99.8769 8.57721C99.1445 8.19429 98.5703 7.66001 98.155 6.97248C97.7394 6.28534 97.5312 5.50594 97.5312 4.63317C97.5312 3.76115 97.739 2.98138 98.155 2.29424C98.5703 1.60709 99.1506 1.07206 99.8957 0.689136C100.64 0.306969 101.482 0.115321 102.42 0.115321C103.268 0.115321 104.027 0.257269 104.697 0.541164C105.368 0.825436 105.926 1.23885 106.37 1.78142L104.506 3.42379C103.963 2.78974 103.317 2.47308 102.568 2.47308C101.926 2.47308 101.416 2.66661 101.037 3.05292C100.659 3.43998 100.469 3.96673 100.469 4.63317C100.469 5.2838 100.657 5.80603 101.032 6.20137C101.406 6.59672 101.906 6.79401 102.531 6.79401C102.902 6.79401 103.256 6.72398 103.593 6.58429V4.3986ZM111.617 8.57118C110.876 8.1845 110.297 7.64721 109.877 6.95968C109.457 6.27291 109.247 5.49691 109.247 4.6328C109.247 3.76906 109.457 2.99343 109.877 2.30591C110.297 1.61876 110.876 1.08185 111.617 0.69516C112.358 0.308475 113.193 0.114944 114.123 0.114944C115.053 0.114944 115.889 0.308475 116.629 0.694784C117.37 1.08185 117.95 1.61876 118.37 2.30629C118.789 2.99343 118.999 3.76906 118.999 4.63317C118.999 5.49691 118.789 6.27291 118.37 6.96006C117.95 7.64721 117.37 8.1845 116.629 8.57118C115.888 8.95749 115.053 9.15102 114.123 9.15102C113.193 9.15102 112.358 8.95787 111.617 8.57118ZM115.105 6.52782C115.397 6.35085 115.629 6.10009 115.802 5.77478C115.975 5.44984 116.062 5.06956 116.062 4.6328C116.062 4.19679 115.975 3.81613 115.802 3.49119C115.63 3.16625 115.397 2.91512 115.105 2.73815C114.812 2.56119 114.485 2.47271 114.123 2.47271C113.761 2.47271 113.434 2.56119 113.142 2.73778C112.849 2.91474 112.617 3.16625 112.444 3.49081C112.271 3.81613 112.185 4.19679 112.185 4.6328C112.185 5.06956 112.271 5.44984 112.444 5.77515C112.617 6.10009 112.849 6.35123 113.142 6.52819C113.434 6.70516 113.761 6.79326 114.123 6.79326C114.485 6.79326 114.813 6.70516 115.105 6.52782ZM124.036 2.57135H121.505V0.31224H129.48V2.57135H126.949V8.95335H124.036V2.57173H124.036V2.57135ZM137.912 7.44765H134.627L134.047 8.95373H131.085L134.862 0.311864H137.726L141.504 8.95373H138.492L137.912 7.44765ZM137.109 5.34894L136.269 3.17642L135.43 5.34894H137.109Z" fill="black"/>
</svg>
