<svg width="99" height="11" viewBox="0 0 99 11" fill="none" xmlns="http://www.w3.org/2000/svg">
<path d="M0.284668 10.7575V0.257501H6.86967V2.0875H2.11467V4.2175H5.88717V6.0475H2.11467V8.9275H6.86967V10.7575H0.284668Z" fill="black"/>
<path d="M17.2171 0.257501V2.0875H14.0071V10.7575H12.1771V2.0875H8.96709V0.257501H17.2171Z" fill="black"/>
<path d="M25.6453 0.257501H27.4753V10.7575H25.6453V6.0475H21.2953V10.7575H19.4653V0.257501H21.2953V4.2175H25.6453V0.257501Z" fill="black"/>
<path d="M37.9798 0.257501V2.0875H34.7698V10.7575H32.9398V2.0875H29.7298V0.257501H37.9798Z" fill="black"/>
<path d="M40.228 10.7575V0.257501H42.058V8.9275H46.4305V10.7575H40.228Z" fill="black"/>
<path d="M50.9262 10.7575L47.1162 0.257501H49.0587L52.0962 8.62L55.1412 0.257501H57.0762L53.2662 10.7575H50.9262Z" fill="black"/>
<path d="M63.389 10.7575V9.1225C63.714 8.8775 64.099 8.575 64.544 8.215C64.989 7.85 65.4465 7.4575 65.9165 7.0375C66.3865 6.6125 66.8215 6.1875 67.2215 5.7625C67.6215 5.3375 67.9465 4.9325 68.1965 4.5475C68.4515 4.1625 68.579 3.8325 68.579 3.5575C68.579 3.2525 68.504 2.975 68.354 2.725C68.204 2.47 68.004 2.2675 67.754 2.1175C67.509 1.9675 67.234 1.8925 66.929 1.8925C66.624 1.8925 66.3465 1.9675 66.0965 2.1175C65.8465 2.2675 65.6465 2.47 65.4965 2.725C65.3465 2.975 65.2715 3.2525 65.2715 3.5575H63.4415C63.4415 2.8975 63.6015 2.305 63.9215 1.78C64.2415 1.25 64.664 0.832501 65.189 0.527501C65.719 0.217501 66.299 0.0625004 66.929 0.0625004C67.569 0.0625004 68.1515 0.220001 68.6765 0.535001C69.2015 0.845001 69.6215 1.265 69.9365 1.795C70.2515 2.325 70.409 2.9125 70.409 3.5575C70.409 3.8975 70.3465 4.24 70.2215 4.585C70.0965 4.93 69.9215 5.2775 69.6965 5.6275C69.4715 5.9775 69.2065 6.3325 68.9015 6.6925C68.5965 7.0475 68.259 7.4125 67.889 7.7875C67.524 8.1575 67.139 8.5375 66.734 8.9275H70.4615V10.7575H63.389Z" fill="black"/>
<path d="M76.2649 10.9525C75.6549 10.9525 75.0999 10.8125 74.5999 10.5325C74.0999 10.2475 73.6674 9.855 73.3024 9.355C72.9424 8.855 72.6649 8.2775 72.4699 7.6225C72.2749 6.9625 72.1774 6.2575 72.1774 5.5075C72.1774 4.7575 72.2749 4.055 72.4699 3.4C72.6649 2.74 72.9424 2.16 73.3024 1.66C73.6674 1.16 74.0999 0.770001 74.5999 0.490001C75.0999 0.205001 75.6549 0.0625004 76.2649 0.0625004C76.8749 0.0625004 77.4299 0.205001 77.9299 0.490001C78.4299 0.770001 78.8574 1.16 79.2124 1.66C79.5724 2.16 79.8499 2.74 80.0449 3.4C80.2449 4.055 80.3449 4.7575 80.3449 5.5075C80.3449 6.2575 80.2449 6.9625 80.0449 7.6225C79.8499 8.2775 79.5724 8.855 79.2124 9.355C78.8574 9.855 78.4299 10.2475 77.9299 10.5325C77.4299 10.8125 76.8749 10.9525 76.2649 10.9525ZM76.2649 9.1225C76.7999 9.1225 77.2424 8.9525 77.5924 8.6125C77.9424 8.2725 78.2024 7.8275 78.3724 7.2775C78.5424 6.7275 78.6274 6.1375 78.6274 5.5075C78.6274 4.8425 78.5374 4.2375 78.3574 3.6925C78.1774 3.1425 77.9124 2.705 77.5624 2.38C77.2124 2.055 76.7799 1.8925 76.2649 1.8925C75.8599 1.8925 75.5074 1.9925 75.2074 2.1925C74.9124 2.3875 74.6674 2.655 74.4724 2.995C74.2774 3.335 74.1324 3.7225 74.0374 4.1575C73.9424 4.5875 73.8949 5.0375 73.8949 5.5075C73.8949 6.1325 73.9799 6.7225 74.1499 7.2775C74.3249 7.8275 74.5874 8.2725 74.9374 8.6125C75.2924 8.9525 75.7349 9.1225 76.2649 9.1225Z" fill="black"/>
<path d="M82.1448 10.7575V9.1225C82.4698 8.8775 82.8548 8.575 83.2998 8.215C83.7448 7.85 84.2023 7.4575 84.6723 7.0375C85.1423 6.6125 85.5773 6.1875 85.9773 5.7625C86.3773 5.3375 86.7023 4.9325 86.9523 4.5475C87.2073 4.1625 87.3348 3.8325 87.3348 3.5575C87.3348 3.2525 87.2598 2.975 87.1098 2.725C86.9598 2.47 86.7598 2.2675 86.5098 2.1175C86.2648 1.9675 85.9898 1.8925 85.6848 1.8925C85.3798 1.8925 85.1023 1.9675 84.8523 2.1175C84.6023 2.2675 84.4023 2.47 84.2523 2.725C84.1023 2.975 84.0273 3.2525 84.0273 3.5575H82.1973C82.1973 2.8975 82.3573 2.305 82.6773 1.78C82.9973 1.25 83.4198 0.832501 83.9448 0.527501C84.4748 0.217501 85.0548 0.0625004 85.6848 0.0625004C86.3248 0.0625004 86.9073 0.220001 87.4323 0.535001C87.9573 0.845001 88.3773 1.265 88.6923 1.795C89.0073 2.325 89.1648 2.9125 89.1648 3.5575C89.1648 3.8975 89.1023 4.24 88.9773 4.585C88.8523 4.93 88.6773 5.2775 88.4523 5.6275C88.2273 5.9775 87.9623 6.3325 87.6573 6.6925C87.3523 7.0475 87.0148 7.4125 86.6448 7.7875C86.2798 8.1575 85.8948 8.5375 85.4898 8.9275H89.2173V10.7575H82.1448Z" fill="black"/>
<path d="M94.6967 10.9525C94.0617 10.9525 93.4892 10.8025 92.9792 10.5025C92.4692 10.2025 92.0642 9.8 91.7642 9.295C91.4642 8.785 91.3142 8.22 91.3142 7.6H93.1442C93.1442 7.88 93.2092 8.135 93.3392 8.365C93.4742 8.595 93.6592 8.78 93.8942 8.92C94.1292 9.055 94.3967 9.1225 94.6967 9.1225C94.9717 9.1225 95.2267 9.055 95.4617 8.92C95.7017 8.78 95.8942 8.595 96.0392 8.365C96.1842 8.135 96.2567 7.88 96.2567 7.6C96.2567 7.235 96.1592 6.9325 95.9642 6.6925C95.7692 6.4475 95.4967 6.265 95.1467 6.145C94.8017 6.025 94.3992 5.965 93.9392 5.965V4.555C94.5592 4.555 95.0492 4.4375 95.4092 4.2025C95.7742 3.9675 95.9567 3.6225 95.9567 3.1675C95.9567 2.9325 95.8967 2.7175 95.7767 2.5225C95.6567 2.3275 95.4967 2.1725 95.2967 2.0575C95.1017 1.9375 94.8867 1.8775 94.6517 1.8775C94.4117 1.8775 94.1792 1.9375 93.9542 2.0575C93.7292 2.1725 93.5442 2.3275 93.3992 2.5225C93.2592 2.7175 93.1892 2.9325 93.1892 3.1675H91.3592C91.3592 2.7375 91.4467 2.335 91.6217 1.96C91.7967 1.58 92.0367 1.2475 92.3417 0.9625C92.6517 0.677501 93.0017 0.455001 93.3917 0.295001C93.7867 0.130001 94.1992 0.0475006 94.6292 0.0475006C95.1942 0.0475006 95.7167 0.187501 96.1967 0.467501C96.6767 0.747501 97.0617 1.1225 97.3517 1.5925C97.6417 2.0625 97.7867 2.5875 97.7867 3.1675C97.7867 3.5725 97.6917 3.97 97.5017 4.36C97.3117 4.75 97.0417 5.025 96.6917 5.185C96.9967 5.295 97.2517 5.48 97.4567 5.74C97.6617 5.995 97.8167 6.2875 97.9217 6.6175C98.0317 6.9425 98.0867 7.27 98.0867 7.6C98.0867 8.215 97.9317 8.7775 97.6217 9.2875C97.3117 9.7925 96.8992 10.1975 96.3842 10.5025C95.8742 10.8025 95.3117 10.9525 94.6967 10.9525Z" fill="black"/>
</svg>
