<svg width="76" height="17" viewBox="0 0 76 17" fill="none" xmlns="http://www.w3.org/2000/svg">
<path d="M0.269181 15.8608V1.56645H2.85301L8.95833 10.0056C9.02779 10.0889 9.11114 10.207 9.20838 10.3598C9.30562 10.4987 9.39592 10.6376 9.47927 10.7765C9.56262 10.9155 9.61818 11.0266 9.64596 11.1099H9.75015C9.75015 10.9155 9.75015 10.7279 9.75015 10.5473C9.75015 10.3667 9.75015 10.1861 9.75015 10.0056V1.56645H12.3548V15.8608H9.79183L3.66566 7.35922C3.55453 7.19252 3.42256 6.9911 3.26975 6.75494C3.13084 6.50489 3.0336 6.33125 2.97803 6.23401H2.87384C2.87384 6.4146 2.87384 6.60213 2.87384 6.79662C2.87384 6.97721 2.87384 7.16474 2.87384 7.35922V15.8608H0.269181ZM14.8849 3.2126V0.795474H17.4271V3.2126H14.8849ZM14.8849 15.8608V4.90042H17.4271V15.8608H14.8849ZM19.7182 15.8608V4.90042H21.8436L22.052 6.35903H22.1978C22.434 6.02564 22.7049 5.73391 23.0105 5.48387C23.3161 5.21993 23.6634 5.0185 24.0523 4.87958C24.4552 4.72678 24.8928 4.65037 25.3651 4.65037C26.0041 4.65037 26.5737 4.78234 27.0738 5.04628C27.5739 5.31022 27.9628 5.74781 28.2406 6.35903H28.3865C28.6227 6.02564 28.9005 5.73391 29.22 5.48387C29.5395 5.21993 29.9076 5.0185 30.3244 4.87958C30.7411 4.72678 31.1926 4.65037 31.6788 4.65037C32.3317 4.65037 32.9082 4.76845 33.4083 5.00461C33.9084 5.24076 34.3043 5.62973 34.596 6.1715C34.8877 6.71327 35.0336 7.43563 35.0336 8.33858V15.8608H32.4915V8.85951C32.4915 8.48444 32.4498 8.17188 32.3664 7.92183C32.2831 7.65789 32.165 7.45646 32.0122 7.31755C31.8733 7.16474 31.6927 7.05361 31.4704 6.98415C31.2621 6.91469 31.0328 6.87996 30.7828 6.87996C30.3799 6.87996 30.0188 6.9911 29.6993 7.21336C29.3798 7.43563 29.1228 7.74124 28.9283 8.1302C28.7477 8.51917 28.6574 8.97064 28.6574 9.48463V15.8608H26.1152V8.85951C26.1152 8.48444 26.0736 8.17188 25.9902 7.92183C25.9069 7.65789 25.7888 7.45646 25.636 7.31755C25.4971 7.16474 25.3165 7.05361 25.0942 6.98415C24.8858 6.91469 24.6566 6.87996 24.4066 6.87996C24.0037 6.87996 23.6356 6.9911 23.3022 7.21336C22.9827 7.43563 22.7257 7.74124 22.5312 8.1302C22.3506 8.51917 22.2603 8.97064 22.2603 9.48463V15.8608H19.7182ZM37.2492 3.2126V0.795474H39.7913V3.2126H37.2492ZM37.2492 15.8608V4.90042H39.7913V15.8608H37.2492ZM52.7344 16.1109C51.2202 16.1109 49.9144 15.84 48.817 15.2982C47.7196 14.7565 46.8791 13.9369 46.2957 12.8394C45.7122 11.742 45.4205 10.3667 45.4205 8.71365C45.4205 7.03277 45.7122 5.65056 46.2957 4.56702C46.8791 3.46959 47.7196 2.65694 48.817 2.12906C49.9144 1.58729 51.2202 1.31641 52.7344 1.31641C54.2764 1.31641 55.5891 1.58729 56.6726 2.12906C57.7701 2.65694 58.6105 3.46959 59.194 4.56702C59.7774 5.65056 60.0691 7.03277 60.0691 8.71365C60.0691 10.3667 59.7774 11.742 59.194 12.8394C58.6105 13.9369 57.7701 14.7565 56.6726 15.2982C55.5891 15.84 54.2764 16.1109 52.7344 16.1109ZM52.7344 13.5687C53.4151 13.5687 54.0124 13.4715 54.5264 13.277C55.0404 13.0825 55.471 12.7908 55.8183 12.4018C56.1656 12.0129 56.4295 11.5406 56.6101 10.9849C56.7907 10.4154 56.881 9.7694 56.881 9.04704V8.40109C56.881 7.66484 56.7907 7.01193 56.6101 6.44238C56.4295 5.87283 56.1656 5.40052 55.8183 5.02545C55.471 4.63648 55.0404 4.34476 54.5264 4.15028C54.0124 3.9558 53.4151 3.85856 52.7344 3.85856C52.0676 3.85856 51.4772 3.9558 50.9632 4.15028C50.4492 4.34476 50.0186 4.63648 49.6713 5.02545C49.324 5.40052 49.0601 5.87283 48.8795 6.44238C48.7128 7.01193 48.6295 7.66484 48.6295 8.40109V9.04704C48.6295 9.7694 48.7128 10.4154 48.8795 10.9849C49.0601 11.5406 49.324 12.0129 49.6713 12.4018C50.0186 12.7908 50.4492 13.0825 50.9632 13.277C51.4772 13.4715 52.0676 13.5687 52.7344 13.5687ZM68.6743 16.1109C66.4239 16.1109 64.6874 15.5136 63.465 14.3189C62.2564 13.1103 61.6521 11.2419 61.6521 8.71365C61.6521 7.03277 61.9438 5.65056 62.5273 4.56702C63.1107 3.46959 63.9581 2.65694 65.0694 2.12906C66.1808 1.58729 67.5143 1.31641 69.0702 1.31641C70.0009 1.31641 70.8761 1.42059 71.6957 1.62897C72.5153 1.83734 73.2376 2.15684 73.8628 2.58748C74.5018 3.01812 74.9949 3.55989 75.3422 4.21279C75.7034 4.8518 75.884 5.61584 75.884 6.50489H72.7376C72.7376 6.07426 72.6403 5.69224 72.4458 5.35884C72.2652 5.02545 72.0082 4.74762 71.6749 4.52535C71.3415 4.30309 70.9594 4.13639 70.5288 4.02526C70.0982 3.91412 69.6467 3.85856 69.1744 3.85856C68.452 3.85856 67.82 3.9558 67.2782 4.15028C66.7364 4.33087 66.2849 4.61565 65.9238 5.00461C65.5765 5.37968 65.3125 5.85199 65.1319 6.42154C64.9513 6.9911 64.8611 7.65094 64.8611 8.40109V9.02621C64.8611 10.0681 65.0139 10.9224 65.3195 11.5892C65.6251 12.256 66.0835 12.7561 66.6947 13.0895C67.306 13.409 68.0631 13.5687 68.966 13.5687C69.7161 13.5687 70.376 13.4576 70.9455 13.2353C71.529 12.9992 71.9805 12.6658 72.3 12.2352C72.6334 11.8045 72.8001 11.2766 72.8001 10.6515V10.5057H68.5284V8.1302H75.884V15.8608H73.8419L73.571 14.3189C73.1543 14.7217 72.7028 15.0551 72.2166 15.3191C71.7443 15.583 71.2164 15.7775 70.633 15.9025C70.0495 16.0414 69.3966 16.1109 68.6743 16.1109Z" fill="url(#paint0_linear_2098_52511)"/>
<defs>
<linearGradient id="paint0_linear_2098_52511" x1="8.24605" y1="-30.41" x2="47.1444" y2="21.8216" gradientUnits="userSpaceOnUse">
<stop stop-color="#4368EA"/>
<stop offset="1" stop-color="#C490DD"/>
</linearGradient>
</defs>
</svg>
