<svg width="110" height="7" viewBox="0 0 110 7" fill="none" xmlns="http://www.w3.org/2000/svg">
<path d="M0.69458 6.88999V2.11346H2.38335V3.17769C2.45996 2.96118 2.51992 2.81295 2.56322 2.73301C2.64316 2.58312 2.74309 2.46154 2.863 2.36828C3.17611 2.12512 3.67075 2.00354 4.34692 2.00354C5.1097 2.00354 5.63599 2.18008 5.92578 2.53316C6.13895 2.79297 6.24554 3.25263 6.24554 3.91215C6.24554 3.96545 6.24221 4.06871 6.23555 4.22193H4.58675C4.59008 4.18862 4.59175 4.16364 4.59175 4.14698C4.59175 3.85386 4.50514 3.64901 4.33193 3.53243C4.19204 3.43583 3.9672 3.38754 3.65743 3.38754C3.16112 3.38754 2.8197 3.52743 2.63317 3.80723C2.51326 3.9871 2.4533 4.28189 2.4533 4.69159V6.88999H0.69458Z" fill="black"/>
<path d="M6.52034 6.88999L10.3576 0.0699491H13.1405L16.8728 6.88999H14.6045L13.925 5.67088H9.52316L8.86864 6.88999H6.52034ZM10.2726 4.25191H13.2055L11.7216 1.53388L10.2726 4.25191Z" fill="black"/>
<path d="M17.0127 6.88999L20.8499 0.0699491H23.6329L27.3652 6.88999H25.0968L24.4173 5.67088H20.0155L19.361 6.88999H17.0127ZM20.765 4.25191H23.6979L22.2139 1.53388L20.765 4.25191Z" fill="black"/>
<path d="M30.1681 6.88999L26.5308 0.0699491H28.8191L31.5122 5.2212L34.2652 0.0699491H36.5785L32.8012 6.88999H30.1681Z" fill="black"/>
<path d="M37.6027 0.0699491H45.1622V1.61882H39.6512V2.78298H44.8525V4.13199H39.6512V5.34112H45.2322V6.88999H37.6027V0.0699491Z" fill="black"/>
<path d="M49.3242 6.88999V0.0699491H55.4897C56.2159 0.0699491 56.7388 0.151556 57.0586 0.314771C57.5815 0.581244 57.843 1.0992 57.843 1.86864C57.843 2.4682 57.6965 2.88623 57.4033 3.12273C57.2301 3.26263 56.9304 3.36589 56.504 3.4325C57.0436 3.4858 57.4183 3.58739 57.6282 3.73728C57.9513 3.96711 58.1128 4.39514 58.1128 5.02135C58.1128 5.82743 57.8513 6.37037 57.3284 6.65016C57.0319 6.81005 56.5123 6.88999 55.7695 6.88999H49.3242ZM51.3527 2.78797H54.8402C55.1766 2.78797 55.4015 2.75966 55.5147 2.70303C55.6946 2.6131 55.7845 2.44489 55.7845 2.1984C55.7845 1.90528 55.6629 1.71875 55.4198 1.63881C55.3165 1.6055 55.105 1.58884 54.7852 1.58884H51.3527V2.78797ZM51.3527 5.37109H55.07C55.3865 5.37109 55.5963 5.35277 55.6996 5.31613C55.9194 5.23952 56.0293 5.05466 56.0293 4.76154C56.0293 4.45842 55.9128 4.26523 55.6796 4.18196C55.5863 4.14865 55.3648 4.13199 55.0151 4.13199H51.3527V5.37109Z" fill="black"/>
<path d="M63.9336 0C65.669 0 66.7299 0.0349746 67.1163 0.104924C67.9856 0.261477 68.5253 0.709484 68.7351 1.44895C68.8117 1.71875 68.8583 2.08348 68.875 2.54315C68.885 2.80962 68.89 3.13772 68.89 3.52743C68.89 4.38681 68.8367 5.01802 68.7301 5.42106C68.4936 6.31707 67.8041 6.81005 66.6616 6.89998C66.1553 6.93995 65.3292 6.95994 64.1834 6.95994C63.1941 6.95994 62.5929 6.95494 62.3797 6.94495C61.5703 6.90831 60.9841 6.80339 60.621 6.63018C60.1114 6.39035 59.7899 5.90904 59.6567 5.18623C59.6001 4.87978 59.5718 4.30354 59.5718 3.45749C59.5718 2.88457 59.5768 2.51983 59.5868 2.36328C59.6134 1.95025 59.6817 1.59551 59.7916 1.29906C60.0547 0.589571 60.7126 0.181535 61.7652 0.0749455C62.2615 0.0249818 62.9843 0 63.9336 0ZM64.2234 1.66379C63.1208 1.66379 62.4413 1.71708 62.1849 1.82367C61.945 1.9236 61.7901 2.1601 61.7202 2.53316C61.6902 2.69304 61.6752 2.99282 61.6752 3.4325C61.6752 4.00875 61.7102 4.41845 61.7802 4.66161C61.8834 5.02135 62.2132 5.2212 62.7694 5.26117C63.0925 5.28449 63.4839 5.29615 63.9436 5.29615C65.1827 5.29615 65.9371 5.25285 66.2069 5.16624C66.5101 5.06965 66.7016 4.81816 66.7815 4.41179C66.8115 4.25857 66.8265 3.91715 66.8265 3.38754C66.8265 2.98117 66.8165 2.70803 66.7965 2.56813C66.7399 2.17508 66.58 1.92027 66.3169 1.80369C66.1636 1.73374 65.8422 1.68877 65.3526 1.66879C65.2726 1.66546 64.8962 1.66379 64.2234 1.66379Z" fill="black"/>
<path d="M79.2724 2.37327H77.2389C77.2189 1.8803 76.9375 1.62882 76.3945 1.61882C76.2746 1.61882 76.0947 1.61882 75.8549 1.61882L75.1255 1.60883C74.9056 1.6055 74.6358 1.60716 74.316 1.61383L73.6565 1.62382C73.2835 1.62382 73.0153 1.67878 72.8521 1.7887C72.6522 1.92194 72.5373 2.16509 72.5074 2.51817C72.4874 2.75466 72.4774 3.12439 72.4774 3.62736C72.4774 4.2569 72.529 4.66994 72.6323 4.86646C72.7921 5.1729 73.1869 5.33778 73.8164 5.3611C73.9063 5.36443 74.4426 5.3661 75.4252 5.3661C75.9915 5.3661 76.3379 5.35944 76.4645 5.34611C76.7476 5.31613 76.9491 5.24285 77.069 5.12627C77.1923 5.00636 77.2539 4.8065 77.2539 4.52671C77.2539 4.48341 77.2522 4.41512 77.2489 4.32186H74.6208V3.04778H79.2724V3.9921C79.2724 4.75488 79.2375 5.30114 79.1675 5.6309C78.991 6.46696 78.3548 6.89998 77.2589 6.92996C77.0124 6.93662 76.1447 6.93995 74.6558 6.93995C73.6832 6.93995 72.9803 6.9233 72.5473 6.88999C71.5114 6.81005 70.8635 6.40201 70.6037 5.66588C70.4638 5.2695 70.3939 4.57168 70.3939 3.5724C70.3939 2.45988 70.4772 1.68877 70.6437 1.25908C70.8502 0.726139 71.2683 0.378058 71.8978 0.214844C72.3974 0.0849382 73.43 0.0199855 74.9955 0.0199855C76.2113 0.0199855 77.0341 0.0399709 77.4637 0.0799419C78.4264 0.169876 78.9976 0.569586 79.1775 1.27907C79.2408 1.52889 79.2724 1.89362 79.2724 2.37327Z" fill="black"/>
<path d="M85.1382 0C86.8736 0 87.9345 0.0349746 88.3208 0.104924C89.1902 0.261477 89.7298 0.709484 89.9397 1.44895C90.0163 1.71875 90.0629 2.08348 90.0796 2.54315C90.0896 2.80962 90.0946 3.13772 90.0946 3.52743C90.0946 4.38681 90.0413 5.01802 89.9347 5.42106C89.6982 6.31707 89.0087 6.81005 87.8662 6.89998C87.3599 6.93995 86.5338 6.95994 85.388 6.95994C84.3987 6.95994 83.7975 6.95494 83.5843 6.94495C82.7749 6.90831 82.1886 6.80339 81.8256 6.63018C81.3159 6.39035 80.9945 5.90904 80.8613 5.18623C80.8046 4.87978 80.7763 4.30354 80.7763 3.45749C80.7763 2.88457 80.7813 2.51983 80.7913 2.36328C80.818 1.95025 80.8863 1.59551 80.9962 1.29906C81.2593 0.589571 81.9172 0.181535 82.9697 0.0749455C83.466 0.0249818 84.1889 0 85.1382 0ZM85.428 1.66379C84.3254 1.66379 83.6459 1.71708 83.3894 1.82367C83.1496 1.9236 82.9947 2.1601 82.9248 2.53316C82.8948 2.69304 82.8798 2.99282 82.8798 3.4325C82.8798 4.00875 82.9148 4.41845 82.9847 4.66161C83.088 5.02135 83.4178 5.2212 83.974 5.26117C84.2971 5.28449 84.6885 5.29615 85.1482 5.29615C86.3873 5.29615 87.1417 5.25285 87.4115 5.16624C87.7146 5.06965 87.9061 4.81816 87.9861 4.41179C88.0161 4.25857 88.0311 3.91715 88.0311 3.38754C88.0311 2.98117 88.0211 2.70803 88.0011 2.56813C87.9445 2.17508 87.7846 1.92027 87.5214 1.80369C87.3682 1.73374 87.0468 1.68877 86.5571 1.66879C86.4772 1.66546 86.1008 1.66379 85.428 1.66379Z" fill="black"/>
<path d="M94.3515 6.88999V1.75372H91.3137V0.0699491H99.4677V1.75372H96.43V6.88999H94.3515Z" fill="black"/>
<path d="M98.9531 6.88999L102.79 0.0699491H105.573L109.306 6.88999H107.037L106.358 5.67088H101.956L101.301 6.88999H98.9531ZM102.705 4.25191H105.638L104.154 1.53388L102.705 4.25191Z" fill="black"/>
</svg>
