<svg fill="none" height="16" viewBox="0 0 17 16" width="17" xmlns="http://www.w3.org/2000/svg"><path d="m8.44428.222168c-4.28555 0-7.777776 3.492222-7.777776 7.777782 0 4.28555 3.492226 7.77775 7.777776 7.77775 4.28552 0 7.77782-3.4922 7.77782-7.77775 0-4.28556-3.4923-7.777782-7.77782-7.777782zm0 11.666632c-.42778 0-.77778-.35-.77778-.7777 0-.4278.35-.7778.77778-.7778s.77778.35.77778.7778c0 .4277-.35.7777-.77778.7777zm.77778-3.88885c0 .42777-.35.77777-.77778.77777s-.77778-.35-.77778-.77777v-3.11112c0-.42777.35-.77777.77778-.77777s.77778.35.77778.77777z" fill="#eb5757"/></svg>