<svg fill="none" height="1279" viewBox="0 0 1944 1279" width="1944" xmlns="http://www.w3.org/2000/svg" xmlns:xlink="http://www.w3.org/1999/xlink"><filter id="a" color-interpolation-filters="sRGB" filterUnits="userSpaceOnUse" height="374.028" width="376.811" x="1056.17" y="733.505"><feFlood flood-opacity="0" result="BackgroundImageFix"/><feBlend in="SourceGraphic" in2="BackgroundImageFix" mode="normal" result="shape"/><feColorMatrix in="SourceAlpha" result="hardAlpha" type="matrix" values="0 0 0 0 0 0 0 0 0 0 0 0 0 0 0 0 0 0 127 0"/><feOffset dx="-11.132" dy="-8.34899"/><feGaussianBlur stdDeviation="15.3065"/><feComposite in2="hardAlpha" k2="-1" k3="1" operator="arithmetic"/><feColorMatrix type="matrix" values="0 0 0 0 1 0 0 0 0 1 0 0 0 0 1 0 0 0 1 0"/><feBlend in2="shape" mode="normal" result="effect1_innerShadow_56_168"/></filter><filter id="b" color-interpolation-filters="sRGB" filterUnits="userSpaceOnUse" height="584.078" width="658.334" x="931.931" y="542.672"><feFlood flood-opacity="0" result="BackgroundImageFix"/><feBlend in="SourceGraphic" in2="BackgroundImageFix" mode="normal" result="shape"/><feGaussianBlur result="effect1_foregroundBlur_56_168" stdDeviation="57.0515"/></filter><filter id="c" color-interpolation-filters="sRGB" filterUnits="userSpaceOnUse" height="584.078" width="658.334" x="1103.73" y="435.504"><feFlood flood-opacity="0" result="BackgroundImageFix"/><feBlend in="SourceGraphic" in2="BackgroundImageFix" mode="normal" result="shape"/><feGaussianBlur result="effect1_foregroundBlur_56_168" stdDeviation="57.0515"/></filter><filter id="d" color-interpolation-filters="sRGB" filterUnits="userSpaceOnUse" height="498.021" width="374.901" x="918.712" y="554.813"><feFlood flood-opacity="0" result="BackgroundImageFix"/><feBlend in="SourceGraphic" in2="BackgroundImageFix" mode="normal" result="shape"/><feGaussianBlur result="effect1_foregroundBlur_56_168" stdDeviation="26.4385"/></filter><filter id="e" color-interpolation-filters="sRGB" filterUnits="userSpaceOnUse" height="822.26" width="822.26" x="288.143" y="355.417"><feFlood flood-opacity="0" result="BackgroundImageFix"/><feBlend in="SourceGraphic" in2="BackgroundImageFix" mode="normal" result="shape"/><feGaussianBlur result="effect1_foregroundBlur_56_168" stdDeviation="4.5"/></filter><filter id="f" color-interpolation-filters="sRGB" filterUnits="userSpaceOnUse" height="822.622" width="828.743" x="272.659" y="346.054"><feFlood flood-opacity="0" result="BackgroundImageFix"/><feBlend in="SourceGraphic" in2="BackgroundImageFix" mode="normal" result="shape"/><feColorMatrix in="SourceAlpha" result="hardAlpha" type="matrix" values="0 0 0 0 0 0 0 0 0 0 0 0 0 0 0 0 0 0 127 0"/><feOffset dx="-24.4832" dy="-18.3624"/><feGaussianBlur stdDeviation="33.6644"/><feComposite in2="hardAlpha" k2="-1" k3="1" operator="arithmetic"/><feColorMatrix type="matrix" values="0 0 0 0 1 0 0 0 0 1 0 0 0 0 1 0 0 0 1 0"/><feBlend in2="shape" mode="normal" result="effect1_innerShadow_56_168"/></filter><filter id="g" color-interpolation-filters="sRGB" filterUnits="userSpaceOnUse" height="1284.6" width="1447.91" x="-.590591" y="-73.6571"><feFlood flood-opacity="0" result="BackgroundImageFix"/><feBlend in="SourceGraphic" in2="BackgroundImageFix" mode="normal" result="shape"/><feGaussianBlur result="effect1_foregroundBlur_56_168" stdDeviation="125.477"/></filter><filter id="h" color-interpolation-filters="sRGB" filterUnits="userSpaceOnUse" height="1284.6" width="1447.91" x="377.25" y="-309.357"><feFlood flood-opacity="0" result="BackgroundImageFix"/><feBlend in="SourceGraphic" in2="BackgroundImageFix" mode="normal" result="shape"/><feGaussianBlur result="effect1_foregroundBlur_56_168" stdDeviation="125.477"/></filter><filter id="i" color-interpolation-filters="sRGB" filterUnits="userSpaceOnUse" height="1095.33" width="824.54" x="-29.6635" y="-46.954"><feFlood flood-opacity="0" result="BackgroundImageFix"/><feBlend in="SourceGraphic" in2="BackgroundImageFix" mode="normal" result="shape"/><feGaussianBlur result="effect1_foregroundBlur_56_168" stdDeviation="58.1476"/></filter><filter id="j" color-interpolation-filters="sRGB" filterUnits="userSpaceOnUse" height="257.37" width="259.285" x="789.205" y="155.255"><feFlood flood-opacity="0" result="BackgroundImageFix"/><feBlend in="SourceGraphic" in2="BackgroundImageFix" mode="normal" result="shape"/><feColorMatrix in="SourceAlpha" result="hardAlpha" type="matrix" values="0 0 0 0 0 0 0 0 0 0 0 0 0 0 0 0 0 0 127 0"/><feOffset dx="-7.65996" dy="-5.74497"/><feGaussianBlur stdDeviation="10.5324"/><feComposite in2="hardAlpha" k2="-1" k3="1" operator="arithmetic"/><feColorMatrix type="matrix" values="0 0 0 0 1 0 0 0 0 1 0 0 0 0 1 0 0 0 1 0"/><feBlend in2="shape" mode="normal" result="effect1_innerShadow_56_168"/></filter><filter id="k" color-interpolation-filters="sRGB" filterUnits="userSpaceOnUse" height="401.906" width="453.002" x="703.715" y="23.9417"><feFlood flood-opacity="0" result="BackgroundImageFix"/><feBlend in="SourceGraphic" in2="BackgroundImageFix" mode="normal" result="shape"/><feGaussianBlur result="effect1_foregroundBlur_56_168" stdDeviation="39.2573"/></filter><filter id="l" color-interpolation-filters="sRGB" filterUnits="userSpaceOnUse" height="401.906" width="453.002" x="821.928" y="-49.8007"><feFlood flood-opacity="0" result="BackgroundImageFix"/><feBlend in="SourceGraphic" in2="BackgroundImageFix" mode="normal" result="shape"/><feGaussianBlur result="effect1_foregroundBlur_56_168" stdDeviation="39.2573"/></filter><filter id="m" color-interpolation-filters="sRGB" filterUnits="userSpaceOnUse" height="342.689" width="257.97" x="694.619" y="32.2964"><feFlood flood-opacity="0" result="BackgroundImageFix"/><feBlend in="SourceGraphic" in2="BackgroundImageFix" mode="normal" result="shape"/><feGaussianBlur result="effect1_foregroundBlur_56_168" stdDeviation="18.1924"/></filter><filter id="n" color-interpolation-filters="sRGB" filterUnits="userSpaceOnUse" height="316.301" width="318.654" x="464.101" y="759.486"><feFlood flood-opacity="0" result="BackgroundImageFix"/><feBlend in="SourceGraphic" in2="BackgroundImageFix" mode="normal" result="shape"/><feColorMatrix in="SourceAlpha" result="hardAlpha" type="matrix" values="0 0 0 0 0 0 0 0 0 0 0 0 0 0 0 0 0 0 127 0"/><feOffset dx="-9.41387" dy="-7.0604"/><feGaussianBlur stdDeviation="12.9441"/><feComposite in2="hardAlpha" k2="-1" k3="1" operator="arithmetic"/><feColorMatrix type="matrix" values="0 0 0 0 1 0 0 0 0 1 0 0 0 0 1 0 0 0 1 0"/><feBlend in2="shape" mode="normal" result="effect1_innerShadow_56_168"/></filter><filter id="o" color-interpolation-filters="sRGB" filterUnits="userSpaceOnUse" height="493.931" width="556.727" x="359.036" y="598.106"><feFlood flood-opacity="0" result="BackgroundImageFix"/><feBlend in="SourceGraphic" in2="BackgroundImageFix" mode="normal" result="shape"/><feGaussianBlur result="effect1_foregroundBlur_56_168" stdDeviation="48.2461"/></filter><filter id="p" color-interpolation-filters="sRGB" filterUnits="userSpaceOnUse" height="493.931" width="556.727" x="504.317" y="507.478"><feFlood flood-opacity="0" result="BackgroundImageFix"/><feBlend in="SourceGraphic" in2="BackgroundImageFix" mode="normal" result="shape"/><feGaussianBlur result="effect1_foregroundBlur_56_168" stdDeviation="48.2461"/></filter><filter id="q" color-interpolation-filters="sRGB" filterUnits="userSpaceOnUse" height="421.156" width="317.038" x="347.857" y="608.373"><feFlood flood-opacity="0" result="BackgroundImageFix"/><feBlend in="SourceGraphic" in2="BackgroundImageFix" mode="normal" result="shape"/><feGaussianBlur result="effect1_foregroundBlur_56_168" stdDeviation="22.3579"/></filter><filter id="r" color-interpolation-filters="sRGB" filterUnits="userSpaceOnUse" height="548.726" width="551.896" x="1352.1" y="252.609"><feFlood flood-opacity="0" result="BackgroundImageFix"/><feBlend in="SourceGraphic" in2="BackgroundImageFix" mode="normal" result="shape"/><feColorMatrix in="SourceAlpha" result="hardAlpha" type="matrix" values="0 0 0 0 0 0 0 0 0 0 0 0 0 0 0 0 0 0 127 0"/><feOffset dx="-12.6816" dy="-9.51118"/><feGaussianBlur stdDeviation="17.4372"/><feComposite in2="hardAlpha" k2="-1" k3="1" operator="arithmetic"/><feColorMatrix type="matrix" values="0 0 0 0 1 0 0 0 0 1 0 0 0 0 1 0 0 0 1 0"/><feBlend in2="shape" mode="normal" result="effect1_innerShadow_56_168"/></filter><filter id="s" color-interpolation-filters="sRGB" filterUnits="userSpaceOnUse" height="784.725" width="894.221" x="1203.44" y="6.67943"><feFlood flood-opacity="0" result="BackgroundImageFix"/><feBlend in="SourceGraphic" in2="BackgroundImageFix" mode="normal" result="shape"/><feGaussianBlur result="effect1_foregroundBlur_56_168" stdDeviation="64.993"/></filter><filter id="t" color-interpolation-filters="sRGB" filterUnits="userSpaceOnUse" height="742.587" width="661.484" x="1474.12" y="89.7164"><feFlood flood-opacity="0" result="BackgroundImageFix"/><feBlend in="SourceGraphic" in2="BackgroundImageFix" mode="normal" result="shape"/><feGaussianBlur result="effect1_foregroundBlur_56_168" stdDeviation="22.7639"/></filter><filter id="u" color-interpolation-filters="sRGB" filterUnits="userSpaceOnUse" height="397.853" width="397.853" x="303.396" y="183.715"><feFlood flood-opacity="0" result="BackgroundImageFix"/><feColorMatrix in="SourceAlpha" result="hardAlpha" type="matrix" values="0 0 0 0 0 0 0 0 0 0 0 0 0 0 0 0 0 0 127 0"/><feOffset dy="3.92283"/><feGaussianBlur stdDeviation="1.96141"/><feComposite in2="hardAlpha" operator="out"/><feColorMatrix type="matrix" values="0 0 0 0 0 0 0 0 0 0 0 0 0 0 0 0 0 0 0.25 0"/><feBlend in2="BackgroundImageFix" mode="normal" result="effect1_dropShadow_56_168"/><feBlend in="SourceGraphic" in2="effect1_dropShadow_56_168" mode="normal" result="shape"/><feGaussianBlur result="effect2_foregroundBlur_56_168" stdDeviation="9.80707"/></filter><filter id="v" color-interpolation-filters="sRGB" filterUnits="userSpaceOnUse" height="366.812" width="369.542" x="312.093" y="195.142"><feFlood flood-opacity="0" result="BackgroundImageFix"/><feBlend in="SourceGraphic" in2="BackgroundImageFix" mode="normal" result="shape"/><feColorMatrix in="SourceAlpha" result="hardAlpha" type="matrix" values="0 0 0 0 0 0 0 0 0 0 0 0 0 0 0 0 0 0 127 0"/><feOffset dx="-10.9172" dy="-8.18792"/><feGaussianBlur stdDeviation="15.0112"/><feComposite in2="hardAlpha" k2="-1" k3="1" operator="arithmetic"/><feColorMatrix type="matrix" values="0 0 0 0 1 0 0 0 0 1 0 0 0 0 1 0 0 0 1 0"/><feBlend in2="shape" mode="normal" result="effect1_innerShadow_56_168"/></filter><filter id="w" color-interpolation-filters="sRGB" filterUnits="userSpaceOnUse" height="572.809" width="645.633" x="190.25" y="7.98978"><feFlood flood-opacity="0" result="BackgroundImageFix"/><feBlend in="SourceGraphic" in2="BackgroundImageFix" mode="normal" result="shape"/><feGaussianBlur result="effect1_foregroundBlur_56_168" stdDeviation="55.9508"/></filter><filter id="x" color-interpolation-filters="sRGB" filterUnits="userSpaceOnUse" height="572.809" width="645.633" x="358.731" y="-97.1106"><feFlood flood-opacity="0" result="BackgroundImageFix"/><feBlend in="SourceGraphic" in2="BackgroundImageFix" mode="normal" result="shape"/><feGaussianBlur result="effect1_foregroundBlur_56_168" stdDeviation="55.9508"/></filter><filter id="y" color-interpolation-filters="sRGB" filterUnits="userSpaceOnUse" height="488.413" width="367.668" x="177.286" y="19.8968"><feFlood flood-opacity="0" result="BackgroundImageFix"/><feBlend in="SourceGraphic" in2="BackgroundImageFix" mode="normal" result="shape"/><feGaussianBlur result="effect1_foregroundBlur_56_168" stdDeviation="25.9284"/></filter><filter id="z" color-interpolation-filters="sRGB" filterUnits="userSpaceOnUse" height="572.379" width="582.379" x="849.75" y="307.045"><feFlood flood-opacity="0" result="BackgroundImageFix"/><feBlend in="SourceGraphic" in2="BackgroundImageFix" mode="normal" result="shape"/><feColorMatrix in="SourceAlpha" result="hardAlpha" type="matrix" values="0 0 0 0 0 0 0 0 0 0 0 0 0 0 0 0 0 0 127 0"/><feOffset dx="-16" dy="-12"/><feGaussianBlur stdDeviation="22"/><feComposite in2="hardAlpha" k2="-1" k3="1" operator="arithmetic"/><feColorMatrix type="matrix" values="0 0 0 0 1 0 0 0 0 1 0 0 0 0 1 0 0 0 1 0"/><feBlend in2="shape" mode="normal" result="effect1_innerShadow_56_168"/><feColorMatrix in="SourceAlpha" result="hardAlpha" type="matrix" values="0 0 0 0 0 0 0 0 0 0 0 0 0 0 0 0 0 0 127 0"/><feOffset dx="6"/><feGaussianBlur stdDeviation="14.5"/><feComposite in2="hardAlpha" k2="-1" k3="1" operator="arithmetic"/><feColorMatrix type="matrix" values="0 0 0 0 1 0 0 0 0 1 0 0 0 0 1 0 0 0 1 0"/><feBlend in2="effect1_innerShadow_56_168" mode="normal" result="effect2_innerShadow_56_168"/></filter><filter id="A" color-interpolation-filters="sRGB" filterUnits="userSpaceOnUse" height="873.35" width="987.143" x="673.839" y="-135.88"><feFlood flood-opacity="0" result="BackgroundImageFix"/><feBlend in="SourceGraphic" in2="BackgroundImageFix" mode="normal" result="shape"/><feGaussianBlur result="effect1_foregroundBlur_56_168" stdDeviation="82"/></filter><filter id="B" color-interpolation-filters="sRGB" filterUnits="userSpaceOnUse" height="1061.08" width="1061.08" x="376.262" y=".252441"><feFlood flood-opacity="0" result="BackgroundImageFix"/><feBlend in="SourceGraphic" in2="BackgroundImageFix" mode="normal" result="shape"/><feGaussianBlur result="effect1_foregroundBlur_56_168" stdDeviation="118"/></filter><filter id="C" color-interpolation-filters="sRGB" filterUnits="userSpaceOnUse" height="1061.08" width="1061.08" x="791.325" y="26.1204"><feFlood flood-opacity="0" result="BackgroundImageFix"/><feBlend in="SourceGraphic" in2="BackgroundImageFix" mode="normal" result="shape"/><feGaussianBlur result="effect1_foregroundBlur_56_168" stdDeviation="118"/></filter><filter id="D" color-interpolation-filters="sRGB" filterUnits="userSpaceOnUse" height="1061.08" width="1061.08" x="0" y="217.779"><feFlood flood-opacity="0" result="BackgroundImageFix"/><feBlend in="SourceGraphic" in2="BackgroundImageFix" mode="normal" result="shape"/><feGaussianBlur result="effect1_foregroundBlur_56_168" stdDeviation="118"/></filter><filter id="E" color-interpolation-filters="sRGB" filterUnits="userSpaceOnUse" height="374.028" width="376.811" x="1501.87" y="722.923"><feFlood flood-opacity="0" result="BackgroundImageFix"/><feBlend in="SourceGraphic" in2="BackgroundImageFix" mode="normal" result="shape"/><feColorMatrix in="SourceAlpha" result="hardAlpha" type="matrix" values="0 0 0 0 0 0 0 0 0 0 0 0 0 0 0 0 0 0 127 0"/><feOffset dx="-11.132" dy="-8.34899"/><feGaussianBlur stdDeviation="15.3065"/><feComposite in2="hardAlpha" k2="-1" k3="1" operator="arithmetic"/><feColorMatrix type="matrix" values="0 0 0 0 1 0 0 0 0 1 0 0 0 0 1 0 0 0 1 0"/><feBlend in2="shape" mode="normal" result="effect1_innerShadow_56_168"/></filter><filter id="F" color-interpolation-filters="sRGB" filterUnits="userSpaceOnUse" height="584.078" width="658.334" x="1387.14" y="567.785"><feFlood flood-opacity="0" result="BackgroundImageFix"/><feBlend in="SourceGraphic" in2="BackgroundImageFix" mode="normal" result="shape"/><feGaussianBlur result="effect1_foregroundBlur_56_168" stdDeviation="57.0515"/></filter><filter id="G" color-interpolation-filters="sRGB" filterUnits="userSpaceOnUse" height="584.078" width="658.334" x="1549.42" y="424.921"><feFlood flood-opacity="0" result="BackgroundImageFix"/><feBlend in="SourceGraphic" in2="BackgroundImageFix" mode="normal" result="shape"/><feGaussianBlur result="effect1_foregroundBlur_56_168" stdDeviation="57.0515"/></filter><filter id="H" color-interpolation-filters="sRGB" filterUnits="userSpaceOnUse" height="578.027" width="454.906" x="1354.27" y="521.986"><feFlood flood-opacity="0" result="BackgroundImageFix"/><feBlend in="SourceGraphic" in2="BackgroundImageFix" mode="normal" result="shape"/><feGaussianBlur result="effect1_foregroundBlur_56_168" stdDeviation="46.44"/></filter><filter id="I" color-interpolation-filters="sRGB" filterUnits="userSpaceOnUse" height="211.078" width="212.456" x="967.725" y="807.093"><feFlood flood-opacity="0" result="BackgroundImageFix"/><feBlend in="SourceGraphic" in2="BackgroundImageFix" mode="normal" result="shape"/><feColorMatrix in="SourceAlpha" result="hardAlpha" type="matrix" values="0 0 0 0 0 0 0 0 0 0 0 0 0 0 0 0 0 0 127 0"/><feOffset dx="-5.5123" dy="-4.13423"/><feGaussianBlur stdDeviation="7.57942"/><feComposite in2="hardAlpha" k2="-1" k3="1" operator="arithmetic"/><feColorMatrix type="matrix" values="0 0 0 0 1 0 0 0 0 1 0 0 0 0 1 0 0 0 1 0"/><feBlend in2="shape" mode="normal" result="effect1_innerShadow_56_168"/></filter><filter id="J" color-interpolation-filters="sRGB" filterUnits="userSpaceOnUse" height="314.396" width="356.419" x="904.7" y="706.578"><feFlood flood-opacity="0" result="BackgroundImageFix"/><feBlend in="SourceGraphic" in2="BackgroundImageFix" mode="normal" result="shape"/><feGaussianBlur result="effect1_foregroundBlur_56_168" stdDeviation="28.2506"/></filter><filter id="K" color-interpolation-filters="sRGB" filterUnits="userSpaceOnUse" height="314.396" width="356.419" x="1001.92" y="645.93"><feFlood flood-opacity="0" result="BackgroundImageFix"/><feBlend in="SourceGraphic" in2="BackgroundImageFix" mode="normal" result="shape"/><feGaussianBlur result="effect1_foregroundBlur_56_168" stdDeviation="28.2506"/></filter><filter id="L" color-interpolation-filters="sRGB" filterUnits="userSpaceOnUse" height="274.357" width="204.681" x="892.888" y="709.118"><feFlood flood-opacity="0" result="BackgroundImageFix"/><feBlend in="SourceGraphic" in2="BackgroundImageFix" mode="normal" result="shape"/><feGaussianBlur result="effect1_foregroundBlur_56_168" stdDeviation="13.0917"/></filter><filter id="M" color-interpolation-filters="sRGB" filterUnits="userSpaceOnUse" height="144.739" width="129.94" x="1500.58" y="494.002"><feFlood flood-opacity="0" result="BackgroundImageFix"/><feBlend in="SourceGraphic" in2="BackgroundImageFix" mode="normal" result="shape"/><feColorMatrix in="SourceAlpha" result="hardAlpha" type="matrix" values="0 0 0 0 0 0 0 0 0 0 0 0 0 0 0 0 0 0 127 0"/><feOffset dx="-9.36289" dy="-7.02217"/><feGaussianBlur stdDeviation="12.874"/><feComposite in2="hardAlpha" k2="-1" k3="1" operator="arithmetic"/><feColorMatrix type="matrix" values="0 0 0 0 1 0 0 0 0 1 0 0 0 0 1 0 0 0 1 0"/><feBlend in2="shape" mode="normal" result="effect1_innerShadow_56_168"/></filter><filter id="N" color-interpolation-filters="sRGB" filterUnits="userSpaceOnUse" height="207.99" width="153.656" x="1426.58" y="427.185"><feFlood flood-opacity="0" result="BackgroundImageFix"/><feBlend in="SourceGraphic" in2="BackgroundImageFix" mode="normal" result="shape"/><feGaussianBlur result="effect1_foregroundBlur_56_168" stdDeviation="18.1316"/></filter><filter id="O" color-interpolation-filters="sRGB" filterUnits="userSpaceOnUse" height="278.62" width="311.294" x="1505.66" y="155.573"><feFlood flood-opacity="0" result="BackgroundImageFix"/><feBlend in="SourceGraphic" in2="BackgroundImageFix" mode="normal" result="shape"/><feColorMatrix in="SourceAlpha" result="hardAlpha" type="matrix" values="0 0 0 0 0 0 0 0 0 0 0 0 0 0 0 0 0 0 127 0"/><feOffset dx="-9.36289" dy="-7.02217"/><feGaussianBlur stdDeviation="12.874"/><feComposite in2="hardAlpha" k2="-1" k3="1" operator="arithmetic"/><feColorMatrix type="matrix" values="0 0 0 0 1 0 0 0 0 1 0 0 0 0 1 0 0 0 1 0"/><feBlend in2="shape" mode="normal" result="effect1_innerShadow_56_168"/></filter><filter id="P" color-interpolation-filters="sRGB" filterUnits="userSpaceOnUse" height="323.258" width="343.095" x="1456.49" y="88.8152"><feFlood flood-opacity="0" result="BackgroundImageFix"/><feBlend in="SourceGraphic" in2="BackgroundImageFix" mode="normal" result="shape"/><feGaussianBlur result="effect1_foregroundBlur_56_168" stdDeviation="30.531"/></filter><filter id="Q" color-interpolation-filters="sRGB" filterUnits="userSpaceOnUse" height="139.851" width="139.851" x="1673.56" y="136.95"><feFlood flood-opacity="0" result="BackgroundImageFix"/><feBlend in="SourceGraphic" in2="BackgroundImageFix" mode="normal" result="shape"/><feGaussianBlur result="effect1_foregroundBlur_56_168" stdDeviation="5.04647"/></filter><filter id="R" color-interpolation-filters="sRGB" filterUnits="userSpaceOnUse" height="123.66" width="122.752" x="1683.65" y="147.043"><feFlood flood-opacity="0" result="BackgroundImageFix"/><feBlend in="SourceGraphic" in2="BackgroundImageFix" mode="normal" result="shape"/><feColorMatrix in="SourceAlpha" result="hardAlpha" type="matrix" values="0 0 0 0 0 0 0 0 0 0 0 0 0 0 0 0 0 0 127 0"/><feOffset dx="3.08676" dy="3.99513"/><feGaussianBlur stdDeviation="45.3804"/><feComposite in2="hardAlpha" k2="-1" k3="1" operator="arithmetic"/><feColorMatrix type="matrix" values="0 0 0 0 1 0 0 0 0 1 0 0 0 0 1 0 0 0 0.27 0"/><feBlend in2="shape" mode="normal" result="effect1_innerShadow_56_168"/></filter><filter id="S" color-interpolation-filters="sRGB" filterUnits="userSpaceOnUse" height="215.41" width="191.16" x="1677.45" y="101.823"><feFlood flood-opacity="0" result="BackgroundImageFix"/><feBlend in="SourceGraphic" in2="BackgroundImageFix" mode="normal" result="shape"/><feGaussianBlur result="effect1_foregroundBlur_56_168" stdDeviation="18.6693"/></filter><filter id="T" color-interpolation-filters="sRGB" filterUnits="userSpaceOnUse" height="323.258" width="343.095" x="1511.31" y="-23.9136"><feFlood flood-opacity="0" result="BackgroundImageFix"/><feBlend in="SourceGraphic" in2="BackgroundImageFix" mode="normal" result="shape"/><feGaussianBlur result="effect1_foregroundBlur_56_168" stdDeviation="30.531"/></filter><filter id="U" color-interpolation-filters="sRGB" filterUnits="userSpaceOnUse" height="299.238" width="217.01" x="1362.87" y="115.73"><feFlood flood-opacity="0" result="BackgroundImageFix"/><feBlend in="SourceGraphic" in2="BackgroundImageFix" mode="normal" result="shape"/><feGaussianBlur result="effect1_foregroundBlur_56_168" stdDeviation="8.85236"/></filter><mask id="V" height="367" maskUnits="userSpaceOnUse" width="366" x="1067" y="741"><circle cx="1250.14" cy="924.694" fill="#c3eeff" r="182.84"/></mask><mask id="W" height="805" maskUnits="userSpaceOnUse" width="805" x="297" y="364"><circle cx="699.272" cy="766.546" fill="#c3eeff" r="402.13"/></mask><mask id="X" height="252" maskUnits="userSpaceOnUse" width="253" x="796" y="161"><circle cx="922.678" cy="286.813" fill="#c3eeff" r="125.813"/></mask><mask id="Y" height="310" maskUnits="userSpaceOnUse" width="310" x="473" y="766"><circle cx="628.135" cy="921.166" fill="#c3eeff" r="154.62"/></mask><mask id="Z" height="540" maskUnits="userSpaceOnUse" width="540" x="1364" y="262"><circle cx="1634.39" cy="531.728" fill="#c3eeff" r="269.607"/></mask><mask id="aa" height="359" maskUnits="userSpaceOnUse" width="359" x="323" y="203"><circle cx="502.323" cy="382.642" fill="#c3eeff" r="179.312"/></mask><mask id="ab" height="561" maskUnits="userSpaceOnUse" width="562" x="865" y="294"><circle cx="1145.94" cy="574.543" fill="#c3eeff" r="280.19"/></mask><mask id="ac" height="366" maskUnits="userSpaceOnUse" width="366" x="1513" y="731"><circle cx="1695.84" cy="914.111" fill="#c3eeff" r="182.84"/></mask><mask id="ad" height="208" maskUnits="userSpaceOnUse" width="208" x="973" y="811"><circle cx="1076.71" cy="914.7" fill="#c3eeff" r="103.472"/></mask><mask id="ae" height="138" maskUnits="userSpaceOnUse" width="122" x="1509" y="501"><path d="m1630.35 586.008c-2.85 34.426-32.02 57.674-65.2 51.834-33.17-5.839-57.83-38.453-54.98-72.878 2.85-34.426 40.62-69.293 66.49-63.253 23.98 5.744 56.54 49.871 53.69 84.297z" fill="#fe94dd"/></mask><mask id="af" height="273" maskUnits="userSpaceOnUse" width="302" x="1515" y="162"><path d="m1807.14 197.969c-18.65-32.31-57.58-44.75-86.96-27.789-10.48 4.794-40.59 32.351-55.16 31.844-14.56-.507-43.97-6.139-64.57-1.277-75.32 9.575-110.49 98.583-65.48 168.428 4.67 9.483 42.85 58.403 69.71 64.374 18.86 4.183 96.95-10.884 118.46-78.444 8.29-18.094 14.91-35.106 23.79-41.487 15.58-11.382 51.29-29.238 58.3-42.205 14.47-20.035 16.05-48.953 1.91-73.444z" fill="#daaef9"/></mask><mask id="ag" height="120" maskUnits="userSpaceOnUse" width="121" x="1683" y="147"><circle cx="1743.48" cy="206.875" fill="#c3eeff" r="59.8318" transform="matrix(.03159916 .99950062 -.99950062 .03159916 1895.159186 -1542.271421)"/></mask><g opacity=".6"><g filter="url(#a)"><circle cx="1250.14" cy="924.694" fill="#d5f5ff" r="182.84"/></g><g mask="url(#V)"><g filter="url(#b)"><ellipse cx="1261.1" cy="834.711" fill="#a6c4ff" rx="215.064" ry="177.936"/></g><g filter="url(#c)"><ellipse cx="1432.89" cy="727.543" fill="#fffced" rx="215.064" ry="177.936"/></g><g filter="url(#d)"><path d="m1240.74 751.262c-116.58 41.722-143.58 114.531-143.58 248.695-74.32 0-125.571-169.402-125.571-248.695s60.251-143.572 134.571-143.572c74.33 0 134.58 64.279 134.58 143.572z" fill="#fff"/></g></g><g filter="url(#e)"><g filter="url(#f)"><circle cx="699.272" cy="766.546" fill="#d6fdff" r="402.13"/></g><g mask="url(#W)"><g filter="url(#g)"><ellipse cx="723.366" cy="568.641" fill="#f5d7ff" rx="473.003" ry="391.345"/></g><g filter="url(#h)"><ellipse cx="1101.21" cy="332.94" fill="#fffced" rx="473.003" ry="391.345"/></g><g filter="url(#i)"><path d="m678.581 385.108c-256.391 91.761-315.766 251.893-315.766 546.968-163.462 0-276.1832-372.575-276.1832-546.968s132.5122-315.7667 295.9752-315.7667c163.462 0 295.974 141.3737 295.974 315.7667z" fill="#fff"/></g></g></g><g filter="url(#j)"><circle cx="922.678" cy="286.813" fill="#d6ebfa" r="125.813"/></g><g mask="url(#X)"><g filter="url(#k)"><ellipse cx="930.216" cy="224.895" fill="#c5eaff" rx="147.986" ry="122.438"/></g><g filter="url(#l)"><ellipse cx="1048.43" cy="151.152" fill="#fff" rx="147.986" ry="122.438"/></g><g filter="url(#m)"><path d="m916.204 167.474c-80.216 28.708-98.792 78.808-98.792 171.127-51.142 0-86.408-116.566-86.408-171.127 0-54.562 41.458-98.7928 92.6-98.7928s92.6 44.2308 92.6 98.7928z" fill="#fff"/></g></g><g filter="url(#n)"><circle cx="628.135" cy="921.166" fill="#baf" r="154.62"/></g><g mask="url(#Y)"><g filter="url(#o)"><ellipse cx="637.399" cy="845.071" fill="#d7f8ff" rx="181.871" ry="150.473"/></g><g filter="url(#p)"><ellipse cx="782.68" cy="754.444" fill="#fffced" rx="181.871" ry="150.473"/></g><g filter="url(#q)"><path d="m620.18 774.502c-98.584 35.283-121.414 96.854-121.414 210.311-62.851 0-106.193-143.256-106.193-210.311 0-67.054 50.952-121.413 113.803-121.413 62.852 0 113.804 54.359 113.804 121.413z" fill="#fff"/></g></g><g filter="url(#r)"><circle cx="1634.39" cy="531.728" fill="#d4aff6" r="269.607"/></g><g mask="url(#Z)"><g filter="url(#s)"><ellipse cx="1650.55" cy="399.042" fill="#bef2fd" rx="317.124" ry="262.377"/></g><g filter="url(#t)"><path d="m2086 612.564c-42.01 28.466-205.77 249.114-274.43 147.771 193.6-294.939-62.12-527.151-291.92-489.756 42.02-28.467 175.62-205.6873 244.27-104.345 68.66 101.342 364.1 417.864 322.08 446.33z" fill="#fff"/></g></g><g filter="url(#u)"><g filter="url(#v)"><circle cx="502.323" cy="382.642" fill="#f2e0ff" r="179.312"/></g><g mask="url(#aa)"><g filter="url(#w)"><ellipse cx="513.066" cy="294.394" fill="#d7f0ff" rx="210.915" ry="174.503"/></g><g filter="url(#x)"><ellipse cx="681.547" cy="189.294" fill="#ffdded" rx="210.915" ry="174.503"/></g><g filter="url(#y)"><path d="m493.097 212.556c-114.327 40.917-140.803 112.321-140.803 243.897-72.889 0-123.151-166.134-123.151-243.897s59.088-140.8023 131.977-140.8023c72.888 0 131.977 63.0393 131.977 140.8023z" fill="#fff"/></g></g></g><g filter="url(#z)"><circle cx="1145.94" cy="599.235" fill="#c3eeff" r="280.19"/></g><g mask="url(#ab)"><g filter="url(#A)"><ellipse cx="1167.41" cy="300.794" fill="#fff" rx="329.572" ry="272.675"/></g></g><g filter="url(#B)" opacity=".9"><circle cx="906.804" cy="530.795" fill="#fff" fill-opacity=".6" r="294.542"/></g><g filter="url(#C)"><circle cx="1321.87" cy="556.663" fill="#fff" fill-opacity=".6" r="294.542"/></g><g filter="url(#D)"><circle cx="530.542" cy="748.321" fill="#fff" fill-opacity=".6" r="294.542"/></g><g filter="url(#E)"><circle cx="1695.84" cy="914.111" fill="#beccff" r="182.84"/></g><g mask="url(#ac)"><g filter="url(#F)"><ellipse cx="1716.31" cy="859.823" fill="#e8b7ff" rx="215.064" ry="177.936"/></g><g filter="url(#G)"><ellipse cx="1878.59" cy="716.96" fill="#ffedf8" rx="215.064" ry="177.936"/></g><g filter="url(#H)"><path d="m1716.3 758.438c-116.57 41.722-143.57 114.53-143.57 248.692-74.32 0-125.58-169.399-125.58-248.692s60.25-143.572 134.58-143.572c74.32 0 134.57 64.279 134.57 143.572z" fill="#fff"/></g></g><g filter="url(#I)"><circle cx="1076.71" cy="914.7" fill="#9b99ff" r="103.472"/></g><g mask="url(#ad)"><g filter="url(#J)"><ellipse cx="1082.91" cy="863.776" fill="#b3edff" rx="121.708" ry="100.697"/></g><g filter="url(#K)"><ellipse cx="1180.13" cy="803.128" fill="#fff" rx="121.708" ry="100.697"/></g><g filter="url(#L)"><path d="m1071.39 816.552c-65.98 23.611-81.254 64.814-81.254 140.74-42.06 0-71.065-95.867-71.065-140.74s34.097-81.25 76.158-81.25 76.161 36.377 76.161 81.25z" fill="#fff"/></g></g><g filter="url(#M)"><path d="m1630.35 586.008c-2.85 34.426-32.02 57.674-65.2 51.834-33.17-5.839-57.83-38.453-54.98-72.878 2.85-34.426 40.62-69.293 66.49-63.253 23.98 5.744 56.54 49.871 53.69 84.297z" fill="#ffa2e2"/></g><g mask="url(#ae)"><g filter="url(#N)"><path d="m1534.01 464.462c30.57 6.422-18.22 25.386-25.98 62.328s28.44 77.873-2.13 71.451c-30.56-6.422-49.05-41.575-41.28-78.517 7.76-36.942 38.83-61.684 69.39-55.262z" fill="#fffced"/></g></g><g filter="url(#O)"><path d="m1807.14 197.969c-18.65-32.31-57.58-44.75-86.96-27.789-10.48 4.794-40.59 32.351-55.16 31.844-14.56-.507-43.97-6.139-64.57-1.277-75.32 9.575-110.49 98.583-65.48 168.428 4.67 9.483 42.85 58.403 69.71 64.374 18.86 4.183 96.95-10.884 118.46-78.444 8.29-18.094 14.91-35.106 23.79-41.487 15.58-11.382 51.29-29.238 58.3-42.205 14.47-20.035 16.05-48.953 1.91-73.444z" fill="#e0b5ff"/></g><g mask="url(#af)"><g filter="url(#P)"><ellipse cx="1628.04" cy="250.444" fill="#ffa9e5" rx="115.091" ry="95.2222" transform="matrix(.8660254 -.5 .5 .8660254 92.894002 847.573134)"/></g><g filter="url(#Q)"><g filter="url(#R)"><circle cx="1743.48" cy="206.875" fill="#feaafb" r="59.8318" transform="matrix(.03159916 .99950062 -.99950062 .03159916 1895.159186 -1542.271421)"/></g><g mask="url(#ag)"><g filter="url(#S)"><ellipse cx="1773.03" cy="209.528" fill="#ffb1e8" rx="70.3769" ry="58.2272" transform="matrix(.03159916 .99950062 -.99950062 .03159916 1926.427106 -1569.237497)"/></g></g></g><g filter="url(#T)" opacity=".8"><ellipse cx="1682.86" cy="137.716" fill="#fffced" rx="115.091" ry="95.2222" transform="matrix(.8660254 -.5 .5 .8660254 156.602489 859.880445)"/></g><g filter="url(#U)"><path d="m1562.16 186.54c-57.39 67.653-48.05 122.503.01 205.754-46.12 26.627-138.61-60.129-167.02-109.331-28.4-49.203-14.04-110.674 32.07-137.301 46.12-26.626 106.54-8.325 134.94 40.878z" fill="#fff" fill-opacity=".8"/></g></g></g></svg>