<svg width="386" height="87" viewBox="0 0 386 87" fill="none" xmlns="http://www.w3.org/2000/svg">
<path d="M2.24714 57.0117C2.18553 57.203 2.06933 57.3725 1.91265 57.4995C1.76437 57.6199 1.58841 57.7019 1.40046 57.7383C1.19291 57.7705 0.980519 57.749 0.783746 57.676C0.580975 57.612 0.400051 57.4935 0.261107 57.3335C0.137456 57.1939 0.0537945 57.024 0.0188594 56.8414C-0.0160756 56.6588 -0.00100124 56.4703 0.0625057 56.2954C0.128376 56.1006 0.247867 55.928 0.407445 55.7972C0.555742 55.6706 0.736814 55.5879 0.930084 55.5584C1.13727 55.5168 1.3523 55.5385 1.5468 55.6207C1.74082 55.6852 1.91402 55.7998 2.04853 55.9529C2.17273 56.0995 2.25887 56.2742 2.2994 56.4615C2.32478 56.6465 2.3069 56.8347 2.24714 57.0117Z" fill="url(#paint0_linear_553_17991)"/>
<path d="M7.50488 49.1123L3.32378 47.0363L2.50846 48.6245L1.57816 48.1573L3.76279 43.8807L4.69309 44.3478L3.91958 45.9152L8.10069 47.9913L7.50488 49.1123Z" fill="url(#paint1_linear_553_17991)"/>
<path d="M9.6268 45.1159L4.74535 42.1368L5.38297 41.0988L7.31674 42.2821L8.61288 40.2061L6.67912 39.0228L7.31674 37.9847L12.2086 40.9639L11.571 42.0019L9.48046 40.7459L8.18432 42.8219L10.2749 44.0779L9.6268 45.1159Z" fill="url(#paint2_linear_553_17991)"/>
<path d="M13.3271 39.3445L8.64424 36.0436L9.35503 35.0056L14.0379 38.2961L13.3271 39.3445Z" fill="url(#paint3_linear_553_17991)"/>
<path d="M16.6406 35.1406C16.4417 35.3815 16.2174 35.6008 15.9716 35.7945C15.7545 35.9724 15.5065 36.1096 15.2399 36.1993C14.9908 36.2812 14.7256 36.3026 14.4664 36.2616C14.1848 36.2079 13.9219 36.0828 13.7034 35.8983L13.6302 35.8464L14.3828 34.9122C14.4 34.9162 14.4179 34.9162 14.4351 34.9122C14.5569 35.0176 14.7125 35.0765 14.8741 35.0783C15.0472 35.0798 15.216 35.0251 15.3549 34.9226C15.5371 34.8031 15.6994 34.656 15.8357 34.4866C15.9298 34.362 16.0134 34.2479 16.0762 34.1441C16.1308 34.0445 16.1762 33.9403 16.212 33.8326C16.2249 33.7466 16.2249 33.6592 16.212 33.5731C16.229 33.5014 16.229 33.4268 16.212 33.3552C16.1757 33.2871 16.126 33.2271 16.0657 33.1787C16.015 33.1338 15.9551 33.1004 15.8902 33.0807C15.8252 33.0609 15.7567 33.0554 15.6894 33.0645C15.5346 33.0826 15.3852 33.1321 15.2504 33.2098C15.0811 33.3086 14.9171 33.416 14.7591 33.5316L14.226 33.9157C14.0432 34.0501 13.8511 34.1715 13.6511 34.279C13.4667 34.3823 13.2701 34.4625 13.0658 34.5177C12.8623 34.5594 12.6525 34.5594 12.449 34.5177C12.2178 34.4656 12.0027 34.3587 11.8219 34.2063C11.6185 34.053 11.4598 33.8488 11.362 33.6147C11.2765 33.3897 11.2478 33.1473 11.2783 32.9088C11.3078 32.6444 11.3857 32.3876 11.5083 32.1511C11.6381 31.8783 11.8032 31.6235 11.9996 31.3933C12.181 31.1665 12.3879 30.961 12.6163 30.7809C12.8227 30.62 13.0563 30.4969 13.3062 30.4176C13.5396 30.3604 13.7835 30.3604 14.017 30.4176C14.2743 30.4695 14.5149 30.5836 14.7173 30.7497L14.7905 30.812L14.0483 31.7255H13.9961C13.8909 31.6372 13.7574 31.5893 13.6198 31.5905C13.4668 31.5936 13.318 31.6404 13.1912 31.7255C13.0324 31.8226 12.8911 31.9454 12.7731 32.0888C12.6453 32.2392 12.5397 32.407 12.4595 32.587C12.3959 32.7122 12.367 32.8519 12.3759 32.9918C12.3831 33.0488 12.4016 33.1039 12.4303 33.1537C12.459 33.2036 12.4973 33.2474 12.5431 33.2825C12.5901 33.3224 12.6454 33.3515 12.705 33.3677C12.7647 33.3838 12.8272 33.3866 12.8881 33.3759C13.0367 33.3472 13.1786 33.2909 13.3062 33.2098C13.4743 33.1146 13.635 33.007 13.787 32.888L14.3724 32.4521C14.5577 32.3247 14.7496 32.2069 14.9473 32.0991C15.1295 31.9915 15.3268 31.9111 15.5326 31.8604C15.732 31.8136 15.9395 31.8136 16.1389 31.8604C16.3631 31.903 16.5721 32.0032 16.7451 32.1511C17.0533 32.3729 17.2778 32.6908 17.3828 33.0541C17.464 33.3996 17.4385 33.7613 17.3096 34.0921C17.1394 34.4722 16.914 34.8254 16.6406 35.1406Z" fill="url(#paint4_linear_553_17991)"/>
<path d="M20.7695 30.2411L16.7242 26.2136L18.8148 24.1375C19.0562 23.8837 19.3582 23.6945 19.6928 23.5874C19.9823 23.4992 20.2918 23.4992 20.5813 23.5874C20.9015 23.7054 21.1908 23.8934 21.428 24.1375C21.6736 24.3752 21.8598 24.6667 21.9715 24.9887C22.066 25.2824 22.066 25.5981 21.9715 25.8918C21.8652 26.2278 21.6746 26.5314 21.4175 26.7741L20.2155 27.9886L21.6266 29.3899L20.7695 30.2411ZM19.5047 27.2723L20.5499 26.2343C20.6318 26.1608 20.6973 26.0711 20.7423 25.971C20.7873 25.8709 20.8108 25.7626 20.8113 25.653C20.7907 25.4296 20.6862 25.2221 20.5186 25.0717C20.411 24.9574 20.2788 24.8687 20.1318 24.8122C20.0027 24.771 19.8638 24.771 19.7346 24.8122C19.5875 24.8633 19.4548 24.9487 19.3479 25.0614L18.3026 26.0994L19.5047 27.2723Z" fill="url(#paint5_linear_553_17991)"/>
<path d="M25.2746 25.8918L21.5743 21.5425L24.9924 18.6775L25.6509 19.4457L23.1736 21.5217L23.9994 22.4974L26.1944 20.6498L26.8425 21.4179L24.6474 23.3175L25.5464 24.3555L28.0759 22.2795L28.7345 23.058L25.2746 25.8918Z" fill="url(#paint6_linear_553_17991)"/>
<path d="M30.1142 21.9265L26.7902 17.2866L29.2989 15.5219C29.5817 15.303 29.9165 15.1601 30.271 15.1067C30.5696 15.0622 30.8746 15.117 31.1386 15.2624C31.4203 15.418 31.6632 15.6344 31.8494 15.8956C32.0517 16.1747 32.181 16.4993 32.2257 16.8402C32.2545 17.1676 32.1854 17.4962 32.0271 17.7848L34.2849 18.9889L33.2396 19.7675L31.2222 18.636L29.947 19.5391L31.0968 21.2414L30.1142 21.9265ZM29.3303 18.7398L30.71 17.7641C30.8003 17.7077 30.8763 17.6317 30.9325 17.5418C30.9886 17.4518 31.0234 17.3503 31.0341 17.2451C31.054 17.0244 30.9865 16.8047 30.8459 16.6326C30.7657 16.5064 30.6541 16.4027 30.5219 16.3316C30.41 16.2717 30.2826 16.2464 30.156 16.2589C30.007 16.2816 29.8665 16.3424 29.7484 16.4354L28.3686 17.4008L29.3303 18.7398Z" fill="url(#paint7_linear_553_17991)"/>
<path d="M37.5252 17.162C37.2541 17.3199 36.9667 17.4486 36.6681 17.5461C36.399 17.6366 36.1159 17.6787 35.8319 17.6706C35.5704 17.6586 35.3158 17.5838 35.0898 17.4527C34.8449 17.3064 34.643 17.0988 34.5044 16.8506V16.7676C34.4972 16.7474 34.4972 16.7254 34.5044 16.7053L35.5497 16.0929C35.5451 16.1134 35.5451 16.1346 35.5497 16.1551V16.2174C35.6295 16.3604 35.7544 16.4734 35.9051 16.5392C36.0688 16.5877 36.2431 16.5877 36.4068 16.5392C36.6175 16.4883 36.8187 16.4042 37.0026 16.2901C37.1311 16.2208 37.2534 16.1409 37.3685 16.0513C37.4535 15.9805 37.5338 15.9042 37.6089 15.823C37.6637 15.7491 37.7093 15.6689 37.7448 15.5842C37.7648 15.5129 37.7648 15.4375 37.7448 15.3662C37.7355 15.2878 37.7067 15.2129 37.6611 15.1483C37.6295 15.0902 37.5863 15.039 37.5342 14.998C37.4821 14.957 37.4222 14.9269 37.358 14.9095C37.2063 14.8779 37.0497 14.8779 36.8981 14.9095L36.3232 15.0133L35.6856 15.1898C35.4694 15.2496 35.2494 15.2947 35.027 15.3247C34.8153 15.3505 34.6012 15.3505 34.3894 15.3247C34.1826 15.3002 33.9832 15.233 33.8041 15.1275C33.609 14.9929 33.448 14.8153 33.3337 14.6085C33.195 14.3946 33.119 14.1466 33.1142 13.8922C33.1073 13.6531 33.1651 13.4166 33.2814 13.2071C33.4058 12.9745 33.5683 12.7641 33.7623 12.5843C33.9848 12.3775 34.2303 12.1965 34.4939 12.0446C34.7432 11.8951 35.01 11.7766 35.2884 11.6916C35.537 11.6076 35.7997 11.5724 36.0619 11.5878C36.314 11.5996 36.5589 11.6754 36.773 11.8081C36.9871 11.9408 37.1634 12.1259 37.2848 12.3456V12.4286L36.2396 13.0307V12.9684C36.1691 12.8479 36.058 12.756 35.926 12.7089C35.7813 12.678 35.6316 12.678 35.487 12.7089C35.3007 12.7433 35.1231 12.8139 34.9643 12.9165C34.7906 13.0101 34.6321 13.1291 34.4939 13.2694C34.3915 13.3664 34.3159 13.488 34.2744 13.6224C34.2331 13.7257 34.2331 13.8408 34.2744 13.9441C34.3046 13.9982 34.3465 14.0449 34.3971 14.0808C34.4478 14.1167 34.5058 14.141 34.5671 14.1517C34.7152 14.1841 34.8685 14.1841 35.0166 14.1517C35.2107 14.1181 35.4027 14.073 35.5915 14.0168L36.2291 13.8403C36.4486 13.7781 36.6681 13.7365 36.8876 13.695C37.0994 13.6692 37.3135 13.6692 37.5252 13.695C37.7276 13.7246 37.9226 13.7915 38.1001 13.8922C38.289 14.0221 38.4462 14.1924 38.5601 14.3905C38.7616 14.6981 38.857 15.0624 38.8318 15.4285C38.783 15.7766 38.6301 16.102 38.3928 16.3627C38.1515 16.6763 37.8581 16.9466 37.5252 17.162Z" fill="url(#paint8_linear_553_17991)"/>
<path d="M43.4206 14.0479C42.9484 14.2883 42.4251 14.4128 41.8945 14.4113C41.4198 14.4098 40.9581 14.2569 40.5774 13.9753C40.1259 13.6187 39.7674 13.1594 39.5322 12.6362C39.2629 12.1273 39.123 11.5607 39.1245 10.9858C39.1401 10.5149 39.3047 10.061 39.5949 9.68826C39.9381 9.28575 40.3663 8.96324 40.8492 8.74366C41.3269 8.50792 41.8524 8.38366 42.3858 8.38035C42.8609 8.38072 43.3218 8.54181 43.6924 8.83708C44.1207 9.21239 44.4683 9.6697 44.7143 10.1816C44.9604 10.6935 45.0999 11.2495 45.1244 11.8162C45.1137 12.2797 44.9605 12.7288 44.6854 13.1033C44.3465 13.5147 43.9126 13.8388 43.4206 14.0479ZM42.9816 13.1345C43.2003 13.0368 43.3988 12.8995 43.5669 12.7297C43.7109 12.5811 43.8151 12.3991 43.8701 12.2003C43.9228 11.9889 43.9228 11.768 43.8701 11.5567C43.8297 11.3145 43.7522 11.08 43.6401 10.8612L43.5251 10.6225C43.4132 10.386 43.269 10.1659 43.0966 9.96852C42.9487 9.80398 42.7669 9.67299 42.5635 9.58445C42.3732 9.50083 42.1641 9.4686 41.9572 9.49103C41.72 9.51248 41.4893 9.57946 41.2778 9.68826C41.0608 9.77888 40.865 9.91319 40.7029 10.0827C40.5559 10.2307 40.4481 10.4126 40.3893 10.6121C40.3468 10.8245 40.3468 11.0432 40.3893 11.2557C40.4332 11.5163 40.5178 11.7684 40.6402 12.003L40.7447 12.2418C40.854 12.4766 40.9985 12.6935 41.1733 12.8854C41.3174 13.0494 41.4958 13.1805 41.6959 13.2694C41.8868 13.3515 42.0946 13.387 42.3022 13.3732C42.5414 13.3355 42.7717 13.2546 42.9816 13.1345Z" fill="url(#paint9_linear_553_17991)"/>
<path d="M47.5076 12.1172L45.5425 6.76103L46.5878 6.38734L49.7236 8.46339L49.9013 8.56719L50.0999 8.71252L50.2358 8.8267C50.2055 8.73846 50.1706 8.65184 50.1313 8.56719C50.1313 8.48415 50.1313 8.40111 50.0477 8.33883L49.0024 5.45313L50.0477 5.05868L52.0232 10.4045L50.978 10.7886L47.8212 8.65023C47.7327 8.59469 47.6488 8.53221 47.5704 8.46339C47.4992 8.41799 47.4327 8.36585 47.3718 8.30769L47.4658 8.54643C47.4658 8.61909 47.5181 8.69176 47.539 8.75404L48.5843 11.7124L47.5076 12.1172Z" fill="url(#paint10_linear_553_17991)"/>
<path d="M53.4239 10.0204L54.0302 3.95837L55.4831 3.59507L59.0475 8.55681L57.7723 8.88898L57.0928 7.90286L54.7305 8.52567L54.6364 9.7194L53.4239 10.0204ZM54.8141 7.45651L56.497 7.01016L55.6504 5.78529L55.5249 5.58807L55.3577 5.33894C55.295 5.24552 55.2427 5.1521 55.1904 5.05868L55.0336 4.80955H54.9814V5.19362C54.9814 5.33895 54.9814 5.48427 54.9814 5.61921C54.9814 5.75415 54.9814 5.86834 54.9814 5.95138L54.8141 7.45651Z" fill="url(#paint11_linear_553_17991)"/>
<path d="M60.3646 8.27655L59.3193 2.67123L60.5214 2.46362L61.3471 7.03092L64.1276 6.53267L64.3157 7.57069L60.3646 8.27655Z" fill="url(#paint12_linear_553_17991)"/>
<path d="M70.4097 7.06206C70.0969 7.09356 69.7817 7.09356 69.4689 7.06206C69.2028 6.98804 68.9517 6.86862 68.7268 6.70913C68.4935 6.58789 68.2956 6.40918 68.1519 6.19012C68.0058 5.9478 67.9232 5.67302 67.9115 5.39084V5.23514L69.124 5.1521C69.1185 5.16157 69.1156 5.17231 69.1156 5.18324C69.1156 5.19417 69.1185 5.20492 69.124 5.21438V5.28704C69.1298 5.45169 69.1925 5.60933 69.3017 5.73339C69.4136 5.85835 69.5645 5.94242 69.7302 5.97214C69.9458 6.02249 70.1679 6.03999 70.3888 6.02404C70.5297 6.01579 70.6697 5.99494 70.8069 5.96176C70.9157 5.94141 71.0211 5.90649 71.1205 5.85796C71.2069 5.82684 71.2854 5.77723 71.3504 5.71263C71.408 5.66655 71.4514 5.60543 71.4759 5.53617C71.4968 5.46147 71.4968 5.38251 71.4759 5.30781C71.4746 5.2406 71.459 5.17443 71.4302 5.11361C71.4014 5.05279 71.3599 4.9987 71.3086 4.95488C71.1908 4.85287 71.0515 4.77838 70.901 4.73689C70.7123 4.67737 70.5204 4.62885 70.326 4.59157L69.6884 4.46701C69.4649 4.42409 69.2448 4.36511 69.0299 4.29054C68.828 4.22387 68.635 4.13325 68.455 4.02066C68.2853 3.90739 68.1425 3.75858 68.0369 3.58469C67.9169 3.37898 67.8487 3.14749 67.8383 2.90997C67.8121 2.65756 67.8555 2.40284 67.9637 2.17298C68.0692 1.95772 68.2273 1.77214 68.4236 1.63321C68.6434 1.48035 68.8871 1.36461 69.1449 1.29066C69.4372 1.20342 69.739 1.15116 70.0438 1.13496C70.3321 1.10333 70.6231 1.10333 70.9114 1.13496C71.1715 1.1804 71.4222 1.26807 71.6536 1.39446C71.8603 1.51517 72.0357 1.68224 72.1657 1.88233C72.3056 2.10398 72.3848 2.35799 72.3957 2.61933V2.71275L71.2041 2.79579V2.73351C71.2005 2.5939 71.1446 2.46064 71.0473 2.35982C70.9418 2.25004 70.808 2.17106 70.6605 2.13146C70.4774 2.09812 70.2897 2.09812 70.1065 2.13146C69.9076 2.13927 69.7106 2.1742 69.5212 2.23526C69.3853 2.27513 69.2625 2.3504 69.1658 2.45324C69.0958 2.54194 69.0588 2.65197 69.0613 2.76465C69.0636 2.8272 69.0798 2.88847 69.1087 2.94409C69.1376 2.99971 69.1785 3.04831 69.2285 3.08643C69.3534 3.17252 69.4909 3.23904 69.6362 3.28366C69.8251 3.33937 70.017 3.38442 70.2111 3.41861L70.8173 3.59507C71.0368 3.59507 71.2459 3.69887 71.4654 3.77153C71.6655 3.84256 71.858 3.93295 72.0403 4.04142C72.2149 4.15743 72.361 4.31097 72.4678 4.49065C72.5745 4.67033 72.6392 4.87156 72.657 5.07944C72.6865 5.44178 72.6025 5.8043 72.4166 6.11746C72.216 6.40598 71.9316 6.62687 71.6013 6.75065C71.224 6.91877 70.8214 7.02398 70.4097 7.06206Z" fill="url(#paint13_linear_553_17991)"/>
<path d="M74.4549 6.79218V1.09344H77.3817C77.7442 1.0782 78.1044 1.1569 78.4269 1.3218C78.6947 1.46769 78.9102 1.69258 79.0437 1.96537C79.1895 2.26983 79.2611 2.60408 79.2527 2.94111C79.2713 3.30016 79.1957 3.65784 79.0332 3.97914C78.8892 4.24795 78.6719 4.471 78.4061 4.62271C78.0845 4.79121 77.7242 4.8735 77.3608 4.86146H75.6988V6.84408L74.4549 6.79218ZM75.6779 3.79229H77.1726C77.2818 3.79989 77.3914 3.78439 77.4941 3.74681C77.5968 3.70923 77.6903 3.65044 77.7684 3.57431C77.9126 3.39912 77.9869 3.17752 77.9775 2.9515C77.9842 2.79391 77.9519 2.63709 77.8834 2.49476C77.8255 2.37545 77.7349 2.27473 77.6221 2.20412C77.4822 2.13699 77.3279 2.10492 77.1726 2.1107H75.6779V3.79229Z" fill="url(#paint14_linear_553_17991)"/>
<path d="M79.8799 6.79218L82.0436 1.09343H83.5488L85.7021 6.79218H84.4059L83.9878 5.67111H81.5419L81.1447 6.79218H79.8799ZM81.8973 4.71613H83.6324L83.1412 3.3148L83.0575 3.09682L82.9635 2.80617L82.8694 2.49476C82.8694 2.39096 82.8694 2.29754 82.7858 2.2145C82.7858 2.3183 82.723 2.44286 82.6812 2.58818L82.5558 2.99301C82.5035 3.11758 82.4722 3.23176 82.4408 3.3148L81.8973 4.71613Z" fill="url(#paint15_linear_553_17991)"/>
<path d="M89.6323 6.89598C89.1163 6.91113 88.604 6.8044 88.1376 6.58457C87.7232 6.37257 87.3921 6.02913 87.1968 5.60883C86.9609 5.08755 86.85 4.51904 86.8728 3.948C86.7917 3.14887 87.0322 2.35032 87.5418 1.72663C87.8132 1.47325 88.1342 1.27799 88.4849 1.15299C88.8355 1.028 89.2083 0.975925 89.5801 1.00001C90.0248 0.99325 90.4661 1.07808 90.8762 1.24914C91.2415 1.40802 91.5534 1.66734 91.7751 1.99651C92.0082 2.36976 92.1246 2.80323 92.1096 3.24214H90.8762C90.8752 2.99992 90.8064 2.76274 90.6776 2.55705C90.5747 2.37324 90.4179 2.22483 90.2281 2.13146C90.0194 2.03262 89.7904 1.98289 89.5592 1.98614C89.2563 1.9755 88.9563 2.04729 88.6916 2.19374C88.4634 2.34012 88.2877 2.55452 88.1898 2.80617C88.0705 3.13885 88.0172 3.49137 88.0331 3.8442V4.1037C88.016 4.45747 88.0729 4.8109 88.2003 5.14172C88.2914 5.39147 88.4644 5.60353 88.6916 5.74377C88.952 5.89141 89.249 5.96335 89.5487 5.95138C89.7934 5.95452 90.0359 5.90494 90.2595 5.80606C90.4517 5.71717 90.612 5.57236 90.7194 5.39085C90.8382 5.18992 90.8962 4.9593 90.8867 4.72651H92.0678C92.0805 5.16379 91.9682 5.59568 91.7438 5.97214C91.5267 6.30542 91.2134 6.56589 90.8449 6.71951C90.4559 6.85539 90.0442 6.91532 89.6323 6.89598Z" fill="url(#paint16_linear_553_17991)"/>
<path d="M93.8657 6.79218V1.09343H98.3395V2.13146H95.0887V3.39784H97.9945V4.43587H95.12V5.77491H98.4231V6.81293L93.8657 6.79218Z" fill="url(#paint17_linear_553_17991)"/>
<path d="M102.698 6.79218V1.09343H103.911V6.79218H102.698Z" fill="url(#paint18_linear_553_17991)"/>
<path d="M108.165 6.89598C107.852 6.89393 107.54 6.85914 107.235 6.79218C106.956 6.73233 106.691 6.62334 106.451 6.47039C106.235 6.32732 106.053 6.13965 105.918 5.92024C105.786 5.66713 105.721 5.38496 105.73 5.1002V5.00678C105.73 5.00678 105.73 5.00678 105.73 4.94449H106.942C106.942 4.94449 106.942 4.9445 106.942 5.00678V5.07944C106.934 5.23932 106.982 5.39697 107.078 5.52579C107.191 5.65813 107.34 5.75542 107.507 5.80605C107.712 5.87202 107.928 5.90359 108.144 5.89948C108.287 5.91132 108.43 5.91132 108.573 5.89948L108.897 5.81643C108.983 5.78221 109.063 5.73683 109.137 5.68149C109.196 5.63887 109.243 5.58161 109.273 5.51541C109.289 5.44009 109.289 5.36236 109.273 5.28704C109.276 5.22054 109.266 5.15413 109.242 5.09173C109.219 5.02933 109.183 4.97221 109.137 4.92373C109.023 4.81744 108.888 4.7361 108.74 4.68499C108.56 4.60876 108.375 4.54629 108.186 4.49815L107.548 4.33206C107.332 4.27194 107.119 4.19916 106.911 4.11408C106.712 4.03134 106.522 3.9269 106.346 3.80267C106.171 3.66748 106.03 3.49211 105.937 3.29149C105.845 3.09088 105.802 2.87096 105.813 2.65047C105.803 2.39659 105.865 2.14501 105.991 1.92385C106.109 1.71632 106.278 1.54149 106.482 1.41522C106.707 1.27707 106.955 1.17872 107.214 1.12457C107.513 1.06052 107.818 1.02919 108.123 1.03115C108.415 1.02969 108.706 1.06103 108.991 1.12457C109.247 1.18206 109.491 1.28396 109.712 1.4256C109.913 1.55611 110.079 1.73452 110.193 1.94461C110.318 2.17377 110.379 2.43165 110.371 2.69199V2.79579H109.189V2.73351C109.196 2.59278 109.148 2.45494 109.054 2.34944C108.955 2.23667 108.829 2.15089 108.688 2.10032C108.511 2.03492 108.323 2.00322 108.134 2.00689C107.937 2.00301 107.74 2.02393 107.548 2.06917C107.413 2.10663 107.288 2.17406 107.183 2.2664C107.142 2.30559 107.11 2.35245 107.089 2.40418C107.067 2.45591 107.056 2.51144 107.057 2.56742C107.054 2.62927 107.065 2.69104 107.088 2.74841C107.112 2.80578 107.147 2.85738 107.193 2.89959C107.313 2.99517 107.447 3.07215 107.59 3.12796C107.757 3.19024 107.946 3.24214 108.144 3.29404L108.782 3.46012C108.998 3.52024 109.211 3.59303 109.419 3.67811C109.621 3.7568 109.81 3.8615 109.984 3.98952C110.143 4.11419 110.274 4.26957 110.371 4.44624C110.475 4.64808 110.526 4.87334 110.517 5.1002C110.53 5.47099 110.42 5.83571 110.203 6.13822C109.99 6.41556 109.693 6.61896 109.357 6.71951C108.972 6.84204 108.569 6.90164 108.165 6.89598Z" fill="url(#paint19_linear_553_17991)"/>
<path d="M117.405 6.89598C116.874 6.90849 116.347 6.7946 115.869 6.56381C115.44 6.35401 115.092 6.01157 114.876 5.58807C114.649 5.06709 114.531 4.50537 114.531 3.93762C114.531 3.36986 114.649 2.80814 114.876 2.28716C115.095 1.86585 115.442 1.52424 115.869 1.31142C116.364 1.0989 116.897 0.989258 117.437 0.989258C117.976 0.989258 118.51 1.0989 119.005 1.31142C119.428 1.52484 119.772 1.86658 119.987 2.28716C120.214 2.80814 120.332 3.36986 120.332 3.93762C120.332 4.50537 120.214 5.06709 119.987 5.58807C119.775 6.01084 119.43 6.35343 119.005 6.56381C118.507 6.80411 117.958 6.91824 117.405 6.89598ZM117.405 5.85796C117.644 5.85981 117.881 5.82119 118.106 5.74377C118.3 5.66432 118.475 5.5439 118.618 5.39084C118.757 5.22332 118.861 5.02895 118.921 4.81993C118.997 4.57098 119.032 4.31172 119.026 4.0518V3.80267C119.032 3.53593 118.996 3.26984 118.921 3.01377C118.861 2.80785 118.757 2.61686 118.618 2.45324C118.475 2.30019 118.3 2.17977 118.106 2.10032C117.881 2.0229 117.644 1.98428 117.405 1.98613C117.167 1.98428 116.93 2.0229 116.705 2.10032C116.512 2.17735 116.34 2.29823 116.203 2.45324C116.06 2.61432 115.956 2.80618 115.9 3.01377C115.825 3.26984 115.789 3.53593 115.796 3.80267V4.0518C115.789 4.31172 115.825 4.57098 115.9 4.81993C115.956 5.03066 116.06 5.22592 116.203 5.39084C116.34 5.54586 116.512 5.66674 116.705 5.74377C116.929 5.82827 117.166 5.87391 117.405 5.87872V5.85796Z" fill="url(#paint20_linear_553_17991)"/>
<path d="M122.862 6.79218L121.388 1.09343H122.684L123.499 4.48777C123.505 4.56378 123.505 4.64012 123.499 4.71613C123.499 4.80955 123.499 4.91335 123.552 5.01716C123.545 5.11046 123.545 5.20411 123.552 5.29742C123.557 5.22834 123.557 5.1589 123.552 5.08982V4.86146C123.556 4.79231 123.556 4.723 123.552 4.65385C123.552 4.58119 123.552 4.52929 123.552 4.48777L124.315 1.09343H125.768L126.541 4.48777C126.541 4.55005 126.541 4.62271 126.593 4.71613C126.646 4.80955 126.593 4.91335 126.593 5.01716C126.593 5.12096 126.593 5.21438 126.593 5.29742C126.593 5.23514 126.593 5.17286 126.593 5.1002C126.593 5.02754 126.593 4.95488 126.593 4.88222C126.593 4.80955 126.593 4.73689 126.593 4.66423C126.597 4.60546 126.597 4.54653 126.593 4.48777L127.398 1.09343H128.569L127.095 6.79218H126.217L125.391 3.28366C125.391 3.211 125.391 3.11758 125.339 3.01377C125.334 2.91349 125.334 2.81303 125.339 2.71275C125.339 2.61933 125.339 2.52591 125.339 2.45324C125.339 2.52591 125.339 2.61933 125.339 2.72313C125.339 2.82693 125.339 2.93073 125.339 3.03453C125.329 3.1189 125.311 3.20225 125.287 3.28366L124.471 6.79218H122.862Z" fill="url(#paint21_linear_553_17991)"/>
<path d="M130.628 6.79218V1.09343H131.757L134.004 4.2075C134.05 4.25963 134.092 4.31515 134.13 4.37358C134.179 4.43686 134.224 4.50269 134.266 4.57081C134.302 4.62319 134.334 4.67878 134.36 4.73689V1.09343H135.51V6.79218H134.391L132.091 3.67811L131.914 3.41861C131.865 3.35004 131.823 3.27705 131.788 3.20062V6.82332L130.628 6.79218Z" fill="url(#paint22_linear_553_17991)"/>
<path d="M137.631 6.79218V1.09343H142.116V2.13146H138.865V3.39784H141.739V4.43587H138.865V5.77491H142.168V6.81293L137.631 6.79218Z" fill="url(#paint23_linear_553_17991)"/>
<path d="M144.039 6.79218V1.09344H146.328C146.844 1.07828 147.357 1.18501 147.823 1.40484C148.231 1.60621 148.561 1.93423 148.764 2.33906C148.984 2.84534 149.098 3.39115 149.098 3.9428C149.098 4.49446 148.984 5.04027 148.764 5.54655C148.561 5.95138 148.231 6.2794 147.823 6.48077C147.357 6.7006 146.844 6.80733 146.328 6.79218H144.039ZM145.262 5.75416H146.307C146.529 5.75626 146.748 5.71754 146.955 5.63997C147.14 5.57366 147.305 5.46312 147.436 5.31818C147.571 5.16622 147.668 4.98484 147.718 4.7888C147.785 4.54888 147.817 4.30067 147.812 4.0518V3.80267C147.817 3.55038 147.785 3.29875 147.718 3.0553C147.668 2.85925 147.571 2.67787 147.436 2.52591C147.305 2.38097 147.14 2.27043 146.955 2.20412C146.75 2.12155 146.529 2.08266 146.307 2.08994H145.262V5.75416Z" fill="url(#paint24_linear_553_17991)"/>
<path d="M155.485 6.89598C155.054 6.90418 154.625 6.83381 154.22 6.68837C153.899 6.57929 153.616 6.38117 153.405 6.11746C153.213 5.86757 153.113 5.55971 153.122 5.24552C153.102 4.91372 153.21 4.58674 153.426 4.33206C153.629 4.10174 153.899 3.93877 154.199 3.86495C153.943 3.76106 153.712 3.60554 153.52 3.40822C153.335 3.18766 153.242 2.90568 153.258 2.61933C153.249 2.31145 153.349 2.01002 153.541 1.76815C153.744 1.5169 154.016 1.32945 154.325 1.22838C154.715 1.09696 155.125 1.03374 155.537 1.04153C155.939 1.03351 156.339 1.09679 156.718 1.22838C157.028 1.33662 157.303 1.52683 157.513 1.77853C157.692 2.01458 157.787 2.30292 157.784 2.59857V2.80617H156.739V2.67123C156.747 2.52406 156.699 2.37936 156.603 2.2664C156.508 2.14489 156.376 2.05742 156.227 2.01727C156.027 1.95919 155.819 1.9312 155.61 1.93423C155.444 1.93184 155.279 1.95281 155.119 1.99651C154.99 2.02072 154.868 2.07399 154.764 2.15222C154.668 2.22073 154.592 2.31159 154.541 2.41665C154.49 2.52172 154.466 2.63771 154.471 2.75427C154.466 2.9026 154.51 3.04854 154.596 3.16948C154.677 3.28275 154.79 3.36951 154.92 3.41861C155.056 3.47398 155.202 3.50219 155.349 3.50165H155.966V4.37358H155.328C155.165 4.3708 155.002 4.39537 154.847 4.44625C154.696 4.46773 154.554 4.53267 154.439 4.63309C154.344 4.77771 154.297 4.94826 154.304 5.12096C154.298 5.29186 154.349 5.4599 154.45 5.59845C154.555 5.73018 154.697 5.82779 154.858 5.87872C155.07 5.94621 155.293 5.97779 155.516 5.97214C155.747 5.9826 155.978 5.94731 156.196 5.86833C156.359 5.8166 156.499 5.71023 156.593 5.56731C156.67 5.42357 156.709 5.26299 156.708 5.1002V3.46012H158.621V4.33206H157.795V5.07944C157.803 5.41479 157.716 5.74561 157.544 6.03442C157.359 6.3209 157.089 6.54244 156.77 6.66761C156.362 6.82823 155.924 6.90588 155.485 6.89598Z" fill="url(#paint25_linear_553_17991)"/>
<path d="M164.976 6.89598C164.663 6.89394 164.351 6.85914 164.046 6.79218C163.77 6.7343 163.507 6.62512 163.272 6.47039C163.052 6.33311 162.869 6.1442 162.739 5.92024C162.604 5.66809 162.535 5.38586 162.54 5.1002V5.00678C162.539 4.98606 162.539 4.96522 162.54 4.9445H163.753C163.753 4.9445 163.753 4.9445 163.753 5.00678V5.07944C163.748 5.24057 163.8 5.39835 163.899 5.52579C164.006 5.66024 164.152 5.75823 164.317 5.80606C164.527 5.87204 164.746 5.9036 164.965 5.89948C165.105 5.91099 165.244 5.91099 165.384 5.89948C165.494 5.88044 165.602 5.85267 165.708 5.81644C165.792 5.78049 165.869 5.73143 165.938 5.67111C166 5.63158 166.047 5.57338 166.073 5.50503C166.107 5.43341 166.125 5.35559 166.126 5.27666C166.127 5.20943 166.115 5.14259 166.09 5.08015C166.065 5.01771 166.027 4.96097 165.979 4.91336C165.865 4.80706 165.73 4.72573 165.582 4.67461C165.404 4.59532 165.218 4.53277 165.028 4.48777L164.391 4.32169C164.174 4.25996 163.962 4.1872 163.753 4.1037C163.556 4.02328 163.37 3.91866 163.199 3.79229C163.034 3.66679 162.899 3.50746 162.802 3.32519C162.7 3.1113 162.65 2.87667 162.655 2.64009C162.651 2.38674 162.712 2.13649 162.833 1.91347C162.952 1.70595 163.121 1.53111 163.324 1.40484C163.553 1.26651 163.804 1.16821 164.067 1.1142C164.362 1.04963 164.663 1.01829 164.965 1.02078C165.257 1.01877 165.548 1.05012 165.833 1.1142C166.089 1.17169 166.334 1.27359 166.554 1.41522C166.756 1.54821 166.924 1.72586 167.046 1.93424C167.162 2.16609 167.219 2.42267 167.213 2.68161V2.78541H166.042V2.72313C166.047 2.58446 166.003 2.44852 165.917 2.33906C165.811 2.22975 165.683 2.14471 165.54 2.08994C165.364 2.02355 165.175 1.99182 164.986 1.99651C164.789 1.99328 164.593 2.0142 164.401 2.0588C164.266 2.09625 164.141 2.16368 164.035 2.25602C163.995 2.29521 163.963 2.34208 163.941 2.39381C163.92 2.44554 163.909 2.50107 163.91 2.55705C163.909 2.6196 163.921 2.68164 163.946 2.73895C163.972 2.79627 164.009 2.84752 164.056 2.88921C164.172 2.98482 164.303 3.06186 164.443 3.11758C164.628 3.18343 164.816 3.23888 165.007 3.28366L165.645 3.44975C165.861 3.51148 166.074 3.58423 166.283 3.66773C166.48 3.74646 166.667 3.8512 166.837 3.97914C166.998 4.10081 167.13 4.25687 167.223 4.43587C167.331 4.6369 167.385 4.86209 167.38 5.08982C167.393 5.46061 167.283 5.82534 167.066 6.12784C166.849 6.40077 166.554 6.60313 166.22 6.70914C165.819 6.83972 165.398 6.90287 164.976 6.89598Z" fill="url(#paint26_linear_553_17991)"/>
<path d="M169.188 6.79218V1.09343H173.662V2.13146H170.411V3.39784H173.254V4.43587H170.38V5.77491H173.683V6.81293L169.188 6.79218Z" fill="url(#paint27_linear_553_17991)"/>
<path d="M178.094 6.89598C177.578 6.91113 177.066 6.8044 176.599 6.58457C176.181 6.37442 175.846 6.03078 175.648 5.60883C175.418 5.08591 175.307 4.51862 175.324 3.948C175.293 3.54811 175.341 3.14597 175.467 2.76473C175.592 2.38349 175.792 2.03069 176.056 1.72663C176.327 1.47325 176.648 1.27799 176.999 1.15299C177.35 1.028 177.722 0.975925 178.094 1.00001C178.536 0.992247 178.974 1.07714 179.38 1.24914C179.751 1.40266 180.068 1.66292 180.289 1.99651C180.519 2.37089 180.631 2.80428 180.613 3.24214H179.39C179.398 3.01082 179.344 2.78157 179.234 2.57781C179.128 2.3963 178.972 2.24863 178.784 2.15222C178.572 2.05323 178.339 2.00354 178.105 2.0069C177.805 1.99657 177.509 2.0684 177.247 2.2145C177.016 2.35745 176.84 2.57299 176.746 2.82693C176.626 3.15961 176.573 3.51213 176.589 3.86495V4.12446C176.572 4.47822 176.629 4.83166 176.756 5.16248C176.847 5.41223 177.02 5.62429 177.247 5.76453C177.508 5.91218 177.805 5.98412 178.105 5.97214C178.349 5.97528 178.592 5.9257 178.815 5.82682C179.008 5.73793 179.168 5.59312 179.275 5.41161C179.394 5.21068 179.452 4.98006 179.443 4.74727H180.571C180.587 5.18354 180.479 5.61536 180.258 5.9929C180.036 6.32207 179.724 6.58139 179.359 6.74027C178.952 6.87481 178.522 6.92773 178.094 6.89598Z" fill="url(#paint28_linear_553_17991)"/>
<path d="M184.836 6.89598C184.384 6.9082 183.935 6.82321 183.519 6.64685C183.165 6.48727 182.869 6.22254 182.672 5.88909C182.464 5.50768 182.362 5.07728 182.38 4.64347V1.09343H183.603V4.63309C183.591 4.80243 183.614 4.97239 183.669 5.13288C183.725 5.29336 183.812 5.4411 183.927 5.56731C184.047 5.68231 184.19 5.77123 184.346 5.82842C184.503 5.8856 184.67 5.9098 184.836 5.89948C185.004 5.90999 185.173 5.88592 185.331 5.82876C185.489 5.7716 185.634 5.68259 185.756 5.56731C185.87 5.4411 185.958 5.29336 186.014 5.13288C186.069 4.97239 186.092 4.80243 186.08 4.63309V1.09343H187.303V4.63309C187.32 5.06691 187.219 5.4973 187.01 5.87872C186.814 6.21216 186.518 6.47689 186.164 6.63647C185.745 6.81787 185.292 6.90643 184.836 6.89598Z" fill="url(#paint29_linear_553_17991)"/>
<path d="M189.352 6.79218V1.09344H192.425C192.787 1.0782 193.148 1.1569 193.47 1.3218C193.736 1.46002 193.952 1.6779 194.087 1.94461C194.224 2.23331 194.292 2.54944 194.285 2.86845C194.301 3.22962 194.218 3.58817 194.045 3.90647C193.881 4.19178 193.633 4.42011 193.334 4.56043L194.474 6.84408H193.115L192.122 4.76803H190.564V6.84408L189.352 6.79218ZM190.564 3.74039H192.258C192.364 3.74434 192.47 3.72605 192.569 3.68672C192.668 3.64739 192.758 3.58787 192.833 3.51202C192.974 3.33583 193.045 3.11403 193.031 2.88921C193.034 2.74309 193.005 2.59806 192.948 2.46362C192.892 2.34794 192.8 2.25324 192.686 2.19374C192.553 2.12792 192.406 2.09583 192.258 2.10032H190.564V3.74039Z" fill="url(#paint30_linear_553_17991)"/>
<path d="M196.125 6.79218V1.09343H200.599V2.13146H197.348V3.39784H200.233V4.43587H197.348V5.77491H200.651V6.81293L196.125 6.79218Z" fill="url(#paint31_linear_553_17991)"/>
<path d="M202.522 6.79218V1.09344H204.811C205.324 1.07914 205.833 1.18587 206.296 1.40484C206.703 1.60621 207.034 1.93423 207.236 2.33906C207.457 2.84534 207.571 3.39115 207.571 3.94281C207.571 4.49446 207.457 5.04027 207.236 5.54655C207.034 5.95138 206.703 6.2794 206.296 6.48077C205.833 6.69974 205.324 6.80647 204.811 6.79218H202.522ZM203.735 5.75416H204.78C205.001 5.75626 205.221 5.71754 205.428 5.63997C205.614 5.57655 205.78 5.46556 205.909 5.31818C206.044 5.16622 206.14 4.98484 206.191 4.7888C206.258 4.54888 206.29 4.30067 206.285 4.0518V3.80267C206.29 3.55038 206.258 3.29875 206.191 3.0553C206.14 2.85925 206.044 2.67788 205.909 2.52591C205.78 2.37854 205.614 2.26754 205.428 2.20412C205.223 2.12155 205.002 2.08266 204.78 2.08994H203.735V5.75416Z" fill="url(#paint32_linear_553_17991)"/>
<path d="M214.428 6.89598C213.896 6.90849 213.37 6.7946 212.891 6.56381C212.463 6.35401 212.114 6.01157 211.898 5.58807C211.671 5.06709 211.554 4.50537 211.554 3.93762C211.554 3.36986 211.671 2.80814 211.898 2.28716C212.117 1.86585 212.465 1.52424 212.891 1.31142C213.386 1.0989 213.92 0.989258 214.459 0.989258C214.999 0.989258 215.532 1.0989 216.027 1.31142C216.451 1.52484 216.795 1.86658 217.01 2.28716C217.237 2.80814 217.354 3.36986 217.354 3.93762C217.354 4.50537 217.237 5.06709 217.01 5.58807C216.798 6.01084 216.453 6.35343 216.027 6.56381C215.53 6.80411 214.981 6.91824 214.428 6.89598ZM214.428 5.85796C214.666 5.86151 214.904 5.82285 215.128 5.74377C215.324 5.6668 215.499 5.54603 215.64 5.39084C215.784 5.22592 215.888 5.03066 215.944 4.81993C216.023 4.57163 216.062 4.3123 216.059 4.0518V3.80267C216.062 3.53538 216.023 3.26925 215.944 3.01377C215.888 2.80618 215.784 2.61432 215.64 2.45324C215.499 2.29806 215.324 2.17729 215.128 2.10032C214.904 2.02124 214.666 1.98258 214.428 1.98613C214.19 1.98428 213.953 2.0229 213.728 2.10032C213.535 2.17735 213.363 2.29823 213.226 2.45324C213.083 2.61432 212.979 2.80618 212.923 3.01377C212.847 3.26984 212.812 3.53593 212.818 3.80267V4.0518C212.812 4.31172 212.847 4.57098 212.923 4.81993C212.979 5.03066 213.082 5.22592 213.226 5.39084C213.363 5.54586 213.535 5.66674 213.728 5.74377C213.952 5.82827 214.188 5.87391 214.428 5.87872V5.85796Z" fill="url(#paint33_linear_553_17991)"/>
<path d="M219.111 6.79218V1.09343H220.229L222.487 4.2075L222.612 4.37358C222.661 4.43686 222.707 4.50269 222.748 4.57081L222.842 4.73689V1.09343H223.992V6.79218H222.874L220.564 3.67811L220.396 3.41861L220.261 3.20062V6.82332L219.111 6.79218Z" fill="url(#paint34_linear_553_17991)"/>
<path d="M229.428 6.79218L227.964 1.09343H229.25L230.076 4.48777C230.08 4.56382 230.08 4.64008 230.076 4.71613C230.076 4.80955 230.076 4.91335 230.128 5.01716C230.18 5.12096 230.128 5.21438 230.128 5.29742C230.134 5.22834 230.134 5.1589 230.128 5.08982C230.122 5.01381 230.122 4.93746 230.128 4.86146V4.65385C230.135 4.59873 230.135 4.54289 230.128 4.48777L230.891 1.09343H232.344L233.118 4.48777C233.144 4.56169 233.161 4.6383 233.17 4.71613C233.17 4.80955 233.17 4.91335 233.222 5.01716C233.274 5.12096 233.222 5.21438 233.222 5.29742V5.1002C233.222 5.02754 233.222 4.95488 233.222 4.88222C233.222 4.80955 233.222 4.73689 233.222 4.66423C233.226 4.60546 233.226 4.54653 233.222 4.48777L234.037 1.09343H235.198L233.724 6.79218H232.835L232.01 3.28366C232.01 3.211 232.01 3.11758 231.957 3.01377C231.952 2.91349 231.952 2.81303 231.957 2.71275C231.957 2.61933 231.957 2.52591 231.957 2.45324C231.957 2.52591 231.957 2.61933 231.957 2.72313C231.957 2.82693 231.957 2.93073 231.957 3.03453C231.957 3.13834 231.957 3.211 231.905 3.28366L231.079 6.79218H229.428Z" fill="url(#paint35_linear_553_17991)"/>
<path d="M237.225 6.79218V1.09343H241.699V2.13146H238.448V3.39784H241.323V4.43587H238.448V5.77491H241.752V6.81293L237.225 6.79218Z" fill="url(#paint36_linear_553_17991)"/>
<path d="M243.623 6.79218V1.09344H246.821C247.096 1.09042 247.368 1.15082 247.616 1.2699C247.846 1.37686 248.042 1.54589 248.18 1.75777C248.321 1.97774 248.394 2.23405 248.389 2.49476C248.393 2.70559 248.35 2.91471 248.264 3.1072C248.185 3.2721 248.073 3.41905 247.935 3.53876C247.796 3.65847 247.634 3.74834 247.459 3.80267C247.661 3.84013 247.851 3.9256 248.013 4.0518C248.174 4.17793 248.306 4.33729 248.4 4.51891C248.495 4.73443 248.542 4.96845 248.535 5.204C248.547 5.50751 248.467 5.8075 248.305 6.06556C248.154 6.29379 247.94 6.47397 247.689 6.58457C247.419 6.7028 247.127 6.76294 246.832 6.76103L243.623 6.79218ZM244.835 3.39785H246.424C246.556 3.40141 246.686 3.3691 246.8 3.30442C246.896 3.25052 246.976 3.17156 247.03 3.07606C247.078 2.97163 247.103 2.85847 247.103 2.74389C247.109 2.65324 247.096 2.56238 247.066 2.47677C247.035 2.39115 246.988 2.31254 246.926 2.24564C246.799 2.13458 246.635 2.07525 246.466 2.07956H244.804L244.835 3.39785ZM244.835 5.77491H246.591C246.686 5.78533 246.782 5.77405 246.872 5.74194C246.962 5.70983 247.044 5.65774 247.11 5.58964C247.177 5.52154 247.227 5.43923 247.256 5.34901C247.286 5.25879 247.294 5.16303 247.281 5.06906C247.283 4.93973 247.254 4.81177 247.197 4.69537C247.146 4.58888 247.062 4.50154 246.957 4.44625C246.827 4.38403 246.683 4.35547 246.539 4.36321H244.835V5.77491Z" fill="url(#paint37_linear_553_17991)"/>
<path d="M254.598 6.89598C254.2 6.90797 253.804 6.83358 253.438 6.67799C253.15 6.55031 252.906 6.34084 252.737 6.07594C252.575 5.81017 252.492 5.50434 252.497 5.19362V5.05868H253.605V5.21438C253.6 5.32125 253.619 5.42784 253.661 5.52653C253.702 5.62521 253.765 5.71357 253.845 5.78529C254.052 5.92013 254.293 5.99198 254.541 5.99198C254.788 5.99198 255.029 5.92013 255.236 5.78529C255.319 5.70322 255.384 5.60413 255.426 5.49484C255.467 5.38554 255.484 5.26862 255.476 5.1521C255.488 4.97709 255.444 4.80288 255.351 4.65385C255.266 4.53619 255.145 4.44884 255.006 4.40472C254.862 4.35038 254.71 4.32225 254.556 4.32168H254.054V3.44974H254.546C254.686 3.45662 254.827 3.42805 254.953 3.3667C255.076 3.3094 255.181 3.21963 255.257 3.1072C255.332 2.97089 255.368 2.81637 255.361 2.66085C255.369 2.5086 255.333 2.35733 255.257 2.22488C255.195 2.11158 255.095 2.02341 254.974 1.97575C254.842 1.91984 254.7 1.89157 254.556 1.89271C254.409 1.89216 254.264 1.92038 254.128 1.97575C254.001 2.02231 253.894 2.11014 253.824 2.22488C253.75 2.3502 253.713 2.49453 253.72 2.64009V2.76465H252.675V2.55705C252.671 2.26604 252.755 1.98054 252.915 1.73701C253.084 1.4932 253.32 1.30236 253.595 1.18686C253.927 1.05474 254.282 0.991168 254.64 1.00001C254.997 0.984208 255.353 1.04437 255.685 1.17647C255.961 1.2844 256.198 1.47252 256.365 1.71625C256.533 1.96006 256.617 2.25136 256.605 2.54667C256.613 2.74332 256.573 2.93897 256.49 3.11758C256.416 3.27941 256.309 3.42432 256.176 3.54317C256.041 3.65803 255.89 3.75247 255.727 3.82343C256.038 3.89616 256.313 4.07549 256.505 4.32989C256.696 4.58429 256.79 4.89747 256.772 5.21438C256.777 5.5215 256.686 5.82252 256.511 6.07594C256.34 6.33182 256.096 6.53078 255.811 6.64685C255.432 6.82439 255.016 6.90979 254.598 6.89598Z" fill="url(#paint38_linear_553_17991)"/>
<path d="M264.476 5.07944C264.275 5.08177 264.076 5.03166 263.901 4.93412C263.739 4.83177 263.603 4.69314 263.504 4.52929C263.405 4.35138 263.355 4.15107 263.357 3.948C263.353 3.73818 263.404 3.53086 263.504 3.34594C263.596 3.17711 263.733 3.03697 263.901 2.94111C264.073 2.83492 264.273 2.78082 264.476 2.78541C264.682 2.77878 264.886 2.83295 265.061 2.94111C265.233 3.03544 265.374 3.17572 265.469 3.34594C265.569 3.53086 265.619 3.73818 265.615 3.948C265.618 4.15107 265.567 4.35138 265.469 4.52929C265.369 4.69587 265.229 4.83503 265.061 4.93412C264.882 5.03297 264.68 5.08311 264.476 5.07944Z" fill="url(#paint39_linear_553_17991)"/>
<path d="M273.946 6.79218V2.13146H272.148V1.09343H276.977V2.13146H275.169V6.79218H273.946Z" fill="url(#paint40_linear_553_17991)"/>
<path d="M278.639 6.79218V1.09343H279.873V3.35632H282.35V1.09343H283.573V6.79218H282.35V4.40472H279.873V6.79218H278.639Z" fill="url(#paint41_linear_553_17991)"/>
<path d="M285.611 6.79218V1.09343H286.824V6.79218H285.611Z" fill="url(#paint42_linear_553_17991)"/>
<path d="M291.078 6.89598C290.765 6.89393 290.453 6.85914 290.148 6.79218C289.869 6.73233 289.604 6.62334 289.364 6.47039C289.149 6.32994 288.97 6.14155 288.841 5.92024C288.701 5.66985 288.633 5.38638 288.643 5.1002V5.00678C288.643 5.00678 288.643 5.00678 288.643 4.9445H289.855C289.855 4.9445 289.855 4.9445 289.855 5.00678V5.07944C289.846 5.24121 289.898 5.40061 290.001 5.52579C290.108 5.66023 290.254 5.75823 290.42 5.80606C290.629 5.87204 290.848 5.9036 291.068 5.89948C291.207 5.91098 291.347 5.91098 291.486 5.89948C291.596 5.88044 291.704 5.85267 291.81 5.81643C291.896 5.78221 291.976 5.73683 292.05 5.68149C292.109 5.63887 292.156 5.58161 292.186 5.51541C292.202 5.44009 292.202 5.36236 292.186 5.28704C292.189 5.22054 292.179 5.15413 292.155 5.09173C292.132 5.02933 292.096 4.97221 292.05 4.92373C291.936 4.81744 291.801 4.7361 291.653 4.68499C291.474 4.60715 291.289 4.54464 291.099 4.49815L290.461 4.33206C290.245 4.27194 290.032 4.19916 289.824 4.11408C289.625 4.03134 289.435 3.9269 289.259 3.80267C289.098 3.67654 288.966 3.51718 288.873 3.33556C288.771 3.12168 288.721 2.88705 288.726 2.65047C288.722 2.39712 288.783 2.14686 288.904 1.92385C289.023 1.71632 289.191 1.54149 289.395 1.41522C289.62 1.27707 289.868 1.17872 290.127 1.12457C290.426 1.06052 290.731 1.02919 291.036 1.03115C291.328 1.02969 291.619 1.06103 291.904 1.12457C292.16 1.18206 292.404 1.28396 292.625 1.4256C292.826 1.55611 292.992 1.73452 293.106 1.94461C293.231 2.17377 293.292 2.43165 293.284 2.69199V2.79579H292.103V2.73351C292.109 2.59278 292.061 2.45494 291.967 2.34944C291.868 2.23667 291.742 2.15089 291.601 2.10032C291.424 2.03492 291.236 2.00323 291.047 2.00689C290.85 2.00301 290.653 2.02393 290.461 2.06917C290.326 2.10663 290.201 2.17406 290.096 2.2664C290.055 2.30559 290.023 2.35245 290.002 2.40418C289.98 2.45592 289.97 2.51144 289.97 2.56742C289.967 2.62927 289.978 2.69104 290.001 2.74841C290.025 2.80578 290.06 2.85738 290.106 2.89959C290.228 2.99285 290.361 3.06964 290.503 3.12796C290.688 3.19381 290.877 3.24925 291.068 3.29404L291.705 3.46012C291.914 3.5224 292.134 3.59507 292.343 3.67811C292.54 3.75911 292.726 3.86368 292.897 3.98952C293.056 4.11419 293.187 4.26957 293.284 4.44625C293.388 4.64808 293.439 4.87334 293.43 5.1002C293.455 5.45455 293.358 5.80674 293.154 6.09906C292.951 6.39137 292.654 6.60648 292.312 6.70913C291.914 6.83971 291.497 6.90288 291.078 6.89598Z" fill="url(#paint43_linear_553_17991)"/>
<path d="M297.642 6.79218V1.09344H300.569C300.932 1.0782 301.292 1.1569 301.615 1.3218C301.882 1.46769 302.098 1.69258 302.231 1.96537C302.377 2.26983 302.449 2.60408 302.44 2.94111C302.459 3.30016 302.383 3.65784 302.221 3.97914C302.076 4.25076 301.854 4.47444 301.583 4.62271C301.263 4.7945 300.902 4.877 300.538 4.86146H298.876V6.84408L297.642 6.79218ZM298.865 3.79229H300.36C300.469 3.79923 300.579 3.78342 300.681 3.74588C300.784 3.70834 300.877 3.6499 300.956 3.57431C301.1 3.39912 301.174 3.17752 301.165 2.9515C301.172 2.79391 301.139 2.63709 301.071 2.49476C301.013 2.37545 300.923 2.27473 300.81 2.20412C300.669 2.13816 300.515 2.10614 300.36 2.1107H298.865V3.79229Z" fill="url(#paint44_linear_553_17991)"/>
<path d="M304.019 6.76103L304.186 1.0623L308.66 1.19724V2.23526L305.409 2.14183V3.41861L308.283 3.49127V4.52929L305.409 4.44624V5.83719L308.712 5.93062V6.96864L304.019 6.76103Z" fill="url(#paint45_linear_553_17991)"/>
<path d="M310.29 7.01016L310.949 1.35294L314.001 1.69549C314.372 1.72313 314.731 1.84074 315.046 2.03803C315.289 2.21284 315.474 2.45472 315.579 2.73351C315.685 3.0366 315.721 3.35944 315.684 3.67811C315.645 4.01888 315.52 4.34413 315.318 4.62271C315.129 4.89047 314.857 5.09062 314.545 5.19362L315.412 7.59145L314.074 7.43575L313.322 5.26628L311.775 5.08982L311.534 7.16586L310.29 7.01016ZM311.848 4.11408L313.531 4.30092C313.635 4.32102 313.743 4.31746 313.847 4.29051C313.95 4.26356 314.045 4.2139 314.127 4.14522C314.269 3.99533 314.354 3.8007 314.367 3.59507C314.405 3.45221 314.405 3.30196 314.367 3.1591C314.329 3.03761 314.252 2.93186 314.147 2.85807C314.02 2.78231 313.877 2.73617 313.729 2.72313L312.046 2.52591L311.848 4.11408Z" fill="url(#paint46_linear_553_17991)"/>
<path d="M319.029 8.39073C318.719 8.33344 318.417 8.23934 318.13 8.11046C317.871 7.99659 317.634 7.83849 317.43 7.64335C317.246 7.45865 317.106 7.2351 317.022 6.9894C316.948 6.71396 316.948 6.42404 317.022 6.1486C317.022 6.1486 317.022 6.0967 317.022 6.06556V5.9929L318.203 6.23164C318.197 6.25547 318.197 6.28047 318.203 6.3043V6.37697C318.172 6.53433 318.191 6.69726 318.255 6.84408C318.34 6.99092 318.463 7.11273 318.611 7.197C318.805 7.29761 319.013 7.37097 319.227 7.41499C319.367 7.42326 319.506 7.42326 319.646 7.41499C319.757 7.4263 319.869 7.4263 319.98 7.41499C320.071 7.4047 320.159 7.38017 320.241 7.34233C320.309 7.3056 320.37 7.25627 320.419 7.197C320.458 7.1325 320.486 7.06247 320.503 6.9894C320.52 6.92285 320.523 6.85359 320.512 6.7858C320.501 6.71802 320.477 6.65309 320.44 6.59495C320.346 6.47361 320.233 6.3684 320.105 6.28354C319.949 6.19012 319.781 6.08632 319.593 5.9929L318.997 5.70225C318.799 5.6004 318.607 5.48599 318.423 5.3597C318.241 5.24375 318.076 5.1041 317.931 4.94449C317.794 4.7929 317.694 4.61168 317.639 4.4151C317.586 4.1862 317.586 3.94853 317.639 3.71963C317.68 3.48066 317.787 3.2576 317.948 3.07462C318.108 2.89164 318.315 2.75572 318.548 2.68161C318.795 2.58856 319.057 2.53937 319.322 2.53628C319.627 2.5297 319.932 2.55756 320.231 2.61933C320.516 2.67784 320.793 2.76838 321.057 2.88921C321.298 2.99272 321.518 3.14063 321.705 3.32518C321.878 3.49622 322.007 3.70633 322.081 3.93761C322.139 4.1904 322.139 4.45297 322.081 4.70575V4.79917L320.921 4.57081V4.49814C320.953 4.36474 320.934 4.22441 320.869 4.1037C320.796 3.96994 320.687 3.85863 320.555 3.78191C320.396 3.68196 320.218 3.61488 320.032 3.58469C319.838 3.56162 319.641 3.56162 319.447 3.58469C319.305 3.58651 319.167 3.62984 319.05 3.70925C319 3.73763 318.958 3.77656 318.925 3.82323C318.893 3.86989 318.871 3.92314 318.862 3.97913C318.847 4.03803 318.846 4.09938 318.859 4.15867C318.872 4.21796 318.898 4.27367 318.935 4.32168C319.028 4.44464 319.145 4.54714 319.28 4.62271C319.444 4.72705 319.615 4.82066 319.792 4.90297L320.377 5.19362C320.579 5.29194 320.775 5.40289 320.963 5.52579C321.141 5.64179 321.303 5.78148 321.443 5.94099C321.577 6.09533 321.677 6.27564 321.736 6.47039C321.794 6.69161 321.794 6.92388 321.736 7.1451C321.68 7.51793 321.499 7.86135 321.224 8.12084C320.954 8.34498 320.623 8.48253 320.273 8.51529C319.854 8.54516 319.433 8.50302 319.029 8.39073Z" fill="url(#paint47_linear_553_17991)"/>
<path d="M325.489 10.01C324.975 9.86951 324.502 9.6098 324.109 9.25229C323.758 8.93087 323.523 8.50431 323.44 8.0378C323.373 7.47281 323.424 6.90026 323.59 6.35564C323.755 5.81103 324.032 5.30598 324.402 4.87183C324.729 4.53195 325.158 4.3062 325.625 4.22826C326.152 4.1598 326.689 4.20303 327.199 4.35509C327.709 4.50716 328.18 4.76462 328.583 5.11058C328.933 5.42637 329.165 5.85087 329.241 6.31468C329.327 6.88225 329.277 7.46199 329.095 8.00666C328.949 8.55462 328.673 9.05996 328.29 9.48065C327.964 9.82375 327.535 10.0531 327.067 10.1346C326.538 10.214 325.998 10.1714 325.489 10.01ZM325.781 9.0343C326.008 9.10335 326.245 9.13491 326.482 9.12773C326.691 9.11284 326.892 9.04493 327.067 8.9305C327.256 8.81429 327.416 8.65838 327.537 8.47377C327.68 8.25571 327.789 8.01783 327.861 7.76792L327.935 7.52917C328.014 7.27699 328.056 7.0148 328.06 6.75066C328.061 6.5324 328.014 6.31654 327.924 6.11746C327.835 5.93013 327.703 5.76648 327.537 5.63997C327.348 5.49555 327.131 5.38972 326.9 5.32856C326.674 5.25679 326.436 5.22861 326.199 5.24552C325.993 5.25504 325.791 5.31569 325.614 5.42198C325.428 5.54263 325.272 5.70204 325.154 5.8891C325.014 6.11194 324.905 6.35295 324.83 6.60533L324.757 6.84408C324.679 7.09289 324.636 7.35154 324.632 7.61221C324.626 7.83099 324.672 8.04802 324.767 8.24541C324.852 8.43227 324.982 8.59605 325.144 8.72289C325.335 8.86533 325.551 8.97096 325.781 9.0343Z" fill="url(#paint48_linear_553_17991)"/>
<path d="M329.837 11.2972L331.99 6.01366L333.036 6.43925L333.966 10.1242C333.966 10.1761 333.966 10.2384 334.018 10.3214C334.07 10.4045 334.018 10.4875 334.018 10.5602C334.018 10.6329 334.018 10.6951 334.018 10.7367C334.048 10.6484 334.083 10.5618 334.123 10.4772L334.217 10.2488L335.377 7.40461L336.422 7.8302L334.269 13.1137L333.224 12.6985L332.283 8.92012L332.22 8.61909C332.22 8.50491 332.22 8.42187 332.22 8.36997L332.126 8.59833L332.137 8.78518L330.945 11.702L329.837 11.2972Z" fill="url(#paint49_linear_553_17991)"/>
<path d="M335.628 13.6743L340.164 9.58445L341.502 10.2695L340.802 16.3108L339.631 15.7192L339.788 14.5358L337.614 13.4251L336.746 14.2452L335.628 13.6743ZM338.387 12.6985L339.934 13.4978L340.144 12.0238C340.134 11.9445 340.134 11.8644 340.144 11.7851C340.144 11.702 340.144 11.5982 340.144 11.4944L340.206 11.1726C340.206 11.0688 340.206 10.9754 340.206 10.882L339.945 11.1622L339.631 11.4633C339.537 11.5671 339.454 11.6397 339.391 11.702L338.387 12.6985Z" fill="url(#paint50_linear_553_17991)"/>
<path d="M341.973 17.0271L345.004 12.1899L346.049 12.8231L343.582 16.7676L345.987 18.2519L345.422 19.1446L341.973 17.0271Z" fill="url(#paint51_linear_553_17991)"/>
<path d="M350.251 22.7777C350.003 22.5865 349.779 22.367 349.582 22.1238C349.4 21.9084 349.259 21.6623 349.164 21.3971C349.078 21.1507 349.053 20.8872 349.091 20.629C349.143 20.3506 349.265 20.0899 349.446 19.8713L349.499 19.7986H349.551L350.502 20.5356V20.5979C350.4 20.7253 350.342 20.8816 350.335 21.0442C350.339 21.2136 350.398 21.3772 350.502 21.5113C350.624 21.6916 350.776 21.8497 350.952 21.9784L351.297 22.2172C351.397 22.2714 351.502 22.3166 351.61 22.3521C351.697 22.3656 351.785 22.3656 351.872 22.3521C351.944 22.3689 352.019 22.3689 352.091 22.3521C352.161 22.3187 352.222 22.2688 352.269 22.2068C352.355 22.0982 352.396 21.9607 352.384 21.8227C352.355 21.6735 352.302 21.5298 352.227 21.3971C352.125 21.2283 352.013 21.0654 351.892 20.9093L351.495 20.3903C351.359 20.2034 351.244 20.0166 351.129 19.8297C351.027 19.6422 350.946 19.4437 350.889 19.2381C350.842 19.0401 350.842 18.834 350.889 18.636C350.939 18.4044 351.043 18.1877 351.192 18.0028C351.338 17.8028 351.535 17.6453 351.763 17.5467C351.991 17.4481 352.241 17.4121 352.488 17.4423C352.752 17.4776 353.009 17.551 353.251 17.6603C353.525 17.7928 353.784 17.9528 354.025 18.1378C354.256 18.3178 354.467 18.5232 354.652 18.7502C354.813 18.9536 354.94 19.1814 355.028 19.4249C355.106 19.6639 355.122 19.9186 355.074 20.1653C355.027 20.4121 354.918 20.6429 354.757 20.8366L354.694 20.9093L353.763 20.1827C353.852 20.0783 353.901 19.9457 353.899 19.809C353.893 19.6576 353.846 19.5107 353.763 19.3834C353.662 19.2255 353.535 19.0852 353.387 18.9682C353.229 18.848 353.057 18.747 352.875 18.6671C352.749 18.605 352.607 18.5798 352.467 18.5945C352.356 18.6079 352.255 18.6637 352.185 18.7502C352.145 18.7988 352.115 18.8555 352.099 18.9164C352.083 18.9773 352.08 19.041 352.091 19.1031C352.12 19.2507 352.177 19.3916 352.258 19.5183C352.362 19.683 352.473 19.8424 352.593 19.9958L353 20.5148C353.126 20.7017 353.251 20.8781 353.366 21.0754C353.47 21.2585 353.551 21.4538 353.607 21.6567C353.654 21.8546 353.654 22.0607 353.607 22.2587C353.569 22.486 353.467 22.6981 353.314 22.8711C353.096 23.1803 352.779 23.4071 352.415 23.5147C352.068 23.6013 351.703 23.5796 351.37 23.4524C350.961 23.2928 350.582 23.0646 350.251 22.7777Z" fill="url(#paint52_linear_553_17991)"/>
<path d="M353.471 25.2482L357.359 21.0961L359.502 23.058C359.77 23.2848 359.972 23.5787 360.087 23.9092C360.176 24.1967 360.176 24.504 360.087 24.7915C359.985 25.1108 359.81 25.4022 359.575 25.6427C359.349 25.9021 359.062 26.1018 358.739 26.2239C358.443 26.3177 358.125 26.3177 357.83 26.2239C357.487 26.1305 357.174 25.9519 356.92 25.7049L355.697 24.5943L354.349 26.0475L353.471 25.2482ZM356.418 23.8676L357.464 24.9057C357.538 24.9847 357.629 25.0469 357.73 25.0881C357.831 25.1293 357.94 25.1485 358.049 25.1444C358.275 25.1124 358.48 24.9976 358.624 24.8226C358.735 24.7101 358.82 24.5757 358.875 24.4282C358.912 24.3028 358.912 24.1695 358.875 24.0441C358.823 23.8988 358.732 23.7698 358.614 23.6704L357.516 22.6324L356.418 23.8676Z" fill="url(#paint53_linear_553_17991)"/>
<path d="M357.338 28.7982L363.004 26.4938L364.049 27.5941L361.31 33.0334L360.422 32.0784L360.976 31.0404L359.314 29.2446L358.216 29.7221L357.338 28.7982ZM360.265 28.7982L361.404 30.0958L362.105 28.7775C362.191 28.6211 362.278 28.4654 362.366 28.3104C362.415 28.2066 362.467 28.1131 362.523 28.0301C362.586 27.9367 362.627 27.8536 362.68 27.7706L362.335 27.9471L361.948 28.1235L361.645 28.2688L360.265 28.7982Z" fill="url(#paint54_linear_553_17991)"/>
<path d="M363.568 36.0333C363.237 35.6392 363.005 35.1734 362.889 34.6734C362.794 34.2189 362.861 33.7459 363.077 33.3344C363.347 32.8297 363.729 32.393 364.195 32.0576C364.793 31.5081 365.587 31.2168 366.401 31.248C366.77 31.3068 367.123 31.4392 367.439 31.6373C367.755 31.8353 368.028 32.0948 368.241 32.4002C368.518 32.7424 368.721 33.1384 368.836 33.5628C368.951 33.9419 368.951 34.3462 368.836 34.7253C368.678 35.1401 368.402 35.5005 368.042 35.7634L367.289 34.798C367.479 34.6604 367.627 34.4737 367.718 34.2582C367.801 34.0651 367.823 33.8515 367.781 33.6458C367.73 33.4208 367.626 33.2109 367.477 33.0334C367.298 32.7911 367.056 32.6011 366.777 32.4832C366.523 32.4 366.248 32.4 365.993 32.4832C365.672 32.5852 365.374 32.7473 365.115 32.9607L364.906 33.1268C364.63 33.326 364.396 33.5763 364.216 33.8638C364.074 34.0937 364.012 34.3635 364.038 34.6319C364.084 34.9237 364.21 35.197 364.404 35.4208C364.545 35.6178 364.731 35.7781 364.948 35.8879C365.137 35.9878 365.352 36.0277 365.565 36.0021C365.8 35.9648 366.02 35.8643 366.202 35.7115L366.923 36.6353C366.587 36.9223 366.172 37.103 365.732 37.1543C365.337 37.1889 364.94 37.1058 364.592 36.9156C364.19 36.6992 363.841 36.398 363.568 36.0333Z" fill="url(#paint55_linear_553_17991)"/>
<path d="M366.14 39.2926L370.937 36.1786L373.394 39.9258L372.547 40.476L370.812 37.7356L369.767 38.4311L371.345 40.8185L370.498 41.3687L368.92 38.9812L367.749 39.7494L369.558 42.4897L368.7 43.0503L366.14 39.2926Z" fill="url(#paint56_linear_553_17991)"/>
<path d="M370.686 46.6418L375.746 43.9637L376.32 45.0018L371.261 47.6902L370.686 46.6418Z" fill="url(#paint57_linear_553_17991)"/>
<path d="M372.986 51.4479C372.856 51.1656 372.757 50.8696 372.693 50.5656C372.642 50.2876 372.642 50.0027 372.693 49.7248C372.732 49.4712 372.829 49.2297 372.976 49.0189C373.152 48.7933 373.382 48.6149 373.645 48.4999H373.801L374.303 49.5898H374.167C374.019 49.65 373.897 49.7603 373.822 49.9012C373.745 50.0553 373.716 50.2288 373.739 50.3995C373.768 50.6156 373.832 50.8258 373.927 51.0223C373.984 51.148 374.051 51.2694 374.125 51.3856C374.188 51.4804 374.262 51.5675 374.345 51.6451C374.409 51.7073 374.479 51.763 374.554 51.8112C374.626 51.8254 374.701 51.8254 374.774 51.8112C374.85 51.8246 374.927 51.8246 375.003 51.8112C375.128 51.7572 375.226 51.6564 375.275 51.5309C375.321 51.3833 375.339 51.2283 375.328 51.0742C375.326 50.8789 375.305 50.6842 375.265 50.4929C375.265 50.2853 375.192 50.0673 375.16 49.8493C375.12 49.6263 375.096 49.4009 375.087 49.1746C375.078 48.9656 375.095 48.7563 375.139 48.5518C375.183 48.3511 375.273 48.1629 375.401 48.0016C375.552 47.8201 375.746 47.6776 375.965 47.5864C376.194 47.4708 376.451 47.4205 376.707 47.4411C376.946 47.46 377.176 47.5386 377.376 47.6695C377.595 47.8187 377.789 48.0008 377.951 48.2093C378.139 48.4527 378.297 48.7176 378.422 48.9981C378.545 49.2597 378.636 49.535 378.693 49.8182C378.74 50.0721 378.74 50.3324 378.693 50.5863C378.653 50.825 378.56 51.0518 378.422 51.2507C378.258 51.4546 378.046 51.615 377.805 51.7178H377.721L377.219 50.6797H377.282C377.409 50.6274 377.513 50.5317 377.575 50.4099C377.638 50.2736 377.663 50.1231 377.648 49.9739C377.637 49.7858 377.588 49.602 377.502 49.4341C377.421 49.2534 377.319 49.0827 377.199 48.9255C377.111 48.8146 376.996 48.7287 376.864 48.6764C376.76 48.6353 376.644 48.6353 376.54 48.6764C376.482 48.6999 376.43 48.7365 376.388 48.7833C376.346 48.8301 376.316 48.8859 376.3 48.9463C376.271 49.0937 376.271 49.2451 376.3 49.3926C376.31 49.5878 376.335 49.782 376.373 49.9739C376.373 50.1815 376.456 50.3891 376.488 50.6175C376.519 50.8458 376.55 51.0638 376.561 51.2818C376.57 51.4942 376.553 51.707 376.509 51.915C376.461 52.1111 376.372 52.295 376.247 52.4548C376.103 52.6351 375.916 52.7777 375.704 52.87C375.365 53.0389 374.979 53.0936 374.606 53.0257C374.268 52.9389 373.962 52.7547 373.728 52.4963C373.425 52.1896 373.174 51.8354 372.986 51.4479Z" fill="url(#paint58_linear_553_17991)"/>
<path d="M376.268 59.7936C376.089 59.2987 376.031 58.7683 376.101 58.2469C376.165 57.7747 376.39 57.3386 376.739 57.0117C377.163 56.6361 377.66 56.3503 378.199 56.1719C378.738 55.9934 379.308 55.926 379.874 55.9737C380.343 56.0495 380.775 56.2712 381.108 56.6069C381.469 56.9961 381.736 57.4608 381.892 57.9667C382.071 58.4652 382.128 58.9988 382.059 59.5237C381.995 59.9913 381.778 60.4252 381.442 60.7589C381.019 61.146 380.511 61.4303 379.958 61.5894C379.421 61.7874 378.843 61.8516 378.275 61.7762C377.803 61.7025 377.367 61.4806 377.031 61.143C376.675 60.758 376.414 60.296 376.268 59.7936ZM377.24 59.4822C377.31 59.7075 377.419 59.9185 377.564 60.105C377.696 60.2665 377.864 60.3946 378.056 60.4787C378.257 60.5637 378.474 60.6061 378.693 60.6032C378.957 60.5915 379.217 60.5425 379.467 60.4579L379.707 60.3853C379.962 60.3047 380.205 60.1895 380.428 60.0427C380.609 59.9192 380.762 59.7602 380.878 59.5756C380.982 59.395 381.039 59.1918 381.045 58.9839C381.054 58.7477 381.018 58.5119 380.941 58.2884C380.871 58.0631 380.762 57.8521 380.617 57.6656C380.485 57.5041 380.317 57.376 380.125 57.292C379.923 57.2096 379.706 57.1707 379.488 57.1778C379.224 57.1895 378.964 57.2385 378.714 57.3231L378.463 57.4061C378.213 57.4788 377.977 57.591 377.763 57.7383C377.58 57.8588 377.426 58.0184 377.314 58.2054C377.203 58.3799 377.142 58.5806 377.136 58.7867C377.127 59.023 377.162 59.2589 377.24 59.4822Z" fill="url(#paint59_linear_553_17991)"/>
<path d="M377.878 64.8384L383.167 62.2018L383.439 63.4474L380.303 64.9733L380.104 65.0667L379.812 65.1809L379.54 65.2743H383.867L384.181 66.686L381.045 68.16L380.836 68.2535L380.554 68.3676L380.282 68.4714H381.108L384.62 68.5337L384.871 69.6652L378.955 69.4472L378.651 68.1081L381.923 66.5511L382.174 66.4473L382.467 66.3227L382.718 66.2293H378.244L377.878 64.8384Z" fill="url(#paint60_linear_553_17991)"/>
<path d="M379.373 72.281L385.07 71.6063L385.205 72.7066L382.404 75.3016L382.258 75.4366L382.07 75.6027L381.923 75.7065H382.446L385.519 75.3431L385.655 76.4746L379.958 77.1493L379.822 76.049L382.697 73.402L382.937 73.2048L383.136 73.0491H382.655L379.519 73.4228L379.373 72.281Z" fill="url(#paint61_linear_553_17991)"/>
<path d="M380.104 79.0593L385.833 78.8413L386 83.2944H384.954L384.829 80.0661H383.554L383.658 82.9207H382.613L382.509 80.0661H381.108L381.265 83.5228H380.219L380.104 79.0593Z" fill="url(#paint62_linear_553_17991)"/>
<path d="M375.867 86.4134L2.99979 86.4133C2.9998 45.2275 36.3875 11.8399 77.5733 11.8399L301.294 11.8399C342.48 11.8399 375.867 45.2276 375.867 86.4134Z" fill="url(#paint63_linear_553_17991)"/>
<path d="M176.703 39.9313C176.647 39.1321 176.324 38.5993 175.726 38.3329C175.121 38.0665 174.524 38.0665 173.926 38.3329C173.329 38.5993 173.006 39.1321 172.966 39.9313C172.974 41.239 172.974 42.5467 172.982 43.8545C172.982 44.4115 172.982 44.9685 172.99 45.5255C170.818 43.3298 168.437 41.4004 165.83 39.7294C165.37 39.4631 164.942 39.3743 164.538 39.4792C164.465 39.4873 164.401 39.5034 164.336 39.5196C163.803 39.681 163.432 39.9716 163.23 40.3995C163.02 40.8273 162.956 41.2955 163.028 41.8121C163.553 45.7111 164.409 49.5375 165.579 53.2912C165.862 54.0419 166.338 54.4617 166.992 54.5586C167.654 54.6554 168.227 54.5021 168.728 54.0823C169.228 53.6706 169.382 53.0732 169.18 52.2983C168.477 50.0541 167.896 47.7858 167.428 45.4932C169.608 47.3579 171.65 49.368 173.555 51.5314C174.169 52.1126 174.847 52.2418 175.565 51.9189C176.283 51.596 176.679 51.0309 176.736 50.2075C176.727 46.7848 176.719 43.3621 176.703 39.9313Z" fill="white"/>
<path d="M184.731 39.5115C184.247 39.3904 183.771 39.4469 183.311 39.6891C182.851 39.9313 182.56 40.3026 182.439 40.8112C182.318 41.4247 182.197 42.0462 182.076 42.6598C181.454 45.7757 180.841 48.8917 180.227 52.0077C180.13 52.5162 180.195 52.9925 180.413 53.4204C180.639 53.8482 181.01 54.1388 181.527 54.3003C182.019 54.4213 182.495 54.3568 182.947 54.1146C183.408 53.8805 183.698 53.5011 183.827 52.9925C184.07 51.7494 184.32 50.5062 184.562 49.263C185.054 46.7767 185.547 44.2904 186.039 41.8041C186.136 41.2874 186.072 40.8192 185.845 40.3914C185.619 39.9635 185.248 39.6649 184.731 39.5115Z" fill="white"/>
<path d="M206.887 48.0522C204.957 45.0008 203.423 41.7637 202.293 38.3329C201.922 37.4207 201.325 36.9767 200.517 37.001C199.702 37.0332 199.097 37.4772 198.693 38.3329L196.594 43.7253C195.359 42.1189 194.108 40.5286 192.84 38.9464C192.372 38.454 191.791 38.2925 191.105 38.4621C190.693 38.5347 190.338 38.7204 190.039 39.011C189.749 39.3097 189.579 39.7133 189.539 40.2299C189.361 44.1289 189.458 48.0279 189.837 51.9189C189.894 52.4355 190.08 52.8795 190.403 53.2428C190.725 53.606 191.161 53.7836 191.702 53.7836C192.195 53.7836 192.631 53.606 193.01 53.2428C193.389 52.8795 193.575 52.4436 193.575 51.9189C193.567 51.8382 193.567 51.7655 193.559 51.6848C193.551 51.5395 193.543 51.3861 193.535 51.2327C193.527 51.0874 193.51 50.9502 193.478 50.8291C193.325 49.0128 193.236 47.2046 193.204 45.3963C193.979 46.3973 194.754 47.4064 195.512 48.4235C196.053 49.0854 196.675 49.3761 197.369 49.2953C198.055 49.2065 198.58 48.7706 198.927 47.9795C199.444 46.6395 199.968 45.3075 200.485 43.9675C201.397 46.034 202.463 48.0279 203.666 49.9411C204.126 50.595 204.691 50.8856 205.353 50.8049C206.015 50.7322 206.531 50.4335 206.911 49.9008C207.282 49.3761 207.274 48.7625 206.887 48.0522Z" fill="white"/>
<path d="M215.189 39.5115C214.705 39.3904 214.229 39.4469 213.768 39.6891C213.308 39.9313 213.018 40.3026 212.897 40.8112C212.776 41.4247 212.654 42.0462 212.533 42.6598C211.912 45.7757 211.298 48.8917 210.685 52.0077C210.588 52.5162 210.653 52.9925 210.87 53.4204C211.096 53.8482 211.468 54.1388 211.984 54.3003C212.477 54.4213 212.953 54.3568 213.405 54.1146C213.865 53.8805 214.156 53.5011 214.285 52.9925C214.527 51.7494 214.778 50.5062 215.02 49.263C215.512 46.7767 216.005 44.2904 216.497 41.8041C216.594 41.2874 216.529 40.8192 216.303 40.3914C216.077 39.9635 215.706 39.6649 215.189 39.5115Z" fill="white"/>
<defs>
<linearGradient id="paint0_linear_553_17991" x1="46.7138" y1="-104.011" x2="176.007" y2="124.382" gradientUnits="userSpaceOnUse">
<stop stop-color="#4368EA"/>
<stop offset="1" stop-color="#C490DD"/>
</linearGradient>
<linearGradient id="paint1_linear_553_17991" x1="46.7138" y1="-104.011" x2="176.007" y2="124.382" gradientUnits="userSpaceOnUse">
<stop stop-color="#4368EA"/>
<stop offset="1" stop-color="#C490DD"/>
</linearGradient>
<linearGradient id="paint2_linear_553_17991" x1="46.7138" y1="-104.011" x2="176.007" y2="124.382" gradientUnits="userSpaceOnUse">
<stop stop-color="#4368EA"/>
<stop offset="1" stop-color="#C490DD"/>
</linearGradient>
<linearGradient id="paint3_linear_553_17991" x1="46.7138" y1="-104.011" x2="176.007" y2="124.382" gradientUnits="userSpaceOnUse">
<stop stop-color="#4368EA"/>
<stop offset="1" stop-color="#C490DD"/>
</linearGradient>
<linearGradient id="paint4_linear_553_17991" x1="46.7138" y1="-104.011" x2="176.007" y2="124.382" gradientUnits="userSpaceOnUse">
<stop stop-color="#4368EA"/>
<stop offset="1" stop-color="#C490DD"/>
</linearGradient>
<linearGradient id="paint5_linear_553_17991" x1="46.7138" y1="-104.011" x2="176.007" y2="124.382" gradientUnits="userSpaceOnUse">
<stop stop-color="#4368EA"/>
<stop offset="1" stop-color="#C490DD"/>
</linearGradient>
<linearGradient id="paint6_linear_553_17991" x1="46.7138" y1="-104.011" x2="176.007" y2="124.382" gradientUnits="userSpaceOnUse">
<stop stop-color="#4368EA"/>
<stop offset="1" stop-color="#C490DD"/>
</linearGradient>
<linearGradient id="paint7_linear_553_17991" x1="46.7138" y1="-104.011" x2="176.007" y2="124.382" gradientUnits="userSpaceOnUse">
<stop stop-color="#4368EA"/>
<stop offset="1" stop-color="#C490DD"/>
</linearGradient>
<linearGradient id="paint8_linear_553_17991" x1="46.7138" y1="-104.011" x2="176.007" y2="124.382" gradientUnits="userSpaceOnUse">
<stop stop-color="#4368EA"/>
<stop offset="1" stop-color="#C490DD"/>
</linearGradient>
<linearGradient id="paint9_linear_553_17991" x1="46.7138" y1="-104.011" x2="176.007" y2="124.382" gradientUnits="userSpaceOnUse">
<stop stop-color="#4368EA"/>
<stop offset="1" stop-color="#C490DD"/>
</linearGradient>
<linearGradient id="paint10_linear_553_17991" x1="46.7138" y1="-104.011" x2="176.007" y2="124.382" gradientUnits="userSpaceOnUse">
<stop stop-color="#4368EA"/>
<stop offset="1" stop-color="#C490DD"/>
</linearGradient>
<linearGradient id="paint11_linear_553_17991" x1="46.7138" y1="-104.011" x2="176.007" y2="124.382" gradientUnits="userSpaceOnUse">
<stop stop-color="#4368EA"/>
<stop offset="1" stop-color="#C490DD"/>
</linearGradient>
<linearGradient id="paint12_linear_553_17991" x1="46.7138" y1="-104.011" x2="176.007" y2="124.382" gradientUnits="userSpaceOnUse">
<stop stop-color="#4368EA"/>
<stop offset="1" stop-color="#C490DD"/>
</linearGradient>
<linearGradient id="paint13_linear_553_17991" x1="46.7138" y1="-104.011" x2="176.007" y2="124.382" gradientUnits="userSpaceOnUse">
<stop stop-color="#4368EA"/>
<stop offset="1" stop-color="#C490DD"/>
</linearGradient>
<linearGradient id="paint14_linear_553_17991" x1="46.7138" y1="-104.011" x2="176.007" y2="124.382" gradientUnits="userSpaceOnUse">
<stop stop-color="#4368EA"/>
<stop offset="1" stop-color="#C490DD"/>
</linearGradient>
<linearGradient id="paint15_linear_553_17991" x1="46.7138" y1="-104.011" x2="176.007" y2="124.382" gradientUnits="userSpaceOnUse">
<stop stop-color="#4368EA"/>
<stop offset="1" stop-color="#C490DD"/>
</linearGradient>
<linearGradient id="paint16_linear_553_17991" x1="46.7138" y1="-104.011" x2="176.007" y2="124.382" gradientUnits="userSpaceOnUse">
<stop stop-color="#4368EA"/>
<stop offset="1" stop-color="#C490DD"/>
</linearGradient>
<linearGradient id="paint17_linear_553_17991" x1="46.7138" y1="-104.011" x2="176.007" y2="124.382" gradientUnits="userSpaceOnUse">
<stop stop-color="#4368EA"/>
<stop offset="1" stop-color="#C490DD"/>
</linearGradient>
<linearGradient id="paint18_linear_553_17991" x1="46.7138" y1="-104.011" x2="176.007" y2="124.382" gradientUnits="userSpaceOnUse">
<stop stop-color="#4368EA"/>
<stop offset="1" stop-color="#C490DD"/>
</linearGradient>
<linearGradient id="paint19_linear_553_17991" x1="46.7138" y1="-104.011" x2="176.007" y2="124.382" gradientUnits="userSpaceOnUse">
<stop stop-color="#4368EA"/>
<stop offset="1" stop-color="#C490DD"/>
</linearGradient>
<linearGradient id="paint20_linear_553_17991" x1="46.7138" y1="-104.011" x2="176.007" y2="124.382" gradientUnits="userSpaceOnUse">
<stop stop-color="#4368EA"/>
<stop offset="1" stop-color="#C490DD"/>
</linearGradient>
<linearGradient id="paint21_linear_553_17991" x1="46.7138" y1="-104.011" x2="176.007" y2="124.382" gradientUnits="userSpaceOnUse">
<stop stop-color="#4368EA"/>
<stop offset="1" stop-color="#C490DD"/>
</linearGradient>
<linearGradient id="paint22_linear_553_17991" x1="46.7138" y1="-104.011" x2="176.007" y2="124.382" gradientUnits="userSpaceOnUse">
<stop stop-color="#4368EA"/>
<stop offset="1" stop-color="#C490DD"/>
</linearGradient>
<linearGradient id="paint23_linear_553_17991" x1="46.7138" y1="-104.011" x2="176.007" y2="124.382" gradientUnits="userSpaceOnUse">
<stop stop-color="#4368EA"/>
<stop offset="1" stop-color="#C490DD"/>
</linearGradient>
<linearGradient id="paint24_linear_553_17991" x1="46.7138" y1="-104.011" x2="176.007" y2="124.382" gradientUnits="userSpaceOnUse">
<stop stop-color="#4368EA"/>
<stop offset="1" stop-color="#C490DD"/>
</linearGradient>
<linearGradient id="paint25_linear_553_17991" x1="46.7138" y1="-104.011" x2="176.007" y2="124.382" gradientUnits="userSpaceOnUse">
<stop stop-color="#4368EA"/>
<stop offset="1" stop-color="#C490DD"/>
</linearGradient>
<linearGradient id="paint26_linear_553_17991" x1="46.7138" y1="-104.011" x2="176.007" y2="124.382" gradientUnits="userSpaceOnUse">
<stop stop-color="#4368EA"/>
<stop offset="1" stop-color="#C490DD"/>
</linearGradient>
<linearGradient id="paint27_linear_553_17991" x1="46.7138" y1="-104.011" x2="176.007" y2="124.382" gradientUnits="userSpaceOnUse">
<stop stop-color="#4368EA"/>
<stop offset="1" stop-color="#C490DD"/>
</linearGradient>
<linearGradient id="paint28_linear_553_17991" x1="46.7138" y1="-104.011" x2="176.007" y2="124.382" gradientUnits="userSpaceOnUse">
<stop stop-color="#4368EA"/>
<stop offset="1" stop-color="#C490DD"/>
</linearGradient>
<linearGradient id="paint29_linear_553_17991" x1="46.7138" y1="-104.011" x2="176.007" y2="124.382" gradientUnits="userSpaceOnUse">
<stop stop-color="#4368EA"/>
<stop offset="1" stop-color="#C490DD"/>
</linearGradient>
<linearGradient id="paint30_linear_553_17991" x1="46.7138" y1="-104.011" x2="176.007" y2="124.382" gradientUnits="userSpaceOnUse">
<stop stop-color="#4368EA"/>
<stop offset="1" stop-color="#C490DD"/>
</linearGradient>
<linearGradient id="paint31_linear_553_17991" x1="46.7138" y1="-104.011" x2="176.007" y2="124.382" gradientUnits="userSpaceOnUse">
<stop stop-color="#4368EA"/>
<stop offset="1" stop-color="#C490DD"/>
</linearGradient>
<linearGradient id="paint32_linear_553_17991" x1="46.7138" y1="-104.011" x2="176.007" y2="124.382" gradientUnits="userSpaceOnUse">
<stop stop-color="#4368EA"/>
<stop offset="1" stop-color="#C490DD"/>
</linearGradient>
<linearGradient id="paint33_linear_553_17991" x1="46.7138" y1="-104.011" x2="176.007" y2="124.382" gradientUnits="userSpaceOnUse">
<stop stop-color="#4368EA"/>
<stop offset="1" stop-color="#C490DD"/>
</linearGradient>
<linearGradient id="paint34_linear_553_17991" x1="46.7138" y1="-104.011" x2="176.007" y2="124.382" gradientUnits="userSpaceOnUse">
<stop stop-color="#4368EA"/>
<stop offset="1" stop-color="#C490DD"/>
</linearGradient>
<linearGradient id="paint35_linear_553_17991" x1="46.7138" y1="-104.011" x2="176.007" y2="124.382" gradientUnits="userSpaceOnUse">
<stop stop-color="#4368EA"/>
<stop offset="1" stop-color="#C490DD"/>
</linearGradient>
<linearGradient id="paint36_linear_553_17991" x1="46.7138" y1="-104.011" x2="176.007" y2="124.382" gradientUnits="userSpaceOnUse">
<stop stop-color="#4368EA"/>
<stop offset="1" stop-color="#C490DD"/>
</linearGradient>
<linearGradient id="paint37_linear_553_17991" x1="46.7138" y1="-104.011" x2="176.007" y2="124.382" gradientUnits="userSpaceOnUse">
<stop stop-color="#4368EA"/>
<stop offset="1" stop-color="#C490DD"/>
</linearGradient>
<linearGradient id="paint38_linear_553_17991" x1="46.7138" y1="-104.011" x2="176.007" y2="124.382" gradientUnits="userSpaceOnUse">
<stop stop-color="#4368EA"/>
<stop offset="1" stop-color="#C490DD"/>
</linearGradient>
<linearGradient id="paint39_linear_553_17991" x1="46.7138" y1="-104.011" x2="176.007" y2="124.382" gradientUnits="userSpaceOnUse">
<stop stop-color="#4368EA"/>
<stop offset="1" stop-color="#C490DD"/>
</linearGradient>
<linearGradient id="paint40_linear_553_17991" x1="46.7138" y1="-104.011" x2="176.007" y2="124.382" gradientUnits="userSpaceOnUse">
<stop stop-color="#4368EA"/>
<stop offset="1" stop-color="#C490DD"/>
</linearGradient>
<linearGradient id="paint41_linear_553_17991" x1="46.7138" y1="-104.011" x2="176.007" y2="124.382" gradientUnits="userSpaceOnUse">
<stop stop-color="#4368EA"/>
<stop offset="1" stop-color="#C490DD"/>
</linearGradient>
<linearGradient id="paint42_linear_553_17991" x1="46.7138" y1="-104.011" x2="176.007" y2="124.382" gradientUnits="userSpaceOnUse">
<stop stop-color="#4368EA"/>
<stop offset="1" stop-color="#C490DD"/>
</linearGradient>
<linearGradient id="paint43_linear_553_17991" x1="46.7138" y1="-104.011" x2="176.007" y2="124.382" gradientUnits="userSpaceOnUse">
<stop stop-color="#4368EA"/>
<stop offset="1" stop-color="#C490DD"/>
</linearGradient>
<linearGradient id="paint44_linear_553_17991" x1="46.7138" y1="-104.011" x2="176.007" y2="124.382" gradientUnits="userSpaceOnUse">
<stop stop-color="#4368EA"/>
<stop offset="1" stop-color="#C490DD"/>
</linearGradient>
<linearGradient id="paint45_linear_553_17991" x1="46.7138" y1="-104.011" x2="176.007" y2="124.382" gradientUnits="userSpaceOnUse">
<stop stop-color="#4368EA"/>
<stop offset="1" stop-color="#C490DD"/>
</linearGradient>
<linearGradient id="paint46_linear_553_17991" x1="46.7138" y1="-104.011" x2="176.007" y2="124.382" gradientUnits="userSpaceOnUse">
<stop stop-color="#4368EA"/>
<stop offset="1" stop-color="#C490DD"/>
</linearGradient>
<linearGradient id="paint47_linear_553_17991" x1="46.7138" y1="-104.011" x2="176.007" y2="124.382" gradientUnits="userSpaceOnUse">
<stop stop-color="#4368EA"/>
<stop offset="1" stop-color="#C490DD"/>
</linearGradient>
<linearGradient id="paint48_linear_553_17991" x1="46.7138" y1="-104.011" x2="176.007" y2="124.382" gradientUnits="userSpaceOnUse">
<stop stop-color="#4368EA"/>
<stop offset="1" stop-color="#C490DD"/>
</linearGradient>
<linearGradient id="paint49_linear_553_17991" x1="46.7138" y1="-104.011" x2="176.007" y2="124.382" gradientUnits="userSpaceOnUse">
<stop stop-color="#4368EA"/>
<stop offset="1" stop-color="#C490DD"/>
</linearGradient>
<linearGradient id="paint50_linear_553_17991" x1="46.7138" y1="-104.011" x2="176.007" y2="124.382" gradientUnits="userSpaceOnUse">
<stop stop-color="#4368EA"/>
<stop offset="1" stop-color="#C490DD"/>
</linearGradient>
<linearGradient id="paint51_linear_553_17991" x1="46.7138" y1="-104.011" x2="176.007" y2="124.382" gradientUnits="userSpaceOnUse">
<stop stop-color="#4368EA"/>
<stop offset="1" stop-color="#C490DD"/>
</linearGradient>
<linearGradient id="paint52_linear_553_17991" x1="46.7138" y1="-104.011" x2="176.007" y2="124.382" gradientUnits="userSpaceOnUse">
<stop stop-color="#4368EA"/>
<stop offset="1" stop-color="#C490DD"/>
</linearGradient>
<linearGradient id="paint53_linear_553_17991" x1="46.7138" y1="-104.011" x2="176.007" y2="124.382" gradientUnits="userSpaceOnUse">
<stop stop-color="#4368EA"/>
<stop offset="1" stop-color="#C490DD"/>
</linearGradient>
<linearGradient id="paint54_linear_553_17991" x1="46.7138" y1="-104.011" x2="176.007" y2="124.382" gradientUnits="userSpaceOnUse">
<stop stop-color="#4368EA"/>
<stop offset="1" stop-color="#C490DD"/>
</linearGradient>
<linearGradient id="paint55_linear_553_17991" x1="46.7138" y1="-104.011" x2="176.007" y2="124.382" gradientUnits="userSpaceOnUse">
<stop stop-color="#4368EA"/>
<stop offset="1" stop-color="#C490DD"/>
</linearGradient>
<linearGradient id="paint56_linear_553_17991" x1="46.7138" y1="-104.011" x2="176.007" y2="124.382" gradientUnits="userSpaceOnUse">
<stop stop-color="#4368EA"/>
<stop offset="1" stop-color="#C490DD"/>
</linearGradient>
<linearGradient id="paint57_linear_553_17991" x1="46.7138" y1="-104.011" x2="176.007" y2="124.382" gradientUnits="userSpaceOnUse">
<stop stop-color="#4368EA"/>
<stop offset="1" stop-color="#C490DD"/>
</linearGradient>
<linearGradient id="paint58_linear_553_17991" x1="46.7138" y1="-104.011" x2="176.007" y2="124.382" gradientUnits="userSpaceOnUse">
<stop stop-color="#4368EA"/>
<stop offset="1" stop-color="#C490DD"/>
</linearGradient>
<linearGradient id="paint59_linear_553_17991" x1="46.7138" y1="-104.011" x2="176.007" y2="124.382" gradientUnits="userSpaceOnUse">
<stop stop-color="#4368EA"/>
<stop offset="1" stop-color="#C490DD"/>
</linearGradient>
<linearGradient id="paint60_linear_553_17991" x1="46.7138" y1="-104.011" x2="176.007" y2="124.382" gradientUnits="userSpaceOnUse">
<stop stop-color="#4368EA"/>
<stop offset="1" stop-color="#C490DD"/>
</linearGradient>
<linearGradient id="paint61_linear_553_17991" x1="46.7138" y1="-104.011" x2="176.007" y2="124.382" gradientUnits="userSpaceOnUse">
<stop stop-color="#4368EA"/>
<stop offset="1" stop-color="#C490DD"/>
</linearGradient>
<linearGradient id="paint62_linear_553_17991" x1="46.7138" y1="-104.011" x2="176.007" y2="124.382" gradientUnits="userSpaceOnUse">
<stop stop-color="#4368EA"/>
<stop offset="1" stop-color="#C490DD"/>
</linearGradient>
<linearGradient id="paint63_linear_553_17991" x1="339.287" y1="191.414" x2="209.994" y2="-36.9793" gradientUnits="userSpaceOnUse">
<stop stop-color="#4368EA"/>
<stop offset="1" stop-color="#C490DD"/>
</linearGradient>
</defs>
</svg>
