<svg fill="none" height="87" viewBox="0 0 386 87" width="386" xmlns="http://www.w3.org/2000/svg" xmlns:xlink="http://www.w3.org/1999/xlink"><linearGradient id="a"><stop offset="0" stop-color="#4368ea"/><stop offset="1" stop-color="#c490dd"/></linearGradient><linearGradient id="b" gradientUnits="userSpaceOnUse" x1="46.7138" x2="176.007" xlink:href="#a" y1="-104.011" y2="124.382"/><linearGradient id="c" gradientUnits="userSpaceOnUse" x1="339.287" x2="209.994" xlink:href="#a" y1="191.414" y2="-36.9793"/><g fill="url(#b)"><path d="m2.24714 57.0117c-.06161.1913-.17781.3608-.33449.4878-.14828.1204-.32424.2024-.51219.2388-.20755.0322-.419941.0107-.616714-.0623-.202771-.064-.383695-.1825-.522639-.3425-.123651-.1396-.2073125-.3095-.2422476-.4921-.034935-.1826-.01986064-.3711.0436463-.546.0658703-.1948.1853613-.3674.3449393-.4982.148297-.1266.329369-.2093.522639-.2388.207186-.0416.422216-.0199.616716.0623.19402.0645.36722.1791.50173.3322.1242.1466.21034.3213.25087.5086.02538.185.0075.3732-.05226.5502z"/><path d="m7.50488 49.1123-4.1811-2.076-.81532 1.5882-.9303-.4672 2.18463-4.2766.9303.4671-.77351 1.5674 4.18111 2.0761z"/><path d="m9.6268 45.1159-4.88145-2.9791.63762-1.038 1.93377 1.1833 1.29614-2.076-1.93376-1.1833.63762-1.0381 4.89186 2.9792-.6376 1.038-2.09054-1.256-1.29614 2.076 2.09058 1.256z"/><path d="m13.3271 39.3445-4.68286-3.3009.71079-1.038 4.68287 3.2905z"/><path d="m16.6406 35.1406c-.1989.2409-.4232.4602-.669.6539-.2171.1779-.4651.3151-.7317.4048-.2491.0819-.5143.1033-.7735.0623-.2816-.0537-.5445-.1788-.763-.3633l-.0732-.0519.7526-.9342c.0172.004.0351.004.0523 0 .1218.1054.2774.1643.439.1661.1731.0015.3419-.0532.4808-.1557.1822-.1195.3445-.2666.4808-.436.0941-.1246.1777-.2387.2405-.3425.0546-.0996.1-.2038.1358-.3115.0129-.086.0129-.1734 0-.2595.017-.0717.017-.1463 0-.2179-.0363-.0681-.086-.1281-.1463-.1765-.0507-.0449-.1106-.0783-.1755-.098-.065-.0198-.1335-.0253-.2008-.0162-.1548.0181-.3042.0676-.439.1453-.1693.0988-.3333.2062-.4913.3218l-.5331.3841c-.1828.1344-.3749.2558-.5749.3633-.1844.1033-.381.1835-.5853.2387-.2035.0417-.4133.0417-.6168 0-.2312-.0521-.4463-.159-.6271-.3114-.2034-.1533-.3621-.3575-.4599-.5916-.0855-.225-.1142-.4674-.0837-.7059.0295-.2644.1074-.5212.23-.7577.1298-.2728.2949-.5276.4913-.7578.1814-.2268.3883-.4323.6167-.6124.2064-.1609.44-.284.6899-.3633.2334-.0572.4773-.0572.7108 0 .2573.0519.4979.166.7003.3321l.0732.0623-.7422.9135h-.0522c-.1052-.0883-.2387-.1362-.3763-.135-.153.0031-.3018.0499-.4286.135-.1588.0971-.3001.2199-.4181.3633-.1278.1504-.2334.3182-.3136.4982-.0636.1252-.0925.2649-.0836.4048.0072.057.0257.1121.0544.1619.0287.0499.067.0937.1128.1288.047.0399.1023.069.1619.0852.0597.0161.1222.0189.1831.0082.1486-.0287.2905-.085.4181-.1661.1681-.0952.3288-.2028.4808-.3218l.5854-.4359c.1853-.1274.3772-.2452.5749-.353.1822-.1076.3795-.188.5853-.2387.1994-.0468.4069-.0468.6063 0 .2242.0426.4332.1428.6062.2907.3082.2218.5327.5397.6377.903.0812.3455.0557.7072-.0732 1.038-.1702.3801-.3956.7333-.669 1.0485z"/><path d="m20.7695 30.2411-4.0453-4.0275 2.0906-2.0761c.2414-.2538.5434-.443.878-.5501.2895-.0882.599-.0882.8885 0 .3202.118.6095.306.8467.5501.2456.2377.4318.5292.5435.8512.0945.2937.0945.6094 0 .9031-.1063.336-.2969.6396-.554.8823l-1.202 1.2145 1.4111 1.4013zm-1.2648-2.9688 1.0452-1.038c.0819-.0735.1474-.1632.1924-.2633s.0685-.2084.069-.318c-.0206-.2234-.1251-.4309-.2927-.5813-.1076-.1143-.2398-.203-.3868-.2595-.1291-.0412-.268-.0412-.3972 0-.1471.0511-.2798.1365-.3867.2492l-1.0453 1.038z"/><path d="m25.2746 25.8918-3.7003-4.3493 3.4181-2.865.6585.7682-2.4773 2.076.8258.9757 2.195-1.8476.6481.7681-2.1951 1.8996.899 1.038 2.5295-2.076.6586.7785z"/><path d="m30.1142 21.9265-3.324-4.6399 2.5087-1.7647c.2828-.2189.6176-.3618.9721-.4152.2986-.0445.6036.0103.8676.1557.2817.1556.5246.372.7108.6332.2023.2791.3316.6037.3763.9446.0288.3274-.0403.656-.1986.9446l2.2578 1.2041-1.0453.7786-2.0174-1.1315-1.2752.9031 1.1498 1.7023zm-.7839-3.1867 1.3797-.9757c.0903-.0564.1663-.1324.2225-.2223.0561-.09.0909-.1915.1016-.2967.0199-.2207-.0476-.4404-.1882-.6125-.0802-.1262-.1918-.2299-.324-.301-.1119-.0599-.2393-.0852-.3659-.0727-.149.0227-.2895.0835-.4076.1765l-1.3798.9654z"/><path d="m37.5252 17.162c-.2711.1579-.5585.2866-.8571.3841-.2691.0905-.5522.1326-.8362.1245-.2615-.012-.5161-.0868-.7421-.2179-.2449-.1463-.4468-.3539-.5854-.6021v-.083c-.0072-.0202-.0072-.0422 0-.0623l1.0453-.6124c-.0046.0205-.0046.0417 0 .0622v.0623c.0798.143.2047.256.3554.3218.1637.0485.338.0485.5017 0 .2107-.0509.4119-.135.5958-.2491.1285-.0693.2508-.1492.3659-.2388.085-.0708.1653-.1471.2404-.2283.0548-.0739.1004-.1541.1359-.2388.02-.0713.02-.1467 0-.218-.0093-.0784-.0381-.1533-.0837-.2179-.0316-.0581-.0748-.1093-.1269-.1503s-.112-.0711-.1762-.0885c-.1517-.0316-.3083-.0316-.4599 0l-.5749.1038-.6376.1765c-.2162.0598-.4362.1049-.6586.1349-.2117.0258-.4258.0258-.6376 0-.2068-.0245-.4062-.0917-.5853-.1972-.1951-.1346-.3561-.3122-.4704-.519-.1387-.2139-.2147-.4619-.2195-.7163-.0069-.2391.0509-.4756.1672-.6851.1244-.2326.2869-.443.4809-.6228.2225-.2068.468-.3878.7316-.5397.2493-.1495.5161-.268.7945-.353.2486-.084.5113-.1192.7735-.1038.2521.0118.497.0876.7111.2203s.3904.3178.5118.5375v.083l-1.0452.6021v-.0623c-.0705-.1205-.1816-.2124-.3136-.2595-.1447-.0309-.2944-.0309-.439 0-.1863.0344-.3639.105-.5227.2076-.1737.0936-.3322.2126-.4704.3529-.1024.097-.178.2186-.2195.353-.0413.1033-.0413.2184 0 .3217.0302.0541.0721.1008.1227.1367.0507.0359.1087.0602.17.0709.1481.0324.3014.0324.4495 0 .1941-.0336.3861-.0787.5749-.1349l.6376-.1765c.2195-.0622.439-.1038.6585-.1453.2118-.0258.4259-.0258.6376 0 .2024.0296.3974.0965.5749.1972.1889.1299.3461.3002.46.4983.2015.3076.2969.6719.2717 1.038-.0488.3481-.2017.6735-.439.9342-.2413.3136-.5347.5839-.8676.7993z"/><path d="m43.4206 14.0479c-.4722.2404-.9955.3649-1.5261.3634-.4747-.0015-.9364-.1544-1.3171-.436-.4515-.3566-.81-.8159-1.0452-1.3391-.2693-.5089-.4092-1.0755-.4077-1.6504.0156-.4709.1802-.9248.4704-1.29754.3432-.40251.7714-.72502 1.2543-.9446.4777-.23574 1.0032-.36 1.5366-.36331.4751.00037.936.16146 1.3066.45673.4283.37531.7759.83262 1.0219 1.34452.2461.5119.3856 1.0679.4101 1.6346-.0107.4635-.1639.9126-.439 1.2871-.3389.4114-.7728.7355-1.2648.9446zm-.439-.9134c.2187-.0977.4172-.235.5853-.4048.144-.1486.2482-.3306.3032-.5294.0527-.2114.0527-.4323 0-.6436-.0404-.2422-.1179-.4767-.23-.6955l-.115-.2387c-.1119-.2365-.2561-.4566-.4285-.65398-.1479-.16454-.3297-.29553-.5331-.38407-.1903-.08362-.3994-.11585-.6063-.09342-.2372.02145-.4679.08843-.6794.19723-.217.09062-.4128.22493-.5749.39444-.147.148-.2548.3299-.3136.5294-.0425.2124-.0425.4311 0 .6436.0439.2606.1285.5127.2509.7473l.1045.2388c.1093.2348.2538.4517.4286.6436.1441.164.3225.2951.5226.384.1909.0821.3987.1176.6063.1038.2392-.0377.4695-.1186.6794-.2387z"/><path d="m47.5076 12.1172-1.9651-5.35617 1.0453-.37369 3.1358 2.07605.1777.1038.1986.14533.1359.11418c-.0303-.08824-.0652-.17486-.1045-.25951 0-.08304 0-.16608-.0836-.22836l-1.0453-2.8857 1.0453-.39445 1.9755 5.34582-1.0452.3841-3.1568-2.13837c-.0885-.05554-.1724-.11802-.2508-.18684-.0712-.0454-.1377-.09754-.1986-.1557l.094.23874c0 .07266.0523.14533.0732.20761l1.0453 2.95836z"/><path d="m53.4239 10.0204.6063-6.06203 1.4529-.3633 3.5644 4.96174-1.2752.33217-.6795-.98612-2.3623.62281-.0941 1.19373zm1.3902-2.56389 1.6829-.44635-.8466-1.22487-.1255-.19722-.1672-.24913c-.0627-.09342-.115-.18684-.1673-.28026l-.1568-.24913h-.0522v.38407.42559.33217z"/><path d="m60.3646 8.27655-1.0453-5.60532 1.2021-.20761.8257 4.5673 2.7805-.49825.1881 1.03802z"/><path d="m70.4097 7.06206c-.3128.0315-.628.0315-.9408 0-.2661-.07402-.5172-.19344-.7421-.35293-.2333-.12124-.4312-.29995-.5749-.51901-.1461-.24232-.2287-.5171-.2404-.79928v-.1557l1.2125-.08304c-.0055.00947-.0084.02021-.0084.03114s.0029.02168.0084.03114v.07266c.0058.16465.0685.32229.1777.44635.1119.12496.2628.20903.4285.23875.2156.05035.4377.06785.6586.0519.1409-.00825.2809-.0291.4181-.06228.1088-.02035.2142-.05527.3136-.1038.0864-.03112.1649-.08073.2299-.14533.0576-.04608.101-.1072.1255-.17646.0209-.0747.0209-.15366 0-.22836-.0013-.06721-.0169-.13338-.0457-.1942s-.0703-.11491-.1216-.15873c-.1178-.10201-.2571-.1765-.4076-.21799-.1887-.05952-.3806-.10804-.575-.14532l-.6376-.12456c-.2235-.04292-.4436-.1019-.6585-.17647-.2019-.06667-.3949-.15729-.5749-.26988-.1697-.11327-.3125-.26208-.4181-.43597-.12-.20571-.1882-.4372-.1986-.67472-.0262-.25241.0172-.50713.1254-.73699.1055-.21526.2636-.40084.4599-.53977.2198-.15286.4635-.2686.7213-.34255.2923-.08724.5941-.1395.8989-.1557.2883-.03163.5793-.03163.8676 0 .2601.04544.5108.13311.7422.2595.2067.12071.3821.28778.5121.48787.1399.22165.2191.47566.23.737v.09342l-1.1916.08304v-.06228c-.0036-.13961-.0595-.27287-.1568-.37369-.1055-.10978-.2393-.18876-.3868-.22836-.1831-.03334-.3708-.03334-.554 0-.1989.00781-.3959.04274-.5853.1038-.1359.03987-.2587.11514-.3554.21798-.07.0887-.107.19873-.1045.31141.0023.06255.0185.12382.0474.17944s.0698.10422.1198.14234c.1249.08609.2624.15261.4077.19723.1889.05571.3808.10076.5749.13495l.6062.17646c.2195 0 .4286.1038.6481.17646.2001.07103.3926.16142.5749.26989.1746.11601.3207.26955.4275.44923.1067.17968.1714.38091.1892.58879.0295.36234-.0545.72486-.2404 1.03802-.2006.28852-.485.50941-.8153.63319-.3773.16812-.7799.27333-1.1916.31141z"/><path d="m74.4549 6.79218v-5.69874h2.9268c.3625-.01524.7227.06346 1.0452.22836.2678.14589.4833.37078.6168.64357.1458.30446.2174.63871.209.97574.0186.35905-.057.71673-.2195 1.03803-.144.26881-.3613.49186-.6271.64357-.3216.1685-.6819.25079-1.0453.23875h-1.662v1.98262zm1.223-2.99989h1.4947c.1092.0076.2188-.0079.3215-.04548s.1962-.09637.2743-.1725c.1442-.17519.2185-.39679.2091-.62281.0067-.15759-.0256-.31441-.0941-.45674-.0579-.11931-.1485-.22003-.2613-.29064-.1399-.06713-.2942-.0992-.4495-.09342h-1.4947z"/><path d="m79.8799 6.79218 2.1637-5.69875h1.5052l2.1533 5.69875h-1.2962l-.4181-1.12107h-2.4459l-.3972 1.12107zm2.0174-2.07605h1.7351l-.4912-1.40133-.0837-.21798-.094-.29065-.0941-.31141c0-.1038 0-.19722-.0836-.28026 0 .1038-.0628.22836-.1046.37368l-.1254.40483c-.0523.12457-.0836.23875-.115.32179z"/><path d="m89.6323 6.89598c-.516.01515-1.0283-.09158-1.4947-.31141-.4144-.212-.7455-.55544-.9408-.97574-.2359-.52128-.3468-1.08979-.324-1.66083-.0811-.79913.1594-1.59768.669-2.22137.2714-.25338.5924-.44864.9431-.57364.3506-.12499.7234-.177065 1.0952-.15298.4447-.00676.886.07807 1.2961.24913.3653.15888.6772.4182.8989.74737.2331.37325.3495.80672.3345 1.24563h-1.2334c-.001-.24222-.0698-.4794-.1986-.68509-.1029-.18381-.2597-.33222-.4495-.42559-.2087-.09884-.4377-.14857-.6689-.14532-.3029-.01064-.6029.06115-.8676.2076-.2282.14638-.4039.36078-.5018.61243-.1193.33268-.1726.6852-.1567 1.03803v.2595c-.0171.35377.0398.7072.1672 1.03802.0911.24975.2641.46181.4913.60205.2604.14764.5574.21958.8571.20761.2447.00314.4872-.04644.7108-.14532.1922-.08889.3525-.2337.4599-.41521.1188-.20093.1768-.43155.1673-.66434h1.1811c.0127.43728-.0996.86917-.324 1.24563-.2171.33328-.5304.59375-.8989.74737-.389.13588-.8007.19581-1.2126.17647z"/><path d="m93.8657 6.79218v-5.69875h4.4738v1.03803h-3.2508v1.26638h2.9058v1.03803h-2.8745v1.33904h3.3031v1.03802z"/><path d="m102.698 6.79218v-5.69875h1.213v5.69875z"/><path d="m108.165 6.89598c-.313-.00205-.625-.03684-.93-.1038-.279-.05985-.544-.16884-.784-.32179-.216-.14307-.398-.33074-.533-.55015-.132-.25311-.197-.53528-.188-.82004v-.09342s0 0 0-.06229h1.212v.06229.07266c-.008.15988.04.31753.136.44635.113.13234.262.22963.429.28026.205.06597.421.09754.637.09343.143.01184.286.01184.429 0l.324-.08305c.086-.03422.166-.0796.24-.13494.059-.04262.106-.09988.136-.16608.016-.07532.016-.15305 0-.22837.003-.0665-.007-.13291-.031-.19531-.023-.0624-.059-.11952-.105-.168-.114-.10629-.249-.18763-.397-.23874-.18-.07623-.365-.1387-.554-.18684l-.638-.16609c-.216-.06012-.429-.1329-.637-.21798-.199-.08274-.389-.18718-.565-.31141-.175-.13519-.316-.31056-.409-.51118-.092-.20061-.135-.42053-.124-.64102-.01-.25388.052-.50546.178-.72662.118-.20753.287-.38236.491-.50863.225-.13815.473-.2365.732-.29065.299-.06405.604-.09538.909-.09342.292-.00146.583.02988.868.09342.256.05749.5.15939.721.30103.201.13051.367.30892.481.51901.125.22916.186.48704.178.74738v.1038h-1.182v-.06228c.007-.14073-.041-.27857-.135-.38407-.099-.11277-.225-.19855-.366-.24912-.177-.0654-.365-.0971-.554-.09343-.197-.00388-.394.01704-.586.06228-.135.03746-.26.10489-.365.19723-.041.03919-.073.08605-.094.13778-.022.05173-.033.10726-.032.16324-.003.06185.008.12362.031.18099.024.05737.059.10897.105.15118.12.09558.254.17256.397.22837.167.06228.356.11418.554.16608l.638.16608c.216.06012.429.13291.637.21799.202.07869.391.18339.565.31141.159.12467.29.28005.387.45672.104.20184.155.4271.146.65396.013.37079-.097.73551-.314 1.03802-.213.27734-.51.48074-.846.58129-.385.12253-.788.18213-1.192.17647z"/><path d="m117.405 6.89598c-.531.01251-1.058-.10138-1.536-.33217-.429-.2098-.777-.55224-.993-.97574-.227-.52098-.345-1.0827-.345-1.65045 0-.56776.118-1.12948.345-1.65046.219-.42131.566-.76292.993-.97574.495-.21252 1.028-.322162 1.568-.322162.539 0 1.073.109642 1.568.322162.423.21342.767.55516.982.97574.227.52098.345 1.0827.345 1.65046 0 .56775-.118 1.12947-.345 1.65045-.212.42277-.557.76536-.982.97574-.498.2403-1.047.35443-1.6.33217zm0-1.03802c.239.00185.476-.03677.701-.11419.194-.07945.369-.19987.512-.35293.139-.16752.243-.36189.303-.57091.076-.24895.111-.50821.105-.76813v-.24913c.006-.26674-.03-.53283-.105-.7889-.06-.20592-.164-.39691-.303-.56053-.143-.15305-.318-.27347-.512-.35292-.225-.07742-.462-.11604-.701-.11419-.238-.00185-.475.03677-.7.11419-.193.07703-.365.19791-.502.35292-.143.16108-.247.35294-.303.56053-.075.25607-.111.52216-.104.7889v.24913c-.007.25992.029.51918.104.76813.056.21073.16.40599.303.57091.137.15502.309.2759.502.35293.224.0845.461.13014.7.13495z"/><path d="m122.862 6.79218-1.474-5.69875h1.296l.815 3.39434c.006.07601.006.15235 0 .22836 0 .09342 0 .19722.053.30103-.007.0933-.007.18695 0 .28026.005-.06908.005-.13852 0-.2076v-.22836c.004-.06915.004-.13846 0-.20761 0-.07266 0-.12456 0-.16608l.763-3.39434h1.453l.773 3.39434c0 .06228 0 .13494.052.22836.053.09342 0 .19722 0 .30103v.28026c0-.06228 0-.12456 0-.19722s0-.14532 0-.21798c0-.07267 0-.14533 0-.21799.004-.05877.004-.1177 0-.17646l.805-3.39434h1.171l-1.474 5.69875h-.878l-.826-3.50852c0-.07266 0-.16608-.052-.26989-.005-.10028-.005-.20074 0-.30102 0-.09342 0-.18684 0-.25951v.26989.3114c-.01.08437-.028.16772-.052.24913l-.816 3.50852z"/><path d="m130.628 6.79218v-5.69875h1.129l2.247 3.11407c.046.05213.088.10765.126.16608.049.06328.094.12911.136.19723.036.05238.068.10797.094.16608v-3.64346h1.15v5.69875h-1.119l-2.3-3.11407-.177-.2595c-.049-.06857-.091-.14156-.126-.21799v3.6227z"/><path d="m137.631 6.79218v-5.69875h4.485v1.03803h-3.251v1.26638h2.874v1.03803h-2.874v1.33904h3.303v1.03802z"/><path d="m144.039 6.79218v-5.69874h2.289c.516-.01516 1.029.09157 1.495.3114.408.20137.738.52939.941.93422.22.50628.334 1.05209.334 1.60374 0 .55166-.114 1.09747-.334 1.60375-.203.40483-.533.73285-.941.93422-.466.21983-.979.32656-1.495.31141zm1.223-1.03802h1.045c.222.0021.441-.03662.648-.11419.185-.06631.35-.17685.481-.32179.135-.15196.232-.33334.282-.52938.067-.23992.099-.48813.094-.737v-.24913c.005-.25229-.027-.50392-.094-.74737-.05-.19605-.147-.37743-.282-.52939-.131-.14494-.296-.25548-.481-.32179-.205-.08257-.426-.12146-.648-.11418h-1.045z"/><path d="m155.485 6.89598c-.431.0082-.86-.06217-1.265-.20761-.321-.10908-.604-.3072-.815-.57091-.192-.24989-.292-.55775-.283-.87194-.02-.3318.088-.65878.304-.91346.203-.23032.473-.39329.773-.46711-.256-.10389-.487-.25941-.679-.45673-.185-.22056-.278-.50254-.262-.78889-.009-.30788.091-.60931.283-.85118.203-.25125.475-.4387.784-.53977.39-.13142.8-.19464 1.212-.18685.402-.00802.802.05526 1.181.18685.31.10824.585.29845.795.55015.179.23605.274.52439.271.82004v.2076h-1.045v-.13494c.008-.14717-.04-.29187-.136-.40483-.095-.12151-.227-.20898-.376-.24913-.2-.05808-.408-.08607-.617-.08304-.166-.00239-.331.01858-.491.06228-.129.02421-.251.07748-.355.15571-.096.06851-.172.15937-.223.26443-.051.10507-.075.22106-.07.33762-.005.14833.039.29427.125.41521.081.11327.194.20003.324.24913.136.05537.282.08358.429.08304h.617v.87193h-.638c-.163-.00278-.326.02179-.481.07267-.151.02148-.293.08642-.408.18684-.095.14462-.142.31517-.135.48787-.006.1709.045.33894.146.47749.105.13173.247.22934.408.28027.212.06749.435.09907.658.09342.231.01046.462-.02483.68-.10381.163-.05173.303-.1581.397-.30102.077-.14374.116-.30432.115-.46711v-1.64008h1.913v.87194h-.826v.74738c.008.33535-.079.66617-.251.95498-.185.28648-.455.50802-.774.63319-.408.16062-.846.23827-1.285.22837z"/><path d="m164.976 6.89598c-.313-.00204-.625-.03684-.93-.1038-.276-.05788-.539-.16706-.774-.32179-.22-.13728-.403-.32619-.533-.55015-.135-.25215-.204-.53438-.199-.82004v-.09342c-.001-.02072-.001-.04156 0-.06228h1.213v.06228.07266c-.005.16113.047.31891.146.44635.107.13445.253.23244.418.28027.21.06598.429.09754.648.09342.14.01151.279.01151.419 0 .11-.01904.218-.04681.324-.08304.084-.03595.161-.08501.23-.14533.062-.03953.109-.09773.135-.16608.034-.07162.052-.14944.053-.22837.001-.06723-.011-.13407-.036-.19651s-.063-.11918-.111-.16679c-.114-.1063-.249-.18763-.397-.23875-.178-.07929-.364-.14184-.554-.18684l-.637-.16608c-.217-.06173-.429-.13449-.638-.21799-.197-.08042-.383-.18504-.554-.31141-.165-.1255-.3-.28483-.397-.4671-.102-.21389-.152-.44852-.147-.6851-.004-.25335.057-.5036.178-.72662.119-.20752.288-.38236.491-.50863.229-.13833.48-.23663.743-.29064.295-.06457.596-.09591.898-.09342.292-.00201.583.02934.868.09342.256.05749.501.15939.721.30102.202.13299.37.31064.492.51902.116.23185.173.48843.167.74737v.1038h-1.171v-.06228c.005-.13867-.039-.27461-.125-.38407-.106-.10931-.234-.19435-.377-.24912-.176-.06639-.365-.09812-.554-.09343-.197-.00323-.393.01769-.585.06229-.135.03745-.26.10488-.366.19722-.04.03919-.072.08606-.094.13779-.021.05173-.032.10726-.031.16324-.001.06255.011.12459.036.1819.026.05732.063.10857.11.15026.116.09561.247.17265.387.22837.185.06585.373.1213.564.16608l.638.16609c.216.06173.429.13448.638.21798.197.07873.384.18347.554.31141.161.12167.293.27773.386.45673.108.20103.162.42622.157.65395.013.37079-.097.73552-.314 1.03802-.217.27293-.512.47529-.846.5813-.401.13058-.822.19373-1.244.18684z"/><path d="m169.188 6.79218v-5.69875h4.474v1.03803h-3.251v1.26638h2.843v1.03803h-2.874v1.33904h3.303v1.03802z"/><path d="m178.094 6.89598c-.516.01515-1.028-.09158-1.495-.31141-.418-.21015-.753-.55379-.951-.97574-.23-.52292-.341-1.09021-.324-1.66083-.031-.39989.017-.80203.143-1.18327.125-.38124.325-.73404.589-1.0381.271-.25338.592-.44864.943-.57364.351-.12499.723-.177065 1.095-.15298.442-.007763.88.07713 1.286.24913.371.15352.688.41378.909.74737.23.37438.342.80777.324 1.24563h-1.223c.008-.23132-.046-.46057-.156-.66433-.106-.18151-.262-.32918-.45-.42559-.212-.09899-.445-.14868-.679-.14532-.3-.01033-.596.0615-.858.2076-.231.14295-.407.35849-.501.61243-.12.33268-.173.6852-.157 1.03802v.25951c-.017.35376.04.7072.167 1.03802.091.24975.264.46181.491.60205.261.14765.558.21959.858.20761.244.00314.487-.04644.71-.14532.193-.08889.353-.2337.46-.41521.119-.20093.177-.43155.168-.66434h1.128c.016.43627-.092.86809-.313 1.24563-.222.32917-.534.58849-.899.74737-.407.13454-.837.18746-1.265.15571z"/><path d="m184.836 6.89598c-.452.01222-.901-.07277-1.317-.24913-.354-.15958-.65-.42431-.847-.75776-.208-.38141-.31-.81181-.292-1.24562v-3.55004h1.223v3.53966c-.012.16934.011.3393.066.49979.056.16048.143.30822.258.43443.12.115.263.20392.419.26111.157.05718.324.08138.49.07106.168.01051.337-.01356.495-.07072s.303-.14617.425-.26145c.114-.12621.202-.27395.258-.43443.055-.16049.078-.33045.066-.49979v-3.53966h1.223v3.53966c.017.43382-.084.86421-.293 1.24563-.196.33344-.492.59817-.846.75775-.419.1814-.872.26996-1.328.25951z"/><path d="m189.352 6.79218v-5.69874h3.073c.362-.01524.723.06346 1.045.22836.266.13822.482.3561.617.62281.137.2887.205.60483.198.92384.016.36117-.067.71972-.24 1.03802-.164.28531-.412.51364-.711.65396l1.14 2.28365h-1.359l-.993-2.07605h-1.558v2.07605zm1.212-3.05179h1.694c.106.00395.212-.01434.311-.05367s.189-.09885.264-.1747c.141-.17619.212-.39799.198-.62281.003-.14612-.026-.29115-.083-.42559-.056-.11568-.148-.21038-.262-.26988-.133-.06582-.28-.09791-.428-.09342h-1.694z"/><path d="m196.125 6.79218v-5.69875h4.474v1.03803h-3.251v1.26638h2.885v1.03803h-2.885v1.33904h3.303v1.03802z"/><path d="m202.522 6.79218v-5.69874h2.289c.513-.0143 1.022.09243 1.485.3114.407.20137.738.52939.94.93422.221.50628.335 1.05209.335 1.60375 0 .55165-.114 1.09746-.335 1.60374-.202.40483-.533.73285-.94.93422-.463.21897-.972.3257-1.485.31141zm1.213-1.03802h1.045c.221.0021.441-.03662.648-.11419.186-.06342.352-.17441.481-.32179.135-.15196.231-.33334.282-.52938.067-.23992.099-.48813.094-.737v-.24913c.005-.25229-.027-.50392-.094-.74737-.051-.19605-.147-.37742-.282-.52939-.129-.14737-.295-.25837-.481-.32179-.205-.08257-.426-.12146-.648-.11418h-1.045z"/><path d="m214.428 6.89598c-.532.01251-1.058-.10138-1.537-.33217-.428-.2098-.777-.55224-.993-.97574-.227-.52098-.344-1.0827-.344-1.65045 0-.56776.117-1.12948.344-1.65046.219-.42131.567-.76292.993-.97574.495-.21252 1.029-.322162 1.568-.322162.54 0 1.073.109642 1.568.322162.424.21342.768.55516.983.97574.227.52098.344 1.0827.344 1.65046 0 .56775-.117 1.12947-.344 1.65045-.212.42277-.557.76536-.983.97574-.497.2403-1.046.35443-1.599.33217zm0-1.03802c.238.00355.476-.03511.7-.11419.196-.07697.371-.19774.512-.35293.144-.16492.248-.36018.304-.57091.079-.2483.118-.50763.115-.76813v-.24913c.003-.26729-.036-.53342-.115-.7889-.056-.20759-.16-.39945-.304-.56053-.141-.15518-.316-.27595-.512-.35292-.224-.07908-.462-.11774-.7-.11419-.238-.00185-.475.03677-.7.11419-.193.07703-.365.19791-.502.35292-.143.16108-.247.35294-.303.56053-.076.25607-.111.52216-.105.7889v.24913c-.006.25992.029.51918.105.76813.056.21073.159.40599.303.57091.137.15502.309.2759.502.35293.224.0845.46.13014.7.13495z"/><path d="m219.111 6.79218v-5.69875h1.118l2.258 3.11407.125.16608c.049.06328.095.12911.136.19723l.094.16608v-3.64346h1.15v5.69875h-1.118l-2.31-3.11407-.168-.2595-.135-.21799v3.6227z"/><path d="m229.428 6.79218-1.464-5.69875h1.286l.826 3.39434c.004.07605.004.15231 0 .22836 0 .09342 0 .19722.052.30103.052.1038 0 .19722 0 .28026.006-.06908.006-.13852 0-.2076-.006-.07601-.006-.15236 0-.22836v-.20761c.007-.05512.007-.11096 0-.16608l.763-3.39434h1.453l.774 3.39434c.026.07392.043.15053.052.22836 0 .09342 0 .19722.052.30103.052.1038 0 .19722 0 .28026v-.19722c0-.07266 0-.14532 0-.21798 0-.07267 0-.14533 0-.21799.004-.05877.004-.1177 0-.17646l.815-3.39434h1.161l-1.474 5.69875h-.889l-.825-3.50852c0-.07266 0-.16608-.053-.26989-.005-.10028-.005-.20074 0-.30102 0-.09342 0-.18684 0-.25951v.26989.3114c0 .10381 0 .17647-.052.24913l-.826 3.50852z"/><path d="m237.225 6.79218v-5.69875h4.474v1.03803h-3.251v1.26638h2.875v1.03803h-2.875v1.33904h3.304v1.03802z"/><path d="m243.623 6.79218v-5.69874h3.198c.275-.00302.547.05738.795.17646.23.10696.426.27599.564.48787.141.21997.214.47628.209.73699.004.21083-.039.41995-.125.61244-.079.1649-.191.31185-.329.43156-.139.11971-.301.20958-.476.26391.202.03746.392.12293.554.24913.161.12613.293.28549.387.46711.095.21552.142.44954.135.68509.012.30351-.068.6035-.23.86156-.151.22823-.365.40841-.616.51901-.27.11823-.562.17837-.857.17646zm1.212-3.39433h1.589c.132.00356.262-.02875.376-.09343.096-.0539.176-.13286.23-.22836.048-.10443.073-.21759.073-.33217.006-.09065-.007-.18151-.037-.26712-.031-.08562-.078-.16423-.14-.23113-.127-.11106-.291-.17039-.46-.16608h-1.662zm0 2.37706h1.756c.095.01042.191-.00086.281-.03297s.172-.0842.238-.1523c.067-.0681.117-.15041.146-.24063.03-.09022.038-.18598.025-.27995.002-.12933-.027-.25729-.084-.37369-.051-.10649-.135-.19383-.24-.24912-.13-.06222-.274-.09078-.418-.08304h-1.704z"/><path d="m254.598 6.89598c-.398.01199-.794-.0624-1.16-.21799-.288-.12768-.532-.33715-.701-.60205-.162-.26577-.245-.5716-.24-.88232v-.13494h1.108v.1557c-.005.10687.014.21346.056.31215.041.09868.104.18704.184.25876.207.13484.448.20669.696.20669.247 0 .488-.07185.695-.20669.083-.08207.148-.18116.19-.29045.041-.1093.058-.22622.05-.34274.012-.17501-.032-.34922-.125-.49825-.085-.11766-.206-.20501-.345-.24913-.144-.05434-.296-.08247-.45-.08304h-.502v-.87194h.492c.14.00688.281-.02169.407-.08304.123-.0573.228-.14707.304-.2595.075-.13631.111-.29083.104-.44635.008-.15225-.028-.30352-.104-.43597-.062-.1133-.162-.20147-.283-.24913-.132-.05591-.274-.08418-.418-.08304-.147-.00055-.292.02767-.428.08304-.127.04656-.234.13439-.304.24913-.074.12532-.111.26965-.104.41521v.12456h-1.045v-.2076c-.004-.29101.08-.57651.24-.82004.169-.24381.405-.43465.68-.55015.332-.13212.687-.195692 1.045-.18685.357-.015802.713.04436 1.045.17646.276.10793.513.29605.68.53978.168.24381.252.53511.24.83042.008.19665-.032.3923-.115.57091-.074.16183-.181.30674-.314.42559-.135.11486-.286.2093-.449.28026.311.07273.586.25206.778.50646.191.2544.285.56758.267.88449.005.30712-.086.60814-.261.86156-.171.25588-.415.45484-.7.57091-.379.17754-.795.26294-1.213.24913z"/><path d="m264.476 5.07944c-.201.00233-.4-.04778-.575-.14532-.162-.10235-.298-.24098-.397-.40483-.099-.17791-.149-.37822-.147-.58129-.004-.20982.047-.41714.147-.60206.092-.16883.229-.30897.397-.40483.172-.10619.372-.16029.575-.1557.206-.00663.41.04754.585.1557.172.09433.313.23461.408.40483.1.18492.15.39224.146.60206.003.20307-.048.40338-.146.58129-.1.16658-.24.30574-.408.40483-.179.09885-.381.14899-.585.14532z"/><path d="m273.946 6.79218v-4.66072h-1.798v-1.03803h4.829v1.03803h-1.808v4.66072z"/><path d="m278.639 6.79218v-5.69875h1.234v2.26289h2.477v-2.26289h1.223v5.69875h-1.223v-2.38746h-2.477v2.38746z"/><path d="m285.611 6.79218v-5.69875h1.213v5.69875z"/><path d="m291.078 6.89598c-.313-.00205-.625-.03684-.93-.1038-.279-.05985-.544-.16884-.784-.32179-.215-.14045-.394-.32884-.523-.55015-.14-.25039-.208-.53386-.198-.82004v-.09342s0 0 0-.06228h1.212v.06228.07266c-.009.16177.043.32117.146.44635.107.13444.253.23244.419.28027.209.06598.428.09754.648.09342.139.0115.279.0115.418 0 .11-.01904.218-.04681.324-.08305.086-.03422.166-.0796.24-.13494.059-.04262.106-.09988.136-.16608.016-.07532.016-.15305 0-.22837.003-.0665-.007-.13291-.031-.19531-.023-.0624-.059-.11952-.105-.168-.114-.10629-.249-.18763-.397-.23874-.179-.07784-.364-.14035-.554-.18684l-.638-.16609c-.216-.06012-.429-.1329-.637-.21798-.199-.08274-.389-.18718-.565-.31141-.161-.12613-.293-.28549-.386-.46711-.102-.21388-.152-.44851-.147-.68509-.004-.25335.057-.50361.178-.72662.119-.20753.287-.38236.491-.50863.225-.13815.473-.2365.732-.29065.299-.06405.604-.09538.909-.09342.292-.00146.583.02988.868.09342.256.05749.5.15939.721.30103.201.13051.367.30892.481.51901.125.22916.186.48704.178.74738v.1038h-1.181v-.06228c.006-.14073-.042-.27857-.136-.38407-.099-.11277-.225-.19855-.366-.24912-.177-.0654-.365-.09709-.554-.09343-.197-.00388-.394.01704-.586.06228-.135.03746-.26.10489-.365.19723-.041.03919-.073.08605-.094.13778-.022.05174-.032.10726-.032.16324-.003.06185.008.12362.031.18099.024.05737.059.10897.105.15118.122.09326.255.17005.397.22837.185.06585.374.12129.565.16608l.637.16608c.209.06228.429.13495.638.21799.197.081.383.18557.554.31141.159.12467.29.28005.387.45673.104.20183.155.42709.146.65395.025.35435-.072.70654-.276.99886-.203.29231-.5.50742-.842.61007-.398.13058-.815.19375-1.234.18685z"/><path d="m297.642 6.79218v-5.69874h2.927c.363-.01524.723.06346 1.046.22836.267.14589.483.37078.616.64357.146.30446.218.63871.209.97574.019.35905-.057.71673-.219 1.03803-.145.27162-.367.4953-.638.64357-.32.17179-.681.25429-1.045.23875h-1.662v1.98262zm1.223-2.99989h1.495c.109.00694.219-.00887.321-.04641.103-.03754.196-.09598.275-.17157.144-.17519.218-.39679.209-.62281.007-.15759-.026-.31441-.094-.45674-.058-.11931-.148-.22003-.261-.29064-.141-.06596-.295-.09798-.45-.09342h-1.495z"/><path d="m304.019 6.76103.167-5.69873 4.474.13494v1.03802l-3.251-.09343v1.27678l2.874.07266v1.03802l-2.874-.08305v1.39095l3.303.09343v1.03802z"/><path d="m310.29 7.01016.659-5.65722 3.052.34255c.371.02764.73.14525 1.045.34254.243.17481.428.41669.533.69548.106.30309.142.62593.105.9446-.039.34077-.164.66602-.366.9446-.189.26776-.461.46791-.773.57091l.867 2.39783-1.338-.1557-.752-2.16947-1.547-.17646-.241 2.07604zm1.558-2.89608 1.683.18684c.104.0201.212.01654.316-.01041.103-.02695.198-.07661.28-.14529.142-.14989.227-.34452.24-.55015.038-.14286.038-.29311 0-.43597-.038-.12149-.115-.22724-.22-.30103-.127-.07576-.27-.1219-.418-.13494l-1.683-.19722z"/><path d="m319.029 8.39073c-.31-.05729-.612-.15139-.899-.28027-.259-.11387-.496-.27197-.7-.46711-.184-.1847-.324-.40825-.408-.65395-.074-.27544-.074-.56536 0-.8408 0 0 0-.0519 0-.08304v-.07266l1.181.23874c-.006.02383-.006.04883 0 .07266v.07267c-.031.15736-.012.32029.052.46711.085.14684.208.26865.356.35292.194.10061.402.17397.616.21799.14.00827.279.00827.419 0 .111.01131.223.01131.334 0 .091-.01029.179-.03482.261-.07266.068-.03673.129-.08606.178-.14533.039-.0645.067-.13453.084-.2076.017-.06655.02-.13581.009-.2036-.011-.06778-.035-.13271-.072-.19085-.094-.12134-.207-.22655-.335-.31141-.156-.09342-.324-.19722-.512-.29064l-.596-.29065c-.198-.10185-.39-.21626-.574-.34255-.182-.11595-.347-.2556-.492-.41521-.137-.15159-.237-.33281-.292-.52939-.053-.2289-.053-.46657 0-.69547.041-.23897.148-.46203.309-.64501.16-.18298.367-.3189.6-.39301.247-.09305.509-.14224.774-.14533.305-.00658.61.02128.909.08305.285.05851.562.14905.826.26988.241.10351.461.25142.648.43597.173.17104.302.38115.376.61243.058.25279.058.51536 0 .76814v.09342l-1.16-.22836v-.07267c.032-.1334.013-.27373-.052-.39444-.073-.13376-.182-.24507-.314-.32179-.159-.09995-.337-.16703-.523-.19722-.194-.02307-.391-.02307-.585 0-.142.00182-.28.04515-.397.12456-.05.02838-.092.06731-.125.11398-.032.04666-.054.09991-.063.1559-.015.0589-.016.12025-.003.17954s.039.115.076.16301c.093.12296.21.22546.345.30103.164.10434.335.19795.512.28026l.585.29065c.202.09832.398.20927.586.33217.178.116.34.25569.48.4152.134.15434.234.33465.293.5294.058.22122.058.45349 0 .67471-.056.37283-.237.71625-.512.97574-.27.22414-.601.36169-.951.39445-.419.02987-.84-.01227-1.244-.12456z"/><path d="m325.489 10.01c-.514-.14049-.987-.4002-1.38-.75771-.351-.32142-.586-.74798-.669-1.21449-.067-.56499-.016-1.13754.15-1.68216.165-.54461.442-1.04966.812-1.48381.327-.33988.756-.56563 1.223-.64357.527-.06846 1.064-.02523 1.574.12683.51.15207.981.40953 1.384.75549.35.31579.582.74029.658 1.2041.086.56757.036 1.14731-.146 1.69198-.146.54796-.422 1.0533-.805 1.47399-.326.3431-.755.57245-1.223.65395-.529.0794-1.069.0368-1.578-.1246zm.292-.9757c.227.06905.464.10061.701.09343.209-.01489.41-.0828.585-.19723.189-.11621.349-.27212.47-.45673.143-.21806.252-.45594.324-.70585l.074-.23875c.079-.25218.121-.51437.125-.77851.001-.21826-.046-.43412-.136-.6332-.089-.18733-.221-.35098-.387-.47749-.189-.14442-.406-.25025-.637-.31141-.226-.07177-.464-.09995-.701-.08304-.206.00952-.408.07017-.585.17646-.186.12065-.342.28006-.46.46712-.14.22284-.249.46385-.324.71623l-.073.23875c-.078.24881-.121.50746-.125.76813-.006.21878.04.43581.135.6332.085.18686.215.35064.377.47748.191.14244.407.24807.637.31141z"/><path d="m329.837 11.2972 2.153-5.28354 1.046.42559.93 3.68495c0 .0519 0 .1142.052.1972.052.0831 0 .1661 0 .2388v.1765c.03-.0883.065-.1749.105-.2595l.094-.2284 1.16-2.84419 1.045.42559-2.153 5.2835-1.045-.4152-.941-3.77838-.063-.30103c0-.11418 0-.19722 0-.24912l-.094.22836.011.18685-1.192 2.91682z"/><path d="m335.628 13.6743 4.536-4.08985 1.338.68505-.7 6.0413-1.171-.5916.157-1.1834-2.174-1.1107-.868.8201zm2.759-.9758 1.547.7993.21-1.474c-.01-.0793-.01-.1594 0-.2387 0-.0831 0-.1869 0-.2907l.062-.3218c0-.1038 0-.1972 0-.2906l-.261.2802-.314.3011c-.094.1038-.177.1764-.24.2387z"/><path d="m341.973 17.0271 3.031-4.8372 1.045.6332-2.467 3.9445 2.405 1.4843-.565.8927z"/><path d="m350.251 22.7777c-.248-.1912-.472-.4107-.669-.6539-.182-.2154-.323-.4615-.418-.7267-.086-.2464-.111-.5099-.073-.7681.052-.2784.174-.5391.355-.7577l.053-.0727h.052l.951.737v.0623c-.102.1274-.16.2837-.167.4463.004.1694.063.333.167.4671.122.1803.274.3384.45.4671l.345.2388c.1.0542.205.0994.313.1349.087.0135.175.0135.262 0 .072.0168.147.0168.219 0 .07-.0334.131-.0833.178-.1453.086-.1086.127-.2461.115-.3841-.029-.1492-.082-.2929-.157-.4256-.102-.1688-.214-.3317-.335-.4878l-.397-.519c-.136-.1869-.251-.3737-.366-.5606-.102-.1875-.183-.386-.24-.5916-.047-.198-.047-.4041 0-.6021.05-.2316.154-.4483.303-.6332.146-.2.343-.3575.571-.4561s.478-.1346.725-.1044c.264.0353.521.1087.763.218.274.1325.533.2925.774.4775.231.18.442.3854.627.6124.161.2034.288.4312.376.6747.078.239.094.4937.046.7404-.047.2468-.156.4776-.317.6713l-.063.0727-.931-.7266c.089-.1044.138-.237.136-.3737-.006-.1514-.053-.2983-.136-.4256-.101-.1579-.228-.2982-.376-.4152-.158-.1202-.33-.2212-.512-.3011-.126-.0621-.268-.0873-.408-.0726-.111.0134-.212.0692-.282.1557-.04.0486-.07.1053-.086.1662s-.019.1246-.008.1867c.029.1476.086.2885.167.4152.104.1647.215.3241.335.4775l.407.519c.126.1869.251.3633.366.5606.104.1831.185.3784.241.5813.047.1979.047.404 0 .602-.038.2273-.14.4394-.293.6124-.218.3092-.535.536-.899.6436-.347.0866-.712.0649-1.045-.0623-.409-.1596-.788-.3878-1.119-.6747z"/><path d="m353.471 25.2482 3.888-4.1521 2.143 1.9619c.268.2268.47.5207.585.8512.089.2875.089.5948 0 .8823-.102.3193-.277.6107-.512.8512-.226.2594-.513.4591-.836.5812-.296.0938-.614.0938-.909 0-.343-.0934-.656-.272-.91-.519l-1.223-1.1106-1.348 1.4532zm2.947-1.3806 1.046 1.0381c.074.079.165.1412.266.1824s.21.0604.319.0563c.226-.032.431-.1468.575-.3218.111-.1125.196-.2469.251-.3944.037-.1254.037-.2587 0-.3841-.052-.1453-.143-.2743-.261-.3737l-1.098-1.038z"/><path d="m357.338 28.7982 5.666-2.3044 1.045 1.1003-2.739 5.4393-.888-.955.554-1.038-1.662-1.7958-1.098.4775zm2.927 0 1.139 1.2976.701-1.3183c.086-.1564.173-.3121.261-.4671.049-.1038.101-.1973.157-.2803.063-.0934.104-.1765.157-.2595l-.345.1765-.387.1764-.303.1453z"/><path d="m363.568 36.0333c-.331-.3941-.563-.8599-.679-1.3599-.095-.4545-.028-.9275.188-1.339.27-.5047.652-.9414 1.118-1.2768.598-.5495 1.392-.8408 2.206-.8096.369.0588.722.1912 1.038.3893.316.198.589.4575.802.7629.277.3422.48.7382.595 1.1626.115.3791.115.7834 0 1.1625-.158.4148-.434.7752-.794 1.0381l-.753-.9654c.19-.1376.338-.3243.429-.5398.083-.1931.105-.4067.063-.6124-.051-.225-.155-.4349-.304-.6124-.179-.2423-.421-.4323-.7-.5502-.254-.0832-.529-.0832-.784 0-.321.102-.619.2641-.878.4775l-.209.1661c-.276.1992-.51.4495-.69.737-.142.2299-.204.4997-.178.7681.046.2918.172.5651.366.7889.141.197.327.3573.544.4671.189.0999.404.1398.617.1142.235-.0373.455-.1378.637-.2906l.721.9238c-.336.287-.751.4677-1.191.519-.395.0346-.792-.0485-1.14-.2387-.402-.2164-.751-.5176-1.024-.8823z"/><path d="m366.14 39.2926 4.797-3.114 2.457 3.7472-.847.5502-1.735-2.7404-1.045.6955 1.578 2.3874-.847.5502-1.578-2.3875-1.171.7682 1.809 2.7403-.858.5606z"/><path d="m370.686 46.6418 5.06-2.6781.574 1.0381-5.059 2.6884z"/><path d="m372.986 51.4479c-.13-.2823-.229-.5783-.293-.8823-.051-.278-.051-.5629 0-.8408.039-.2536.136-.4951.283-.7059.176-.2256.406-.404.669-.519h.156l.502 1.0899h-.136c-.148.0602-.27.1705-.345.3114-.077.1541-.106.3276-.083.4983.029.2161.093.4263.188.6228.057.1257.124.2471.198.3633.063.0948.137.1819.22.2595.064.0622.134.1179.209.1661.072.0142.147.0142.22 0 .076.0134.153.0134.229 0 .125-.054.223-.1548.272-.2803.046-.1476.064-.3026.053-.4567-.002-.1953-.023-.39-.063-.5813 0-.2076-.073-.4256-.105-.6436-.04-.223-.064-.4484-.073-.6747-.009-.209.008-.4183.052-.6228.044-.2007.134-.3889.262-.5502.151-.1815.345-.324.564-.4152.229-.1156.486-.1659.742-.1453.239.0189.469.0975.669.2284.219.1492.413.3313.575.5398.188.2434.346.5083.471.7888.123.2616.214.5369.271.8201.047.2539.047.5142 0 .7681-.04.2387-.133.4655-.271.6644-.164.2039-.376.3643-.617.4671h-.084l-.502-1.0381h.063c.127-.0523.231-.148.293-.2698.063-.1363.088-.2868.073-.436-.011-.1881-.06-.3719-.146-.5398-.081-.1807-.183-.3514-.303-.5086-.088-.1109-.203-.1968-.335-.2491-.104-.0411-.22-.0411-.324 0-.058.0235-.11.0601-.152.1069s-.072.1026-.088.163c-.029.1474-.029.2988 0 .4463.01.1952.035.3894.073.5813 0 .2076.083.4152.115.6436.031.2283.062.4463.073.6643.009.2124-.008.4252-.052.6332-.048.1961-.137.38-.262.5398-.144.1803-.331.3229-.543.4152-.339.1689-.725.2236-1.098.1557-.338-.0868-.644-.271-.878-.5294-.303-.3067-.554-.6609-.742-1.0484z"/><path d="m376.268 59.7936c-.179-.4949-.237-1.0253-.167-1.5467.064-.4722.289-.9083.638-1.2352.424-.3756.921-.6614 1.46-.8398.539-.1785 1.109-.2459 1.675-.1982.469.0758.901.2975 1.234.6332.361.3892.628.8539.784 1.3598.179.4985.236 1.0321.167 1.557-.064.4676-.281.9015-.617 1.2352-.423.3871-.931.6714-1.484.8305-.537.198-1.115.2622-1.683.1868-.472-.0737-.908-.2956-1.244-.6332-.356-.385-.617-.847-.763-1.3494zm.972-.3114c.07.2253.179.4363.324.6228.132.1615.3.2896.492.3737.201.085.418.1274.637.1245.264-.0117.524-.0607.774-.1453l.24-.0726c.255-.0806.498-.1958.721-.3426.181-.1235.334-.2825.45-.4671.104-.1806.161-.3838.167-.5917.009-.2362-.027-.472-.104-.6955-.07-.2253-.179-.4363-.324-.6228-.132-.1615-.3-.2896-.492-.3736-.202-.0824-.419-.1213-.637-.1142-.264.0117-.524.0607-.774.1453l-.251.083c-.25.0727-.486.1849-.7.3322-.183.1205-.337.2801-.449.4671-.111.1745-.172.3752-.178.5813-.009.2363.026.4722.104.6955z"/><path d="m377.878 64.8384 5.289-2.6366.272 1.2456-3.136 1.5259-.199.0934-.292.1142-.272.0934h4.327l.314 1.4117-3.136 1.474-.209.0935-.282.1141-.272.1038h.826l3.512.0623.251 1.1315-5.916-.218-.304-1.3391 3.272-1.557.251-.1038.293-.1246.251-.0934h-4.474z"/><path d="m379.373 72.281 5.697-.6747.135 1.1003-2.801 2.595-.146.135-.188.1661-.147.1038h.523l3.073-.3634.136 1.1315-5.697.6747-.136-1.1003 2.875-2.647.24-.1972.199-.1557h-.481l-3.136.3737z"/><path d="m380.104 79.0593 5.729-.218.167 4.4531h-1.046l-.125-3.2283h-1.275l.104 2.8546h-1.045l-.104-2.8546h-1.401l.157 3.4567h-1.046z"/></g><path d="m375.867 86.4134-372.86721-.0001c.00001-41.1858 33.38771-74.5734 74.57351-74.5734h223.7207c41.186 0 74.573 33.3877 74.573 74.5735z" fill="url(#c)"/><path d="m176.703 39.9313c-.056-.7992-.379-1.332-.977-1.5984-.605-.2664-1.202-.2664-1.8 0-.597.2664-.92.7992-.96 1.5984.008 1.3077.008 2.6154.016 3.9232 0 .557 0 1.114.008 1.671-2.172-2.1957-4.553-4.1251-7.16-5.7961-.46-.2663-.888-.3551-1.292-.2502-.073.0081-.137.0242-.202.0404-.533.1614-.904.452-1.106.8799-.21.4278-.274.896-.202 1.4126.525 3.899 1.381 7.7254 2.551 11.4791.283.7507.759 1.1705 1.413 1.2674.662.0968 1.235-.0565 1.736-.4763.5-.4117.654-1.0091.452-1.784-.703-2.2442-1.284-4.5125-1.752-6.8051 2.18 1.8647 4.222 3.8748 6.127 6.0382.614.5812 1.292.7104 2.01.3875s1.114-.888 1.171-1.7114c-.009-3.4227-.017-6.8454-.033-10.2762z" fill="#fff"/><path d="m184.731 39.5115c-.484-.1211-.96-.0646-1.42.1776s-.751.6135-.872 1.1221c-.121.6135-.242 1.235-.363 1.8486-.622 3.1159-1.235 6.2319-1.849 9.3479-.097.5085-.032.9848.186 1.4127.226.4278.597.7184 1.114.8799.492.121.968.0565 1.42-.1857.461-.2341.751-.6135.88-1.1221.243-1.2431.493-2.4863.735-3.7295.492-2.4863.985-4.9726 1.477-7.4589.097-.5167.033-.9849-.194-1.4127-.226-.4279-.597-.7265-1.114-.8799z" fill="#fff"/><path d="m206.887 48.0522c-1.93-3.0514-3.464-6.2885-4.594-9.7193-.371-.9122-.968-1.3562-1.776-1.3319-.815.0322-1.42.4762-1.824 1.3319l-2.099 5.3924c-1.235-1.6064-2.486-3.1967-3.754-4.7789-.468-.4924-1.049-.6539-1.735-.4843-.412.0726-.767.2583-1.066.5489-.29.2987-.46.7023-.5 1.2189-.178 3.899-.081 7.798.298 11.689.057.5166.243.9606.566 1.3239.322.3632.758.5408 1.299.5408.493 0 .929-.1776 1.308-.5408.379-.3633.565-.7992.565-1.3239-.008-.0807-.008-.1534-.016-.2341-.008-.1453-.016-.2987-.024-.4521-.008-.1453-.025-.2825-.057-.4036-.153-1.8163-.242-3.6245-.274-5.4328.775 1.001 1.55 2.0101 2.308 3.0272.541.6619 1.163.9526 1.857.8718.686-.0888 1.211-.5247 1.558-1.3158.517-1.34 1.041-2.672 1.558-4.012.912 2.0665 1.978 4.0604 3.181 5.9736.46.6539 1.025.9445 1.687.8638.662-.0727 1.178-.3714 1.558-.9041.371-.5247.363-1.1383-.024-1.8486z" fill="#fff"/><path d="m215.189 39.5115c-.484-.1211-.96-.0646-1.421.1776-.46.2422-.75.6135-.871 1.1221-.121.6135-.243 1.235-.364 1.8486-.621 3.1159-1.235 6.2319-1.848 9.3479-.097.5085-.032.9848.185 1.4127.226.4278.598.7184 1.114.8799.493.121.969.0565 1.421-.1857.46-.2341.751-.6135.88-1.1221.242-1.2431.493-2.4863.735-3.7295.492-2.4863.985-4.9726 1.477-7.4589.097-.5167.032-.9849-.194-1.4127-.226-.4279-.597-.7265-1.114-.8799z" fill="#fff"/></svg>