<svg fill="none" height="16" viewBox="0 0 16 16" width="16" xmlns="http://www.w3.org/2000/svg"><path clip-rule="evenodd" d="m8.11113 15.2c1.90957 0 3.74087-.7585 5.09117-2.1088 1.3503-1.3502 2.1088-3.18159 2.1088-5.09115s-.7585-3.74091-2.1088-5.09117-3.1816-2.108831-5.09117-2.108831c-1.90956 0-3.7409.758571-5.09117 2.108831-1.35026 1.35026-2.108827 3.18161-2.108827 5.09117s.758567 3.74095 2.108827 5.09115c1.35027 1.3503 3.18161 2.1088 5.09117 2.1088zm-1.1637-9.63625c-.16974-.16394-.39708-.25466-.63306-.25261s-.46171.0967-.62857.26357c-.16687.16687-.26152.3926-.26357.62858-.00206.23598.08866.46332.2526.63306l1.1637 1.1637-1.1637 1.1637c-.08596.08302-.15452.18233-.20169.29213-.04717.10981-.072.22791-.07303.34741-.00104.1195.02173.23801.06698.34861.04526.1106.11208.2111.19659.2956.0845.0845.18499.1513.29559.1966.11061.0452.22912.068.34862.067.1195-.0011.2376-.0259.34741-.0731.1098-.0471.20911-.1157.29213-.2017l1.1637-1.16365 1.1637 1.16365c.16974.164.39709.2547.63306.2527.23601-.0021.46171-.0967.62861-.2636.1668-.1669.2615-.3926.2635-.62859.0021-.23598-.0886-.46332-.2526-.63306l-1.16367-1.1637 1.16367-1.1637c.164-.16974.2547-.39708.2526-.63306-.002-.23598-.0967-.46171-.2635-.62858-.1669-.16687-.3926-.26152-.62861-.26357-.23597-.00205-.46332.08867-.63306.25261l-1.1637 1.1637z" fill="#ccc7c7" fill-rule="evenodd"/></svg>