<svg fill="none" height="7" viewBox="0 0 18 7" width="18" xmlns="http://www.w3.org/2000/svg" xmlns:xlink="http://www.w3.org/1999/xlink"><clipPath id="a"><path d="m0 0h18v7h-18z"/></clipPath><g clip-path="url(#a)" fill="#8c90a0"><path d="m2 5.66666c0-.55229-.44772-1-1-1-.552285 0-1 .44771-1 1 0 .55228.447715 1 1 1 .55228 0 1-.44772 1-1z"/><path d="m2 1.66666c0-.55229-.44772-1.000004-1-1.000004-.552285 0-1 .447714-1 1.000004 0 .55228.447715 1 1 1 .55228 0 1-.44772 1-1z"/><path d="m7.33334 5.66666c0-.55229-.44771-1-1-1-.55228 0-1 .44771-1 1 0 .55228.44772 1 1 1 .55229 0 1-.44772 1-1z"/><path d="m7.33334 1.66666c0-.55229-.44771-1.000004-1-1.000004-.55228 0-1 .447714-1 1.000004 0 .55228.44772 1 1 1 .55229 0 1-.44772 1-1z"/><path d="m12.6667 5.66666c0-.55229-.4477-1-1-1s-1 .44771-1 1c0 .55228.4477 1 1 1s1-.44772 1-1z"/><path d="m12.6667 1.66666c0-.55229-.4477-1.000004-1-1.000004s-1 .447714-1 1.000004c0 .55228.4477 1 1 1s1-.44772 1-1z"/><path d="m18 5.66666c0-.55229-.4477-1-1-1s-1 .44771-1 1c0 .55228.4477 1 1 1s1-.44772 1-1z"/><path d="m18 1.66666c0-.55229-.4477-1.000004-1-1.000004s-1 .447714-1 1.000004c0 .55228.4477 1 1 1s1-.44772 1-1z"/></g></svg>