<svg fill="none" height="57" viewBox="0 0 217 57" width="217" xmlns="http://www.w3.org/2000/svg"><g fill="#7878e5"><path d="m14.6615 13.9016c6.1329-6.11266 15.1341-7.49293 22.5528-4.23945l-3.8577 3.84495c-5.2425-1.4788-11.0785-.1971-15.134 3.9436-5.4404 5.4226-5.935 13.8027-1.5827 19.8167l5.836-5.8168 3.561 3.5492-9.496 9.3661c-.6923-.4929-1.2858-1.0845-1.8794-1.676-8.01206-7.9858-8.01206-20.9011 0-28.7883z"/><path d="m20.8931 46.9278c7.5176 3.2536 16.5188 1.7746 22.5527-4.2393 8.0122-7.9858 8.0122-20.8025 0-28.7884-.5935-.5915-1.187-1.183-1.8794-1.676l-9.397 9.366 3.561 3.5493 5.836-5.8168c4.3523 6.0139 3.7588 14.4928-1.5827 19.8166-4.1543 4.1408-9.9905 5.4225-15.134 3.9436z"/><path d="m32.664 28.2954-3.5609-3.5493-3.561 3.5493 3.561 3.5492z"/><path d="m22.3767 18.0439 3.5609 3.5493-3.5609 3.5493-3.561-3.5493z"/><path d="m39.3905 35.0019-3.5609-3.5493-3.561 3.5493 3.561 3.5493z"/><path d="m70.2703 17.5688h10.5598c2.4459 0 4.6152.4573 6.5081 1.3718 1.8929.9146 3.3604 2.212 4.4026 3.8922 1.0422 1.6801 1.5632 3.6475 1.5632 5.902s-.521 4.2218-1.5632 5.902-2.5097 2.9776-4.4026 3.8921c-1.8929.9146-4.0622 1.3719-6.5081 1.3719h-10.5598zm10.3045 17.2914c1.9142 0 3.4456-.5425 4.594-1.6272 1.1698-1.0846 1.7547-2.584 1.7547-4.4982s-.5849-3.4136-1.7547-4.4983c-1.1484-1.0847-2.6798-1.627-4.594-1.627h-3.9878v12.2507z"/><path d="m113.109 39.9008-4.626-6.9229-4.562 6.9229h-7.2103l8.1343-11.2937-7.7834-11.0383h7.1144l4.467 6.4444 4.402-6.4444h6.827l-7.784 10.7832 8.294 11.5488z"/><path d="m126.837 17.5688h9.411c2.361 0 4.456.4679 6.285 1.4037 1.829.9359 3.243 2.2545 4.243 3.9559 1.021 1.6803 1.531 3.6158 1.531 5.8064s-.51 4.1367-1.531 5.8382c-1 1.6802-2.414 2.9883-4.243 3.924-1.829.9358-3.924 1.4038-6.285 1.4038h-9.411zm9.219 19.5564c1.808 0 3.393-.3509 4.754-1.0528 1.383-.7019 2.445-1.6802 3.19-2.935.744-1.2761 1.117-2.7437 1.117-4.4026s-.373-3.1158-1.117-4.3706c-.745-1.2762-1.807-2.2652-3.19-2.967-1.361-.7019-2.946-1.0528-4.754-1.0528h-6.029v16.7808z"/><path d="m170.301 34.3177h-11.868l-2.456 5.5831h-3.286l10.113-22.332h3.158l10.146 22.332h-3.35zm-1.116-2.5522-4.818-10.9426-4.817 10.9426z"/><path d="m192.399 40.1559c-2.254 0-4.286-.4892-6.094-1.4675-1.808-.9997-3.233-2.3716-4.275-4.1155-1.02-1.744-1.531-3.6901-1.531-5.8382s.511-4.0942 1.531-5.8383c1.042-1.744 2.467-3.1051 4.275-4.0835 1.808-.9996 3.84-1.4994 6.094-1.4994 2.233 0 4.253.4998 6.061 1.4994 1.808.9784 3.223 2.3395 4.243 4.0835 1.022 1.7228 1.532 3.6689 1.532 5.8383 0 2.1693-.51 4.1261-1.532 5.8701-1.02 1.7228-2.435 3.0839-4.243 4.0836-1.808.9783-3.828 1.4675-6.061 1.4675zm0-2.8394c1.638 0 3.105-.3722 4.402-1.1166 1.319-.7443 2.351-1.7653 3.095-3.0626.765-1.3187 1.148-2.7862 1.148-4.4026s-.383-3.0733-1.148-4.3707c-.744-1.3187-1.776-2.3502-3.095-3.0946-1.297-.7444-2.764-1.1165-4.402-1.1165-1.637 0-3.126.3721-4.467 1.1165-1.318.7444-2.361 1.7759-3.126 3.0946-.744 1.2974-1.117 2.7543-1.117 4.3707s.373 3.0839 1.117 4.4026c.765 1.2973 1.808 2.3183 3.126 3.0626 1.341.7444 2.83 1.1166 4.467 1.1166z"/></g></svg>