<svg fill="none" height="41" viewBox="0 0 106 41" width="106" xmlns="http://www.w3.org/2000/svg" xmlns:xlink="http://www.w3.org/1999/xlink"><linearGradient id="a"><stop offset=".58" stop-color="#a0a8d4"/><stop offset=".73" stop-color="#8791c7"/><stop offset=".91" stop-color="#6470b4"/></linearGradient><linearGradient id="b" gradientUnits="userSpaceOnUse" x1="18.045" x2="3.41887" xlink:href="#a" y1=".808231" y2="16.6657"/><linearGradient id="c" gradientUnits="userSpaceOnUse" x1="18.3605" x2="32.9898" xlink:href="#a" y1="40.1905" y2="24.3363"/><linearGradient id="d" gradientUnits="userSpaceOnUse" x1="18.2021" x2="18.2021" y1=".15156" y2="40.775"><stop offset="0" stop-color="#513eff"/><stop offset=".18" stop-color="#5157ff"/><stop offset=".57" stop-color="#5298ff"/><stop offset="1" stop-color="#52e5ff"/></linearGradient><clipPath id="e"><path d="m.126953.350098h105.59v40.3h-105.59z"/></clipPath><g clip-path="url(#e)"><path d="m4.77021 16.6576c.39707.8518 1.38336 2.5346 1.38336 2.5346l11.39513-18.838684-11.12134 7.765394c-.66292.44246-1.20675 1.04127-1.5835 1.74361-.50632 1.05898-.77525 2.21568-.78797 3.38938s.23107 2.3361.71432 3.4057z" fill="url(#b)"/><path d="m.25359 22.8568c.125717 1.8022.635007 3.5567 1.49377 5.1461.85877 1.5894 2.04719 2.977 3.48569 4.0699l12.30455 8.5771s-7.69655-11.0925-14.18906-22.1289c-.65676-1.1664-1.09824-2.4415-1.3033-3.7643-.09126-.5985-.09126-1.2075 0-1.806-.16972.3202-.49795.9607-.49795.9607-.658579 1.3407-1.108349 2.7742-1.333727 4.2509-.1275833 1.5629-.1141866 3.134.040027 4.6945z" fill="#a0a8d4"/><path d="m31.6385 24.3427c-.3987-.8518-1.385-2.5346-1.385-2.5346l-11.3951 18.8419 11.1213-7.7606c.6629-.4424 1.2068-1.0413 1.5835-1.7436.5075-1.06.7772-2.2181.7902-3.3932.013-1.1752-.231-2.339-.7149-3.4099z" fill="url(#c)"/><path d="m36.1539 18.1433c-.1258-1.802-.6349-3.5564-1.4934-5.1458-.8584-1.5894-2.0464-2.9771-3.4845-4.07024l-12.303-8.577162s7.6854 11.092502 14.1891 22.129002c.6551 1.1668 1.0954 2.4418 1.3001 3.7642.0897.5987.0897 1.2074 0 1.806.1681-.3202.4964-.9606.4964-.9606.6592-1.3419 1.1079-2.7773 1.3305-4.2558.1289-1.5611.1171-3.1306-.0352-4.6896z" fill="#a0a8d4"/><path d="m4.84398 9.85911c.37675-.70234.92058-1.30116 1.5835-1.74362l11.12132-7.765392-11.39511 18.843502s-.99589-1.6828-1.38336-2.5362c-.48373-1.0701-.72778-2.233-.71506-3.4073s.28191-2.3316.78871-3.39099zm-4.59039 12.99779c.125717 1.8022.635007 3.5568 1.49377 5.1462.85877 1.5894 2.04719 2.977 3.48569 4.0698l12.30455 8.5772s-7.69655-11.0925-14.18906-22.129c-.65676-1.1664-1.09824-2.4414-1.3033-3.7642-.09126-.5985-.09126-1.2075 0-1.806-.16972.3202-.49795.9606-.49795.9606-.658579 1.3408-1.108349 2.7743-1.333727 4.251-.1275833 1.5628-.1141866 3.134.040027 4.6944zm31.36421 1.4939c-.3971-.8518-1.3834-2.5346-1.3834-2.5346l-11.3759 18.8339 11.1213-7.7606c.663-.4424 1.2068-1.0413 1.5835-1.7436.507-1.0596.7764-2.2171.7894-3.3916.013-1.1746-.2307-2.3378-.7141-3.4083zm4.5151-6.2027c-.1254-1.8021-.6344-3.5566-1.4929-5.146s-2.0467-2.9771-3.4849-4.07004l-12.2822-8.581962s7.6854 11.092502 14.1891 22.129002c.6551 1.1668 1.0954 2.4418 1.3001 3.7642.0897.5987.0897 1.2074 0 1.806.1681-.3202.4963-.9606.4963-.9606.6593-1.3419 1.108-2.7773 1.3306-4.2558.1291-1.5627.1174-3.1338-.0353-4.6944z" fill="url(#d)"/><path d="m46.5657 30.7777v-21.80559c.002-.02777.0142-.05381.0343-.07305.0202-.01923.0467-.03029.0746-.03102h13.8528c.015-.00021.03.00257.044.00819s.0267.01396.0374.02453c.0107.01058.0192.02319.0251.03709.0058.01389.0088.0288.0088.04387v2.77628c0 .0151-.003.03-.0088.0439-.0059.0139-.0144.0265-.0251.0371s-.0234.0189-.0374.0245c-.014.0057-.029.0084-.044.0082h-10.6202v6.4237h9.0335c.015 0 .03.003.0439.0088.0138.0058.0265.0143.037.025.0106.0108.0189.0235.0246.0375.0056.014.0084.0289.0082.044v2.7443c0 .0301-.012.059-.0333.0804-.0214.0213-.0503.0333-.0804.0333h-9.0335v6.6174h10.6202c.015-.0003.03.0025.044.0081.014.0057.0267.014.0374.0246s.0192.0232.0251.0371c.0058.0139.0088.0288.0088.0438v2.7748c0 .0151-.003.0301-.0088.0441s-.0143.0267-.025.0374-.0234.0192-.0374.025-.029.0087-.0441.0087h-13.8496c-.0295-.0008-.0576-.0128-.0784-.0337-.0208-.0208-.0329-.0489-.0337-.0783zm34.4479.0576-10.1366-15.4363v15.3707c.0002.015-.0026.03-.0082.044-.0056.0139-.014.0267-.0246.0374-.0105.0107-.0231.0192-.037.025s-.0288.0088-.0439.0088h-3.1238c-.015 0-.03-.003-.0439-.0088s-.0265-.0143-.037-.025c-.0106-.0107-.019-.0235-.0246-.0374-.0056-.014-.0084-.029-.0082-.044v-21.77517c-.0002-.01506.0026-.03002.0082-.04399.0056-.01398.014-.02671.0246-.03743.0105-.01073.0231-.01925.037-.02506s.0289-.0088.0439-.0088h2.8948c.0186.00079.0367.006.0529.01519.0161.00919.0298.02209.04.03764l10.1462 15.40432v-15.34507c0-.03058.0122-.0599.0338-.08152s.0509-.03377.0815-.03377h3.1238c.0151 0 .03.003.0439.00881s.0265.01433.037.02506c.0106.01072.019.02344.0246.03742s.0084.02893.0082.044v21.77517c.0002.015-.0026.03-.0082.0439-.0056.014-.014.0267-.0246.0375-.0105.0107-.0231.0192-.037.025s-.0288.0088-.0439.0088h-2.9108c-.0172-.0009-.034-.0055-.0492-.0135s-.0285-.0192-.0389-.0329zm13.3277-4.1757v1.0455c1.3387.2903 2.7021.4511 4.0716.4804 1.3535-.0301 2.7011-.1909 4.0231-.4804v-4.9346l-11.3386-3.9612c-.021-.0082-.039-.0225-.0518-.041-.0129-.0186-.0199-.0405-.0202-.063v-9.06392c-.0023-.02308.0036-.04622.0169-.06529.0132-.01907.0327-.03282.0551-.03878 2.364-.66003 4.8037-1.00987 7.2579-1.04073 2.4637.03244 4.9137.38222 7.2887 1.04073.022.00621.041.01996.055.03892.013.01896.02.04197.018.06515v3.42002c0 .0305-.012.0598-.034.0815-.021.0216-.051.0337-.081.0337h-3.066c-.031 0-.06-.0121-.082-.0337-.021-.0217-.034-.051-.034-.0815v-1.0472c-2.6613-.6285-5.4329-.6285-8.0947 0l.016 4.6641 11.2977 3.9563c.021.0083.039.0226.052.0411.012.0185.019.0405.02.063v9.3457c.002.0231-.004.0462-.017.0653-.013.019-.033.0328-.055.0388-2.364.6601-4.804 1.0099-7.2581 1.0407-2.4641-.0325-4.9136-.3822-7.2883-1.0407-.0224-.006-.0419-.0198-.0551-.0388-.0132-.0191-.0192-.0422-.0169-.0653v-3.4264c0-.0302.0119-.0591.0333-.0804.0213-.0213.0502-.0333.0803-.0333h3.0614c.0144-.0041.0295-.0054.0443-.0037.0149.0017.0293.0063.0424.0136s.0247.0171.0339.0289c.0093.0118.0162.0252.0203.0397.0033.012.0049.0244.0048.0368z" fill="#7878e5"/></g></svg>