<svg fill="none" height="45" viewBox="0 0 152 45" width="152" xmlns="http://www.w3.org/2000/svg"><path d="m54.365 24.1026h8.0342c0 .8219-.0411 1.5821-.1028 2.2602-.0616.6781-.2055 1.2945-.4109 1.8698-.2877.8219-.6781 1.5411-1.1712 2.1781-.4932.6164-1.0891 1.1506-1.7466 1.5616-.6575.4109-1.3972.7397-2.1986.9452-.8013.226-1.6438.3287-2.5273.3287-1.2124 0-2.3219-.2054-3.3288-.5958-.9862-.3904-1.8492-.9658-2.5684-1.6644-.7192-.7397-1.274-1.6027-1.6644-2.6095-.3904-1.0274-.5958-2.137-.5958-3.3699 0-1.2123.1849-2.3218.5753-3.3287.3904-1.0274.9657-1.8904 1.6643-2.6095.7398-.7192 1.6028-1.274 2.6301-1.6644 1.0274-.3904 2.1575-.5959 3.4109-.5959 1.6233 0 3.0411.3494 4.2739 1.048 1.2329.6986 2.1986 1.7876 2.9178 3.267l-3.8424 1.5822c-.3493-.863-.8219-1.4589-1.3972-1.8287-.5548-.3699-1.2123-.5548-1.9315-.5548-.5959 0-1.1507.1233-1.6438.3493-.4932.226-.9247.5342-1.274.9657-.3493.411-.6164.9247-.8219 1.5-.1849.5959-.2876 1.2534-.2876 1.9726 0 .6575.0821 1.2739.2465 1.8287.185.5548.4315 1.048.7808 1.4589.3494.411.7808.7397 1.274.9657.5137.2261 1.1096.3288 1.7671.3288.3904 0 .7808-.0411 1.1507-.1233.3698-.1027.6986-.2466.9862-.4315.3083-.2055.5548-.4726.7398-.7808.1849-.3082.3287-.6986.3904-1.1507h-3.3288zm28.0065-3.5959v12.7395h-4.3151v-12.7395h-3.493v-3.6986h11.3011v3.6986zm18.4925 1.9315c-.9449-1.1507-2.0956-1.726-3.4722-1.726-.6165 0-1.1713.1027-1.7055.3288-.5137.226-.9452.5342-1.3356.9041-.3698.3698-.6781.8219-.8835 1.3561-.2055.5342-.3082 1.089-.3082 1.7054 0 .6165.1027 1.1918.3082 1.726.226.5343.5137.9863.8835 1.3767.3904.3904.8425.6987 1.3562.9041.5137.2261 1.0684.3288 1.6643.3288 1.2945 0 2.4657-.5548 3.4928-1.6644v4.8082l-.411.1438c-.6161.226-1.1914.3699-1.7462.4726-.5342.1027-1.0685.1644-1.6027.1644-1.0685 0-2.1164-.2055-3.1027-.5959-.9863-.4109-1.8493-.9863-2.6095-1.726-.7398-.7397-1.3562-1.6233-1.8082-2.6301-.4521-1.0274-.6781-2.1369-.6781-3.3287s.226-2.3013.6575-3.2876c.4521-1.0069 1.0479-1.8699 1.8082-2.589.7603-.7397 1.6438-1.2945 2.6301-1.7055.9863-.4109 2.0342-.6164 3.1232-.6164.6165 0 1.2329.0616 1.8288.2055.6164.1233 1.2536.3287 1.9106.5959zm8.466 2.589c0 .6164.123 1.1918.349 1.726s.555.9863.945 1.3767c.391.3904.863.6986 1.398.9041.534.2055 1.109.3082 1.705.3082s1.151-.1027 1.685-.3082c.534-.226 1.007-.5343 1.418-.9041.411-.3904.74-.8425.966-1.3767s.349-1.089.349-1.726-.123-1.1918-.349-1.726-.555-.9863-.966-1.3767c-.391-.3904-.863-.6781-1.418-.8835-.534-.2261-1.089-.3288-1.685-.3288s-1.151.1027-1.705.3288c-.535.2054-.987.5136-1.398.8835-.39.3904-.719.8425-.945 1.3767s-.349 1.1096-.349 1.726zm-4.233 0c0-1.1507.206-2.2397.637-3.226.432-1.0068 1.027-1.8904 1.788-2.6301.76-.7397 1.664-1.3356 2.712-1.7465 1.068-.4315 2.24-.637 3.493-.637 1.254 0 2.425.2055 3.473.637 1.068.4109 1.972.9863 2.733 1.7465.78.7397 1.376 1.6233 1.808 2.6301.431.9863.637 2.0753.637 3.226s-.206 2.2397-.637 3.2465c-.432.9863-1.028 1.8699-1.808 2.6096-.761.7397-1.665 1.3356-2.733 1.7671-1.069.4109-2.219.6164-3.473.6164-1.274 0-2.445-.2055-3.493-.6164-1.048-.4315-1.952-1.0069-2.712-1.7671-.761-.7397-1.356-1.6233-1.788-2.6096-.431-1.0068-.637-2.0753-.637-3.2465zm25.767-8.2191v16.4381h-4.315v-16.4381zm-60.4102 0v16.4381h-4.315v-16.4381zm64.9302 16.4381v-16.4381h4.11l8.013 10.0478v-10.0478h4.315v16.4381h-4.15l-7.973-10.0477v10.0477z" fill="#7878e5"/><g clip-rule="evenodd" fill-rule="evenodd"><path d="m35.1857 35.7163-10.0252-7.6253c.7147-.9404 1.1229-2.0851 1.1842-3.2709.0409-1.1856-.2653-2.3509-.8984-3.3526l4.7983-4.3339 5.0229-4.7019c.3267-.3067.347-.8382.0203-1.1653l-.6941-.6951c-3.5732-3.6184-8.3918-5.72404-13.4556-5.88758l.0206-2.75981c.0203-.18398-.0001-.36797-.0409-.55195-.0613-.18398-.143-.34754-.2655-.490636-.1225-.143094-.2655-.245318-.4492-.327098-.1633-.081759-.347-.122649-.5309-.122649-.1837 0-.3674.04089-.5308.122649-.1633.08178-.3267.184004-.4491.327098-.1227.143096-.2248.306656-.2655.470186-.0613.18399-.0818.36797-.0409.55195l-.0204 2.8416c-1.2047.12265-2.4094.34752-3.5732.69506l.0204-3.53666c.0205-.18398 0-.36796-.0407-.55195-.0613-.18398-.143-.34754-.2655-.490631-.1225-.143093-.2655-.245318-.4492-.327097-.1633-.081759-.3472-.122649-.5309-.122649s-.3676.04089-.5308.122649c-.1633.081779-.3267.184004-.4494.327097-.1224.143091-.2245.306651-.2652.470191-.0615.18398-.0818.36797-.0409.55197l-.0612 4.51791c-4.12453 1.83985-7.51392 5.04945-9.57614 9.07675-2.062218 4.0273-2.7156115 8.6474-1.817208 13.0835.898388 4.4362 3.287308 8.443 6.758358 11.346 3.47109 2.9027 7.84059 4.5383 12.35289 4.6201l14.5988.0612c.4494 0 .8168-.368.8168-.8178v-7.3799c0-.2656-.1225-.511-.3267-.6745zm-14.8029 5.2538c-3.5936-.0204-7.0853-1.2265-9.9233-3.414-2.83809-2.2079-4.87989-5.2947-5.7987-8.7701-.9188-3.4753-.65337-7.1755.71463-10.4871 1.38842-3.3119 3.81816-6.0921 6.94217-7.8911l-.0205 5.3764c-.0204.1842 0 .3681.0409.552.0612.1841.143.3476.2654.4906.1225.1432.2655.2454.4492.3271.1634.0818.3471.1227.531.1227.1837 0 .3674-.0409.5307-.1227.1634-.0817.3267-.1839.4492-.3271.1224-.143.2246-.3065.2655-.4701.0612-.1839.0817-.368.0408-.5519l.0204-6.60317c1.7969-.65417 3.6957-.96083 5.615-.96083 3.5324 0 6.9626 1.16526 9.7597 3.2913.2043.1636.2246.4498.0409.6338l-7.6363 7.012c-.6943-.2862-1.4496-.4498-2.2052-.4498-.8371 0-1.6742.1636-2.4501.511-.7758.3477-1.4498.8587-2.0011 1.4924-.5511.6337-.9596 1.39-1.2045 2.1875-.2451.8176-.3064 1.6557-.1839 2.4939.1227.8383.4085 1.6356.8577 2.351.4491.7155 1.0617 1.3083 1.756 1.7786.7146.4496 1.5108.7564 2.3479.879.8372.1227 1.6948.0613 2.491-.1841l9.7599 7.421c.1022.0818.1634.2043.1634.3269l-.0205 2.6168c0 .225-.1837.4089-.4083.4089zm2.3888-16.3545c0 .4498-.143.8996-.3879 1.2879-.2655.3886-.6125.6746-1.0414.8587-.4288.1839-.8983.2248-1.3271.1227-.4289-.1023-.8577-.3068-1.1844-.6337-.3265-.3271-.5513-.736-.6329-1.1858-.0815-.4498-.0408-.9199.1431-1.3288.1837-.4293.4695-.7767.8574-1.0426.3879-.2453.8371-.3884 1.2863-.3884.6125 0 1.2047.2454 1.6335.6952.4083.4087.6534.9811.6534 1.6148z" fill="#7878e5"/><path d="m29.5503 17.7609c1.4293 2.0034 2.2052 4.4362 2.1848 6.8894 0 2.4123-.7759 4.8246-2.1848 6.7871l2.981 2.269c1.8988-2.6167 2.9402-5.8057 2.9402-9.0358.0205-3.414-1.1026-6.7665-3.1647-9.465l-1.7096 1.541z" fill="#7a79e5"/></g></svg>