<svg fill="none" height="20" viewBox="0 0 20 20" width="20" xmlns="http://www.w3.org/2000/svg"><path d="m1.67764 2.08879c.38858-.04529.77022.12863.99096.4516 1.55303 2.27237 3.41838 3.21767 5.48815 3.43274.10158-.88544.34052-1.76031.78968-2.53057.65884-1.13012 1.73047-1.96214 3.26117-2.26959 2.1151-.424828 3.7257.34115 4.6602 1.27924l1.8861-.35258c.403-.0753.8129.09006 1.0507.42382s.2604.77522.0576 1.13143l-1.81 3.18106c.1651 4.59086-1.1107 7.79466-3.8308 10.00196-1.443 1.1708-3.5077 1.8349-5.77413 2.0399-2.28414.2066-4.86606-.0432-7.43272-.7927-.450293-.1315-.75924-.545-.757577-1.0141.001652-.4691.313505-.8805.764717-1.0088 1.29076-.367 2.27318-.6844 3.16123-1.2386-1.26154-.6698-2.19107-1.5453-2.84896-2.5435-.914387-1.3874-1.2534504-2.93413-1.3207663-4.32914-.0673053-1.39487.1342733-2.68679.3465793-3.61922.120852-.53079.262011-1.06404.456579-1.57345.141316-.36715.472718-.6242.861288-.6695z" fill="#56ccf2"/></svg>