<svg fill="none" height="20" viewBox="0 0 21 20" width="21" xmlns="http://www.w3.org/2000/svg" xmlns:xlink="http://www.w3.org/1999/xlink"><linearGradient id="a" gradientUnits="userSpaceOnUse" x1="25.5895" x2=".50568" y1="-8.64283" y2="-7.63575"><stop offset="0" stop-color="#05d5ff"/><stop offset="1" stop-color="#53f"/></linearGradient><path clip-rule="evenodd" d="m19.1171 3.43845c-3.1577.1916-6.2544-1.04397-8.6175-3.43845-2.36302 2.39482-5.45964 3.63073-8.6175 3.43938-.25447 1.11423-.38287 2.26095-.38209 3.41229 0 6.32473 3.82417 11.64123 8.99959 13.14833 5.1762-1.5071 9.0004-6.8227 9.0004-13.14833.0004-1.15167-.1283-2.29869-.3829-3.41322zm-3.7505 3.93489c.3211-.36737.2837-.92551-.0837-1.24665s-.9255-.28366-1.2467.08371l-4.84479 5.5423-1.53879-1.76005c-.32116-.36735-.87931-.40479-1.24666-.08362-.36734.32117-.40478.87927-.08362 1.24667l2.20399 2.5209c.16777.1919.41026.302.66517.302.2549 0 .49738-.1101.66514-.3021z" fill="url(#a)" fill-rule="evenodd"/></svg>