<svg fill="none" height="20" viewBox="0 0 21 20" width="21" xmlns="http://www.w3.org/2000/svg"><path d="m8.09926.291935.22445.909155c-.88462.21863-1.73128.56917-2.51154 1.03985l-.48015-.80404c.85885-.520106 1.79199-.9062 2.76724-1.144965zm4.80144 0-.2244.909155c.8846.21863 1.7313.56917 2.5115 1.03985l.4859-.80404c-.8611-.519649-1.7961-.905695-2.773-1.144965zm-10.96381 4.537255c-.51962.86011-.90568 1.79411-1.144967 2.77008l.909157.22445c.21863-.88461.56917-1.73128 1.03984-2.51154zm-.50004 5.17081c-.00006-.4546.03413-.90857.10229-1.35804l-.926207-.14205c-.150577.99345-.150577 2.00389 0 2.99739l.926207-.1392c-.06806-.4495-.10225-.9035-.10229-1.3581zm14.23115 8.5603-.4802-.8012c-.779.4711-1.6248.8217-2.5087 1.0398l.2245.9092c.974-.2411 1.906-.628 2.7644-1.1478zm3.8951-8.5603c0 .4546-.0342.9086-.1022 1.3581l.9262.1392c.1505-.9935.1505-2.00394 0-2.99739l-.9262.14205c.0681.44947.1023.90344.1022 1.35804zm.645 2.3979-.9092-.2244c-.2181.8856-.5687 1.7333-1.0398 2.5143l.804.483c.5201-.8608.9062-1.7958 1.145-2.7729zm-8.35 6.563c-.9003.1364-1.8159.1364-2.71615 0l-.13922.9262c.9925.1506 2.00207.1506 2.99457 0zm5.9379-3.5855c-.54.7323-1.1875 1.3788-1.9206 1.9177l.5568.7558c.8075-.5944 1.5218-1.3059 2.1195-2.111zm-1.9206-12.67136c.7331.53995 1.3806 1.18744 1.9206 1.92059l.7557-.56254c-.5955-.80579-1.308-1.51823-2.1138-2.11379zm-12.67137 1.92059c.53995-.73315 1.18744-1.38064 1.92059-1.92059l-.56254-.75574c-.80579.59556-1.51823 1.308-2.11379 2.11379zm15.85907.20456-.804.48299c.4711.77903.8217 1.62482 1.0398 2.5087l.9092-.22445c-.2393-.97507-.6254-1.90813-1.145-2.76724zm-9.92115-3.79004c.90025-.136393 1.81585-.136393 2.71615 0l.1392-.926205c-.9925-.1505932-2.00207-.1505932-2.99457 0zm-5.45778 17.25975-1.93479.4489.45173-1.9348-.91199-.2131-.45174 1.9348c-.028264.12-.032602.2443-.012764.366.019837.1216.063461.2381.128374.3429.06491.1047.14984.1957.24993.2676s.21338.1233.33337.1514c.14034.0313.28583.0313.42617 0l1.9348-.446zm-2.20186-2.5343.91484.2103.31252-1.341c-.45638-.7656-.79631-1.5948-1.00859-2.4604l-.909157.2244c.204498.8286.513837 1.6277.920517 2.378zm4.37531 2.0286-1.341.3125.21308.9148.98587-.2301c.74975.4079 1.54902.7173 2.37801.9205l.22445-.9091c-.86293-.2151-1.68921-.5569-2.45188-1.0143zm4.64238-15.91877c-4.48896.00284-8.12274 3.64231-8.12274 8.12847.00248 1.5279.43468 3.0244 1.24725 4.3184l-.78131 3.3355 3.33263-.7813c3.79856 2.3894 8.81597 1.2501 11.20537-2.5456 2.3893-3.7958 1.2529-8.81316-2.5428-11.20538-1.2995-.81716-2.8034-1.2505-4.3384-1.25009z" fill="#3a76f0"/></svg>