<svg fill="none" height="20" viewBox="0 0 20 20" width="20" xmlns="http://www.w3.org/2000/svg" xmlns:xlink="http://www.w3.org/1999/xlink"><clipPath id="a"><path d="m0 0h20v20h-20z"/></clipPath><g clip-path="url(#a)"><path d="m6.66664 20.0002c1.84001 0 3.33336-1.4933 3.33336-3.3333v-3.3334h-3.33336c-1.84002 0-3.33339 1.4934-3.33339 3.3334s1.49337 3.3333 3.33339 3.3333z" fill="#0acf83"/><path d="m3.33325 9.99986c0-1.84 1.49337-3.33336 3.33339-3.33336h3.33336v6.6666h-3.33336c-1.84002.0001-3.33339-1.4932-3.33339-3.33324z" fill="#a259ff"/><path d="m3.33325 3.33336c0-1.84 1.49337-3.33336 3.33339-3.33336h3.33336v6.66664h-3.33336c-1.84002 0-3.33339-1.49328-3.33339-3.33328z" fill="#f24e1e"/><path d="m10 0h3.3334c1.84 0 3.3334 1.49336 3.3334 3.33336s-1.4934 3.33328-3.3334 3.33328h-3.3334z" fill="#ff7262"/><path d="m16.6668 9.99986c0 1.84004-1.4934 3.33334-3.3334 3.33334s-3.3334-1.4933-3.3334-3.33334c0-1.84 1.4934-3.33336 3.3334-3.33336s3.3334 1.49336 3.3334 3.33336z" fill="#1abcfe"/></g></svg>