<svg fill="none" height="20" viewBox="0 0 20 20" width="20" xmlns="http://www.w3.org/2000/svg" xmlns:xlink="http://www.w3.org/1999/xlink"><clipPath id="a"><path d="m0 0h20v20h-20z"/></clipPath><g clip-path="url(#a)"><path d="m16.9308 3.4629c-1.2747-.58491-2.6416-1.01583-4.0709-1.26265-.026-.00476-.052.00714-.0654.03095-.1758.31268-.3706.7206-.5069 1.04122-1.5373-.23014-3.06661-.23014-4.57233 0-.1364-.32775-.3382-.72854-.51479-1.04122-.01341-.02301-.03941-.03491-.06544-.03095-1.42845.24603-2.79541.67696-4.07093 1.26265-.01104.00476-.0205.0127-.02679.02301-2.592827 3.87363-3.303112 7.65209-2.9546699 11.38359.0015766.0183.0118248.0358.0260149.0469 1.710675 1.2562 3.367755 2.0189 4.994065 2.5244.02603.008.05361-.0015.07017-.023.38471-.5253.72763-1.0793 1.02166-1.6618.01736-.0341.00079-.0746-.03467-.0881-.54395-.2063-1.06189-.4579-1.56012-.7436-.0394-.023-.04256-.0794-.00631-.1064.10485-.0785.20972-.1603.30984-.2428.01811-.0151.04335-.0183.06464-.0087 3.27313 1.4944 6.81666 1.4944 10.05116 0 .0213-.0103.0466-.0072.0655.0079.1001.0825.2049.1651.3106.2436.0362.027.0339.0834-.0055.1064-.4983.2912-1.0162.5373-1.5609.7428-.0355.0135-.0513.0548-.0339.0889.3003.5817.6432 1.1357 1.0208 1.661.0158.0223.0442.0318.0702.0238 1.6342-.5055 3.2913-1.2682 5.002-2.5244.0149-.0111.0244-.0278.026-.0461.417-4.3141-.6985-8.06152-2.9571-11.3836-.0055-.0111-.0149-.01904-.026-.0238zm-10.24745 9.1345c-.98543 0-1.79741-.9047-1.79741-2.0158 0-1.11104.79623-2.01575 1.79741-2.01575 1.00904 0 1.81316.91265 1.79738 2.01575 0 1.1111-.79622 2.0158-1.79738 2.0158zm6.64565 0c-.9855 0-1.7974-.9047-1.7974-2.0158 0-1.11104.7962-2.01575 1.7974-2.01575 1.009 0 1.8131.91265 1.7974 2.01575 0 1.1111-.7884 2.0158-1.7974 2.0158z" fill="#5865f2"/></g></svg>