<svg fill="none" height="20" viewBox="0 0 21 20" width="21" xmlns="http://www.w3.org/2000/svg" xmlns:xlink="http://www.w3.org/1999/xlink"><clipPath id="a"><path d="m.5 0h20v20h-20z"/></clipPath><g clip-path="url(#a)"><path d="m10.5 20c5.5228 0 10-4.4772 10-10 0-5.52285-4.4772-10-10-10-5.52285 0-10 4.47715-10 10 0 5.5228 4.47715 10 10 10z" fill="#ff4500"/><path d="m17.1666 9.99991c0-.80702-.6549-1.46199-1.462-1.46199-.3976 0-.7485.15205-1.0058.40936-.9942-.71345-2.3743-1.18129-3.8947-1.23977l.6666-3.12281 2.1638.45614c.0234.54971.4795.99416 1.0409.99416.5731 0 1.0409-.46784 1.0409-1.04094s-.4678-1.04094-1.0409-1.04094c-.4094 0-.7602.23392-.924.5848l-2.421-.51462c-.0702-.01169-.1404 0-.1989.03509-.0584.03509-.0935.09357-.1169.16374l-.7369 3.48538c-1.55551.04679-2.94733.50292-3.95317 1.23977-.25731-.24562-.61989-.40936-1.00585-.40936-.80702 0-1.46199.65497-1.46199 1.46199 0 .59649.35088 1.09939.8655 1.33329-.0234.1404-.03509.2924-.03509.4445 0 2.2456 2.60819 4.0585 5.8363 4.0585 3.228 0 5.8362-1.8129 5.8362-4.0585 0-.1521-.0117-.2924-.0351-.4328.4796-.2339.8421-.7485.8421-1.34499zm-9.99997 1.04089c0-.5731.46784-1.04089 1.04094-1.04089s1.04093.46779 1.04093 1.04089-.46783 1.041-1.04093 1.041-1.04094-.4679-1.04094-1.041zm5.81287 2.7486c-.7135.7134-2.0702.7602-2.4678.7602-.3977 0-1.76612-.0585-2.46788-.7602-.10526-.1053-.10526-.2807 0-.386.10527-.1052.28071-.1052.38597 0 .44444.4445 1.40351.6082 2.09361.6082.69 0 1.6374-.1637 2.0935-.6082.1053-.1052.2807-.1052.386 0 .0819.117.0819.2807-.0234.386zm-.1871-1.7076c-.5731 0-1.041-.4679-1.041-1.041s.4679-1.04089 1.041-1.04089 1.0409.46779 1.0409 1.04089-.4678 1.041-1.0409 1.041z" fill="#fff"/></g></svg>