<svg fill="none" height="29" viewBox="0 0 29 29" width="29" xmlns="http://www.w3.org/2000/svg"><path d="m9.29979 25.3625c9.92031 0 15.34861-8.0938 15.34861-15.1008 0-.2277 0-.45543-.0105-.68313 1.052-.74521 1.9672-1.68707 2.6931-2.75313-.9679.42435-2.0093.7038-3.1034.83836 1.1151-.65206 1.9673-1.69742 2.3775-2.93944-1.0414.61066-2.1987 1.04536-3.4295 1.28341-.9889-1.03501-2.388-1.67672-3.9344-1.67672-2.9772 0-5.3968 2.38053-5.3968 5.30962 0 .41403.0526.81763.1368 1.21093-4.48152-.2173-8.45808-2.33909-11.11962-5.54763-.46288.7866-.72588 1.69742-.72588 2.67033 0 1.84232.95732 3.4673 2.39855 4.4195-.88368-.0311-1.71475-.2691-2.44063-.6624v.0724c0 2.5669 1.86203 4.7197 4.3237 5.2062-.45236.1241-.92575.1862-1.42019.1862-.34716 0-.6838-.031-1.00992-.0931.6838 2.1114 2.68259 3.6433 5.03906 3.6847-1.85151 1.4283-4.17642 2.277-6.70121 2.277-.43132 0-.86264-.0207-1.28343-.0725 2.3775 1.4904 5.21789 2.3702 8.25816 2.3702z" fill="#b7b7f3"/></svg>