<svg fill="none" height="20" viewBox="0 0 21 20" width="21" xmlns="http://www.w3.org/2000/svg"><path clip-rule="evenodd" d="m.681656.910014c-.181656.356526-.181656.823236-.181656 1.756656v14.66663c0 .9334 0 1.4002.181656 1.7567.159789.3136.414754.5686.728354.7284.35653.1816.82324.1816 1.75666.1816h14.66663c.9334 0 1.4002 0 1.7567-.1816.3136-.1598.5686-.4148.7284-.7284.1816-.3565.1816-.8233.1816-1.7567v-14.66663c0-.93342 0-1.40013-.1816-1.756656-.1598-.313603-.4148-.568569-.7284-.728358-.3565-.181656-.8233-.181656-1.7567-.181656h-14.66663c-.93342 0-1.40013 0-1.75666.181656-.3136.159789-.568565.414755-.728354.728358zm4.163114 4.089986c-.34278 0-.47482.42382-.18725.60086l7.19478 4.33821c.1794.11043.4186.06683.5421-.09886l3.1633-4.15292c.2151-.28854-.0022-.68729-.3745-.68729zm11.30793 10c.3427 0 .4782-.4261.1907-.6031l-7.19692-4.3377c-.17932-.11038-.41271-.06124-.53618.1044l-3.1695 4.1521c-.21503.2884.00907.6843.38129.6843z" fill="#2962ef" fill-rule="evenodd"/></svg>