<svg width="19" height="20" viewBox="0 0 19 20" fill="none" xmlns="http://www.w3.org/2000/svg">
<path fill-rule="evenodd" clip-rule="evenodd" d="M18.1171 3.43845C14.9594 3.63005 11.8627 2.39448 9.4996 0C7.13658 2.39482 4.03996 3.63073 0.882097 3.43938C0.627634 4.55361 0.49923 5.70033 0.500008 6.85167C0.500008 13.1764 4.32418 18.4929 9.4996 20C14.6758 18.4929 18.5 13.1773 18.5 6.85167C18.5004 5.7 18.3717 4.55298 18.1171 3.43845ZM14.3666 7.37334C14.6877 7.00597 14.6503 6.44783 14.2829 6.12669C13.9155 5.80555 13.3574 5.84303 13.0362 6.2104L8.19141 11.7527L6.65262 9.99265C6.33146 9.6253 5.77331 9.58786 5.40596 9.90903C5.03862 10.2302 5.00118 10.7883 5.32234 11.1557L7.52633 13.6766C7.6941 13.8685 7.93659 13.9786 8.1915 13.9786C8.4464 13.9786 8.68888 13.8685 8.85664 13.6765L14.3666 7.37334Z" fill="url(#paint0_linear_56_1555)"/>
<defs>
<linearGradient id="paint0_linear_56_1555" x1="24.5895" y1="-8.64283" x2="-0.49432" y2="-7.63575" gradientUnits="userSpaceOnUse">
<stop stop-color="#05D5FF"/>
<stop offset="1" stop-color="#5533FF"/>
</linearGradient>
</defs>
</svg>
