<svg fill="none" height="20" viewBox="0 0 20 20" width="20" xmlns="http://www.w3.org/2000/svg"><path d="m6 4c3.3137 0 6 2.68629 6 6 0 3.3137-2.6863 6-6 6-3.31371 0-5.99999994-2.6863-5.99999996-6-.00000002-3.31371 2.68628996-6 5.99999996-6zm9 1c1.5 0 2.5 2.23858 2.5 5 0 2.7614-1 5-2.5 5s-2.5-2.2386-2.5-5c0-2.76142 1-5 2.5-5zm4 .5c.3809 0 .712.82691.8809 2.24596l.0457.44324c.0067.07676.0131.15494.0189.23451l.0298.49389c.0041.08502.0076.17138.0107.25904l.0124.54137c.0011.09276.0016.18677.0016.28199l-.0016.282-.0124.5414c-.0031.0876-.0066.174-.0107.259l-.0298.4939c-.0058.0796-.0122.1577-.0189.2345l-.0457.4432c-.1689 1.4191-.5 2.246-.8809 2.246s-.712-.8269-.8809-2.246l-.0457-.4432c-.0067-.0768-.0131-.1549-.0189-.2345l-.0298-.4939c-.0041-.085-.0076-.1714-.0107-.259l-.0124-.5414v-.56399l.0124-.54137c.0031-.08766.0066-.17402.0107-.25904l.0298-.49389c.0058-.07957.0122-.15775.0189-.23451l.0457-.44324c.1689-1.41905.5-2.24596.8809-2.24596z" fill="#09244b"/></svg>