<svg fill="none" height="20" viewBox="0 0 21 20" width="21" xmlns="http://www.w3.org/2000/svg" xmlns:xlink="http://www.w3.org/1999/xlink"><clipPath id="a"><path d="m.5 0h20v20h-20z"/></clipPath><g clip-path="url(#a)" fill="#12ff80"><path d="m19.5875 10.1348h-2.1986c-.6566 0-1.1887.5322-1.1887 1.1889v3.1919c0 .6568-.532 1.189-1.1887 1.189h-8.74674c-.65664 0-1.18871.5322-1.18871 1.1889v2.1991c0 .6568.53207 1.189 1.18871 1.189h9.25304c.6566 0 1.1811-.5322 1.1811-1.189v-1.7643c0-.6568.5321-1.1227 1.1887-1.1227h1.6995c.6566 0 1.1887-.5322 1.1887-1.189v-3.7066c0-.6568-.5321-1.1752-1.1887-1.1752z"/><path d="m5.07602 5.76604c0-.65679.53207-1.18899 1.18871-1.18899h8.74137c.6567 0 1.1888-.53219 1.1888-1.18898v-2.19909c0-.656785-.5321-1.18898-1.1888-1.18898h-9.24809c-.65664 0-1.18871.532195-1.18871 1.18898v1.69448c0 .65679-.53207 1.18899-1.18871 1.18899h-1.69188c-.65664 0-1.18871.53219-1.18871 1.18898v3.71068c0 .65679.5343 1.16229 1.19094 1.16229h2.19859c.65664 0 1.18871-.5322 1.18871-1.18899l-.00222-3.17893z"/><path d="m9.60299 7.82324h2.11181c.6883 0 1.2466.5589 1.2466 1.24683v2.11233c0 .6884-.5588 1.2468-1.2466 1.2468h-2.11181c-.68822 0-1.24654-.5589-1.24654-1.2468v-2.11233c0-.68838.55876-1.24683 1.24654-1.24683z"/></g></svg>