<svg fill="none" height="20" viewBox="0 0 21 20" width="21" xmlns="http://www.w3.org/2000/svg"><path clip-rule="evenodd" d="m10.5-.00000007c5.5228-.00000004 10 4.47715007 10 10.00000007 0 5.5228-4.4772 10-10 10-1.76363 0-3.42291-.4573-4.86308-1.2603l-.30521-.1773-3.03196.8918c-.73039.2149-1.411529-.4213-1.27988-1.1449l.02594-.1091.89175-3.0319c-.91251-1.5089-1.43756-3.2787-1.43756-5.1683 0-5.52285 4.47715-10.00000003 10-10.00000007zm-2.20711 7.79289007-3 3.00001c-.39052.3905-.39052 1.0237 0 1.4142.39053.3905 1.02369.3905 1.41422 0l2.29289-2.2929 2.2929 2.2929c.3905.3905 1.0237.3905 1.4142 0l3-3c.3905-.3905.3905-1.0237 0-1.41421-.3905-.39052-1.0237-.39052-1.4142 0l-2.2929 2.29291-2.2929-2.29291c-.3905-.39052-1.0237-.39052-1.41421 0z" fill="#3e4fea" fill-rule="evenodd"/></svg>