<svg fill="none" height="22" viewBox="0 0 23 22" width="23" xmlns="http://www.w3.org/2000/svg" xmlns:xlink="http://www.w3.org/1999/xlink"><clipPath id="a"><path d="m1.5 1h20v20h-20z"/></clipPath><g clip-path="url(#a)" fill="#8b5cf6"><path d="m10.1775 10.2252c-.25691.4319-4.26366.5044-6.44955-.72059-2.18588-1.22503-1.12389-4.97066 1.09324-5.95422 2.21714-.98355 5.61311 6.24296 5.35631 6.67481z"/><path d="m10.1474 11.7243c.2569.4318-1.68168 3.8363-3.86758 5.0613-2.18588 1.2251-4.99666-1.5405-4.76559-3.896.23106-2.3556 8.37635-1.5972 8.63317-1.1653z"/><path d="m11.4689 12.499c.5138 0 2.5819 3.332 2.5819 5.782s-3.8728 3.4302-5.85883 2.0581c-1.98608-1.372 2.76323-7.8401 3.27693-7.8401z"/><path d="m12.8224 11.7755c.2568-.4319 4.2636-.5044 6.4494.7206 2.1859 1.225 1.124 4.9706-1.0932 5.9542-2.2172.9835-5.6131-6.2429-5.3562-6.6748z"/><path d="m12.8529 10.2759c-.2569-.43191 1.6817-3.83638 3.8676-5.06144 2.186-1.22502 4.9967 1.54056 4.7657 3.8961-.2311 2.35564-8.3764 1.59724-8.6333 1.16534z"/><path d="m11.5303 9.50086c-.5138 0-2.58181-3.33194-2.58181-5.78199 0-2.45006 3.87271-3.430122 5.85881-2.05809 1.9861 1.37204-2.7633 7.84013-3.277 7.84008z"/></g></svg>