<svg fill="none" height="20" viewBox="0 0 20 20" width="20" xmlns="http://www.w3.org/2000/svg" xmlns:xlink="http://www.w3.org/1999/xlink"><linearGradient id="a" gradientUnits="userSpaceOnUse" x1="5.7525" x2="20.1969" y1="22.0995" y2="2.09951"><stop offset=".0001" stop-color="#f8d20d"/><stop offset=".316568" stop-color="#e31333"/><stop offset=".654158" stop-color="#b03a98"/><stop offset="1" stop-color="#8537b1"/></linearGradient><path d="m14.4444-.0000001c3.0683-.00000002 5.5556 2.4873101 5.5556 5.5555601v8.88884c0 3.0683-2.4873 5.5556-5.5556 5.5556h-8.88884c-3.06825 0-5.55555988-2.4873-5.5555599-5.5556l-.00000006-8.88884c-.00000002-3.06825 2.48730996-5.55556002 5.55555996-5.55556004zm-4.4444 5.5555601c-2.4546 0-4.44444 1.98984-4.44444 4.44444s1.98984 4.4444 4.44444 4.4444 4.4444-1.9898 4.4444-4.4444-1.9898-4.44444-4.4444-4.44444zm0 2.22222c1.2273 0 2.2222.99489 2.2222 2.22222 0 1.2273-.9949 2.2222-2.2222 2.2222-1.22733 0-2.22222-.9949-2.22222-2.2222 0-1.22733.99489-2.22222 2.22222-2.22222zm5-3.88889c-.6137 0-1.1111.49747-1.1111 1.11111s.4974 1.11111 1.1111 1.11111 1.1111-.49747 1.1111-1.11111-.4974-1.11111-1.1111-1.11111z" fill="url(#a)"/></svg>