<svg fill="none" height="20" viewBox="0 0 21 20" width="21" xmlns="http://www.w3.org/2000/svg" xmlns:xlink="http://www.w3.org/1999/xlink"><clipPath id="a"><path d="m.5 0h20v20h-20z"/></clipPath><g clip-path="url(#a)"><path d="m20.5 10c0 5.5225-4.4775 10-10 10-5.52254 0-10-4.4775-10-10 0-5.52254 4.47746-10 10-10 5.5237 0 10 4.47746 10 10z" fill="#2081e2"/><g fill="#fff"><path d="m5.4336 10.3358.04314-.0678 2.6014-4.06958c.03802-.05958.1274-.05342.15616.0113.4346.97398.8096 2.1853.63392 2.93942-.075.31028-.28048.73048-.51166 1.11886-.02978.0565-.06266.112-.0976.1654-.01644.0247-.04418.039-.07398.039h-2.67536c-.07192 0-.11404-.078-.07602-.1366z"/><path d="m17.0288 11.0922v.6442c0 .037-.0226.0698-.0554.0842-.2014.0863-.8908.4028-1.1774.8014-.7316 1.0182-1.2905 2.474-2.5398 2.474h-5.21205c-1.84726 0-3.3442-1.5021-3.3442-3.3555v-.0596c0-.0493.04006-.0894.08938-.0894h2.90552c.05752 0 .09964.0534.09452.1099-.02056.1891.01438.3822.10376.5579.1726.3504.53014.5692.91644.5692h1.43843v-1.1229h-1.42199c-.07294 0-.11608-.0843-.07396-.1439.0154-.0236.03288-.0483.05136-.076.1346-.1911.32672-.488.51782-.826.13048-.2281.25684-.4716.35856-.71614.02056-.04418.03698-.0894.05342-.13358.02774-.07808.05652-.15102.07706-.22396.02056-.06166.03698-.12638.05342-.187.0483-.20754.06884-.4274.06884-.65548 0-.08938-.0041-.18288-.01232-.27226-.00412-.0976-.01644-.19522-.02878-.29282-.00822-.0863-.02362-.17158-.04006-.26096-.02054-.13048-.04932-.25992-.0822-.39042l-.0113-.0493c-.02466-.0894-.0452-.17466-.07396-.26404-.08118-.2805-.17466-.55378-.2733-.8096-.03596-.10172-.07706-.19932-.11816-.29692-.0606-.14692-.12226-.28048-.17876-.40686-.02876-.05754-.05342-.10994-.07808-.16336-.02774-.06062-.0565-.12124-.08528-.17876-.02054-.04418-.04418-.08528-.06062-.12638l-.17568-.32466c-.02466-.04418.01644-.09658.06472-.08322l1.09934.29794h.00308c.00204 0 .00308.00104.0041.00104l.14483.04006.1593.04522.0586.01642v-.65342c0-.31542.2527-.57124.565-.57124.1562 0 .298.0637.3997.16746.1017.10378.1654.24556.1654.40378v.96988l.1171.03286c.0093.0031.0185.0072.0267.01336.0288.02158.0699.05342.1223.09248.0411.03286.0853.07294.1387.11404.1058.08526.2322.1952.3709.32158.037.03184.0729.06472.1058.0976.1788.16644.3791.36164.5702.5774.0535.06062.1059.12226.1593.18698.0534.06576.1099.13048.1592.19522.0648.0863.1346.17568.1952.26918.0288.04418.0617.08938.0894.13356.0781.11814.1469.24042.2127.36268.0277.0565.0565.11814.0812.17876.0729.16336.1304.3298.1674.49624.0113.03596.0195.075.0237.10994v.00822c.0123.0493.0164.1017.0205.15512.0164.17056.0082.3411-.0288.51268-.0154.07296-.0359.14178-.0606.21474-.0246.06986-.0493.1428-.0811.21164-.0617.1428-.1346.2856-.2209.4192-.0278.0493-.0607.1017-.0935.151-.036.0524-.073.1017-.1059.15-.0452.0617-.0934.1264-.1428.1839-.0441.0606-.0893.1213-.1387.1747-.0688.0811-.1346.1582-.2034.2322-.0411.0483-.0853.0976-.1305.1418-.0441.0493-.0894.0934-.1305.1345-.0688.0689-.1263.1223-.1746.1665l-.113.1038c-.0165.0143-.038.0226-.0606.0226h-.8754v1.1229h1.1014c.2466 0 .4808-.0873.6699-.2476.0647-.0565.3472-.301.6811-.6699.0113-.0123.0257-.0215.0422-.0256l3.0421-.8795c.0565-.0164.114.0267.114.0863z"/></g></g></svg>