<svg fill="none" height="20" viewBox="0 0 20 20" width="20" xmlns="http://www.w3.org/2000/svg" xmlns:xlink="http://www.w3.org/1999/xlink"><mask id="a" height="20" maskUnits="userSpaceOnUse" width="21" x="0" y="0"><path clip-rule="evenodd" d="m1.47705 0h17.04225c.8166 0 1.4807.644531 1.4844 1.44135v17.11735c0 .7928-.6641 1.4413-1.4808 1.4413h-17.04585c-.81665 0-1.47705-.6485-1.47705-1.4453v-17.11335c0-.796819.6604-1.44135 1.47705-1.44135zm1.48804 17.0428h2.96875v-9.54677h-2.96875zm-.23804-12.56633c0-2.36709 3.44116-2.36709 3.44116 0 0 2.35947-3.44116 2.28134-3.44116 0zm11.35135 12.56653h2.9638v-5.2383c0-2.57023-.5542-4.54686-3.5583-4.54686-1.4417 0-2.4097.793-2.804 1.54297h-.039v-1.30462h-2.84427v9.54681h2.96147v-4.7188c0-1.246.2343-2.45314 1.7773-2.45314 1.5234 0 1.543 1.42574 1.543 2.53124z" fill="#6b6c7e" fill-rule="evenodd"/></mask><g mask="url(#a)"><path d="m0 0h20v20h-20z" fill="#34aadf"/></g></svg>