<svg fill="none" height="20" viewBox="0 0 20 20" width="20" xmlns="http://www.w3.org/2000/svg"><path d="m11.5 20c4.8113-.7279 8.5-4.9027 8.5-9.9438 0-5.5539-4.4772-10.05620011-10-10.05620007-5.52285.00000004-9.99999997 4.50230007-9.99999993 10.05620007.00000003 5.0411 3.68873993 9.2159 8.49999993 9.9438v-6.927h-1.5c-.82843 0-1.5-.6754-1.5-1.5084 0-.8331.67157-1.5084 1.5-1.5084h1.5v-2.01127c0-1.94386 1.567-3.51966 3.5-3.51966h.5c.8284 0 1.5.67535 1.5 1.50843s-.6716 1.50842-1.5 1.50842h-.5c-.2761 0-.5.22512-.5.50281v2.01127h1.5c.8284 0 1.5.6753 1.5 1.5084 0 .833-.6716 1.5084-1.5 1.5084h-1.5z" fill="#4362d2"/></svg>