<svg fill="none" height="29" viewBox="0 0 29 29" width="29" xmlns="http://www.w3.org/2000/svg" xmlns:xlink="http://www.w3.org/1999/xlink"><clipPath id="a"><path d="m.792725.825684h28.042v28.042h-28.042z"/></clipPath><g clip-path="url(#a)"><path clip-rule="evenodd" d="m14.7708.825684c-7.71794 0-13.978075 6.260136-13.978075 13.978116 0 6.1744 4.030495 11.4055 9.518875 13.2921.686.0857.9433-.3431.9433-.6861s0-1.2005 0-2.4011c-3.85902.8575-4.71657-1.8866-4.71657-1.8866-.60029-1.6294-1.5436-2.0582-1.5436-2.0582-1.28633-.8575.08576-.8575.08576-.8575 1.37208.0857 2.14388 1.4578 2.14388 1.4578 1.28633 2.1439 3.25873 1.5436 4.03053 1.2006.0857-.9433.5145-1.5436.8575-1.8866-3.08717-.343-6.34587-1.5436-6.34587-6.9462 0-1.5436.51453-2.7442 1.45784-3.7732-.08575-.2573-.60029-1.71514.17151-3.60176 0 0 1.20058-.34302 3.85902 1.45784 1.1148-.34302 2.3154-.42877 3.5159-.42877 1.2006 0 2.4012.17151 3.516.42877 2.6584-1.80086 3.859-1.45784 3.859-1.45784.7718 1.88662.2573 3.34446.1715 3.68746.8576.9433 1.4578 2.2297 1.4578 3.7733 0 5.4025-3.2587 6.5174-6.3458 6.8604.5145.4288.9433 1.2863.9433 2.5726v3.859c0 .343.2572.7718.9433.6861 5.5741-1.8866 9.5188-7.1177 9.5188-13.2921-.0857-7.71798-6.3459-13.978116-14.0639-13.978116z" fill="#b7b7f3" fill-rule="evenodd"/></g></svg>