<svg fill="none" height="20" viewBox="0 0 21 20" width="21" xmlns="http://www.w3.org/2000/svg"><path d="m18.7988 8.695c-.0811-.21722-.2889-.36167-.5211-.36167h-6.7083l3.8694-7.52333c.1217-.236667.0589-.526111-.1506-.690556-.1011-.0799996-.2227-.119444-.3439-.119444-.1294 0-.2588.0455556-.3627.135l-4.0817 3.525-8.14047 7.0306c-.17555.1516-.23888.3966-.15777.6138.08111.2173.28833.3623.52055.3623h6.70828l-3.86941 7.5233c-.12167.2367-.05889.5261.15055.6906.10111.08.22278.1194.34389.1194.12944 0 .25889-.0456.36277-.135l4.08161-3.525 8.1405-7.03055c.1761-.15167.2389-.39667.1584-.61445z" fill="#ffac33"/></svg>