<svg fill="none" height="20" viewBox="0 0 21 20" width="21" xmlns="http://www.w3.org/2000/svg"><path clip-rule="evenodd" d="m10.5-.00000007c-3.31488.00000002-6.00213 2.68629007-6.00213 6.00000007v1.875l-.90032-.675c-.44199-.33137-1.06901-.24183-1.4005.2s-.24192 1.0686.20007 1.4l1.86718 1.3999c-.44473 1.1677-1.52828 2.3906-3.282175 3.4426-.482832.2896-.630004.9439-.317673 1.4122 1.118288 1.6768 2.892928 2.9453 4.833768 2.9453 1.785 0 3.00862 2 5.00178 2 2.0121 0 3.2103-2 5.0017-2 1.9408 0 3.7157-1.2684 4.8339-2.9453.3123-.4684.1651-1.1226-.3177-1.4122-1.7539-1.052-2.8375-2.2749-3.2822-3.4426l1.8672-1.3999c.442-.3314.5315-.95817.2001-1.4-.3315-.44183-.9585-.53137-1.4005-.2l-.9004.67504.0001-1.87501c0-3.31371-2.6873-6.00003009-6.0022-6.00003007z" fill="#ffc700" fill-rule="evenodd"/></svg>