<svg fill="none" height="20" viewBox="0 0 20 20" width="20" xmlns="http://www.w3.org/2000/svg"><path d="m10 2.19624c-5.52288 0-10.00000218 4.47713-10.00000121 9.99996.00000033 1.9068.53387621 3.6887 1.45987121 5.2049l2.6125-2.7739 13.22283.0827-.0957 4.4258c1.7339-1.7983 2.8005-4.2442 2.8005-6.9395 0-5.52284-4.4771-9.99996-10-9.99996z" fill="#33a0ff"/><path d="m5.47952 5.04617c-.48737-.02987-.86087-.451-.8325-.93887l.06613-1.06838c.029-.46737.41875-.83362.88712-.83362.0175 0 .03513.0005.05275.00162l1.06775.06613c.23625.01437.45338.12025.61063.29825.1575.178.236.407.22087.6445l-.0655 1.06425c-.00387.0615-.01625.11025-.02387.13687l-.038.18588-.70263.52025z" fill="#3dcc8e"/><path d="m5.60031 1.66902c-.75125 0-1.37612.58725-1.42262 1.337l-.06612 1.0665-.00013.002-.00012.00188c-.0455.78237.55375 1.45775 1.33575 1.50562l1.04687.06475.39038.02413.31437-.23275.38025-.28138.33038-.24462.07587-.37088c.015-.05687.03125-.1335.03713-.22725l.0655-1.06525c.024-.38062-.10213-.7475-.35488-1.03325-.25162-.28475-.6-.45475-.98038-.47787l-1.06475-.066h-.0015l-.00162-.00013c-.028-.00162-.05638-.0025-.08438-.0025zm.79726 2.32763.03925-.63438-.6345-.03925-.03938.6345zm-.79725-1.2545c.007 0 .01412.00025.02125.00062l1.066.06613c.09337.00562.1795.0475.24162.11787.0625.07063.09363.16125.08763.25513l-.06563 1.0655c-.001.0165-.00762.031-.01075.04675l-.38025.2815-1.0475-.06475c-.19325-.01188-.34125-.17875-.33-.37213l.06613-1.06637c.0115-.18613.16587-.33025.3515-.33025" fill="#282828"/><path d="m10.0001 7.37962c-4.17529 0-7.56004 3.38478-7.56004 7.55998 0 1.5526.46825 2.9956 1.27088 4.1961h12.88186c.678-1.2383.9673-2.7046.9673-4.1961 0-3.8642-3.3848-7.55999-7.56-7.55998z" fill="#fff"/><g fill="#282827"><path d="m9.99994 6.84299c-4.4645 0-8.09662 3.63211-8.09662 8.09661 0 1.535.4295 2.9718 1.1745 4.1961h1.29338c-.87563-1.1715-1.39463-2.6243-1.39463-4.1961 0-3.8727 3.15062-7.02349 7.02337-7.02349 1.83946 0 3.60136.77013 4.96096 2.16849 1.3108 1.3479 2.0625 3.1175 2.0625 4.855 0 1.1896-.1965 2.8063-1.0506 4.1961h1.2249c.5911-1.1898.8989-2.6125.8989-4.1961 0-2.0145-.8624-4.0567-2.3662-5.60324-1.5635-1.60787-3.5986-2.49337-5.73046-2.49337z"/><path d="m8.47359 17.1341c0 .4009-.32487.7258-.72575.7258-.40087 0-.72575-.3249-.72575-.7258s.32488-.7257.72575-.7257c.40088 0 .72575.3248.72575.7257z"/><path d="m12.9779 17.1341c0 .4009-.3249.7258-.7258.7258s-.7257-.3249-.7257-.7258.3248-.7257.7257-.7257.7258.3248.7258.7257z"/></g><path d="m1.75146 16.8462 4.0285-4.2725-.96962 3.0399c3.14512-2.2888 6.44686-1.9269 8.77176-1.2442 2.4676.7245 4.1952-1.4548 2.504-3.7797-.8036-1.10489-1.906-2.02226-3.1581-2.57864-3.28416-1.45887-6.58604-.60824-8.81341 1.64176-2.3595 2.38348-2.36313 5.02708-2.36313 7.19338z" fill="#ff6f21"/><path d="m9.62146 7.82601c-.46762 0-.932.04663-1.38837.1405-1.39188.28625-2.68413.99988-3.73713 2.06359-1.74912 1.7669-2.11262 3.6633-2.18812 5.4437l4.70038-4.9852-1.24438 3.901c2.3385-1.2226 5.01236-1.4035 7.96936-.5352.941.2762 1.7939.0669 2.226-.5464.4439-.6301.3291-1.5284-.307-2.4029-.7601-1.04496-1.805-1.89859-2.9421-2.40384-1.0085-.448-2.0563-.67525-3.08864-.67525zm-8.40649 10.37129v-1.3513c0-2.2396-.00001-5.0269 2.51824-7.57086 1.2025-1.21462 2.68375-2.03063 4.28363-2.35975 1.68425-.3465 3.45776-.13725 5.12896.60512 1.3067.5805 2.505 1.55838 3.3743 2.75329.9054 1.2447 1.0266 2.6442.3164 3.6522-.6944.9856-2.0309 1.3615-3.4057.958-3.1705-.931-5.96471-.5396-8.30471 1.1633l-1.325.9641.75063-2.3531z" fill="#282827"/><path d="m11.9299 6.97689c-.4776 1.2445-1.8626 1.93937-3.14585 1.57812-1.44575-.40712-2.20913-1.569-2.02588-3.04275.18238-1.46562 1.17275-2.75062 2.31438-4.33462-.93775 1.99612-.14113 2.18312.11087 2.17312.249-.00987.6125.03263 1.12988.20425 1.4096.46788 2.1547 2.01963 1.6166 3.42188z" fill="#ff6f21"/><path d="m8.22871 3.31664c-.49525.7765-.843 1.49825-.938 2.26175-.15037 1.20912.46225 2.12875 1.63888 2.46 1.0215.28762 2.11921-.26313 2.49951-1.25375.2061-.53725.1846-1.11838-.0605-1.63638-.2454-.5185-.6801-.9035-1.2243-1.084-.47746-.1585-.77471-.18362-.93946-.17737-.36988.0145-.71125-.15775-.9125-.46125-.02325-.035-.0445-.07125-.06363-.109zm1.24713 5.87037c-.27825 0-.55938-.03737-.83713-.11562-.83325-.23463-1.49912-.69838-1.9255-1.34113-.42512-.64075-.59362-1.43062-.4875-2.28437.1875-1.50713 1.11638-2.79113 2.19188-4.27788.0725-.10025.14575-.2015.21975-.304125l.92087.541875c-.4545.96763-.40237 1.32588-.3785 1.40763.36563-.01113.80388.06675 1.30259.23225.8252.27387 1.4844.85749 1.8563 1.64362.3717.7855.4045 1.66625.0924 2.47988-.4735 1.23362-1.6808 2.01787-2.95516 2.01787z" fill="#282827"/><path d="m10.5739 11.7295c-.1878 0-.3638-.0835-.4826-.229l-.36099-.4421c-.20925-.2563-.17925-.6312.06263-.8514-.07813-.0383-.148-.0934-.20475-.1629l-.08238-.10086c-.21675-.26537-.17712-.6575.08813-.87412l.05187-.04238-.52875-.649c-.23512-.288-.192-.71412.09625-.94962.12088-.0985.27238-.15238.42713-.15238.20325 0 .39386.09025.52276.24775l2.2554 2.77591c.2347.2876.1916.7137-.0967.9492-.0795.065-.1747.1118-.275.1349-.0497.0115-.101.0172-.1521.0172-.1757 0-.3419-.0673-.467-.1872l-.4601.3756c-.1109.0905-.2508.1404-.3938.1404z" fill="#3dcc8e"/><path d="m10.5028 7.24533c-.2126-.25975-.52697-.40862-.86235-.40862-.2555 0-.5055.089-.70387.2505-.47675.3895-.54775 1.09262-.15938 1.56837l.29375.36063c-.21575.371-.19237.853.09475 1.20459l.05525.0678c-.12987.3426-.07875.7437.16925 1.0474l.361.4422c.20238.248.5023.3903.8226.3903.244 0 .4825-.0849.6715-.2393l.2163-.1765c.1352.0569.2821.0871.4332.0871.0843 0 .1687-.0096.2508-.0286.1655-.0381.3225-.1151.4541-.2226.4756-.3886.5466-1.0918.1584-1.5675l-2.2531-2.77314zm-.86235.46938c.06838 0 .13625.02975.183.087l2.25435 2.77449c.0825.1011.0674.2499-.0336.3324-.0291.0237-.062.0392-.0961.0471-.0175.0041-.0354.0061-.0533.0061-.0685 0-.1363-.0296-.1831-.0868l-.2245-.2767-.7971.6507c-.0341.028-.0753.0415-.1163.0415-.0532 0-.1061-.0232-.1425-.0677l-.361-.4421c-.0635-.0777-.0518-.1922.0259-.2557l.801-.65392-.3272-.4035-.3963.32375c-.0325.02638-.0715.03925-.1102.03925-.0505 0-.10067-.02187-.13517-.064l-.0825-.10112c-.06363-.07788-.05213-.19263.02575-.25625l.39162-.31975-.80587-.98913c-.0825-.101-.06738-.24975.03362-.33225.04413-.03587.097-.05337.1495-.05337" fill="#282828"/></svg>