<svg fill="none" height="20" viewBox="0 0 20 20" width="20" xmlns="http://www.w3.org/2000/svg"><g clip-rule="evenodd" fill-rule="evenodd"><path d="m10.9089-.00000006c1.0042-.00000001 1.8182.81402706 1.8182 1.81818006 0 1.31576.9363 2.41982 2.1803 2.67265.984.20001 1.6196 1.15985 1.4196 2.14389-.2.98401-1.1598 1.61964-2.1439 1.41964-.51-.10372-.9981-.26836-1.456-.486v5.15894c0 3.0124-2.4421 5.4545-5.45456 5.4545s-5.45455-2.4421-5.45455-5.4545c0-2.5441 1.74007-4.67721 4.09226-5.28266.97246-.25026 1.96374.33518 2.21402 1.30763.25027.97246-.33519 1.96373-1.30762 2.21403-.78459.2019-1.36229.9162-1.36229 1.761 0 1.0042.81402 1.8182 1.81818 1.8182 1.00418 0 1.81818-.814 1.81818-1.8182v-10.90912c0-1.004153.814-1.81818005 1.81818-1.81818006z" fill="#00f7ef"/><path d="m12.7271 1.81836c1.0042 0 1.8182.81403 1.8182 1.81818 0 1.31576.9364 2.41982 2.1804 2.67265.984.20001 1.6195 1.15985 1.4195 2.14389-.2.98401-1.1598 1.61962-2.1439 1.41964-.51-.10372-.9981-.26836-1.456-.486v5.15888c0 3.0125-2.4421 5.4546-5.45452 5.4546-3.01247 0-5.45455-2.4421-5.45455-5.4546 0-2.5441 1.74006-4.67715 4.09226-5.2826.97246-.25026 1.96374.33518 2.21401 1.3076.2503.9725-.33518 1.9638-1.30762 2.214-.78459.2019-1.36229.9163-1.36229 1.761 0 1.0042.81403 1.8182 1.81819 1.8182 1.00422 0 1.81822-.814 1.81822-1.8182v-10.90906c0-1.00415.814-1.81818 1.8181-1.81818z" fill="#ff004f"/><path d="m11.818.90918c1.0041 0 1.8181.81403 1.8181 1.81818 0 1.31576.9364 2.41982 2.1804 2.67265.984.20001 1.6196 1.15985 1.4196 2.14389-.2.98401-1.1599 1.61964-2.144 1.41964-.51-.10372-.998-.26836-1.456-.486v5.15896c0 3.0124-2.442 5.4545-5.4545 5.4545-3.01247 0-5.45455-2.4421-5.45455-5.4545 0-2.5441 1.74006-4.67723 4.09226-5.28268.97246-.25026 1.96374.33518 2.21401 1.30763.25028.97245-.33518 1.96375-1.30761 2.21405-.7846.2019-1.3623.9162-1.3623 1.761 0 1.0041.81403 1.8181 1.81819 1.8181 1.00418 0 1.81818-.814 1.81818-1.8181v-10.90914c0-1.00415.81402-1.81818 1.81822-1.81818z" fill="#000"/></g></svg>