<svg fill="none" height="20" viewBox="0 0 20 20" width="20" xmlns="http://www.w3.org/2000/svg"><path clip-rule="evenodd" d="m10-.00000007c5.5228-.00000004 10 4.47715007 10 10.00000007 0 5.5228-4.4772 10-10 10-5.52285 0-9.99999989-4.4772-9.99999993-10-.00000004-5.52285 4.47714993-10.00000003 9.99999993-10.00000007zm.5 11.00010007h-6.20001c-.55229 0-1 .4477-1 1 0 .5522.44771 1 1 1h.51385l-.28635.5113c-.26985.4819-.09797 1.0913.3839 1.3611.48187.2699 1.09126.098 1.36111-.3839l.83358-1.4885h3.39392c.5523 0 1-.4478 1-1 0-.5523-.4477-1-1-1zm1.8925-2.9886c-.2699-.48192-.8792-.6538-1.3611-.38395-.4475.25058-.6277.79393-.435 1.2561l.0511.10505 3.08 5.5c.2698.4818.8792.6537 1.3611.3839.4475-.2506.6276-.794.435-1.2561l-.0511-.105-.2864-.5114h.5139c.5523 0 1-.4478 1-1 0-.5128-.386-.9355-.8834-.9933l-.1166-.0067h-1.6339zm-2.52-4.49999c-.2698-.48188-.8792-.65375-1.3611-.38391-.44748.25058-.62762.79392-.43501 1.25607l.05111.10504.7264 1.29707-1.80642 3.22572c-.26985.4818-.09797 1.0912.3839 1.3611.44745.2505 1.00482.1202 1.29826-.2854l.06286-.0985 3.08-5.50004c.2698-.48187.098-1.09126-.3839-1.36111-.4475-.25058-1.0049-.12027-1.2983.28543l-.0628.09847-.1275.22768z" fill="#4889e7" fill-rule="evenodd"/></svg>