<svg fill="none" height="20" viewBox="0 0 26 20" width="26" xmlns="http://www.w3.org/2000/svg"><path d="m21.944 1.64147c-1.645-.754795-3.409-1.310892-5.2533-1.6293917-.0336-.006147-.0672.0092146-.0845.0399384-.2269.4034993-.4781.9298983-.6541 1.3436433-1.9838-.29699-3.9573-.29699-5.9004 0-.17601-.422942-.43643-.940144-.66432-1.3436433-.0173-.0296987-.05085-.0450603-.08444-.0399384-1.84336.3174817-3.60736.8735787-5.25337 1.6293917-.01425.00614-.02646.01639-.03457.0297-3.345941 4.99876-4.262535 9.87463-3.812884 14.69013.002034.0235.015259.0461.033571.0604 2.207553 1.6212 4.345953 2.6054 6.444643 3.2577.03359.0103.06917-.002.09055-.0297.49644-.6779.93898-1.3928 1.31841-2.1445.02239-.044.00102-.0962-.04475-.1137-.70193-.2662-1.37032-.5909-2.01326-.9596-.05085-.0296-.05492-.1024-.00814-.1372.1353-.1014.27063-.2069.39982-.3134.02338-.0194.05595-.0235.08343-.0113 4.22381 1.9285 8.79661 1.9285 12.97061 0 .0275-.0133.0601-.0092.0845.0103.1292.1065.2645.213.4008.3144.0468.0348.0437.1076-.0071.1372-.6429.3759-1.3113.6934-2.0143.9586-.0458.0174-.0661.0707-.0437.1147.3876.7507.8301 1.4655 1.3174 2.1435.0203.0287.0569.041.0905.0307 2.1089-.6523 4.2473-1.6365 6.4548-3.2577.0194-.0143.0316-.0358.0336-.0594.5382-5.5672-.9013-10.4031-3.8159-14.69012-.0071-.01432-.0193-.02457-.0336-.03071zm-13.22395 11.78773c-1.27166 0-2.31948-1.1675-2.31948-2.6013 0-1.43379 1.0275-2.60127 2.31948-2.60127 1.30215 0 2.33985 1.17773 2.31945 2.60127 0 1.4338-1.0275 2.6013-2.31945 2.6013zm8.57585 0c-1.2716 0-2.3194-1.1675-2.3194-2.6013 0-1.43379 1.0275-2.60127 2.3194-2.60127 1.3022 0 2.3398 1.17773 2.3195 2.60127 0 1.4338-1.0173 2.6013-2.3195 2.6013z" fill="#b7b7f3"/></svg>