<svg fill="none" height="20" viewBox="0 0 20 20" width="20" xmlns="http://www.w3.org/2000/svg" xmlns:xlink="http://www.w3.org/1999/xlink"><clipPath id="a"><path d="m0 0h20v20h-20z"/></clipPath><g clip-path="url(#a)" fill="#3c628d"><path d="m9.98867 0c-5.27746 0-9.580969 4.0452-9.98867 9.19774l5.36806 2.21466c.453-.3164.99661-.4971 1.58551-.4971h.15855l2.4009-3.43507c0-.0226 0-.0226 0-.0452 0-2.0791 1.69878-3.77401 3.78258-3.77401s3.7825 1.69491 3.7825 3.77401c0 2.07909-1.6987 3.77397-3.7825 3.77397-.0227 0-.068 0-.0906 0l-3.39753 2.4181v.1356c0 1.5593-1.2684 2.8249-2.83125 2.8249-1.38166 0-2.51416-.9718-2.78596-2.2825l-3.850509-1.5819c1.177799 4.2034 5.050959 7.2768 9.648919 7.2768 5.52663 0 10.01133-4.4746 10.01133-9.9887 0-5.53672-4.4847-10.0113-10.01133-10.0113z"/><path d="m6.27401 15.164-1.22311-.4972c.2265.452.5889.8362 1.08721 1.0396 1.0872.452 2.33295-.0678 2.78595-1.1525.2265-.5198.2265-1.1074 0-1.6272-.2265-.5197-.6342-.9265-1.15515-1.1525s-1.0872-.2034-1.56285-.0226l1.2684.5198c.79275.339 1.1778 1.2429.83805 2.0339-.3171.8135-1.24575 1.1977-2.0385.8587z"/><path d="m15.8097 7.41228c0-1.37853-1.1325-2.50847-2.5142-2.50847-1.3816 0-2.5141 1.12994-2.5141 2.50847s1.1325 2.50848 2.5141 2.50848c1.3817 0 2.5142-1.10735 2.5142-2.50848zm-4.4168 0c0-1.03955.8381-1.8757 1.9026-1.8757 1.0646 0 1.9026.83615 1.9026 1.8757s-.838 1.87571-1.9026 1.87571c-1.0645 0-1.9026-.83616-1.9026-1.87571z"/></g></svg>