<svg fill="none" height="20" viewBox="0 0 20 20" width="20" xmlns="http://www.w3.org/2000/svg"><path d="m10 20c5.5228 0 10-4.4772 10-10 0-5.52285-4.4772-10.00000011-10-10.00000007-5.52285.00000004-9.99999997 4.47715007-9.99999993 10.00000007.00000003 4.0063 2.35591993 7.4623 5.75791993 9.0583l2.29028-10.7664c.1149-.5402.646-.88497 1.1862-.77005.5402.11491.8849.64595.77 1.18615-.2748 1.292-.5143 1.792-.5035 2.3919.0169.9401.2729 1.4417.5211 1.7021.2526.2649.6185.4081 1.0952.3993.4869-.0089 1.038-.1806 1.5263-.4879.9474-.5961 1.3565-1.6184 1.3565-2.7134 0-2.20914-1.7909-4-4-4-2.20914 0-4 1.79086-4 4 0 .5707.11893 1.111.3324 1.5996.22112.5061-.0099 1.0956-.51598 1.3168-.50609.2211-1.09561-.0099-1.31673-.516-.32172-.7364-.49969-1.5489-.49969-2.4004 0-3.31371 2.68629-6 6-6 3.3137 0 6 2.68629 6 6 0 .851-.1778 1.6631-.4991 2.3991-.3679.8476-1.0401 1.5338-1.7923 2.0071-.7541.4745-1.6562.7783-2.5548.7948-.8185.015-1.672-.212-2.3587-.8082l-1.13424 5.3321c.75034.1799 1.53364.2751 2.33914.2751z" fill="#da3e3e"/></svg>