<svg fill="none" height="22" viewBox="0 0 21 22" width="21" xmlns="http://www.w3.org/2000/svg"><path d="m6.02372 1.32059c.61862.21038 1.38385.54568 2.12505 1.04553.89825-.23157 1.85743-.35611 2.85143-.35611.9929 0 1.9512.12429 2.8487.35541.741-.4996 1.5061-.83473 2.1245-1.045.6969-.23694 1.6902-.62168 2.2799.03163.4004.44354.4997 1.18794.5711 1.75547.0798.63419.0984 1.46085-.1115 2.28046.8029 1.0368 1.2873 2.27447 1.2873 3.62203 0 2.04219-1.1061 3.81479-2.7432 5.04259-.7535.5651-1.6295 1.0247-2.5902 1.3562.2144.4903.3334 1.0319.3334 1.6012v3c0 .5523-.4478 1-1 1h-6.00003c-.55228 0-1-.4477-1-1v-.9913c-.95532.117-1.75592.0135-2.43745-.2756-.71179-.302-1.20791-.7704-1.58079-1.2179-.3537-.4244-.73931-1.3803-1.29801-1.5665-.52394-.1747-.807098-.741-.63246-1.2649.17465-.524.74097-.8071 1.26491-.6325.66578.2219 1.09929.7021 1.39694 1.0873.47906.6199.87045 1.4309 1.63051 1.7533.31256.1326.77176.2206 1.4886.1218l.1678-.0335c.00273-.5621.12139-1.0968.33331-1.5814-.96068-.3315-1.83675-.7911-2.59021-1.3562-1.63714-1.2278-2.74315-3.0004-2.74315-5.04259 0-1.34598.48324-2.58235 1.28443-3.61841-.21069-.82025-.19231-1.6478-.11256-2.28262.0016-.01275.0032-.02555.00481-.0384.07288-.58148.15876-1.26674.56634-1.71842.58959-.65335 1.58369-.26854 2.28053-.03157z" fill="#09244b"/></svg>