<svg fill="none" height="20" viewBox="0 0 20 20" width="20" xmlns="http://www.w3.org/2000/svg"><path clip-rule="evenodd" d="m6.04382-.00000003c-1.47804.00000001-2.73586 1.07654003-2.96403 2.53687003l-2.05537 13.15433c-.189531 1.213.74835 2.3088 1.97602 2.3088h1.68948c-.00218 1.084.87801 2 2.00044 2h1.97577c.9853 0 1.82387-.7177 1.97597-1.6912l.517-3.3088h1.4527c2.8118 0 5.2464-1.9527 5.8569-4.6975l.0483-.217c.5146-2.31435-.6572-4.54073-2.6006-5.5384-.5055-2.53637-2.7395-4.54710008-5.5436-4.54710006zm1.58404 12.00000003h1.84327c3.01607 0 5.64577-2.0512 6.38007-4.97659.0031-.01227.0061-.02454.0091-.0368.6236.68977.927 1.66349.7043 2.66469l-.0482.2171c-.407 1.8298-2.0301 3.1316-3.9046 3.1316h-1.4527c-.9854 0-1.82387.7177-1.97597 1.6912l-.517 3.3088h-1.97577z" fill="#2353d0" fill-rule="evenodd"/></svg>