<svg fill="none" height="20" viewBox="0 0 20 20" width="20" xmlns="http://www.w3.org/2000/svg"><path d="m10.0032-.00000006c-3.33596.00000003-6.09081 2.60604006-6.27585 5.93683006l-.14611 2.62997c-.20897.445-.41546.9176-.61465 1.4106-1.24133 3.0724-1.72874 5.7728-1.08866 6.0314.33521.1354.91316-.4257 1.56595-1.4321.26566 1.3986.97012 2.6478 1.96785 3.5938-1.02633.3504-1.90868.8273-1.90868 1.3294 0 .5089 2.47963.5033 4.23804.4993h.00111c.54857-.0012 1.01077-.0069 1.38067-.0566.2879.0379.5817.0575.88033.0575.2983 0 .5918-.0196.8794-.0574.37.0498.8325.0555 1.3814.0567h.0011c1.7584.004 4.238.0096 4.238-.4993 0-.5021-.8824-.979-1.9087-1.3294.996-.9443 1.6998-2.1908 1.9666-3.5864.6508 1.0017 1.2267 1.5596 1.561 1.4245.6401-.2586.1527-2.959-1.0886-6.0314-.1969-.4873-.4009-.9547-.6074-1.3952l-.147-2.64537c-.185-3.33078-2.9399-5.93683008-6.2758-5.93683006z" fill="#3c5881"/></svg>