<svg fill="none" height="20" viewBox="0 0 21 20" width="21" xmlns="http://www.w3.org/2000/svg"><path clip-rule="evenodd" d="m14.5 8c3.1536 0 6 2.1859 6 5.213 0 1.6957-.9208 3.153-2.2601 4.0801-.0438.2649-.0078.5322-.0078.7986 0 .5017-.4017.9083-.8972.9083-.6798 0-1.3099-.2242-1.8431-.6447-.3232.0466-.6545.0707-.9918.0707-3.1536 0-6-2.1859-6-5.213s2.8464-5.213 6-5.213zm-6.5-7c3.7774 0 7.1488 2.5354 7.4743 6.0623-.3224-.04122-.6481-.0623-.9743-.0623-3.5331 0-7 2.4729-7 6.2089 0 .3542.03117.6971.0906 1.0276-.31411-.0149-.62343-.0469-.92671-.0949-.67064.5494-1.44327.8584-2.30972.8584-.51777 0-.9375-.4339-.9375-.9692l.00462-.1975.017-.3975c.00445-.1987-.00386-.3964-.05484-.589-1.71346-1.1814-2.88345-3.0535-2.88345-5.22372 0-3.81578 3.52517-6.62308 7.5-6.62308zm4.5 10c-.5523 0-1 .4477-1 1s.4477 1 1 1 1-.4477 1-1-.4477-1-1-1zm4 0c-.5523 0-1 .4477-1 1s.4477 1 1 1 1-.4477 1-1-.4477-1-1-1zm-11-7c-.55228 0-1 .44772-1 1s.44772 1 1 1 1-.44772 1-1-.44772-1-1-1zm5 0c-.5523 0-1 .44772-1 1s.4477 1 1 1 1-.44772 1-1-.4477-1-1-1z" fill="#3ddc4c" fill-rule="evenodd"/></svg>