<svg fill="none" height="56" viewBox="0 0 153 56" width="153" xmlns="http://www.w3.org/2000/svg"><path d="m38.6473 11.8359c-.2013.2013-.3911.4063-.5848.6095 0-.281.0171-.5696.0171-.8449s0-.5848-.0133-.8733c-.3303-11.98391-18.3935-11.98391-18.7238 0 0 .2885-.0114.5695-.0114.8733s.0095.5696.0171.8449c-.1899-.2032-.3797-.4082-.5867-.6095-.2069-.2012-.4158-.4101-.6246-.6094-8.70883-8.23987-21.48062 4.5319-13.24076 13.2407.19999.2089.40314.4171.60945.6247 9.94291 9.9504 23.19881 9.9504 23.19881 9.9504s13.2578 0 23.2007-9.9428c.2076-.2076.4108-.4158.6095-.6247 8.2398-8.7088-4.532-21.48058-13.2408-13.2407-.2101.1949-.4189.3955-.6265.6018z" stroke="#7878e5" stroke-miterlimit="10" stroke-width="2.08844"/><path d="m15.2756 25.018c0-2.6846 2.5365-4.8622 5.6654-4.8622s5.6654 2.1776 5.6654 4.8622" stroke="#7878e5" stroke-linejoin="round" stroke-width="1.51887"/><path d="m22.6877 25.0502c1.2069 0 2.1853-.9783 2.1853-2.1852s-.9784-2.1853-2.1853-2.1853-2.1853.9784-2.1853 2.1853.9784 2.1852 2.1853 2.1852z" fill="#7878e5"/><path d="m30.8555 25.018c0-2.6846 2.5365-4.8622 5.6653-4.8622 3.1289 0 5.6654 2.1776 5.6654 4.8622" stroke="#7878e5" stroke-linejoin="round" stroke-width="1.51887"/><path d="m38.2694 25.0502c1.2069 0 2.1853-.9783 2.1853-2.1852s-.9784-2.1853-2.1853-2.1853-2.1853.9784-2.1853 2.1853.9784 2.1852 2.1853 2.1852z" fill="#7878e5"/><path d="m32.2566 27.8945c-.6265 1.1487-1.9821 1.948-3.5579 1.948s-2.9314-.7993-3.558-1.948" stroke="#7878e5" stroke-linejoin="round" stroke-width="1.51887"/><g fill="#7878e5"><path d="m55.8484 51.4537c-3.767 1.7214-7.994 2.1621-12.0351 1.2549-3.8729-.8583-7.3708-2.9302-9.9847-5.9141.2582.1899.5241.3513.7955.5165 2.1913 1.3304 4.7044 2.0367 7.2678 2.0428 2.2704-.0025 4.5057-.5611 6.5103-1.627.1443-.076.2905-.1557.4348-.2374l-1.0329-1.815-.3797.2069c-1.8169.9643-3.8538 1.4382-5.9097 1.3749-2.056-.0632-4.0599-.6614-5.8141-1.7356-1.8141-1.0805-3.3153-2.6151-4.3557-4.4525s-1.5841-3.9143-1.5773-6.0258v-.805h-2.1075v.805c.0072 2.1111-.5362 4.1876-1.5767 6.0245s-2.542 3.3707-4.3563 4.45c-1.7542 1.0742-3.7581 1.6724-5.8141 1.7356-2.0559.0633-4.0928-.4106-5.9097-1.3749l-.37972-.2069-1.03283 1.815c.14429.0817.28858.1614.43477.2374 2.00458 1.0659 4.23988 1.6245 6.51028 1.627 2.5629-.0054 5.0756-.7119 7.2659-2.0428.2734-.1652.5392-.3361.7974-.5164-2.6143 2.9834-6.112 5.0552-9.9847 5.914-4.0411.9074-8.26815.4666-12.03513-1.2549l-1.04802 1.8188c4.22674 1.9785 8.99066 2.4981 13.54455 1.4771 4.6458-1.0295 8.7965-3.625 11.756-7.3513.6986-.8753 1.3127-1.8149 1.834-2.8061v10.67h2.0885v-10.7061c.5261 1.0058 1.1466 1.9594 1.853 2.8479 2.9585 3.726 7.1076 6.3221 11.7522 7.3532 4.5529 1.0173 9.3146.4951 13.5389-1.4847z"/><path d="m70.8831 41.511v-26.0343h3.1127v23.2081h13.5917v2.8262zm19.8902 0v-26.0343h16.0297v2.8262h-12.9057v8.709h10.4597v2.8262h-10.4597v8.8523h13.0917v2.8262zm19.3877 0v-26.0343h6.624l9.074 24.0649h1.045v-24.0649h3.091v26.0343h-6.628l-9.037-24.0987h-1.082v24.0987zm32.923.5197c-1.738.0292-3.462-.3127-5.057-1.0029-1.448-.6325-2.673-1.6857-3.515-3.0229-.854-1.3522-1.282-3.0444-1.284-5.0765v-.781h3.091v.781c0 2.1576.632 3.7627 1.896 4.8152 1.264 1.0526 2.888 1.5798 4.871 1.5817 2.034 0 3.584-.4589 4.65-1.3766.511-.418.92-.9463 1.197-1.5453.278-.599.416-1.253.404-1.913.045-.8316-.214-1.6511-.727-2.3065-.553-.6238-1.248-1.1056-2.026-1.4046-.99-.3983-2.01-.7159-3.051-.9496l-1.933-.4832c-1.383-.3495-2.729-.8351-4.017-1.4497-1.087-.5049-2.028-1.2784-2.734-2.2474-.657-.9365-.986-2.1333-.986-3.5904-.034-1.3473.35-2.672 1.099-3.7926.771-1.0988 1.843-1.9515 3.087-2.4554 1.458-.591 3.021-.8778 4.593-.8428 1.627-.0259 3.241.2839 4.743.9102 1.333.5557 2.48 1.4806 3.306 2.6661.804 1.1799 1.206 2.6614 1.208 4.4444v1.562h-3.09v-1.562c0-1.2642-.266-2.2803-.798-3.0481-.544-.7777-1.31-1.3738-2.197-1.7109-1.013-.3895-2.092-.5803-3.177-.5619-1.71 0-3.087.3746-4.13 1.1237-1.043.7492-1.564 1.8214-1.562 3.2167-.037.7979.199 1.5845.669 2.2307.505.6198 1.158 1.1028 1.899 1.4046.948.4032 1.931.7201 2.936.9468l1.935.486c1.403.2851 2.768.7281 4.071 1.3204 1.135.5031 2.126 1.2825 2.882 2.2672.72.9551 1.079 2.2016 1.079 3.7392.032 1.424-.369 2.8242-1.152 4.0146-.809 1.1813-1.936 2.1095-3.25 2.6773-1.558.6587-3.239.9776-4.93.9355z"/></g></svg>