<svg fill="none" height="30" viewBox="0 0 90 30" width="90" xmlns="http://www.w3.org/2000/svg"><g fill="#b7b7f3"><path d="m23.3564 4.85521c-.0936-1.32372-.6285-2.20621-1.6179-2.64745-1.0028-.44124-1.9923-.44124-2.9817 0-.9895.44124-1.5243 1.32373-1.5912 2.64745.0134 2.1661.0134 4.33219.0268 6.49829 0 .9226 0 1.8452.0133 2.7678-3.5967-3.6369-7.54118-6.83258-11.86-9.60036-.76214-.44124-1.4708-.58832-2.13935-.4145-.12034.01337-.2273.04011-.33427.06685-.88249.26742-1.49755.74878-1.83182 1.45744-.347647.70866-.454615 1.48417-.334276 2.33991.869116 6.45816 2.286436 12.79596 4.225216 19.01346.46799 1.2435 1.25687 1.9388 2.33992 2.0993 1.09642.1604 2.04576-.0936 2.87478-.7889.829-.6819 1.083-1.6714.7487-2.955-1.16322-3.7171-2.12593-7.4744-2.90145-11.2717 3.61015 3.0887 6.99305 6.4181 10.14855 10.0015 1.0162.9627 2.1394 1.1766 3.3294.6418 1.19-.5349 1.8452-1.4708 1.9388-2.8347-.0134-5.6693-.0268-11.3385-.0535-17.02119z"/><path d="m36.6541 4.15992c-.8023-.20056-1.5912-.10697-2.3533.29416-.7622.40113-1.2435 1.0162-1.4441 1.85856-.2006 1.0162-.4011 2.04576-.6017 3.06195-1.0296 5.16121-2.0457 10.32241-3.0619 15.48361-.1605.8423-.0535 1.6312.3075 2.3399.3744.7086.9894 1.19 1.8452 1.4574.8156.2006 1.6045.0936 2.3533-.3075.7621-.3878 1.2435-1.0162 1.4574-1.8586.4011-2.0591.8156-4.1182 1.2168-6.1774.8156-4.1182 1.6312-8.2365 2.4468-12.35473.1605-.85574.0535-1.63125-.3209-2.33991-.3743-.70866-.9894-1.20339-1.8451-1.45744z"/><path d="m73.3509 18.3064c-3.1957-5.0542-5.7361-10.41598-7.6081-16.09864-.615-1.510914-1.6045-2.2463168-2.9416-2.2062039-1.3505.0534838-2.3533.7888859-3.0218 2.2062039l-3.4765 8.93184c-2.0457-2.66086-4.1182-5.29494-6.2175-7.91564-.7755-.81563-1.7382-1.08305-2.8747-.80226-.6819.12034-1.2703.42787-1.765.90922-.4813.49473-.7621 1.16328-.829 2.01902-.2941 6.45816-.1337 12.91636.4947 19.36116.0936.8557.4012 1.5911.936 2.1928.5349.6017 1.2569.8959 2.1527.8959.8157 0 1.5377-.2942 2.1661-.8959.6285-.6017.936-1.3237.936-2.1928-.0134-.1337-.0134-.2541-.0267-.3878-.0134-.2407-.0268-.4947-.0402-.7488-.0133-.2406-.0401-.4679-.0936-.6685-.254-3.0085-.4011-6.0036-.4546-8.9987 1.2836 1.658 2.5673 3.3294 3.8241 5.0142.8959 1.0964 1.9254 1.5777 3.0753 1.444 1.1366-.1471 2.0057-.8691 2.5806-2.1795.8558-2.2195 1.7249-4.4257 2.5806-6.6453 1.511 3.4229 3.2759 6.7256 5.2682 9.8945.7621 1.083 1.6981 1.5644 2.7945 1.4307 1.0964-.1204 1.9522-.6151 2.5806-1.4976.6151-.8691.6017-1.8853-.0401-3.0619z"/><path d="m87.1032 4.15992c-.8023-.20056-1.5912-.10697-2.3533.29416s-1.2435 1.0162-1.4441 1.85856c-.2005 1.0162-.4011 2.04576-.6017 3.06195-1.0295 5.16121-2.0457 10.32241-3.0619 15.48361-.1605.8423-.0535 1.6312.3075 2.3399.3744.7086.9895 1.19 1.8452 1.4574.8156.2006 1.6045.0936 2.3533-.3075.7621-.3878 1.2435-1.0162 1.4574-1.8586.4012-2.0591.8157-4.1182 1.2168-6.1774.8156-4.1182 1.6312-8.2365 2.4469-12.35473.1604-.85574.0535-1.63125-.3209-2.33991s-.9895-1.20339-1.8452-1.45744z"/></g></svg>