<svg fill="none" height="24" viewBox="0 0 71 24" width="71" xmlns="http://www.w3.org/2000/svg"><path d="m18.2354 3.95575c-.0746-1.05469-.5007-1.75781-1.2891-2.10938-.799-.35156-1.5873-.35156-2.3757 0-.7884.35157-1.2145 1.05469-1.2678 2.10938.0107 1.72586.0107 3.45172.0214 5.17758 0 .73509 0 1.47017.0106 2.20527-2.8658-2.89775-6.00854-5.44392-9.4496-7.64918-.60725-.35156-1.17188-.46875-1.70455-.33026-.09588.01066-.18111.03196-.26634.05327-.70313.21307-1.193184.59659-1.45952 1.16122-.276989.56464-.3622169 1.18254-.266336 1.86436.692474 5.14559 1.821736 10.19539 3.366486 15.14919.37287.9908 1.00143 1.5448 1.86436 1.6726.87358.1278 1.62997-.0746 2.29049-.6286.66051-.5433.86292-1.3316.59659-2.3544-.92685-2.9616-1.6939-5.9552-2.3118-8.9808 2.87643 2.4609 5.57172 5.1136 8.08592 7.9688.8097.767 1.7046.9375 2.6528.5113.9481-.4261 1.4701-1.1719 1.5447-2.2585-.0107-4.5171-.0213-9.03413-.0426-13.56185zm10.5951-.55397c-.6393-.15981-1.2678-.08523-1.8751.23437-.6072.3196-.9907.80966-1.1505 1.48083-.1598.80966-.3196 1.62998-.4794 2.43964-.8203 4.11218-1.63 8.22448-2.4397 12.33668-.1278.6712-.0426 1.2997.2451 1.8644.2983.5646.7883.9481 1.4701 1.1612.6499.1598 1.2785.0746 1.875-.245.6073-.309.9908-.8097 1.1613-1.4809.3196-1.6406.6498-3.2812.9694-4.9219.6499-3.2812 1.2998-6.56249 1.9496-9.84375.1279-.68182.0426-1.29972-.2557-1.86435s-.7883-.95881-1.4701-1.16122zm29.2385 11.27132c-2.5461-4.027-4.5703-8.29901-6.0618-12.82673-.49-1.203836-1.2784-1.7897759-2.3437-1.7578156-1.076.0426136-1.875.6285536-2.4077 1.7578156l-2.7699 7.1165c-1.63-2.12003-3.2813-4.21876-4.9538-6.30684-.6179-.64986-1.385-.86292-2.2905-.6392-.5434.09588-1.0121.34091-1.4063.72443-.3835.39418-.6072.92685-.6605 1.60867-.2344 5.14562-.1065 10.29127.3942 15.42617.0745.6818.3196 1.2678.7457 1.7472.4262.4794 1.0014.7138 1.7152.7138.6499 0 1.2252-.2344 1.7259-.7138s.7457-1.0547.7457-1.7472c-.0106-.1065-.0106-.2024-.0213-.3089-.0106-.1918-.0213-.3942-.032-.5966-.0106-.1918-.0319-.3729-.0745-.5327-.2024-2.397-.3196-4.7834-.3622-7.1698 1.0227 1.3211 2.0454 2.6527 3.0468 3.9951.7138.8736 1.5341 1.2571 2.4503 1.1506.9056-.1172 1.5981-.6925 2.0561-1.7366.6819-1.7684 1.3743-3.5263 2.0562-5.29472 1.2038 2.72732 2.6101 5.35872 4.1974 7.88352.6073.863 1.353 1.2465 2.2266 1.1399.8736-.0958 1.5554-.49 2.0561-1.1931.4901-.6925.4794-1.5022-.032-2.4397zm10.9573-11.27132c-.6392-.15981-1.2677-.08523-1.875.23437-.6072.3196-.9908.80966-1.1506 1.48083-.1598.80966-.3196 1.62998-.4794 2.43964-.8203 4.11218-1.6299 8.22448-2.4396 12.33668-.1278.6712-.0426 1.2997.245 1.8644.2983.5646.7884.9481 1.4702 1.1612.6499.1598 1.2784.0746 1.875-.245.6073-.309.9908-.8097 1.1612-1.4809.3196-1.6406.6499-3.2812.9695-4.9219.6499-3.2812 1.2997-6.56249 1.9496-9.84375.1278-.68182.0426-1.29972-.2557-1.86435s-.7884-.95881-1.4702-1.16122z" fill="#fff"/></svg>