<svg fill="none" height="534" viewBox="0 0 1258 534" width="1258" xmlns="http://www.w3.org/2000/svg" xmlns:xlink="http://www.w3.org/1999/xlink"><filter id="a" color-interpolation-filters="sRGB" filterUnits="userSpaceOnUse" height="167.921" width="411.19" x="637.617" y="175.797"><feFlood flood-opacity="0" result="BackgroundImageFix"/><feBlend in="SourceGraphic" in2="BackgroundImageFix" mode="normal" result="shape"/><feColorMatrix in="SourceAlpha" result="hardAlpha" type="matrix" values="0 0 0 0 0 0 0 0 0 0 0 0 0 0 0 0 0 0 127 0"/><feOffset dy="-14"/><feGaussianBlur stdDeviation="16"/><feComposite in2="hardAlpha" k2="-1" k3="1" operator="arithmetic"/><feColorMatrix type="matrix" values="0 0 0 0 1 0 0 0 0 1 0 0 0 0 1 0 0 0 0.45 0"/><feBlend in2="shape" mode="normal" result="effect1_innerShadow_56_258"/></filter><linearGradient id="b" gradientUnits="userSpaceOnUse" x1="841.919" x2="841.919" y1="189.797" y2="343.719"><stop offset="0" stop-color="#a8e9fd"/><stop offset="1" stop-color="#7779ec"/></linearGradient><linearGradient id="c"><stop offset=".11632" stop-color="#2698ea"/><stop offset=".527778" stop-color="#ffb176"/><stop offset=".983091" stop-color="#ed5158"/></linearGradient><linearGradient id="d" gradientUnits="userSpaceOnUse" x1="161.751" x2="1140.5" xlink:href="#c" y1="87.8332" y2="174.957"/><linearGradient id="e"><stop offset="0" stop-color="#5a82f6"/><stop offset="1" stop-color="#fff" stop-opacity="0"/></linearGradient><linearGradient id="f" gradientUnits="userSpaceOnUse" x1="628.529" x2="628.529" xlink:href="#e" y1="145" y2="390"/><linearGradient id="g" gradientUnits="userSpaceOnUse" x1="86.3118" x2="1228.27" xlink:href="#c" y1="-14.6002" y2="60.8034"/><linearGradient id="h" gradientUnits="userSpaceOnUse" x1="629" x2="629" xlink:href="#e" y1="75" y2="459"/><linearGradient id="i" gradientUnits="userSpaceOnUse" x1=".500018" x2="1324.76" xlink:href="#c" y1="-123.134" y2="-50.0383"/><linearGradient id="j" gradientUnits="userSpaceOnUse" x1="629" x2="629" xlink:href="#e" y1="1" y2="533"/><linearGradient id="k" gradientUnits="userSpaceOnUse" x1="261.283" x2="395.598" y1="111.375" y2="355.095"><stop offset="0" stop-color="#4368ea"/><stop offset="1" stop-color="#c490dd"/></linearGradient><clipPath id="l"><rect height="153.921" rx="76.9607" width="411.19" x="637.617" y="189.797"/></clipPath><clipPath id="m"><path d="m662.959 226.121h359.858v787.295h-359.858z"/></clipPath><g filter="url(#a)"><g clip-path="url(#l)"><rect fill="url(#b)" height="153.921" rx="76.9607" width="411.19" x="637.617" y="189.797"/><g clip-path="url(#m)"><path d="m723.257 291.121v-53.391h46.707v10.181h-33.961v12.512h30.464v10.103h-30.464v20.595zm71.538.933c-5.026 0-9.326-.752-12.901-2.254-3.575-1.554-6.321-3.912-8.238-7.072-1.917-3.161-2.876-7.176-2.876-12.046 0-4.819.933-8.808 2.798-11.968 1.865-3.213 4.56-5.596 8.083-7.15 3.575-1.555 7.823-2.332 12.745-2.332 5.026 0 9.248.777 12.668 2.332 3.419 1.502 6.01 3.808 7.771 6.916 1.762 3.057 2.643 6.891 2.643 11.502v3.264h-34.662c.104 2.384.622 4.353 1.555 5.907.932 1.554 2.279 2.694 4.041 3.419 1.813.726 3.989 1.088 6.528 1.088 1.244 0 2.487-.129 3.73-.388 1.244-.311 2.358-.751 3.342-1.321 1.036-.57 1.865-1.27 2.487-2.099.674-.88 1.062-1.891 1.166-3.031h11.657c0 2.332-.544 4.456-1.632 6.373-1.036 1.865-2.539 3.471-4.507 4.818-1.969 1.296-4.352 2.306-7.15 3.031-2.746.674-5.829 1.011-9.248 1.011zm-11.969-25.957h22.46c0-1.451-.259-2.695-.777-3.731s-1.269-1.917-2.254-2.642c-.932-.725-2.046-1.244-3.341-1.554-1.296-.363-2.72-.544-4.275-.544-2.279 0-4.274.336-5.984 1.01-1.71.622-3.057 1.58-4.041 2.875-.933 1.244-1.529 2.772-1.788 4.586zm62.83 25.957c-5.026 0-9.326-.752-12.901-2.254-3.575-1.554-6.321-3.912-8.238-7.072-1.917-3.161-2.875-7.176-2.875-12.046 0-4.819.932-8.808 2.798-11.968 1.865-3.213 4.559-5.596 8.082-7.15 3.575-1.555 7.823-2.332 12.745-2.332 5.026 0 9.249.777 12.668 2.332 3.42 1.502 6.01 3.808 7.772 6.916 1.761 3.057 2.642 6.891 2.642 11.502v3.264h-34.661c.103 2.384.621 4.353 1.554 5.907s2.28 2.694 4.041 3.419c1.814.726 3.99 1.088 6.528 1.088 1.244 0 2.487-.129 3.731-.388 1.243-.311 2.357-.751 3.342-1.321 1.036-.57 1.865-1.27 2.486-2.099.674-.88 1.063-1.891 1.166-3.031h11.658c0 2.332-.544 4.456-1.632 6.373-1.037 1.865-2.539 3.471-4.508 4.818-1.969 1.296-4.352 2.306-7.15 3.031-2.746.674-5.829 1.011-9.248 1.011zm-11.968-25.957h22.46c0-1.451-.259-2.695-.778-3.731-.518-1.036-1.269-1.917-2.253-2.642-.933-.725-2.047-1.244-3.342-1.554-1.295-.363-2.72-.544-4.274-.544-2.28 0-4.275.336-5.985 1.01-1.709.622-3.056 1.58-4.041 2.875-.932 1.244-1.528 2.772-1.787 4.586zm58.089 25.957c-3.886 0-7.28-.752-10.181-2.254-2.901-1.554-5.155-3.912-6.761-7.072-1.555-3.212-2.332-7.254-2.332-12.124s.777-8.885 2.332-12.046c1.606-3.16 3.808-5.492 6.605-6.994 2.85-1.555 6.14-2.332 9.87-2.332 1.917 0 3.757.208 5.518.622 1.762.414 3.368 1.062 4.819 1.943 1.45.881 2.668 1.943 3.652 3.186h.544v-20.128h11.658v56.266h-9.482l-.932-6.062h-.622c-1.71 2.487-3.834 4.275-6.373 5.363-2.538 1.088-5.31 1.632-8.315 1.632zm3.341-9.326c2.384 0 4.353-.467 5.907-1.399 1.606-.933 2.824-2.254 3.652-3.964.829-1.709 1.244-3.782 1.244-6.217v-.855c0-1.865-.233-3.497-.7-4.896-.466-1.451-1.165-2.668-2.098-3.652-.932-1.037-2.072-1.814-3.419-2.332s-2.902-.777-4.663-.777c-2.384 0-4.378.44-5.984 1.321-1.607.881-2.798 2.176-3.575 3.886-.777 1.658-1.166 3.704-1.166 6.139v1.399c0 2.435.389 4.508 1.166 6.218.829 1.657 2.02 2.927 3.575 3.808 1.606.88 3.626 1.321 6.061 1.321zm49.307 9.326c-2.953 0-5.75-.285-8.393-.855-2.59-.518-4.87-1.295-6.839-2.332-1.969-1.036-3.523-2.331-4.663-3.885-1.088-1.607-1.632-3.472-1.632-5.596 0-.207 0-.414 0-.622.052-.207.104-.388.156-.544h11.657c-.052.104-.078.233-.078.389v.311c.052 1.243.544 2.253 1.477 3.031.932.725 2.15 1.269 3.653 1.632 1.502.311 3.108.466 4.818.466 1.554 0 3.083-.104 4.585-.311 1.554-.207 2.824-.596 3.808-1.166.985-.621 1.477-1.528 1.477-2.72 0-1.243-.596-2.15-1.788-2.72-1.191-.621-2.849-1.114-4.973-1.476-2.073-.363-4.456-.752-7.15-1.166-2.176-.415-4.249-.881-6.218-1.399-1.917-.57-3.652-1.295-5.207-2.176-1.502-.933-2.72-2.124-3.652-3.575-.881-1.451-1.321-3.238-1.321-5.362 0-2.228.518-4.145 1.554-5.751s2.487-2.928 4.352-3.964 4.067-1.787 6.606-2.254c2.539-.518 5.336-.777 8.393-.777 2.746 0 5.311.259 7.694.777 2.383.467 4.482 1.192 6.295 2.176 1.813.933 3.238 2.125 4.274 3.575 1.037 1.451 1.555 3.109 1.555 4.974v.777c0 .259-.026.441-.078.544h-11.58v-.466c0-.984-.388-1.787-1.165-2.409-.778-.622-1.788-1.088-3.031-1.399-1.244-.363-2.643-.544-4.197-.544-.777 0-1.684.052-2.72.155-1.036.104-2.047.285-3.031.544-.932.26-1.736.622-2.409 1.088-.622.415-.933 1.011-.933 1.788 0 .984.544 1.736 1.632 2.254s2.487.932 4.197 1.243c1.762.311 3.679.648 5.751 1.01 2.331.415 4.611.855 6.839 1.322 2.228.466 4.223 1.139 5.984 2.02 1.813.881 3.264 2.099 4.352 3.653 1.088 1.502 1.632 3.549 1.632 6.139 0 2.539-.544 4.689-1.632 6.451-1.036 1.71-2.513 3.108-4.43 4.196-1.917 1.037-4.196 1.788-6.839 2.254-2.642.467-5.569.7-8.782.7z" fill="#fff"/></g></g></g><g stroke-linecap="round" stroke-linejoin="round"><rect height="245" rx="122.5" stroke="url(#d)" stroke-dasharray="4 8" stroke-width="2" width="933.556" x="161.751" y="145"/><rect height="245" rx="122.5" stroke="url(#f)" stroke-dasharray="4 8" stroke-width="2" width="933.556" x="161.751" y="145"/><rect height="384" rx="192" stroke="url(#g)" stroke-dasharray="4 10" stroke-width="1.5" width="1085.38" x="86.3118" y="75"/><rect height="384" rx="192" stroke="url(#h)" stroke-dasharray="4 10" stroke-width="1.5" width="1085.38" x="86.3118" y="75"/><rect height="532" rx="266" stroke="url(#i)" stroke-dasharray="6 12" width="1257" x=".5" y="1"/><rect height="532" rx="266" stroke="url(#j)" stroke-dasharray="6 12" width="1257" x=".5" y="1"/></g><path d="m277.286 294.984c-7.599 0-13.967-1.093-19.106-3.28-5.139-2.241-8.993-5.521-11.562-9.84-2.569-4.373-3.854-9.731-3.854-16.072 0-9.293 2.952-16.455 8.856-21.484 5.904-5.084 14.432-7.626 25.584-7.626 6.341 0 11.917.902 16.728 2.706 4.865 1.804 8.637 4.401 11.316 7.79 2.733 3.389 4.1 7.489 4.1 12.3h-12.218c0-2.733-.847-5.002-2.542-6.806-1.695-1.859-4.045-3.253-7.052-4.182s-6.533-1.394-10.578-1.394c-4.373 0-8.173.711-11.398 2.132-3.171 1.367-5.631 3.362-7.38 5.986s-2.624 5.795-2.624 9.512v2.05c0 3.772.875 6.997 2.624 9.676 1.749 2.624 4.237 4.647 7.462 6.068 3.225 1.367 7.025 2.05 11.398 2.05 4.209 0 7.817-.437 10.824-1.312 3.061-.929 5.412-2.296 7.052-4.1 1.695-1.859 2.542-4.127 2.542-6.806h11.972c0 4.701-1.339 8.747-4.018 12.136s-6.423 5.986-11.234 7.79-10.441 2.706-16.892 2.706zm57.26 0c-6.014 0-10.578-1.421-13.694-4.264-3.062-2.843-4.592-7.243-4.592-13.202v-26.732h11.316v24.764c0 1.859.246 3.444.738 4.756.546 1.257 1.284 2.269 2.214 3.034.984.765 2.132 1.312 3.444 1.64 1.366.328 2.87.492 4.51.492 2.405 0 4.646-.492 6.724-1.476 2.132-.984 3.854-2.351 5.166-4.1s1.968-3.799 1.968-6.15v-22.96h11.316v43.214h-9.102l-.82-7.38h-.738c-1.531 2.132-3.335 3.799-5.412 5.002-2.023 1.203-4.155 2.05-6.396 2.542-2.242.547-4.456.82-6.642.82zm36.639-.984v-43.214h9.102l.82 7.626h.656c.601-1.531 1.476-2.952 2.624-4.264s2.569-2.351 4.264-3.116c1.749-.82 3.717-1.23 5.904-1.23.984 0 1.941.082 2.87.246.984.109 1.859.301 2.624.574v9.922h-5.658c-2.187 0-4.045.383-5.576 1.148-1.476.711-2.679 1.695-3.608 2.952s-1.613 2.651-2.05 4.182c-.437 1.476-.656 3.007-.656 4.592v20.582zm46.972.984c-2.569 0-4.975-.219-7.216-.656-2.187-.383-4.127-1.039-5.822-1.968-1.64-.984-2.925-2.296-3.854-3.936s-1.394-3.69-1.394-6.15c0-3.499.957-6.232 2.87-8.2s4.619-3.389 8.118-4.264 7.571-1.421 12.218-1.64c4.701-.219 9.785-.328 15.252-.328v-1.804c0-1.859-.465-3.335-1.394-4.428-.875-1.093-2.269-1.859-4.182-2.296-1.859-.492-4.319-.738-7.38-.738-2.46 0-4.619.164-6.478.492s-3.307.82-4.346 1.476-1.558 1.476-1.558 2.46v.984h-11.316c-.055-.219-.109-.437-.164-.656 0-.219 0-.465 0-.738 0-2.569.929-4.811 2.788-6.724s4.619-3.389 8.282-4.428c3.663-1.093 8.227-1.64 13.694-1.64 5.084 0 9.348.465 12.792 1.394 3.499.929 6.123 2.46 7.872 4.592 1.804 2.132 2.706 5.002 2.706 8.61v18.614c0 1.039.191 1.831.574 2.378.437.547 1.175.82 2.214.82h4.182v7.38c-.547.219-1.558.492-3.034.82-1.421.383-3.007.574-4.756.574-2.405 0-4.291-.301-5.658-.902-1.312-.601-2.269-1.421-2.87-2.46-.547-1.039-.929-2.187-1.148-3.444h-.656c-1.531 1.421-3.362 2.651-5.494 3.69s-4.455 1.804-6.97 2.296c-2.515.547-5.139.82-7.872.82zm2.788-8.774c1.749 0 3.608-.191 5.576-.574 2.023-.383 3.936-.929 5.74-1.64 1.804-.765 3.253-1.695 4.346-2.788 1.148-1.148 1.722-2.46 1.722-3.936v-2.214c-6.123 0-11.207.219-15.252.656-3.991.383-6.97 1.066-8.938 2.05s-2.952 2.378-2.952 4.182c0 1.203.465 2.105 1.394 2.706.984.601 2.214 1.011 3.69 1.23 1.531.219 3.089.328 4.674.328zm55.125 8.774c-3.171 0-5.74-.437-7.708-1.312s-3.417-2.323-4.346-4.346c-.875-2.077-1.312-4.893-1.312-8.446v-21.32h-8.282v-8.774h8.61l2.296-12.628h8.692v12.628h11.726v8.774h-11.726v20.5c0 2.023.355 3.553 1.066 4.592.765 1.039 2.433 1.558 5.002 1.558h5.658v7.38c-.765.273-1.749.519-2.952.738-1.148.219-2.323.383-3.526.492s-2.269.164-3.198.164zm40.28 0c-5.576 0-10.387-.793-14.432-2.378-3.991-1.64-7.079-4.127-9.266-7.462s-3.28-7.571-3.28-12.71c0-5.029 1.066-9.211 3.198-12.546 2.132-3.389 5.193-5.904 9.184-7.544 3.991-1.695 8.719-2.542 14.186-2.542 5.74 0 10.551.847 14.432 2.542 3.936 1.64 6.888 4.073 8.856 7.298 1.968 3.171 2.952 7.052 2.952 11.644v3.936h-40.918c.164 2.679.875 4.838 2.132 6.478 1.312 1.585 3.089 2.733 5.33 3.444 2.296.711 4.947 1.066 7.954 1.066 1.203 0 2.542-.137 4.018-.41 1.531-.273 2.979-.683 4.346-1.23 1.421-.547 2.624-1.257 3.608-2.132.984-.929 1.558-2.05 1.722-3.362h11.48c0 2.187-.574 4.264-1.722 6.232-1.093 1.913-2.733 3.608-4.92 5.084-2.187 1.421-4.865 2.542-8.036 3.362s-6.779 1.23-10.824 1.23zm-15.088-27.306h28.946c0-1.585-.383-2.952-1.148-4.1-.711-1.148-1.722-2.077-3.034-2.788-1.312-.765-2.815-1.312-4.51-1.64-1.695-.383-3.499-.574-5.412-.574-2.788 0-5.275.355-7.462 1.066-2.132.656-3.827 1.667-5.084 3.034s-2.023 3.034-2.296 5.002zm67.169 27.306c-4.482 0-8.391-.82-11.726-2.46-3.28-1.64-5.849-4.127-7.708-7.462-1.804-3.389-2.706-7.599-2.706-12.628 0-5.139.902-9.375 2.706-12.71s4.292-5.822 7.462-7.462c3.226-1.64 6.97-2.46 11.234-2.46 2.296 0 4.483.246 6.56.738 2.078.492 3.964 1.23 5.658 2.214 1.695.929 3.144 2.105 4.346 3.526h.574v-21.648h11.316v59.368h-9.102l-.984-6.806h-.656c-2.022 2.843-4.482 4.865-7.38 6.068-2.897 1.148-6.095 1.722-9.594 1.722zm2.87-9.512c2.843 0 5.276-.492 7.298-1.476 2.023-.984 3.581-2.405 4.674-4.264 1.094-1.913 1.64-4.237 1.64-6.97v-.656c0-2.077-.328-3.909-.984-5.494-.601-1.585-1.503-2.897-2.706-3.936-1.202-1.093-2.651-1.913-4.346-2.46-1.694-.601-3.608-.902-5.74-.902-2.733 0-5.111.492-7.134 1.476-1.968.984-3.498 2.405-4.592 4.264-1.038 1.804-1.558 4.045-1.558 6.724v1.23c0 2.679.547 4.947 1.64 6.806 1.094 1.859 2.624 3.28 4.592 4.264 2.023.929 4.428 1.394 7.216 1.394z" fill="url(#k)"/></svg>