<?xml version="1.0" encoding="UTF-8"?><svg fill="none" viewBox="0 0 800 800" xmlns="http://www.w3.org/2000/svg"><g clip-path="url(#g)"><rect width="800" height="800" rx="400" fill="#fff"/><g filter="url(#h)"><path d="m585.56 625.97c-177.77 63.623-218.94 174.65-218.94 379.24-113.34 0-191.49-258.33-191.49-379.24s91.878-218.94 205.22-218.94 205.22 98.022 205.22 218.94z" fill="#fff"/></g><g filter="url(#i)"><circle cx="418.37" cy="397.05" r="427.27" fill="#C3EEFF"/></g><mask id="k" x="-9" y="-68" width="855" height="855" style="mask-type:alpha" maskUnits="userSpaceOnUse"><circle cx="418.37" cy="359.4" r="427.27" fill="#C3EEFF"/></mask><g mask="url(#k)"><g filter="url(#j)"><ellipse cx="451.12" cy="-58.05" rx="502.58" ry="415.81" fill="#fff"/></g></g><path d="m274.26 342.96c-0.546-7.714-3.662-12.856-9.428-15.427-5.843-2.572-11.609-2.572-17.374 0-5.766 2.571-8.883 7.713-9.272 15.427 0.078 12.622 0.078 25.244 0.156 37.866 0 5.376 0 10.752 0.078 16.128-20.959-21.193-43.944-39.814-69.11-55.942-4.441-2.571-8.57-3.429-12.466-2.416-0.701 0.078-1.325 0.234-1.948 0.39-5.142 1.558-8.726 4.363-10.674 8.492-2.026 4.13-2.649 8.649-1.948 13.635 5.064 37.633 13.323 74.564 24.621 110.79 2.727 7.246 7.324 11.297 13.635 12.232 6.389 0.935 11.92-0.545 16.751-4.597 4.831-3.973 6.311-9.739 4.363-17.219-6.778-21.66-12.388-43.553-16.907-65.681 21.037 17.998 40.749 37.399 59.137 58.28 5.921 5.609 12.466 6.856 19.4 3.739 6.934-3.116 10.752-8.57 11.298-16.517-0.078-33.036-0.156-66.071-0.312-99.184z" fill="url(#a)"/><path d="m351.75 338.91c-4.675-1.169-9.272-0.623-13.713 1.714-4.441 2.338-7.246 5.922-8.415 10.83-1.169 5.922-2.337 11.921-3.506 17.842-5.999 30.075-11.921 60.15-17.842 90.224-0.935 4.909-0.312 9.506 1.792 13.635 2.181 4.13 5.765 6.935 10.752 8.493 4.753 1.169 9.349 0.545 13.713-1.792 4.441-2.26 7.246-5.922 8.492-10.83 2.338-11.999 4.753-23.998 7.09-35.996 4.753-23.998 9.506-47.995 14.259-71.993 0.935-4.986 0.311-9.505-1.87-13.634-2.182-4.13-5.766-7.013-10.752-8.493z" fill="url(#a)"/><path d="m565.58 421.34c-18.621-29.452-33.425-60.695-44.332-93.808-3.585-8.805-9.35-13.09-17.142-12.856-7.869 0.311-13.712 4.597-17.608 12.856l-20.258 52.046c-11.92-15.505-23.997-30.854-36.229-46.125-4.519-4.753-10.129-6.311-16.752-4.675-3.974 0.701-7.402 2.493-10.285 5.298-2.804 2.883-4.441 6.779-4.83 11.765-1.714 37.633-0.779 75.265 2.883 112.82 0.545 4.987 2.337 9.272 5.454 12.778 3.116 3.506 7.323 5.22 12.544 5.22 4.752 0 8.96-1.714 12.622-5.22s5.454-7.713 5.454-12.778c-0.078-0.779-0.078-1.48-0.156-2.259-0.078-1.403-0.156-2.883-0.234-4.363-0.078-1.403-0.234-2.727-0.545-3.896-1.481-17.531-2.338-34.983-2.649-52.436 7.479 9.661 14.959 19.401 22.283 29.218 5.22 6.389 11.22 9.194 17.92 8.414 6.623-0.857 11.687-5.064 15.037-12.7 4.987-12.933 10.051-25.789 15.038-38.723 8.804 19.946 19.089 39.191 30.698 57.657 4.441 6.311 9.895 9.115 16.284 8.336 6.389-0.701 11.375-3.584 15.037-8.726 3.584-5.064 3.506-10.986-0.234-17.842z" fill="url(#a)"/><path d="m645.72 338.91c-4.675-1.169-9.272-0.623-13.713 1.714-4.441 2.338-7.246 5.922-8.414 10.83-1.169 5.922-2.338 11.921-3.506 17.842-6 30.075-11.921 60.15-17.843 90.224-0.935 4.909-0.311 9.506 1.792 13.635 2.182 4.13 5.766 6.935 10.752 8.493 4.753 1.169 9.35 0.545 13.713-1.792 4.441-2.26 7.246-5.922 8.493-10.83 2.337-11.999 4.753-23.998 7.09-35.996 4.753-23.998 9.505-47.995 14.258-71.993 0.935-4.986 0.312-9.505-1.87-13.634-2.181-4.13-5.765-7.013-10.752-8.493z" fill="url(#a)"/></g><defs><filter id="h" x="80.322" y="312.22" width="600.05" height="787.8" color-interpolation-filters="sRGB" filterUnits="userSpaceOnUse"><feFlood flood-opacity="0" result="BackgroundImageFix"/><feBlend in="SourceGraphic" in2="BackgroundImageFix" result="shape"/><feGaussianBlur result="effect1_foregroundBlur_421_8962" stdDeviation="47.4054"/></filter><filter id="i" x="-37.585" y="-51.734" width="893.99" height="876.06" color-interpolation-filters="sRGB" filterUnits="userSpaceOnUse"><feFlood flood-opacity="0" result="BackgroundImageFix"/><feBlend in="SourceGraphic" in2="BackgroundImageFix" result="shape"/><feColorMatrix in="SourceAlpha" result="hardAlpha" values="0 0 0 0 0 0 0 0 0 0 0 0 0 0 0 0 0 0 127 0"/><feOffset dx="-28.6887" dy="-21.5165"/><feGaussianBlur stdDeviation="39.447"/><feComposite in2="hardAlpha" k2="-1" k3="1" operator="arithmetic"/><feColorMatrix values="0 0 0 0 1 0 0 0 0 1 0 0 0 0 1 0 0 0 1 0"/><feBlend in2="shape" result="effect1_innerShadow_421_8962"/><feColorMatrix in="SourceAlpha" result="hardAlpha" values="0 0 0 0 0 0 0 0 0 0 0 0 0 0 0 0 0 0 127 0"/><feOffset dx="10.7583"/><feGaussianBlur stdDeviation="25.9991"/><feComposite in2="hardAlpha" k2="-1" k3="1" operator="arithmetic"/><feColorMatrix values="0 0 0 0 1 0 0 0 0 1 0 0 0 0 1 0 0 0 1 0"/><feBlend in2="effect1_innerShadow_421_8962" result="effect2_innerShadow_421_8962"/></filter><filter id="j" x="-345.52" y="-767.92" width="1593.3" height="1419.7" color-interpolation-filters="sRGB" filterUnits="userSpaceOnUse"><feFlood flood-opacity="0" result="BackgroundImageFix"/><feBlend in="SourceGraphic" in2="BackgroundImageFix" result="shape"/><feGaussianBlur result="effect1_foregroundBlur_421_8962" stdDeviation="147.03"/></filter><linearGradient id="a" x1="222.98" x2="309.67" y1="240.83" y2="577.64" gradientUnits="userSpaceOnUse"><stop stop-color="#4368EA" offset="0"/><stop stop-color="#C490DD" offset="1"/></linearGradient><clipPath id="g"><rect width="800" height="800" rx="400" fill="#fff"/></clipPath></defs></svg>