<svg width="218" height="73" viewBox="0 0 218 73" fill="none" xmlns="http://www.w3.org/2000/svg">
<path d="M35.7042 72.1622C55.1636 72.1622 70.9386 56.3872 70.9386 36.9278C70.9386 17.4683 55.1636 1.6933 35.7042 1.6933C16.2447 1.6933 0.469727 17.4683 0.469727 36.9278C0.469727 56.3872 16.2447 72.1622 35.7042 72.1622Z" fill="url(#paint0_linear_217_16702)"/>
<path d="M35.8254 70.0737C17.5487 70.0737 2.67944 55.2047 2.67944 36.928C2.67944 18.6513 17.5487 3.78204 35.8254 3.78204C54.1021 3.78204 68.9714 18.6513 68.9714 36.928C68.9714 55.2047 54.1021 70.0737 35.8254 70.0737ZM35.8254 4.61071C18.0056 4.61071 3.50811 19.1082 3.50811 36.928C3.50811 54.7478 18.0056 69.245 35.8254 69.245C53.645 69.245 68.1427 54.7478 68.1427 36.928C68.1427 19.1082 53.645 4.61071 35.8254 4.61071Z" fill="white"/>
<path fill-rule="evenodd" clip-rule="evenodd" d="M61.6126 37.3218C61.2508 36.8621 60.9883 36.3419 60.6529 36.0152C59.8375 35.2217 58.6933 34.6299 57.4995 34.0896C56.3557 33.5721 55.1612 32.9636 54.0032 32.508C53.2125 32.1969 52.3891 31.9584 51.6725 31.6828C50.0438 31.0564 48.5091 30.1367 47.2849 29.0696C46.6335 28.5014 46.0987 27.6985 45.5028 27.0066C44.5875 25.9441 43.8266 24.7375 43.0346 23.637C42.7624 23.2587 42.4212 22.9134 42.1434 22.5366C40.4678 20.2636 38.8931 17.9556 37.4129 15.5911C36.6821 14.4234 35.7132 13.3192 34.8766 12.2902C34.5634 11.9054 34.3435 11.4765 34.0538 11.1212C33.6434 10.6177 32.9407 10.3149 32.957 9.60826C33.4349 9.14923 33.4763 10.1295 33.7111 9.60826C33.952 9.0733 33.6174 7.89909 33.574 7.27015C33.446 5.41715 33.3009 4.3879 33.0256 2.86899C32.8953 2.14893 32.9107 1.11397 32.5457 0.805949C31.5705 -0.0175499 30.5679 1.84836 30.2148 2.52515C29.1756 4.51657 28.2767 7.65753 27.884 9.88332C27.8243 10.2226 27.9722 10.7429 27.5412 10.9149C27.0408 10.9813 27.3895 10.1959 26.9928 10.1584C25.1372 10.704 23.2343 11.202 21.9883 12.359C21.9888 12.7876 22.4673 13.5054 21.9197 13.6656C21.3199 13.4381 21.3973 12.665 21.2342 12.1527C21.0625 11.6137 20.8026 11.0641 20.6172 10.5022C20.0405 8.75495 19.6369 7.00309 18.8348 5.68849C18.5551 5.22973 18.2578 4.77786 17.875 4.45066C16.0463 7.37587 15.224 12.4642 15.6127 17.1727C15.6875 18.0799 15.6179 19.0389 15.7498 19.8547C15.8407 20.4172 16.3057 21.0358 16.0241 21.6427C15.4356 21.8945 15.5405 20.7762 15.3385 21.0925C14.6435 24.9298 14.9866 28.8444 14.9957 32.6456C14.9963 32.9699 14.9172 33.389 14.9272 33.7459C14.972 35.3322 15.1894 36.4116 15.4071 37.7345C15.8255 40.2774 16.3874 42.3662 17.258 44.336C17.4343 44.7347 17.5604 45.2316 17.7281 45.6111C30.7507 71.0963 60.6529 55.8943 62.728 45.5023C63.1377 44.5506 63.3983 43.4785 63.3262 42.2044C63.2154 40.2426 62.5355 38.4944 61.6126 37.3218Z" fill="black"/>
<path fill-rule="evenodd" clip-rule="evenodd" d="M14.6528 55.2688C14.3411 56.6981 13.9575 58.0615 13.6244 59.4636C13.3459 60.6359 13.0069 61.8046 12.6235 62.9576C12.7995 63.1261 12.9774 63.2927 13.1571 63.4572C13.4788 62.4275 13.7773 61.37 14.036 60.2886C14.7104 57.4694 15.7133 54.5357 15.887 51.1428C16.013 48.6772 16.0313 46.123 16.0927 43.441C16.3263 43.5664 16.402 43.8975 16.504 44.1287C16.8068 44.8134 17.0942 45.7189 17.4638 46.4666C17.9214 47.3918 18.5981 48.2732 19.2462 49.1486C19.8763 49.9998 20.4662 50.8762 21.1657 51.6242C21.8481 52.354 22.7025 53.0472 23.4966 53.6875C23.9064 54.0178 24.3186 54.3443 24.7305 54.6501C25.9877 55.5829 27.3799 56.3419 28.9123 57.057C29.9224 57.5284 30.9641 57.8233 32.1344 58.226C33.2724 58.6174 34.3019 59.0852 35.4937 59.2577C37.9953 59.6196 40.9864 59.4043 43.0343 58.9823C45.0697 58.5634 47.2784 58.1179 49.2046 57.4697C49.6097 57.333 50.0168 57.1098 50.4381 56.988C50.8839 56.8597 51.3286 56.8205 51.7407 56.6444C52.3633 56.378 52.9811 55.9975 53.5915 55.6817C54.2281 55.3523 54.8911 55.0774 55.4427 54.7191C56.5786 53.981 57.4328 52.9746 58.5277 52.1748C59.2026 53.7614 59.9179 55.3716 60.6527 56.9884C61.1322 58.0429 61.5333 59.1412 61.9175 60.2651C62.0746 60.078 62.2294 59.8889 62.3825 59.6982C61.3901 56.9048 60.2396 54.2812 59.0072 51.7618C61.1328 48.8268 64.357 46.4086 63.8746 41.5841C63.7601 40.439 63.3382 38.9745 62.8461 37.9395C62.6358 37.496 62.2677 37.1759 61.9549 36.7705C61.6649 36.3944 61.4724 35.9568 61.201 35.6702C60.4149 34.8393 59.2558 34.2117 58.116 33.6756C56.9629 33.1334 55.7486 32.6188 54.5512 32.0942C53.3194 31.554 52.0565 31.1896 50.9179 30.65C48.7684 29.6314 47.3379 28.305 45.913 26.5927C45.3181 25.8772 44.7433 25.0956 44.199 24.3233C43.0998 22.7629 42.0128 21.1789 40.9087 19.7159C39.8978 18.3763 38.8786 16.6371 37.7552 14.9709C37.163 14.0921 36.2678 13.0904 35.5611 12.2202C35.2093 11.7861 34.4176 10.8414 34.3277 10.4322C34.1785 9.75627 34.3584 9.01157 34.3277 8.3004C34.2695 6.97316 34.1709 5.71413 34.0056 4.52161C33.7711 4.53534 33.5372 4.55023 33.3038 4.56888C33.4152 5.36171 33.4972 6.17061 33.5732 7.26889C33.6166 7.89753 33.951 9.07204 33.7103 9.607C33.4758 10.1282 33.4341 9.14797 32.9562 9.607C32.9399 10.3136 33.6426 10.6164 34.0532 11.1199C34.3429 11.4752 34.5628 11.9041 34.8756 12.2889C35.7123 13.3179 36.6812 14.4222 37.4123 15.5898C38.8925 17.9543 40.4666 20.2623 42.1425 22.5354C42.4206 22.9122 42.7618 23.2575 43.0337 23.6357C43.8257 24.7365 44.5869 25.9431 45.5019 27.0053C46.0982 27.6973 46.6325 28.5005 47.284 29.0684C48.5085 30.1351 50.0432 31.0549 51.6715 31.6815C52.3881 31.9572 53.2119 32.1956 54.0026 32.5067C55.1606 32.9624 56.3551 33.5708 57.4986 34.0883C58.6924 34.6286 59.8365 35.2204 60.6523 36.0139C60.988 36.3406 61.2502 36.8608 61.6117 37.3205C62.5346 38.4931 63.2148 40.2413 63.3256 42.2031C63.4582 44.5549 62.4638 46.2205 61.4744 47.7046C60.2492 49.5423 58.9797 50.8496 57.4298 52.3118C56.9057 52.8064 56.408 53.3561 55.8528 53.7561C54.703 54.5854 53.3607 55.1689 51.9454 55.8191C50.5866 56.4437 49.0366 56.8796 47.4893 57.4004C46.7367 57.6541 45.9024 57.8552 45.0899 58.0194C43.1362 58.4144 40.8802 58.8603 38.6458 58.9133C37.9318 58.9306 37.2562 58.9024 36.5205 58.845C35.0621 58.7309 33.5749 58.1109 32.133 57.607C30.6759 57.0978 29.2349 56.6557 28.0883 56.0251C25.5892 54.6518 23.5228 53.1133 21.6441 51.2115C20.6732 50.2283 19.9854 49.122 19.1762 48.0479C18.3207 46.9128 17.8502 45.6781 17.2567 44.3347C16.386 42.3646 15.8242 40.2761 15.4057 37.7328C15.188 36.41 14.9707 35.3306 14.9258 33.7443C14.9158 33.3874 14.9952 32.9684 14.9944 32.644C14.9852 28.8429 14.6422 24.9282 15.3372 21.091C15.5391 20.7746 15.4343 21.893 16.0227 21.6411C16.3043 21.0342 15.8393 20.4159 15.7485 19.8532C15.6165 19.0374 15.6862 18.0784 15.6114 17.1712C15.4477 15.1881 15.5014 13.1391 15.7519 11.2113C15.5311 11.3769 15.3126 11.5454 15.0961 11.7165C14.7981 14.2881 14.7844 17.0173 15.1315 19.4405C14.6273 20.295 14.5559 21.6649 14.446 22.9477C14.1937 25.8884 14.2823 28.2936 14.3088 30.7873C14.3297 32.7575 14.248 34.6383 14.5145 36.4262C14.6373 37.2499 14.7641 38.0821 14.9258 38.9018C15.0827 39.6973 15.388 40.5063 15.4743 41.3088C15.6414 42.8652 15.4451 44.5088 15.4057 46.1226C15.3291 49.2962 15.2615 52.4777 14.6528 55.2688Z" fill="#221F20"/>
<path fill-rule="evenodd" clip-rule="evenodd" d="M20.6167 10.5003C20.8021 11.0622 21.062 11.6118 21.2337 12.1507C21.3968 12.6631 21.3194 13.4359 21.9192 13.6636C22.4668 13.5032 21.9887 12.7857 21.9878 12.3571C23.2338 11.2 25.1367 10.702 26.9923 10.1565C27.389 10.194 27.0403 10.9794 27.5407 10.9129C27.9717 10.741 27.8238 10.2204 27.8835 9.8814C28.1277 8.49804 28.5673 6.76133 29.1146 5.1665C28.8921 5.21265 28.6707 5.26104 28.4499 5.31176C27.9623 6.75905 27.5547 8.28743 27.3348 9.46881C25.1404 9.85792 23.3877 10.69 21.7133 11.6006C21.4445 10.8694 21.2046 10.1536 20.9592 9.40005C20.8324 9.01064 20.731 8.59258 20.6179 8.16679C20.4076 8.27453 20.1994 8.38572 19.9917 8.49774C20.1965 9.14904 20.3939 9.82468 20.6167 10.5003Z" fill="#221F20"/>
<path fill-rule="evenodd" clip-rule="evenodd" d="M15.3382 62.9709C15.2117 63.6413 15.0943 64.327 14.9863 65.0226C15.1883 65.1832 15.3925 65.3417 15.5982 65.4983C15.903 63.6456 16.2834 61.8773 16.5722 60.083C16.6748 59.4448 16.8353 58.8069 16.915 58.1574C16.9807 57.623 17.1901 56.9327 16.8464 56.4384C16.1038 56.5399 16.3483 57.5039 16.298 57.951C16.1066 59.6544 15.6579 61.2772 15.3382 62.9709Z" fill="#221F20"/>
<path fill-rule="evenodd" clip-rule="evenodd" d="M62.8463 37.9395C62.6357 37.4957 62.2679 37.1759 61.9551 36.7702C61.6648 36.3944 61.4723 35.9568 61.2011 35.6699C60.4148 34.8393 59.2557 34.2117 58.1162 33.6756C56.9631 33.1334 55.7488 32.6188 54.5514 32.0941C53.3195 31.554 52.0563 31.1895 50.9178 30.65C48.7686 29.6313 47.3377 28.305 45.9132 26.5927C45.3182 25.8772 44.7435 25.0955 44.1992 24.3233C43.0997 22.7628 42.013 21.1789 40.9089 19.7159C39.898 18.3763 38.8785 16.6371 37.7554 14.9709C37.1628 14.092 36.2677 13.0903 35.5613 12.2201C35.2095 11.786 34.4178 10.8413 34.3275 10.4322C34.1787 9.75624 34.3586 9.01153 34.3275 8.30036C34.2465 6.45051 34.0924 4.72701 33.7793 3.14275C33.597 2.22069 33.5007 1.25593 33.0937 0.460798C32.6709 0.230138 32.0954 -0.130895 31.6541 0.0481889C30.6814 0.443032 30.1262 1.39203 29.5974 2.45507C28.6508 4.35824 27.7145 7.43073 27.3351 9.4694C25.1408 9.85854 23.3881 10.6906 21.7136 11.6012C21.4449 10.87 21.2049 10.1542 20.9595 9.40064C20.7233 8.6757 20.5799 7.85308 20.274 7.06253C20.0621 6.51496 19.6713 5.95565 19.2457 5.27457C18.9089 4.7356 18.5467 3.79604 17.8746 3.83044C17.06 3.87197 16.2881 6.15223 16.0922 6.78747C14.9816 10.3878 14.5466 15.3516 15.1324 19.4408C14.6283 20.2952 14.5569 21.6652 14.4469 22.9479C14.1947 25.8886 14.2832 28.2938 14.3098 30.7875C14.3306 32.7577 14.2489 34.6386 14.5154 36.4265C14.6383 37.2499 14.7651 38.0825 14.9268 38.9022C15.0836 39.6976 15.3889 40.5063 15.4752 41.3091C15.6209 42.6661 15.4906 44.0892 15.4286 45.501H16.0505C16.0633 44.8223 16.0762 44.1363 16.0922 43.4407C16.3259 43.5664 16.4016 43.8975 16.5035 44.1284C16.6829 44.5344 16.8577 45.0184 17.0468 45.501H17.7672C17.5995 45.1212 17.4339 44.7334 17.2576 44.3347C16.387 42.3649 15.8251 40.2765 15.4067 37.7332C15.189 36.4103 14.9716 35.3309 14.9268 33.7446C14.9168 33.3877 14.9962 32.9686 14.9953 32.6442C14.9862 28.8431 14.6431 24.9285 15.3381 21.0912C15.5401 20.7749 15.4352 21.8932 16.0236 21.6414C16.3053 21.0345 15.8402 20.4161 15.7494 19.8534C15.6175 19.0376 15.6871 18.0786 15.6123 17.1714C15.2238 12.4628 16.0462 7.37457 17.8746 4.44936C18.2574 4.77686 18.5544 5.22873 18.8344 5.68716C19.6365 7.00179 20.0404 8.75366 20.6168 10.5009C20.8022 11.0628 21.0621 11.6124 21.2338 12.1514C21.3969 12.6637 21.3195 13.4365 21.9193 13.6643C22.4669 13.5038 21.9887 12.7863 21.9879 12.3577C23.2338 11.2006 25.1368 10.7027 26.9923 10.1571C27.3891 10.1946 27.0404 10.98 27.5408 10.9135C27.9718 10.7416 27.8238 10.221 27.8836 9.88203C28.2763 7.65624 29.1752 4.51524 30.2144 2.52384C30.5675 1.84705 31.5701 -0.0188604 32.5453 0.804637C32.91 1.11266 32.8949 2.14733 33.0251 2.86768C33.3005 4.3869 33.4456 5.41612 33.5736 7.26882C33.617 7.89749 33.9515 9.07201 33.7107 9.60697C33.4762 10.1282 33.4345 9.14793 32.9566 9.60697C32.9403 10.3136 33.643 10.6164 34.0534 11.1199C34.3431 11.4752 34.563 11.9041 34.8761 12.2889C35.7128 13.3179 36.6817 14.4221 37.4125 15.5898C38.8927 17.9542 40.4671 20.2623 42.143 22.5354C42.4208 22.9121 42.762 23.2574 43.0342 23.6356C43.8259 24.7365 44.5871 25.9431 45.5024 27.0053C46.0983 27.6972 46.6331 28.5004 47.2845 29.0683C48.5087 30.1351 50.0434 31.0548 51.6721 31.6815C52.3887 31.9572 53.2121 32.1956 54.0028 32.5067C55.1611 32.9623 56.3553 33.5708 57.4991 34.0883C58.6929 34.6286 59.8371 35.2204 60.6525 36.0139C60.9882 36.3406 61.2507 36.8608 61.6122 37.3205C62.5351 38.4931 63.215 40.2413 63.3258 42.2031C63.3979 43.4775 63.1373 44.5493 62.7276 45.501H63.3833C63.8122 44.3718 64.0255 43.0961 63.8744 41.5838C63.76 40.4387 63.338 38.9745 62.8463 37.9395Z" fill="#221F20"/>
<path fill-rule="evenodd" clip-rule="evenodd" d="M60.6529 56.986C59.9178 55.3692 59.2028 53.7591 58.5275 52.1721C57.433 52.9722 56.5791 53.9787 55.4429 54.7167C54.8913 55.0747 54.2286 55.35 53.5914 55.6791C52.9809 55.9955 52.3632 56.376 51.7409 56.642C51.3285 56.8182 50.8837 56.8573 50.4383 56.9857C50.0167 57.1071 49.6099 57.3303 49.2045 57.467C47.2789 58.1159 45.0699 58.5607 43.0345 58.98C40.9859 59.4019 37.9952 59.6169 35.4935 59.255C34.3021 59.0825 33.2725 58.6151 32.1345 58.2237C30.9642 57.821 29.9225 57.5254 28.9124 57.0544C27.38 56.3392 25.9878 55.5802 24.7306 54.6477C24.3184 54.3419 23.9065 54.0152 23.4967 53.6848C22.7026 53.0449 21.8482 52.3516 21.1658 51.6218C20.4663 50.8738 19.8764 49.9974 19.2463 49.1462C18.5982 48.2708 17.9215 47.3894 17.4639 46.4643C17.0943 45.7169 16.8066 44.811 16.5041 44.126C16.4021 43.8951 16.3264 43.5641 16.0928 43.4384C16.0314 46.1206 16.0134 48.6748 15.8871 51.1405C15.7134 54.5333 14.7105 57.467 14.0361 60.2863C13.7774 61.3677 13.4789 62.4249 13.1572 63.4548C13.7482 63.9979 14.3583 64.5197 14.9865 65.0199C15.0942 64.3246 15.2119 63.6386 15.3384 62.9682C15.658 61.2745 16.1068 59.6517 16.2982 57.9483C16.3484 57.5005 16.1039 56.5369 16.8466 56.4354C17.1902 56.9296 16.9808 57.6203 16.9152 58.1543C16.8355 58.8038 16.6752 59.4417 16.5724 60.08C16.2836 61.8742 15.9028 63.6426 15.5983 65.4952C21.2735 69.8062 28.3446 72.3651 36.0121 72.3651C46.4085 72.3651 55.7088 67.6617 61.9178 60.2621C61.5332 59.1389 61.132 58.0406 60.6529 56.986Z" fill="black"/>
<path d="M125.262 19.6424C125.138 17.8798 124.426 16.7048 123.108 16.1173C121.773 15.5298 120.456 15.5298 119.138 16.1173C117.821 16.7048 117.109 17.8798 117.02 19.6424C117.037 22.5265 117.037 25.4106 117.055 28.2948C117.055 29.5232 117.055 30.7516 117.073 31.98C112.284 27.1375 107.032 22.8826 101.281 19.1973C100.267 18.6098 99.323 18.4139 98.4329 18.6454C98.2727 18.6632 98.1302 18.6988 97.9878 18.7344C96.8128 19.0905 95.9938 19.7314 95.5487 20.6749C95.0859 21.6185 94.9434 22.6511 95.1037 23.7905C96.2609 32.3895 98.148 40.8283 100.73 49.1068C101.353 50.7625 102.403 51.6883 103.845 51.9019C105.305 52.1156 106.569 51.7773 107.673 50.8515C108.777 49.9436 109.115 48.6261 108.67 46.917C107.121 41.9677 105.839 36.965 104.806 31.9088C109.613 36.0214 114.118 40.4544 118.319 45.2257C119.672 46.5075 121.168 46.7924 122.752 46.0803C124.337 45.3681 125.209 44.1219 125.334 42.306C125.316 34.7574 125.298 27.2088 125.262 19.6424ZM142.968 18.7166C141.9 18.4495 140.85 18.5742 139.835 19.1083C138.82 19.6424 138.179 20.4613 137.912 21.5829C137.645 22.936 137.378 24.3068 137.111 25.6599C135.74 32.5319 134.387 39.404 133.034 46.2761C132.82 47.3977 132.963 48.4481 133.443 49.3917C133.942 50.3352 134.761 50.9762 135.9 51.3322C136.986 51.5993 138.037 51.4569 139.034 50.9228C140.048 50.4065 140.689 49.5697 140.974 48.4481C141.508 45.7064 142.06 42.9647 142.594 40.223C143.68 34.7396 144.766 29.2561 145.852 23.7727C146.066 22.6333 145.924 21.6007 145.425 20.6571C144.927 19.7136 144.108 19.0548 142.968 18.7166ZM191.83 37.5525C187.575 30.8228 184.192 23.6837 181.7 16.1173C180.881 14.1055 179.563 13.1264 177.783 13.1798C175.985 13.251 174.65 14.2302 173.759 16.1173L169.131 28.0099C166.407 24.4671 163.647 20.9598 160.852 17.4704C159.819 16.3844 158.538 16.0283 157.024 16.4022C156.116 16.5624 155.333 16.9719 154.674 17.6128C154.033 18.2715 153.659 19.1617 153.57 20.3011C153.179 28.9001 153.392 37.4991 154.229 46.0803C154.354 47.2197 154.763 48.1989 155.475 49C156.188 49.8011 157.149 50.1928 158.342 50.1928C159.428 50.1928 160.389 49.8011 161.226 49C162.063 48.1989 162.472 47.2375 162.472 46.0803C162.454 45.9022 162.454 45.742 162.436 45.564C162.419 45.2435 162.401 44.9052 162.383 44.567C162.365 44.2465 162.33 43.9439 162.258 43.6768C161.92 39.6711 161.724 35.6831 161.653 31.6952C163.362 33.9028 165.071 36.1282 166.745 38.3714C167.938 39.8313 169.309 40.4722 170.84 40.2942C172.353 40.0983 173.51 39.137 174.276 37.3922C175.415 34.4369 176.572 31.4994 177.712 28.544C179.723 33.1017 182.073 37.4991 184.726 41.7185C185.741 43.1605 186.987 43.8014 188.447 43.6234C189.907 43.4632 191.046 42.8045 191.883 41.6294C192.702 40.4722 192.684 39.1192 191.83 37.5525ZM210.141 18.7166C209.073 18.4495 208.022 18.5742 207.007 19.1083C205.993 19.6424 205.352 20.4613 205.085 21.5829C204.818 22.936 204.551 24.3068 204.283 25.6599C202.913 32.5319 201.56 39.404 200.207 46.2761C199.993 47.3977 200.135 48.4481 200.616 49.3917C201.114 50.3352 201.933 50.9762 203.073 51.3322C204.159 51.5993 205.209 51.4569 206.206 50.9228C207.221 50.4065 207.862 49.5697 208.147 48.4481C208.681 45.7064 209.233 42.9647 209.767 40.223C210.853 34.7396 211.939 29.2561 213.025 23.7727C213.239 22.6333 213.096 21.6007 212.598 20.6571C212.099 19.7136 211.28 19.0548 210.141 18.7166Z" fill="url(#paint1_linear_217_16702)"/>
<defs>
<linearGradient id="paint0_linear_217_16702" x1="11.1042" y1="-2.92345" x2="45.9081" y2="69.4464" gradientUnits="userSpaceOnUse">
<stop stop-color="#4368EA"/>
<stop offset="1" stop-color="#C490DD"/>
</linearGradient>
<linearGradient id="paint1_linear_217_16702" x1="113.657" y1="-4.25846" x2="133.42" y2="72.8701" gradientUnits="userSpaceOnUse">
<stop stop-color="#4368EA"/>
<stop offset="1" stop-color="#C490DD"/>
</linearGradient>
</defs>
</svg>
