<svg fill="none" height="171" viewBox="0 0 517 171" width="517" xmlns="http://www.w3.org/2000/svg" xmlns:xlink="http://www.w3.org/1999/xlink"><linearGradient id="a" gradientUnits="userSpaceOnUse" x1="80.9835" x2="167.669" y1="-73.1681" y2="263.638"><stop offset="0" stop-color="#4368ea"/><stop offset="1" stop-color="#c490dd"/></linearGradient><g fill="url(#a)"><path d="m132.263 28.9584c-.546-7.7135-3.662-12.8558-9.428-15.4269-5.843-2.5712-11.609-2.5712-17.374 0-5.7661 2.5711-8.8826 7.7134-9.2722 15.4269.0779 12.622.0779 25.244.1558 37.8661 0 5.376 0 10.7521.0779 16.1281-20.9588-21.1925-43.9433-39.8139-69.1094-55.9421-4.4411-2.5711-8.5705-3.4282-12.4662-2.4153-.7013.0779-1.3246.2338-1.9479.3896-5.14228 1.5583-8.72632 4.3631-10.67416 8.4926-2.025755 4.1294-2.649065 8.6484-1.947842 13.6349 5.064392 37.6323 13.323202 74.5637 24.620702 110.7937 2.727 7.246 7.3239 11.297 13.6349 12.232 6.389.935 11.9208-.545 16.7515-4.597 4.8306-3.973 6.311-9.739 4.3632-17.219-6.7785-21.66-12.3883-43.554-16.9073-65.6811 21.0367 17.9981 40.7489 37.3991 59.137 58.2791 5.921 5.61 12.466 6.857 19.4 3.74 6.934-3.116 10.752-8.57 11.298-16.517-.078-33.0359-.156-66.0713-.312-99.1846z"/><path d="m209.75 24.9069c-4.675-1.1687-9.272-.6233-13.713 1.7141s-7.246 5.9214-8.415 10.83c-1.169 5.9214-2.337 11.9208-3.506 17.8422-5.999 30.0747-11.921 60.1498-17.842 90.2238-.935 4.909-.312 9.506 1.792 13.635 2.181 4.13 5.765 6.935 10.752 8.493 4.753 1.169 9.349.545 13.713-1.792 4.441-2.26 7.246-5.922 8.492-10.83 2.338-11.999 4.753-23.998 7.09-35.996 4.753-23.9978 9.506-47.9952 14.259-71.9926.935-4.9865.311-9.5055-1.87-13.6349-2.182-4.1295-5.766-7.0123-10.752-8.4926z"/><path d="m423.585 107.34c-18.621-29.4518-33.425-60.6952-44.332-93.8085-3.585-8.80429-9.35-13.089548-17.142-12.855806-7.869.311654-13.712 4.596906-17.608 12.855806l-20.258 52.0463c-11.92-15.5048-23.997-30.8538-36.229-46.1249-4.519-4.7527-10.129-6.311-16.752-4.6748-3.974.7012-7.402 2.4932-10.285 5.2981-2.804 2.8828-4.441 6.7785-4.83 11.765-1.714 37.6323-.779 75.2648 2.883 112.8188.545 4.987 2.337 9.272 5.454 12.778 3.116 3.506 7.323 5.22 12.544 5.22 4.752 0 8.96-1.714 12.622-5.22s5.454-7.713 5.454-12.778c-.078-.779-.078-1.48-.156-2.259-.078-1.403-.156-2.883-.234-4.363-.078-1.403-.234-2.727-.545-3.896-1.481-17.531-2.338-34.9833-2.649-52.436 7.479 9.6613 14.959 19.4 22.283 29.218 5.22 6.389 11.22 9.193 17.92 8.414 6.623-.857 11.687-5.064 15.037-12.7 4.987-12.9333 10.051-25.7891 15.038-38.7228 8.804 19.946 19.089 39.1908 30.698 57.6558 4.441 6.311 9.895 9.116 16.284 8.337 6.389-.701 11.375-3.584 15.037-8.726 3.584-5.065 3.506-10.986-.234-17.842z"/><path d="m503.721 24.9069c-4.675-1.1687-9.272-.6233-13.713 1.7141s-7.246 5.9214-8.414 10.83c-1.169 5.9214-2.338 11.9208-3.506 17.8422-6 30.0747-11.921 60.1498-17.843 90.2238-.935 4.909-.311 9.506 1.792 13.635 2.182 4.13 5.766 6.935 10.752 8.493 4.753 1.169 9.35.545 13.713-1.792 4.441-2.26 7.246-5.922 8.493-10.83 2.337-11.999 4.753-23.998 7.09-35.996 4.753-23.9978 9.505-47.9952 14.258-71.9926.935-4.9865.312-9.5055-1.87-13.6349-2.181-4.1295-5.765-7.0123-10.752-8.4926z"/></g></svg>