<svg width="1258" height="534" viewBox="0 0 1258 534" fill="none" xmlns="http://www.w3.org/2000/svg">
<g filter="url(#filter0_i_62_188)">
<g clip-path="url(#clip0_62_188)">
<rect x="637.617" y="189.797" width="411.19" height="153.921" rx="76.9607" fill="url(#paint0_linear_62_188)"/>
<g clip-path="url(#clip1_62_188)">
<path d="M723.257 291.121V237.73H769.964V247.911H736.003V260.423H766.467V270.526H736.003V291.121H723.257ZM794.795 292.054C789.769 292.054 785.469 291.302 781.894 289.8C778.319 288.246 775.573 285.888 773.656 282.728C771.739 279.567 770.78 275.552 770.78 270.682C770.78 265.863 771.713 261.874 773.578 258.714C775.443 255.501 778.138 253.118 781.661 251.564C785.236 250.009 789.484 249.232 794.406 249.232C799.432 249.232 803.654 250.009 807.074 251.564C810.493 253.066 813.084 255.372 814.845 258.48C816.607 261.537 817.488 265.371 817.488 269.982V273.246H782.826C782.93 275.63 783.448 277.599 784.381 279.153C785.313 280.707 786.66 281.847 788.422 282.572C790.235 283.298 792.411 283.66 794.95 283.66C796.194 283.66 797.437 283.531 798.68 283.272C799.924 282.961 801.038 282.521 802.022 281.951C803.058 281.381 803.887 280.681 804.509 279.852C805.183 278.972 805.571 277.961 805.675 276.821H817.332C817.332 279.153 816.788 281.277 815.7 283.194C814.664 285.059 813.161 286.665 811.193 288.012C809.224 289.308 806.841 290.318 804.043 291.043C801.297 291.717 798.214 292.054 794.795 292.054ZM782.826 266.097H805.286C805.286 264.646 805.027 263.402 804.509 262.366C803.991 261.33 803.24 260.449 802.255 259.724C801.323 258.999 800.209 258.48 798.914 258.17C797.618 257.807 796.194 257.626 794.639 257.626C792.36 257.626 790.365 257.962 788.655 258.636C786.945 259.258 785.598 260.216 784.614 261.511C783.681 262.755 783.085 264.283 782.826 266.097ZM845.656 292.054C840.63 292.054 836.33 291.302 832.755 289.8C829.18 288.246 826.434 285.888 824.517 282.728C822.6 279.567 821.642 275.552 821.642 270.682C821.642 265.863 822.574 261.874 824.44 258.714C826.305 255.501 828.999 253.118 832.522 251.564C836.097 250.009 840.345 249.232 845.267 249.232C850.293 249.232 854.516 250.009 857.935 251.564C861.355 253.066 863.945 255.372 865.707 258.48C867.468 261.537 868.349 265.371 868.349 269.982V273.246H833.688C833.791 275.63 834.309 277.599 835.242 279.153C836.175 280.707 837.522 281.847 839.283 282.572C841.097 283.298 843.273 283.66 845.811 283.66C847.055 283.66 848.298 283.531 849.542 283.272C850.785 282.961 851.899 282.521 852.884 281.951C853.92 281.381 854.749 280.681 855.37 279.852C856.044 278.972 856.433 277.961 856.536 276.821H868.194C868.194 279.153 867.65 281.277 866.562 283.194C865.525 285.059 864.023 286.665 862.054 288.012C860.085 289.308 857.702 290.318 854.904 291.043C852.158 291.717 849.075 292.054 845.656 292.054ZM833.688 266.097H856.148C856.148 264.646 855.889 263.402 855.37 262.366C854.852 261.33 854.101 260.449 853.117 259.724C852.184 258.999 851.07 258.48 849.775 258.17C848.48 257.807 847.055 257.626 845.501 257.626C843.221 257.626 841.226 257.962 839.516 258.636C837.807 259.258 836.46 260.216 835.475 261.511C834.543 262.755 833.947 264.283 833.688 266.097ZM891.777 292.054C887.891 292.054 884.497 291.302 881.596 289.8C878.695 288.246 876.441 285.888 874.835 282.728C873.28 279.516 872.503 275.474 872.503 270.604C872.503 265.734 873.28 261.719 874.835 258.558C876.441 255.398 878.643 253.066 881.44 251.564C884.29 250.009 887.58 249.232 891.31 249.232C893.227 249.232 895.067 249.44 896.828 249.854C898.59 250.268 900.196 250.916 901.647 251.797C903.097 252.678 904.315 253.74 905.299 254.983H905.843V234.855H917.501V291.121H908.019L907.087 285.059H906.465C904.755 287.546 902.631 289.334 900.092 290.422C897.554 291.51 894.782 292.054 891.777 292.054ZM895.118 282.728C897.502 282.728 899.471 282.261 901.025 281.329C902.631 280.396 903.849 279.075 904.677 277.365C905.506 275.656 905.921 273.583 905.921 271.148V270.293C905.921 268.428 905.688 266.796 905.221 265.397C904.755 263.946 904.056 262.729 903.123 261.745C902.191 260.708 901.051 259.931 899.704 259.413C898.357 258.895 896.802 258.636 895.041 258.636C892.657 258.636 890.663 259.076 889.057 259.957C887.45 260.838 886.259 262.133 885.482 263.843C884.705 265.501 884.316 267.547 884.316 269.982V271.381C884.316 273.816 884.705 275.889 885.482 277.599C886.311 279.256 887.502 280.526 889.057 281.407C890.663 282.287 892.683 282.728 895.118 282.728ZM944.425 292.054C941.472 292.054 938.675 291.769 936.032 291.199C933.442 290.681 931.162 289.904 929.193 288.867C927.224 287.831 925.67 286.536 924.53 284.982C923.442 283.375 922.898 281.51 922.898 279.386C922.898 279.179 922.898 278.972 922.898 278.764C922.95 278.557 923.002 278.376 923.054 278.22H934.711C934.659 278.324 934.633 278.453 934.633 278.609C934.633 278.712 934.633 278.816 934.633 278.92C934.685 280.163 935.177 281.173 936.11 281.951C937.042 282.676 938.26 283.22 939.763 283.583C941.265 283.894 942.871 284.049 944.581 284.049C946.135 284.049 947.664 283.945 949.166 283.738C950.72 283.531 951.99 283.142 952.974 282.572C953.959 281.951 954.451 281.044 954.451 279.852C954.451 278.609 953.855 277.702 952.663 277.132C951.472 276.511 949.814 276.018 947.69 275.656C945.617 275.293 943.234 274.904 940.54 274.49C938.364 274.075 936.291 273.609 934.322 273.091C932.405 272.521 930.67 271.796 929.115 270.915C927.613 269.982 926.395 268.791 925.463 267.34C924.582 265.889 924.142 264.102 924.142 261.978C924.142 259.75 924.66 257.833 925.696 256.227C926.732 254.621 928.183 253.299 930.048 252.263C931.913 251.227 934.115 250.476 936.654 250.009C939.193 249.491 941.99 249.232 945.047 249.232C947.793 249.232 950.358 249.491 952.741 250.009C955.124 250.476 957.223 251.201 959.036 252.185C960.849 253.118 962.274 254.31 963.31 255.76C964.347 257.211 964.865 258.869 964.865 260.734C964.865 260.993 964.865 261.252 964.865 261.511C964.865 261.77 964.839 261.952 964.787 262.055H953.207V261.589C953.207 260.605 952.819 259.802 952.042 259.18C951.264 258.558 950.254 258.092 949.011 257.781C947.767 257.418 946.368 257.237 944.814 257.237C944.037 257.237 943.13 257.289 942.094 257.392C941.058 257.496 940.047 257.677 939.063 257.936C938.131 258.196 937.327 258.558 936.654 259.024C936.032 259.439 935.721 260.035 935.721 260.812C935.721 261.796 936.265 262.548 937.353 263.066C938.441 263.584 939.84 263.998 941.55 264.309C943.312 264.62 945.229 264.957 947.301 265.319C949.632 265.734 951.912 266.174 954.14 266.641C956.368 267.107 958.363 267.78 960.124 268.661C961.937 269.542 963.388 270.76 964.476 272.314C965.564 273.816 966.108 275.863 966.108 278.453C966.108 280.992 965.564 283.142 964.476 284.904C963.44 286.614 961.963 288.012 960.046 289.1C958.129 290.137 955.85 290.888 953.207 291.354C950.565 291.821 947.638 292.054 944.425 292.054Z" fill="white"/>
</g>
</g>
</g>
<rect x="161.751" y="145" width="933.556" height="245" rx="122.5" stroke="url(#paint1_linear_62_188)" stroke-width="2" stroke-linecap="round" stroke-linejoin="round" stroke-dasharray="4 8"/>
<rect x="161.751" y="145" width="933.556" height="245" rx="122.5" stroke="url(#paint2_linear_62_188)" stroke-width="2" stroke-linecap="round" stroke-linejoin="round" stroke-dasharray="4 8"/>
<rect x="86.3118" y="75" width="1085.38" height="384" rx="192" stroke="url(#paint3_linear_62_188)" stroke-width="1.5" stroke-linecap="round" stroke-linejoin="round" stroke-dasharray="4 10"/>
<rect x="86.3118" y="75" width="1085.38" height="384" rx="192" stroke="url(#paint4_linear_62_188)" stroke-width="1.5" stroke-linecap="round" stroke-linejoin="round" stroke-dasharray="4 10"/>
<rect x="0.5" y="1" width="1257" height="532" rx="266" stroke="url(#paint5_linear_62_188)" stroke-linecap="round" stroke-linejoin="round" stroke-dasharray="6 12"/>
<rect x="0.5" y="1" width="1257" height="532" rx="266" stroke="url(#paint6_linear_62_188)" stroke-linecap="round" stroke-linejoin="round" stroke-dasharray="6 12"/>
<path d="M277.286 294.984C269.687 294.984 263.319 293.891 258.18 291.704C253.041 289.463 249.187 286.183 246.618 281.864C244.049 277.491 242.764 272.133 242.764 265.792C242.764 256.499 245.716 249.337 251.62 244.308C257.524 239.224 266.052 236.682 277.204 236.682C283.545 236.682 289.121 237.584 293.932 239.388C298.797 241.192 302.569 243.789 305.248 247.178C307.981 250.567 309.348 254.667 309.348 259.478H297.13C297.13 256.745 296.283 254.476 294.588 252.672C292.893 250.813 290.543 249.419 287.536 248.49C284.529 247.561 281.003 247.096 276.958 247.096C272.585 247.096 268.785 247.807 265.56 249.228C262.389 250.595 259.929 252.59 258.18 255.214C256.431 257.838 255.556 261.009 255.556 264.726V266.776C255.556 270.548 256.431 273.773 258.18 276.452C259.929 279.076 262.417 281.099 265.642 282.52C268.867 283.887 272.667 284.57 277.04 284.57C281.249 284.57 284.857 284.133 287.864 283.258C290.925 282.329 293.276 280.962 294.916 279.158C296.611 277.299 297.458 275.031 297.458 272.352H309.43C309.43 277.053 308.091 281.099 305.412 284.488C302.733 287.877 298.989 290.474 294.178 292.278C289.367 294.082 283.737 294.984 277.286 294.984ZM334.546 294.984C328.532 294.984 323.968 293.563 320.852 290.72C317.79 287.877 316.26 283.477 316.26 277.518V250.786H327.576V275.55C327.576 277.409 327.822 278.994 328.314 280.306C328.86 281.563 329.598 282.575 330.528 283.34C331.512 284.105 332.66 284.652 333.972 284.98C335.338 285.308 336.842 285.472 338.482 285.472C340.887 285.472 343.128 284.98 345.206 283.996C347.338 283.012 349.06 281.645 350.372 279.896C351.684 278.147 352.34 276.097 352.34 273.746V250.786H363.656V294H354.554L353.734 286.62H352.996C351.465 288.752 349.661 290.419 347.584 291.622C345.561 292.825 343.429 293.672 341.188 294.164C338.946 294.711 336.732 294.984 334.546 294.984ZM371.185 294V250.786H380.287L381.107 258.412H381.763C382.364 256.881 383.239 255.46 384.387 254.148C385.535 252.836 386.956 251.797 388.651 251.032C390.4 250.212 392.368 249.802 394.555 249.802C395.539 249.802 396.496 249.884 397.425 250.048C398.409 250.157 399.284 250.349 400.049 250.622V260.544H394.391C392.204 260.544 390.346 260.927 388.815 261.692C387.339 262.403 386.136 263.387 385.207 264.644C384.278 265.901 383.594 267.295 383.157 268.826C382.72 270.302 382.501 271.833 382.501 273.418V294H371.185ZM418.157 294.984C415.588 294.984 413.182 294.765 410.941 294.328C408.754 293.945 406.814 293.289 405.119 292.36C403.479 291.376 402.194 290.064 401.265 288.424C400.336 286.784 399.871 284.734 399.871 282.274C399.871 278.775 400.828 276.042 402.741 274.074C404.654 272.106 407.36 270.685 410.859 269.81C414.358 268.935 418.43 268.389 423.077 268.17C427.778 267.951 432.862 267.842 438.329 267.842V266.038C438.329 264.179 437.864 262.703 436.935 261.61C436.06 260.517 434.666 259.751 432.753 259.314C430.894 258.822 428.434 258.576 425.373 258.576C422.913 258.576 420.754 258.74 418.895 259.068C417.036 259.396 415.588 259.888 414.549 260.544C413.51 261.2 412.991 262.02 412.991 263.004V263.988H401.675C401.62 263.769 401.566 263.551 401.511 263.332C401.511 263.113 401.511 262.867 401.511 262.594C401.511 260.025 402.44 257.783 404.299 255.87C406.158 253.957 408.918 252.481 412.581 251.442C416.244 250.349 420.808 249.802 426.275 249.802C431.359 249.802 435.623 250.267 439.067 251.196C442.566 252.125 445.19 253.656 446.939 255.788C448.743 257.92 449.645 260.79 449.645 264.398V283.012C449.645 284.051 449.836 284.843 450.219 285.39C450.656 285.937 451.394 286.21 452.433 286.21H456.615V293.59C456.068 293.809 455.057 294.082 453.581 294.41C452.16 294.793 450.574 294.984 448.825 294.984C446.42 294.984 444.534 294.683 443.167 294.082C441.855 293.481 440.898 292.661 440.297 291.622C439.75 290.583 439.368 289.435 439.149 288.178H438.493C436.962 289.599 435.131 290.829 432.999 291.868C430.867 292.907 428.544 293.672 426.029 294.164C423.514 294.711 420.89 294.984 418.157 294.984ZM420.945 286.21C422.694 286.21 424.553 286.019 426.521 285.636C428.544 285.253 430.457 284.707 432.261 283.996C434.065 283.231 435.514 282.301 436.607 281.208C437.755 280.06 438.329 278.748 438.329 277.272V275.058C432.206 275.058 427.122 275.277 423.077 275.714C419.086 276.097 416.107 276.78 414.139 277.764C412.171 278.748 411.187 280.142 411.187 281.946C411.187 283.149 411.652 284.051 412.581 284.652C413.565 285.253 414.795 285.663 416.271 285.882C417.802 286.101 419.36 286.21 420.945 286.21ZM476.07 294.984C472.899 294.984 470.33 294.547 468.362 293.672C466.394 292.797 464.945 291.349 464.016 289.326C463.141 287.249 462.704 284.433 462.704 280.88V259.56H454.422V250.786H463.032L465.328 238.158H474.02V250.786H485.746V259.56H474.02V280.06C474.02 282.083 474.375 283.613 475.086 284.652C475.851 285.691 477.519 286.21 480.088 286.21H485.746V293.59C484.981 293.863 483.997 294.109 482.794 294.328C481.646 294.547 480.471 294.711 479.268 294.82C478.065 294.929 476.999 294.984 476.07 294.984ZM516.35 294.984C510.774 294.984 505.963 294.191 501.918 292.606C497.927 290.966 494.839 288.479 492.652 285.144C490.465 281.809 489.372 277.573 489.372 272.434C489.372 267.405 490.438 263.223 492.57 259.888C494.702 256.499 497.763 253.984 501.754 252.344C505.745 250.649 510.473 249.802 515.94 249.802C521.68 249.802 526.491 250.649 530.372 252.344C534.308 253.984 537.26 256.417 539.228 259.642C541.196 262.813 542.18 266.694 542.18 271.286V275.222H501.262C501.426 277.901 502.137 280.06 503.394 281.7C504.706 283.285 506.483 284.433 508.724 285.144C511.02 285.855 513.671 286.21 516.678 286.21C517.881 286.21 519.22 286.073 520.696 285.8C522.227 285.527 523.675 285.117 525.042 284.57C526.463 284.023 527.666 283.313 528.65 282.438C529.634 281.509 530.208 280.388 530.372 279.076H541.852C541.852 281.263 541.278 283.34 540.13 285.308C539.037 287.221 537.397 288.916 535.21 290.392C533.023 291.813 530.345 292.934 527.174 293.754C524.003 294.574 520.395 294.984 516.35 294.984ZM501.262 267.678H530.208C530.208 266.093 529.825 264.726 529.06 263.578C528.349 262.43 527.338 261.501 526.026 260.79C524.714 260.025 523.211 259.478 521.516 259.15C519.821 258.767 518.017 258.576 516.104 258.576C513.316 258.576 510.829 258.931 508.642 259.642C506.51 260.298 504.815 261.309 503.558 262.676C502.301 264.043 501.535 265.71 501.262 267.678ZM568.431 294.984C563.949 294.984 560.04 294.164 556.705 292.524C553.425 290.884 550.856 288.397 548.997 285.062C547.193 281.673 546.291 277.463 546.291 272.434C546.291 267.295 547.193 263.059 548.997 259.724C550.801 256.389 553.289 253.902 556.459 252.262C559.685 250.622 563.429 249.802 567.693 249.802C569.989 249.802 572.176 250.048 574.253 250.54C576.331 251.032 578.217 251.77 579.911 252.754C581.606 253.683 583.055 254.859 584.257 256.28H584.831V234.632H596.147V294H587.045L586.061 287.194H585.405C583.383 290.037 580.923 292.059 578.025 293.262C575.128 294.41 571.93 294.984 568.431 294.984ZM571.301 285.472C574.144 285.472 576.577 284.98 578.599 283.996C580.622 283.012 582.18 281.591 583.273 279.732C584.367 277.819 584.913 275.495 584.913 272.762V272.106C584.913 270.029 584.585 268.197 583.929 266.612C583.328 265.027 582.426 263.715 581.223 262.676C580.021 261.583 578.572 260.763 576.877 260.216C575.183 259.615 573.269 259.314 571.137 259.314C568.404 259.314 566.026 259.806 564.003 260.79C562.035 261.774 560.505 263.195 559.411 265.054C558.373 266.858 557.853 269.099 557.853 271.778V273.008C557.853 275.687 558.4 277.955 559.493 279.814C560.587 281.673 562.117 283.094 564.085 284.078C566.108 285.007 568.513 285.472 571.301 285.472Z" fill="url(#paint7_linear_62_188)"/>
<defs>
<filter id="filter0_i_62_188" x="637.617" y="175.797" width="411.19" height="167.921" filterUnits="userSpaceOnUse" color-interpolation-filters="sRGB">
<feFlood flood-opacity="0" result="BackgroundImageFix"/>
<feBlend mode="normal" in="SourceGraphic" in2="BackgroundImageFix" result="shape"/>
<feColorMatrix in="SourceAlpha" type="matrix" values="0 0 0 0 0 0 0 0 0 0 0 0 0 0 0 0 0 0 127 0" result="hardAlpha"/>
<feOffset dy="-14"/>
<feGaussianBlur stdDeviation="16"/>
<feComposite in2="hardAlpha" operator="arithmetic" k2="-1" k3="1"/>
<feColorMatrix type="matrix" values="0 0 0 0 1 0 0 0 0 1 0 0 0 0 1 0 0 0 0.45 0"/>
<feBlend mode="normal" in2="shape" result="effect1_innerShadow_62_188"/>
</filter>
<linearGradient id="paint0_linear_62_188" x1="841.919" y1="189.797" x2="841.919" y2="343.719" gradientUnits="userSpaceOnUse">
<stop stop-color="#A8E9FD"/>
<stop offset="1" stop-color="#7779EC"/>
</linearGradient>
<linearGradient id="paint1_linear_62_188" x1="161.751" y1="87.8332" x2="1140.5" y2="174.957" gradientUnits="userSpaceOnUse">
<stop offset="0.11632" stop-color="#2698EA"/>
<stop offset="0.527778" stop-color="#FFB176"/>
<stop offset="0.983091" stop-color="#ED5158"/>
</linearGradient>
<linearGradient id="paint2_linear_62_188" x1="628.529" y1="145" x2="628.529" y2="390" gradientUnits="userSpaceOnUse">
<stop stop-color="#5A82F6"/>
<stop offset="1" stop-color="white" stop-opacity="0"/>
</linearGradient>
<linearGradient id="paint3_linear_62_188" x1="86.3118" y1="-14.6002" x2="1228.27" y2="60.8034" gradientUnits="userSpaceOnUse">
<stop offset="0.11632" stop-color="#2698EA"/>
<stop offset="0.527778" stop-color="#FFB176"/>
<stop offset="0.983091" stop-color="#ED5158"/>
</linearGradient>
<linearGradient id="paint4_linear_62_188" x1="629" y1="75" x2="629" y2="459" gradientUnits="userSpaceOnUse">
<stop stop-color="#5A82F6"/>
<stop offset="1" stop-color="white" stop-opacity="0"/>
</linearGradient>
<linearGradient id="paint5_linear_62_188" x1="0.500018" y1="-123.134" x2="1324.76" y2="-50.0383" gradientUnits="userSpaceOnUse">
<stop offset="0.11632" stop-color="#2698EA"/>
<stop offset="0.527778" stop-color="#FFB176"/>
<stop offset="0.983091" stop-color="#ED5158"/>
</linearGradient>
<linearGradient id="paint6_linear_62_188" x1="629" y1="1" x2="629" y2="533" gradientUnits="userSpaceOnUse">
<stop stop-color="#5A82F6"/>
<stop offset="1" stop-color="white" stop-opacity="0"/>
</linearGradient>
<linearGradient id="paint7_linear_62_188" x1="261.283" y1="111.375" x2="395.598" y2="355.095" gradientUnits="userSpaceOnUse">
<stop stop-color="#4368EA"/>
<stop offset="1" stop-color="#C490DD"/>
</linearGradient>
<clipPath id="clip0_62_188">
<rect x="637.617" y="189.797" width="411.19" height="153.921" rx="76.9607" fill="white"/>
</clipPath>
<clipPath id="clip1_62_188">
<rect width="359.858" height="787.295" fill="white" transform="translate(662.959 226.121)"/>
</clipPath>
</defs>
</svg>
