<svg width="146" height="49" viewBox="0 0 146 49" fill="none" xmlns="http://www.w3.org/2000/svg">
<path
    d="M23.6988 48.1071C36.7873 48.1071 47.3977 37.4968 47.3977 24.4083C47.3977 11.3198 36.7873 0.709442 23.6988 0.709442C10.6103 0.709442 0 11.3198 0 24.4083C0 37.4968 10.6103 48.1071 23.6988 48.1071Z"
    fill="url(#paint0_linear_13_3846)"
  />
<path
    fill-rule="evenodd"
    clip-rule="evenodd"
    d="M23.184 12.1649C22.983 12.2404 22.6833 12.5933 22.4459 12.8568C22.2683 13.0537 21.7863 13.6868 22.2153 13.7333C22.4248 13.756 22.4949 13.3973 22.6305 13.2259C23.0158 12.7382 23.5794 12.3379 24.1989 12.6262C24.6283 12.8261 24.6677 13.5025 25.3061 13.4565C25.3207 13.1177 25.131 12.9306 24.9832 12.7646C24.6406 12.3798 23.8823 11.9025 23.184 12.1649Z"
    fill="#221F20"
  />
<path
    fill-rule="evenodd"
    clip-rule="evenodd"
    d="M20.1392 5.93712C20.0999 6.28195 19.8881 6.9299 20.3698 6.99814C20.5624 6.7721 20.4671 6.41323 20.5082 6.07551C20.6266 5.10176 20.8184 3.91291 21.154 3.16924C21.2217 3.57769 21.367 4.23218 21.4308 4.8761C21.4691 5.26264 21.3203 5.89695 21.7999 5.93712C22.0394 5.7747 21.892 5.37778 21.846 5.01449C21.8043 4.68581 21.802 4.2837 21.7536 3.95347C21.7142 3.6838 21.6682 3.36088 21.5771 3.09735C21.2686 3.12676 20.962 3.16251 20.6572 3.20422C20.379 3.99653 20.238 5.06601 20.1392 5.93712Z"
    fill="#221F20"
  />
<path
    fill-rule="evenodd"
    clip-rule="evenodd"
    d="M9.39063 37.0758C9.18093 38.0347 8.92279 38.9493 8.69866 39.8898C8.51126 40.6763 8.2831 41.4602 8.02515 42.2337C8.14355 42.3469 8.2633 42.4584 8.3842 42.5689C8.60063 41.8781 8.8015 41.1688 8.97564 40.4434C9.42946 38.552 10.1043 36.5841 10.2212 34.3081C10.306 32.6541 10.3183 30.9407 10.3596 29.1414C10.5168 29.2256 10.5678 29.4478 10.6364 29.6027C10.8401 30.0621 11.0335 30.6697 11.2822 31.1712C11.5901 31.7918 12.0455 32.3831 12.4816 32.9703C12.9057 33.5412 13.3026 34.1291 13.7733 34.631C14.2325 35.1206 14.8074 35.5855 15.3418 36.015C15.6176 36.2366 15.895 36.4557 16.1721 36.6608C17.0181 37.2864 17.9549 37.7956 18.9861 38.2754C19.6658 38.5916 20.3668 38.7896 21.1543 39.0596C21.9201 39.3222 22.6128 39.6359 23.4148 39.7516C25.0982 39.9944 27.1108 39.85 28.489 39.5671C29.8587 39.2859 31.3449 38.9872 32.641 38.5522C32.9138 38.4605 33.1877 38.3108 33.4712 38.2293C33.771 38.1432 34.0703 38.1168 34.3477 37.9986C34.7667 37.82 35.1823 37.5648 35.593 37.3528C36.0215 37.1319 36.4676 36.9474 36.8388 36.7071C37.6032 36.212 38.1779 35.5369 38.9147 35.0003C39.3689 36.0647 39.8502 37.1448 40.3448 38.2295C40.6673 38.9368 40.9372 39.6736 41.1959 40.4274C41.3016 40.3019 41.4058 40.1752 41.5088 40.0472C40.8409 38.1733 40.0668 36.4134 39.2374 34.7233C40.6677 32.7544 42.8374 31.1321 42.5127 27.8958C42.4359 27.1278 42.1518 26.1452 41.8208 25.4509C41.6791 25.1533 41.4315 24.9386 41.2211 24.6666C41.0258 24.4145 40.8962 24.121 40.7136 23.9285C40.1846 23.3713 39.4046 22.9502 38.6377 22.5905C37.8617 22.2269 37.0446 21.8817 36.2389 21.5297C35.4101 21.1674 34.5601 20.9229 33.7939 20.561C32.3477 19.8776 31.3849 18.9879 30.4261 17.8392C30.0258 17.3593 29.639 16.8349 29.2729 16.3169C28.533 15.2701 27.8017 14.2075 27.0587 13.2261C26.3785 12.3275 25.6925 11.1607 24.9367 10.043C24.5381 9.45349 23.9357 8.78151 23.4603 8.19776C23.2235 7.90656 22.6907 7.27283 22.6301 6.99834C22.5298 6.54491 22.6509 6.04535 22.6301 5.56827C22.5909 4.67794 22.5246 3.83335 22.4135 3.03336C22.2557 3.04258 22.0983 3.05258 21.9412 3.06507C22.0162 3.59693 22.0714 4.13955 22.1225 4.8763C22.1517 5.29802 22.3768 6.08591 22.2148 6.44477C22.057 6.79441 22.0289 6.13684 21.7073 6.44477C21.6964 6.91877 22.1692 7.12194 22.4454 7.45966C22.6403 7.698 22.7883 7.98575 22.999 8.24389C23.562 8.93413 24.214 9.67492 24.7059 10.4582C25.7019 12.0443 26.7612 13.5926 27.8889 15.1175C28.0759 15.3702 28.3056 15.6018 28.4886 15.8556C29.0214 16.594 29.5337 17.4035 30.1495 18.116C30.5507 18.5802 30.9103 19.119 31.3488 19.4999C32.1726 20.2155 33.2054 20.8326 34.3012 21.2529C34.7834 21.4378 35.3376 21.5978 35.8696 21.8065C36.6491 22.1121 37.4527 22.5204 38.2223 22.8675C39.0256 23.2298 39.7956 23.627 40.3444 24.1592C40.5702 24.3783 40.7469 24.7274 40.99 25.0357C41.6111 25.8224 42.0687 26.9951 42.1433 28.311C42.2327 29.8887 41.5634 31.0061 40.8978 32.0015C40.0732 33.2344 39.219 34.1115 38.176 35.0923C37.8233 35.4241 37.4885 35.7928 37.1148 36.0611C36.3411 36.6174 35.4377 37.0089 34.4853 37.445C33.571 37.8641 32.528 38.1564 31.4868 38.5059C30.9805 38.676 30.419 38.8109 29.8722 38.921C28.5576 39.1861 27.0395 39.4852 25.5358 39.5207C25.0555 39.5323 24.6009 39.5132 24.1058 39.4748C23.1245 39.3983 22.1237 38.9824 21.1534 38.6444C20.1729 38.3029 19.2032 38.0061 18.4316 37.5832C16.7499 36.6619 15.3595 35.63 14.0953 34.354C13.4419 33.6946 12.9791 32.9524 12.4345 32.232C11.8589 31.4704 11.5423 30.6422 11.1429 29.7409C10.557 28.4194 10.1789 27.0184 9.89731 25.3123C9.75084 24.4248 9.60457 23.7008 9.57439 22.6367C9.56766 22.3972 9.6211 22.1162 9.62052 21.8986C9.61437 19.3487 9.38352 16.7226 9.85118 14.1485C9.98707 13.9363 9.91653 14.6865 10.3125 14.5176C10.502 14.1105 10.1891 13.6957 10.128 13.3181C10.0392 12.7709 10.0861 12.1276 10.0357 11.519C9.92557 10.1887 9.9617 8.81419 10.1303 7.52097C9.98169 7.63207 9.83465 7.7451 9.68895 7.85985C9.48847 9.58497 9.47925 11.4158 9.71279 13.0414C9.37353 13.6145 9.32547 14.5335 9.25147 15.3941C9.08175 17.3667 9.14133 18.9802 9.15921 20.653C9.17324 21.9747 9.11827 23.2364 9.2976 24.4358C9.38025 24.9882 9.4656 25.5466 9.57439 26.0965C9.67992 26.6301 9.88539 27.1727 9.94344 27.7111C10.0559 28.7552 9.92384 29.8578 9.89731 30.9403C9.8458 33.0693 9.80024 35.2034 9.39063 37.0758Z"
    fill="#221F20"
  />
<path
    fill-rule="evenodd"
    clip-rule="evenodd"
    d="M13.4042 7.04428C13.529 7.42121 13.7039 7.78988 13.8194 8.15143C13.9291 8.49511 13.8771 9.01351 14.2807 9.16632C14.6492 9.05868 14.3274 8.57738 14.3268 8.28982C15.1653 7.51367 16.4458 7.1796 17.6944 6.81362C17.9614 6.8388 17.7267 7.36566 18.0635 7.32107C18.3535 7.20574 18.254 6.85649 18.2941 6.6291C18.4585 5.70109 18.7543 4.53608 19.1226 3.46622C18.9728 3.49716 18.8239 3.52965 18.6753 3.56367C18.3472 4.53454 18.0729 5.55981 17.9249 6.35231C16.4483 6.61333 15.2689 7.17152 14.1421 7.78238C13.9612 7.29185 13.7998 6.8117 13.6347 6.30618C13.5493 6.04496 13.4811 5.76452 13.405 5.47889C13.2635 5.55116 13.1234 5.62574 12.9836 5.7009C13.1215 6.1378 13.2543 6.59104 13.4042 7.04428Z"
    fill="#221F20"
  />
<path
    fill-rule="evenodd"
    clip-rule="evenodd"
    d="M12.2509 8.28983C12.4431 8.80189 12.6542 9.33029 12.7584 9.8583C12.8197 10.1695 12.723 10.6575 13.1274 10.7809C13.4367 10.538 13.2193 9.99093 13.1274 9.58151C13.0388 9.18574 12.9016 8.73481 12.7584 8.33597C12.5836 7.84909 12.2148 6.696 11.661 6.47226C11.4865 6.58182 11.3135 6.6935 11.1424 6.80767C10.8668 7.88965 10.9423 9.36835 11.0054 10.5964C11.0315 11.1067 11.0081 12.0086 11.5128 12.0265C11.6226 11.5817 11.4465 11.0037 11.4205 10.4119C11.3656 9.16383 11.2941 7.88926 11.5589 6.90589C11.8857 7.24458 12.061 7.78374 12.2509 8.28983Z"
    fill="#221F20"
  />
<path
    fill-rule="evenodd"
    clip-rule="evenodd"
    d="M9.85204 42.2425C9.76689 42.6922 9.68789 43.1522 9.61523 43.6187C9.75113 43.7265 9.88856 43.8328 10.027 43.9378C10.232 42.6951 10.4881 41.5088 10.6824 40.3051C10.7514 39.8771 10.8594 39.449 10.9131 39.0135C10.9573 38.655 11.0982 38.1917 10.8669 37.8602C10.3672 37.9284 10.5317 38.575 10.4979 38.8751C10.3691 40.0176 10.0671 41.1063 9.85204 42.2425Z"
    fill="#221F20"
  />
<path
    fill-rule="evenodd"
    clip-rule="evenodd"
    d="M17.925 13.5488C17.4606 13.7669 16.9065 14.4414 16.7256 14.9789C16.6506 15.2016 16.5019 15.7221 16.864 15.7631C17.248 14.7809 17.776 13.6818 19.1244 13.7794C19.3403 13.795 19.4552 13.9788 19.7241 13.8717C19.6511 13.1167 18.3412 13.3533 17.925 13.5488Z"
    fill="#221F20"
  />
<path
    fill-rule="evenodd"
    clip-rule="evenodd"
    d="M24.5678 18.6694C24.4298 20.3989 25.1345 21.7087 26.0902 22.3137C26.622 22.6505 27.3717 22.8343 28.0277 22.6367C28.5301 22.4852 28.9774 21.9835 29.181 21.6218C30.1465 19.9045 29.4812 17.4259 28.2583 16.5473C27.8931 16.285 27.0608 15.9822 26.5974 16.0399C26.3364 16.0724 26.0583 16.1487 25.8593 16.2705C25.7807 16.3186 25.8074 16.3745 25.7209 16.4551C25.6558 16.5156 25.5479 16.5014 25.4903 16.5473C25.032 16.9123 24.9907 17.1182 24.7983 17.7006C24.6908 18.0262 24.593 18.3524 24.5678 18.6694ZM24.9832 18.6694C25.0534 18.0364 25.4095 17.4369 25.7672 17.0086C25.9262 16.8185 26.0408 16.615 26.1824 16.5473C27.3317 15.9993 28.6076 17.2877 28.9503 18.1158C29.1123 18.5073 29.1462 18.9879 29.2271 19.4075C28.9718 19.2804 28.8938 19.0073 28.6735 18.9C27.758 18.4535 26.7039 19.1036 26.367 19.8688C26.2791 21.0432 26.641 22.0156 27.6588 22.2215C27.1639 22.3941 26.5832 22.1594 26.2287 21.8986C25.3674 21.2652 24.8369 19.9847 24.9832 18.6694Z"
    fill="#221F20"
  />
<path
    fill-rule="evenodd"
    clip-rule="evenodd"
    d="M40.3448 38.2291C39.8503 37.1444 39.369 36.0644 38.9148 34.9999C38.178 35.5366 37.6035 36.2116 36.8389 36.7068C36.4677 36.947 36.0218 37.1315 35.5931 37.3524C35.1822 37.5646 34.7666 37.8199 34.3478 37.9982C34.0704 38.1165 33.7711 38.1428 33.4713 38.2289C33.1876 38.3104 32.9138 38.4601 32.6411 38.5518C31.3452 38.987 29.8588 39.2855 28.4891 39.5667C27.1107 39.8496 25.098 39.994 23.4148 39.7512C22.6129 39.6355 21.9202 39.322 21.1544 39.0593C20.3669 38.7892 19.6659 38.591 18.9862 38.275C17.955 37.7953 17.0181 37.2861 16.1722 36.6604C15.8948 36.4553 15.6177 36.2362 15.3418 36.0146C14.8075 35.5852 14.2326 35.1202 13.7734 34.6307C13.3026 34.129 12.9057 33.541 12.4817 32.9699C12.0456 32.3827 11.5902 31.7915 11.2823 31.1708C11.0336 30.6695 10.84 30.0617 10.6364 29.6023C10.5678 29.4474 10.5169 29.2252 10.3597 29.141C10.3183 30.9403 10.3062 32.6537 10.2213 34.3077C10.1044 36.5837 9.42954 38.5518 8.97572 40.443C8.80157 41.1684 8.60071 41.8777 8.38428 42.5685C8.78197 42.9328 9.19254 43.2828 9.61522 43.6184C9.68768 43.1521 9.76687 42.6919 9.85202 42.2421C10.0671 41.106 10.3691 40.0173 10.4979 38.8745C10.5317 38.5743 10.3672 37.9279 10.8669 37.8597C11.0981 38.1912 10.9573 38.6545 10.913 39.0129C10.8594 39.4485 10.7516 39.8764 10.6824 40.3046C10.4881 41.5083 10.2318 42.6946 10.0269 43.9373C13.8458 46.8291 18.6041 48.5458 23.7637 48.5458C30.7597 48.5458 37.0178 45.3906 41.196 40.4267C40.9372 39.6732 40.6674 38.9364 40.3448 38.2291Z"
    fill="white"
  />
<path
    fill-rule="evenodd"
    clip-rule="evenodd"
    d="M10.0364 11.519C10.0867 12.1276 10.0398 12.7709 10.1286 13.3182C10.1898 13.6955 10.5027 14.1105 10.3132 14.5176C9.9172 14.6865 9.98774 13.9363 9.85184 14.1485C9.38419 16.7227 9.61504 19.3487 9.62119 21.8986C9.62157 22.1162 9.56833 22.3972 9.57506 22.6367C9.60523 23.7008 9.75151 24.4249 9.89797 25.3123C10.1796 27.0182 10.5577 28.4195 11.1435 29.7409C11.5431 30.6424 11.8597 31.4705 12.4352 32.232C12.9797 32.9524 13.4426 33.6946 14.0959 34.3541C15.3601 35.63 16.7506 36.662 18.4323 37.5833C19.2038 38.0059 20.1735 38.3027 21.154 38.6445C22.1241 38.9824 23.125 39.3985 24.1064 39.4748C24.6016 39.5133 25.0562 39.5323 25.5365 39.5208C27.04 39.485 28.5583 39.1861 29.8728 38.9211C30.4199 38.8109 30.9813 38.676 31.4874 38.5059C32.5287 38.1564 33.5716 37.8639 34.486 37.4451C35.4384 37.0087 36.3416 36.6172 37.1155 36.0611C37.4889 35.7928 37.824 35.4241 38.1767 35.0924C39.2196 34.1117 40.0738 33.2346 40.8984 32.0016C41.5641 31.0061 42.2332 29.8885 42.144 28.311C42.0694 26.9951 41.6117 25.8225 40.9907 25.0357C40.7473 24.7274 40.5707 24.3783 40.345 24.1592C39.7963 23.627 39.0263 23.2299 38.223 22.8675C37.4534 22.5204 36.6495 22.1121 35.8703 21.8065C35.3383 21.5978 34.7841 21.4379 34.3018 21.2529C33.206 20.8328 32.1733 20.2158 31.3494 19.5C30.911 19.1188 30.5514 18.5802 30.1502 18.116C29.5344 17.4033 29.0223 16.5939 28.4893 15.8556C28.3063 15.6019 28.0766 15.3702 27.8896 15.1175C26.7621 13.5927 25.7026 12.0444 24.7065 10.4582C24.2146 9.67495 23.5627 8.93415 22.9997 8.24391C22.789 7.98577 22.641 7.69803 22.4461 7.45968C22.1699 7.12196 21.697 6.91879 21.708 6.44479C22.0296 6.13686 22.0574 6.79443 22.2154 6.44479C22.3775 6.08593 22.1524 5.29824 22.1232 4.87633C22.072 4.13957 22.0169 3.59714 21.9419 3.06509C21.8202 3.0747 21.6989 3.08585 21.5777 3.09739C21.6688 3.36091 21.7147 3.68383 21.7541 3.95351C21.8026 4.28373 21.8049 4.68584 21.8466 5.01453C21.8925 5.37781 22.0399 5.77493 21.8004 5.93715C21.3209 5.89698 21.4696 5.26268 21.4314 4.87613C21.3676 4.23202 21.2223 3.57754 21.1546 3.16927C20.819 3.91295 20.6272 5.10179 20.5088 6.07555C20.4676 6.41327 20.563 6.77213 20.3704 6.99817C19.8889 6.92994 20.1005 6.28199 20.1397 5.93715C20.2385 5.06604 20.3796 3.99656 20.6577 3.20406C20.1405 3.27461 19.6284 3.36149 19.1229 3.46605C18.7546 4.53592 18.4586 5.70092 18.2945 6.62893C18.2543 6.85651 18.3538 7.20557 18.0638 7.3209C17.727 7.3655 17.9617 6.83864 17.6947 6.81346C16.4461 7.17943 15.1656 7.5135 14.3272 8.28966C14.3275 8.57721 14.6495 9.05871 14.281 9.16616C13.8774 9.01354 13.9295 8.49494 13.8197 8.15127C13.7042 7.78971 13.5293 7.42105 13.4045 7.04411C13.2544 6.59087 13.1216 6.13763 12.9842 5.70073C12.5338 5.94311 12.0929 6.20087 11.6613 6.47209C12.2151 6.69582 12.584 7.84891 12.7587 8.33579C12.9019 8.73463 13.0389 9.18557 13.1277 9.58134C13.2196 9.99075 13.437 10.5376 13.1277 10.7808C12.7233 10.6574 12.82 10.1693 12.7587 9.85813C12.6545 9.33011 12.4437 8.80172 12.2513 8.28966C12.0612 7.78375 11.886 7.2444 11.5593 6.90572C11.2944 7.88909 11.3659 9.16366 11.4209 10.4117C11.4468 11.0035 11.6229 11.5815 11.5131 12.0263C11.0084 12.0084 11.0318 11.1066 11.0057 10.5962C10.9427 9.36817 10.8671 7.88947 11.1428 6.8075C10.7993 7.03662 10.4615 7.27381 10.1315 7.5208C9.96237 8.81421 9.92623 10.1887 10.0364 11.519ZM25.4904 16.5474C25.548 16.5014 25.6559 16.5158 25.721 16.4551C25.8075 16.3746 25.7808 16.3186 25.8594 16.2706C26.0584 16.1487 26.3363 16.0724 26.5975 16.0399C27.0608 15.9823 27.893 16.285 28.2584 16.5474C29.4813 17.4262 30.1466 19.9048 29.1811 21.6218C28.9775 21.9836 28.5302 22.4852 28.0278 22.6367C27.3718 22.8343 26.6221 22.6505 26.0903 22.3138C25.1346 21.7087 24.4299 20.3989 24.5679 18.6694C24.5931 18.3524 24.6909 18.0263 24.7986 17.7006C24.991 17.1182 25.0321 16.9124 25.4904 16.5474ZM22.4457 12.8569C22.6829 12.5933 22.9827 12.2404 23.1838 12.1649C23.8821 11.9025 24.6404 12.38 24.9829 12.7646C25.1305 12.9307 25.3205 13.1177 25.3058 13.4566C24.6675 13.5023 24.6283 12.8259 24.1987 12.6262C23.579 12.3379 23.0156 12.7383 22.6302 13.2259C22.4947 13.3974 22.4246 13.756 22.215 13.7333C21.7862 13.6868 22.2683 13.0537 22.4457 12.8569ZM20.093 17.7006C20.7331 17.6249 21.2909 17.9148 21.7537 18.3004C22.3125 18.7661 22.744 19.4513 22.9995 20.2379C23.1392 20.6686 23.3545 21.5522 23.2301 22.2676C23.1302 22.8414 22.479 23.8421 22.0768 24.159C21.4816 24.6282 20.454 24.9102 19.4935 24.4358C18.7621 24.0746 18.0525 23.1572 17.7405 22.3138C17.4614 21.5591 17.4497 20.2573 17.7866 19.4536C17.9389 19.0907 18.4678 18.2957 18.9399 18.0236C19.1842 17.8827 19.638 17.7545 20.093 17.7006ZM16.7254 14.9789C16.9061 14.4415 17.4604 13.7668 17.9248 13.5488C18.341 13.3533 19.6509 13.1169 19.7239 13.8717C19.455 13.9788 19.3401 13.7951 19.1242 13.7795C17.7759 13.682 17.2479 14.7809 16.8638 15.7631C16.5019 15.7222 16.6504 15.2017 16.7254 14.9789Z"
    fill="white"
  />
<path
    fill-rule="evenodd"
    clip-rule="evenodd"
    d="M41.821 25.4507C41.6794 25.1531 41.4318 24.9384 41.2213 24.6665C41.026 24.4143 40.8965 24.1208 40.7139 23.9284C40.1849 23.3711 39.4049 22.95 38.638 22.5904C37.862 22.2267 37.0449 21.8815 36.2391 21.5295C35.4103 21.1672 34.5603 20.9227 33.7942 20.5608C32.3479 19.8775 31.3851 18.9877 30.4264 17.839C30.026 17.3591 29.6393 16.8347 29.2731 16.3167C28.5333 15.2699 27.8019 14.2073 27.059 13.2259C26.3787 12.3273 25.6927 11.1606 24.9369 10.0428C24.5383 9.45331 23.9359 8.78133 23.4606 8.19757C23.2237 7.90637 22.6909 7.27264 22.6304 6.99816C22.53 6.54473 22.6511 6.04516 22.6304 5.56809C22.5758 4.32715 22.472 3.17099 22.2613 2.10824C22.1387 1.48969 22.0739 0.842508 21.8 0.309115C21.5155 0.154383 21.1282 -0.0878074 20.8313 0.0323263C20.1768 0.297197 19.8031 0.93381 19.4473 1.64692C18.8103 2.92361 18.1802 4.98472 17.925 6.35232C16.4484 6.61335 15.269 7.17154 14.1422 7.78239C13.9613 7.29186 13.7999 6.81171 13.6348 6.30619C13.4758 5.81989 13.3793 5.26804 13.1735 4.73772C13.0308 4.3704 12.7679 3.9952 12.4815 3.53831C12.2549 3.17675 12.0111 2.54648 11.5589 2.56955C11.0107 2.59742 10.4913 4.12706 10.3594 4.5532C9.61212 6.96837 9.31938 10.2983 9.71361 13.0414C9.37435 13.6145 9.3263 14.5335 9.25229 15.3941C9.08257 17.3668 9.14216 18.9802 9.16003 20.653C9.17406 21.9747 9.11909 23.2364 9.29843 24.4358C9.38108 24.9882 9.46642 25.5466 9.57521 26.0965C9.68074 26.6301 9.88622 27.1727 9.94426 27.7111C10.0423 28.6215 9.95464 29.5762 9.91293 30.5232H10.3314C10.34 30.0679 10.3487 29.6077 10.3594 29.1412C10.5167 29.2254 10.5676 29.4476 10.6362 29.6025C10.7569 29.8749 10.8746 30.1995 11.0018 30.5232H11.4866C11.3738 30.2685 11.2623 30.0083 11.1437 29.7409C10.5578 28.4194 10.1797 27.0184 9.89813 25.3123C9.75167 24.4248 9.60539 23.7008 9.57521 22.6367C9.56849 22.3972 9.62192 22.1162 9.62135 21.8986C9.61519 19.3487 9.38434 16.7226 9.852 14.1485C9.9879 13.9363 9.91735 14.6865 10.3133 14.5176C10.5028 14.1105 10.1899 13.6957 10.1288 13.3182C10.04 12.7709 10.0869 12.1276 10.0365 11.519C9.77512 8.36038 10.3285 4.94704 11.5589 2.98473C11.8164 3.20443 12.0163 3.50755 12.2047 3.8151C12.7444 4.69697 13.0162 5.87217 13.4041 7.04429C13.5289 7.42122 13.7038 7.78989 13.8193 8.15144C13.929 8.49512 13.877 9.01352 14.2806 9.16633C14.6491 9.05869 14.3273 8.57739 14.3267 8.28984C15.1652 7.51368 16.4457 7.17961 17.6943 6.81363C17.9613 6.83881 17.7266 7.36567 18.0634 7.32108C18.3534 7.20575 18.2539 6.8565 18.294 6.62911C18.5583 5.13599 19.1632 3.02894 19.8625 1.69305C20.1001 1.23905 20.7747 -0.0126519 21.431 0.539771C21.6764 0.746401 21.6662 1.44049 21.7539 1.92371C21.9392 2.94283 22.0368 3.63326 22.1229 4.87612C22.1522 5.29783 22.3772 6.08572 22.2152 6.44458C22.0574 6.79422 22.0293 6.13666 21.7078 6.44458C21.6968 6.91858 22.1696 7.12175 22.4459 7.45947C22.6408 7.69782 22.7888 7.98556 22.9994 8.2437C23.5624 8.93394 24.2144 9.67474 24.7063 10.458C25.7023 12.0442 26.7616 13.5924 27.8894 15.1173C28.0764 15.37 28.3061 15.6017 28.4891 15.8554C29.0219 16.5939 29.5341 17.4033 30.15 18.1158C30.5511 18.58 30.9108 19.1188 31.3492 19.4998C32.173 20.2154 33.2058 20.8324 34.3016 21.2527C34.7839 21.4377 35.338 21.5976 35.8701 21.8063C36.6495 22.1119 37.4531 22.5202 38.2228 22.8673C39.026 23.2297 39.796 23.6268 40.3448 24.159C40.5707 24.3781 40.7473 24.7272 40.9905 25.0355C41.6115 25.8222 42.0692 26.9949 42.1437 28.3108C42.1922 29.1658 42.0169 29.8849 41.7411 30.5232H42.1824C42.4711 29.7657 42.6145 28.91 42.5128 27.8955C42.4359 27.1274 42.152 26.145 41.821 25.4507Z"
    fill="#221F20"
  />
<path
    fill-rule="evenodd"
    clip-rule="evenodd"
    d="M12.2507 8.28983C12.4429 8.80189 12.654 9.33029 12.7581 9.8583C12.8195 10.1695 12.7228 10.6575 13.1272 10.7809C13.4365 10.538 13.2191 9.99093 13.1272 9.58151C13.0386 9.18574 12.9013 8.73481 12.7581 8.33596C12.5419 7.73356 12.0289 6.1109 11.2358 6.49071C10.8497 7.58594 10.9358 9.24398 11.0052 10.5964C11.0313 11.1067 11.0078 12.0086 11.5126 12.0265C11.6224 11.5817 11.4463 11.0037 11.4203 10.4119C11.3654 9.16383 11.2939 7.88926 11.5587 6.90589C11.8855 7.24457 12.0608 7.78373 12.2507 8.28983Z"
    fill="#221F20"
  />
<path
    fill-rule="evenodd"
    clip-rule="evenodd"
    d="M21.8001 5.93713C22.0396 5.77471 21.8921 5.37779 21.8462 5.0145C21.8045 4.68582 21.8022 4.28371 21.7538 3.95348C21.6638 3.3384 21.5402 2.44499 20.9234 2.61568C20.4598 3.38338 20.2656 4.82344 20.1392 5.93713C20.0999 6.28196 19.8881 6.92992 20.3698 6.99815C20.5624 6.77211 20.4671 6.41325 20.5082 6.07553C20.6266 5.10177 20.8184 3.91293 21.154 3.16925C21.2217 3.57771 21.367 4.23219 21.4308 4.87611C21.4693 5.26265 21.3205 5.89696 21.8001 5.93713Z"
    fill="#221F20"
  />
<path
    fill-rule="evenodd"
    clip-rule="evenodd"
    d="M17.925 13.5488C17.4606 13.7669 16.9065 14.4414 16.7256 14.9789C16.6506 15.2016 16.5019 15.7221 16.864 15.7631C17.248 14.7809 17.776 13.6818 19.1244 13.7794C19.3403 13.795 19.4552 13.9788 19.7241 13.8717C19.6511 13.1167 18.3412 13.3533 17.925 13.5488Z"
    fill="#221F20"
  />
<path
    fill-rule="evenodd"
    clip-rule="evenodd"
    d="M23.184 12.1649C22.983 12.2404 22.6833 12.5933 22.4459 12.8568C22.2683 13.0537 21.7863 13.6868 22.2153 13.7333C22.4248 13.756 22.4949 13.3973 22.6305 13.2259C23.0158 12.7382 23.5794 12.3379 24.1989 12.6262C24.6283 12.8261 24.6677 13.5025 25.3061 13.4565C25.3207 13.1177 25.131 12.9306 24.9832 12.7646C24.6406 12.3798 23.8823 11.9025 23.184 12.1649Z"
    fill="#221F20"
  />
<path
    fill-rule="evenodd"
    clip-rule="evenodd"
    d="M10.6361 29.6025C10.5675 29.4476 10.5166 29.2254 10.3594 29.1412C10.3486 29.6077 10.3399 30.0678 10.3313 30.5232H11.0017C10.8745 30.1995 10.7569 29.8749 10.6361 29.6025Z"
    fill="white"
  />
<path
    fill-rule="evenodd"
    clip-rule="evenodd"
    d="M40.9905 25.0355C40.7472 24.7272 40.5706 24.3781 40.3449 24.159C39.7961 23.6268 39.0261 23.2297 38.2229 22.8673C37.4532 22.5202 36.6494 22.1119 35.8702 21.8063C35.3381 21.5976 34.784 21.4376 34.3017 21.2527C33.2059 20.8326 32.1731 20.2155 31.3493 19.4997C30.9109 19.1186 30.5512 18.58 30.1501 18.1158C29.5342 17.4031 29.0222 16.5937 28.4892 15.8554C28.3062 15.6016 28.0765 15.37 27.8894 15.1173C26.7619 13.5924 25.7024 12.0441 24.7064 10.458C24.2145 9.67473 23.5625 8.93394 22.9995 8.2437C22.7889 7.98555 22.6408 7.69781 22.4459 7.45946C22.1697 7.12174 21.6969 6.91857 21.7078 6.44457C22.0294 6.13665 22.0573 6.79421 22.2153 6.44457C22.3773 6.08571 22.1522 5.29802 22.123 4.87611C22.0369 3.63306 21.9393 2.94263 21.754 1.9237C21.6663 1.44067 21.6767 0.746393 21.4311 0.539763C20.7748 -0.0126597 20.1002 1.23904 19.8626 1.69305C19.1633 3.02893 18.5584 5.13598 18.2941 6.6291C18.2539 6.85668 18.3535 7.20574 18.0635 7.32107C17.7267 7.36566 17.9614 6.8388 17.6944 6.81362C16.4458 7.1796 15.1653 7.51367 14.3268 8.28983C14.3272 8.57738 14.6492 9.05888 14.2807 9.16632C13.877 9.01371 13.9291 8.49511 13.8194 8.15143C13.7039 7.78988 13.5289 7.42121 13.4042 7.04428C13.0161 5.87216 12.7445 4.69697 12.2048 3.81509C12.0166 3.50735 11.8165 3.20423 11.5589 2.98472C10.3284 4.94704 9.77501 8.36037 10.0366 11.519C10.087 12.1276 10.0401 12.7709 10.1289 13.3181C10.19 13.6955 10.5029 14.1104 10.3134 14.5176C9.91744 14.6865 9.98798 13.9363 9.85209 14.1485C9.38443 16.7226 9.61528 19.3487 9.62143 21.8986C9.62182 22.1162 9.56857 22.3972 9.5753 22.6367C9.60548 23.7008 9.75175 24.4248 9.89822 25.3123C10.1798 27.0182 10.5579 28.4194 11.1438 29.7409C11.2624 30.0083 11.3738 30.2685 11.4867 30.5232H41.7411C42.017 29.8847 42.1923 29.1656 42.1438 28.3108C42.0693 26.9949 41.6116 25.8222 40.9905 25.0355ZM13.1272 10.7809C12.7228 10.6575 12.8195 10.1695 12.7582 9.85829C12.654 9.33028 12.4431 8.80189 12.2507 8.28983C12.0606 7.78392 11.8855 7.24457 11.5588 6.90589C11.2939 7.88925 11.3654 9.16382 11.4204 10.4119C11.4463 11.0037 11.6224 11.5817 11.5126 12.0265C11.0079 12.0086 11.0313 11.1067 11.0052 10.5964C10.9358 9.24398 10.8497 7.58594 11.2358 6.49071C12.0289 6.11089 12.5419 7.73356 12.7582 8.33596C12.9014 8.7348 13.0384 9.18574 13.1272 9.5815C13.2191 9.99092 13.4365 10.5378 13.1272 10.7809ZM20.1392 5.93713C20.2655 4.82344 20.4598 3.38318 20.9234 2.61567C21.54 2.44499 21.6638 3.3384 21.7538 3.95348C21.8022 4.28371 21.8045 4.68582 21.8462 5.0145C21.8922 5.37779 22.0396 5.7749 21.8001 5.93713C21.3205 5.89696 21.4693 5.26265 21.4311 4.87611C21.3672 4.232 21.2219 3.57751 21.1543 3.16925C20.8187 3.91293 20.6268 5.10177 20.5084 6.07552C20.4673 6.41324 20.5626 6.77211 20.37 6.99815C19.8883 6.92991 20.1 6.28196 20.1392 5.93713ZM16.7255 14.9789C16.9061 14.4414 17.4605 13.7668 17.9249 13.5488C18.341 13.3533 19.651 13.1169 19.724 13.8717C19.4551 13.9788 19.3401 13.795 19.1243 13.7795C17.7759 13.682 17.2479 14.7809 16.8639 15.7631C16.5019 15.7222 16.6505 15.2016 16.7255 14.9789ZM24.1987 12.6262C23.579 12.3379 23.0157 12.7382 22.6303 13.2259C22.4948 13.3973 22.4246 13.756 22.2151 13.7333C21.7863 13.6868 22.2681 13.0537 22.4458 12.8568C22.6829 12.5933 22.9828 12.2404 23.1839 12.1649C23.8822 11.9025 24.6404 12.3799 24.983 12.7646C25.1306 12.9306 25.3205 13.1177 25.3059 13.4565C24.6676 13.5023 24.6283 12.8259 24.1987 12.6262Z"
    fill="white"
  />
<path
    d="M21.9065 19.877C22.2079 21.6134 21.346 23.0856 20.1425 23.2945C18.9391 23.5033 17.6316 22.4075 17.3303 20.6712C17.0289 18.9349 17.8908 17.4626 19.0943 17.2538C20.2977 17.0449 21.6052 18.1407 21.9065 19.877Z"
    fill="white"
    stroke="black"
    stroke-width="0.557362"
  />
<path
    d="M28.0887 18.9214C28.39 20.6577 27.5282 22.1299 26.3247 22.3388C25.1212 22.5476 23.8137 21.4518 23.5124 19.7155C23.2111 17.9792 24.0729 16.5069 25.2764 16.2981C26.4799 16.0892 27.7874 17.185 28.0887 18.9214Z"
    fill="white"
    stroke="black"
    stroke-width="0.557362"
  />
<path
    d="M21.9473 20.4442C21.9832 21.3503 21.6994 22.2767 20.9056 22.3081C19.9175 22.3473 19.1918 21.288 19.1559 20.3819C19.1199 19.4759 19.596 18.5484 21.0332 18.4914C21.827 18.46 21.9114 19.5382 21.9473 20.4442Z"
    fill="black"
  />
<path
    d="M28.1295 19.4886C28.1654 20.3946 27.8815 21.321 27.0877 21.3525C26.0997 21.3916 25.3739 20.3323 25.338 19.4263C25.3021 18.5202 25.7781 17.5927 27.2153 17.5358C28.0091 17.5043 28.0935 18.5825 28.1295 19.4886Z"
    fill="black"
  />
<path
    d="M83.9362 13.2539C83.8524 12.0684 83.3734 11.2781 82.4873 10.883C81.5892 10.4878 80.7031 10.4878 79.8169 10.883C78.9308 11.2781 78.4518 12.0684 78.392 13.2539C78.4039 15.1938 78.4039 17.1337 78.4159 19.0736C78.4159 19.8998 78.4159 20.7261 78.4279 21.5523C75.2067 18.2952 71.6742 15.4333 67.8064 12.9546C67.1239 12.5594 66.4892 12.4277 65.8905 12.5834C65.7827 12.5953 65.687 12.6193 65.5912 12.6432C64.8008 12.8827 64.25 13.3138 63.9506 13.9485C63.6393 14.5831 63.5435 15.2776 63.6513 16.044C64.4296 21.8277 65.6989 27.5037 67.4352 33.0718C67.8543 34.1855 68.5608 34.8082 69.5308 34.9519C70.5127 35.0955 71.3629 34.868 72.1053 34.2454C72.8477 33.6347 73.0753 32.7485 72.7759 31.599C71.7341 28.27 70.8719 24.9052 70.1774 21.5044C73.4105 24.2705 76.4401 27.2522 79.2661 30.4614C80.1762 31.3236 81.182 31.5152 82.2478 31.0362C83.3135 30.5572 83.9003 29.719 83.9841 28.4976C83.9721 23.4203 83.9601 18.3431 83.9362 13.2539ZM95.8451 12.6313C95.1267 12.4516 94.4202 12.5355 93.7376 12.8947C93.0551 13.2539 92.624 13.8048 92.4444 14.5592C92.2648 15.4692 92.0851 16.3913 91.9055 17.3013C90.9835 21.9235 90.0734 26.5457 89.1633 31.1679C89.0196 31.9223 89.1154 32.6288 89.4388 33.2634C89.774 33.8981 90.3249 34.3292 91.0912 34.5687C91.8217 34.7483 92.5282 34.6525 93.1988 34.2933C93.8813 33.946 94.3124 33.3832 94.504 32.6288C94.8632 30.7847 95.2344 28.9406 95.5937 27.0965C96.3241 23.4084 97.0546 19.7202 97.785 16.032C97.9287 15.2657 97.8329 14.5711 97.4976 13.9365C97.1624 13.3018 96.6115 12.8588 95.8451 12.6313ZM128.71 25.3004C125.848 20.774 123.573 15.9722 121.896 10.883C121.345 9.52984 120.459 8.87124 119.262 8.90716C118.052 8.95506 117.154 9.61366 116.555 10.883L113.442 18.882C111.61 16.499 109.754 14.1401 107.874 11.793C107.179 11.0626 106.317 10.8231 105.299 11.0746C104.689 11.1823 104.162 11.4577 103.719 11.8888C103.288 12.3319 103.036 12.9306 102.976 13.697C102.713 19.4807 102.856 25.2644 103.419 31.0362C103.503 31.8025 103.779 32.4611 104.258 33C104.737 33.5389 105.383 33.8023 106.185 33.8023C106.916 33.8023 107.563 33.5389 108.125 33C108.688 32.4611 108.964 31.8145 108.964 31.0362C108.952 30.9164 108.952 30.8087 108.94 30.6889C108.928 30.4734 108.916 30.2458 108.904 30.0183C108.892 29.8028 108.868 29.5992 108.82 29.4196C108.592 26.7253 108.461 24.043 108.413 21.3607C109.562 22.8456 110.712 24.3424 111.837 25.8512C112.64 26.8331 113.562 27.2642 114.592 27.1444C115.609 27.0127 116.388 26.3661 116.903 25.1926C117.669 23.2048 118.447 21.229 119.214 19.2412C120.567 22.3067 122.148 25.2644 123.932 28.1024C124.614 29.0723 125.453 29.5034 126.434 29.3837C127.416 29.2759 128.183 28.8328 128.746 28.0425C129.296 27.2642 129.284 26.3541 128.71 25.3004ZM141.026 12.6313C140.307 12.4516 139.601 12.5355 138.918 12.8947C138.236 13.2539 137.805 13.8048 137.625 14.5592C137.445 15.4692 137.266 16.3913 137.086 17.3013C136.164 21.9235 135.254 26.5457 134.344 31.1679C134.2 31.9223 134.296 32.6288 134.619 33.2634C134.955 33.8981 135.505 34.3292 136.272 34.5687C137.002 34.7483 137.709 34.6525 138.379 34.2933C139.062 33.946 139.493 33.3832 139.685 32.6288C140.044 30.7847 140.415 28.9406 140.774 27.0965C141.505 23.4084 142.235 19.7202 142.966 16.032C143.109 15.2657 143.013 14.5711 142.678 13.9365C142.343 13.3018 141.792 12.8588 141.026 12.6313Z"
    fill="url(#paint1_linear_13_3846)"
  />
<defs>
<linearGradient
      id="paint0_linear_13_3846"
      x1="7.15281"
      y1="-2.3958"
      x2="30.562"
      y2="46.2805"
      gradientUnits="userSpaceOnUse"
    >
<stop stop-color="#4368EA" />
<stop offset="1" stop-color="#C490DD" />
</linearGradient>
<linearGradient
      id="paint1_linear_13_3846"
      x1="76.1217"
      y1="-2.88265"
      x2="89.5828"
      y2="49.2815"
      gradientUnits="userSpaceOnUse"
    >
<stop stop-color="#4368EA" />
<stop offset="1" stop-color="#C490DD" />
</linearGradient>
</defs>
</svg>
