<svg fill="none" height="73" viewBox="0 0 218 73" width="218" xmlns="http://www.w3.org/2000/svg" xmlns:xlink="http://www.w3.org/1999/xlink"><linearGradient id="a"><stop offset="0" stop-color="#4368ea"/><stop offset="1" stop-color="#c490dd"/></linearGradient><linearGradient id="b" gradientUnits="userSpaceOnUse" x1="11.1042" x2="45.9081" xlink:href="#a" y1="-2.92345" y2="69.4464"/><linearGradient id="c" gradientUnits="userSpaceOnUse" x1="113.657" x2="133.42" xlink:href="#a" y1="-4.25846" y2="72.8701"/><path d="m35.7042 72.1622c19.4594 0 35.2344-15.775 35.2344-35.2344 0-19.4595-15.775-35.2345-35.2344-35.2345-19.4595 0-35.234473 15.775-35.234473 35.2345 0 19.4594 15.774973 35.2344 35.234473 35.2344z" fill="url(#b)"/><path d="m35.8254 70.0737c-18.2767 0-33.14596-14.869-33.14596-33.1457s14.86926-33.14596 33.14596-33.14596 33.146 14.86926 33.146 33.14596-14.8693 33.1457-33.146 33.1457zm0-65.46299c-17.8198 0-32.31729 14.49749-32.31729 32.31729s14.49749 32.317 32.31729 32.317c17.8196 0 32.3173-14.4972 32.3173-32.317s-14.4977-32.31729-32.3173-32.31729z" fill="#fff"/><g clip-rule="evenodd" fill-rule="evenodd"><path d="m61.6126 37.3218c-.3618-.4597-.6243-.9799-.9597-1.3066-.8154-.7935-1.9596-1.3853-3.1534-1.9256-1.1438-.5175-2.3383-1.126-3.4963-1.5816-.7907-.3111-1.6141-.5496-2.3307-.8252-1.6287-.6264-3.1634-1.5461-4.3876-2.6132-.6514-.5682-1.1862-1.3711-1.7821-2.063-.9153-1.0625-1.6762-2.2691-2.4682-3.3696-.2722-.3783-.6134-.7236-.8912-1.1004-1.6756-2.273-3.2503-4.581-4.7305-6.9455-.7308-1.1677-1.6997-2.2719-2.5363-3.3009-.3132-.3848-.5331-.8137-.8228-1.169-.4104-.5035-1.1131-.8063-1.0968-1.51294.4779-.45903.5193.52124.7541 0 .2409-.53496-.0937-1.70917-.1371-2.33811-.128-1.853-.2731-2.88225-.5484-4.40116-.1303-.72006-.1149-1.75502-.4799-2.063041-.9752-.8234989-1.9778 1.042411-2.3309 1.719201-1.0392 1.99142-1.9381 5.13238-2.3308 7.35817-.0597.33928.0882.85958-.3428 1.03158-.5004.0664-.1517-.719-.5484-.7565-1.8556.5456-3.7585 1.0436-5.0045 2.2006.0005.4286.479 1.1464-.0686 1.3066-.5998-.2275-.5224-1.0006-.6855-1.5129-.1717-.539-.4316-1.0886-.617-1.6505-.5767-1.74725-.9803-3.49911-1.7824-4.81371-.2797-.45876-.577-.91063-.9598-1.23783-1.8287 2.92521-2.651 8.01354-2.2623 12.72204.0748.9072.0052 1.8662.1371 2.682.0909.5625.5559 1.1811.2743 1.788-.5885.2518-.4836-.8665-.6856-.5502-.695 3.8373-.3519 7.7519-.3428 11.5531.0006.3243-.0785.7434-.0685 1.1003.0448 1.5863.2622 2.6657.4799 3.9886.4184 2.5429.9803 4.6317 1.8509 6.6015.1763.3987.3024.8956.4701 1.2751 13.0226 25.4852 42.9248 10.2832 44.9999-.1088.4097-.9517.6703-2.0238.5982-3.2979-.1108-1.9618-.7907-3.71-1.7136-4.8826z" fill="#000"/><path d="m14.6528 55.2688c-.3117 1.4293-.6953 2.7927-1.0284 4.1948-.2785 1.1723-.6175 2.341-1.0009 3.494.176.1685.3539.3351.5336.4996.3217-1.0297.6202-2.0872.8789-3.1686.6744-2.8192 1.6773-5.7529 1.851-9.1458.126-2.4656.1443-5.0198.2057-7.7018.2336.1254.3093.4565.4113.6877.3028.6847.5902 1.5902.9598 2.3379.4576.9252 1.1343 1.8066 1.7824 2.682.6301.8512 1.22 1.7276 1.9195 2.4756.6824.7298 1.5368 1.423 2.3309 2.0633.4098.3303.822.6568 1.2339.9626 1.2572.9328 2.6494 1.6918 4.1818 2.4069 1.0101.4714 2.0518.7663 3.2221 1.169 1.138.3914 2.1675.8592 3.3593 1.0317 2.5016.3619 5.4927.1466 7.5406-.2754 2.0354-.4189 4.2441-.8644 6.1703-1.5126.4051-.1367.8122-.3599 1.2335-.4817.4458-.1283.8905-.1675 1.3026-.3436.6226-.2664 1.2404-.6469 1.8508-.9627.6366-.3294 1.2996-.6043 1.8512-.9626 1.1359-.7381 1.9901-1.7445 3.085-2.5443.6749 1.5866 1.3902 3.1968 2.125 4.8136.4795 1.0545.8806 2.1528 1.2648 3.2767.1571-.1871.3119-.3762.465-.5669-.9924-2.7934-2.1429-5.417-3.3753-7.9364 2.1256-2.935 5.3498-5.3532 4.8674-10.1777-.1145-1.1451-.5364-2.6096-1.0285-3.6446-.2103-.4435-.5784-.7636-.8912-1.169-.29-.3761-.4825-.8137-.7539-1.1003-.7861-.8309-1.9452-1.4585-3.085-1.9946-1.1531-.5422-2.3674-1.0568-3.5648-1.5814-1.2318-.5402-2.4947-.9046-3.6333-1.4442-2.1495-1.0186-3.58-2.345-5.0049-4.0573-.5949-.7155-1.1697-1.4971-1.714-2.2694-1.0992-1.5604-2.1862-3.1444-3.2903-4.6074-1.0109-1.3396-2.0301-3.0788-3.1535-4.745-.5922-.8788-1.4874-1.8805-2.1941-2.7507-.3518-.4341-1.1435-1.3788-1.2334-1.788-.1492-.67593.0307-1.42063 0-2.1318-.0582-1.32724-.1568-2.58627-.3221-3.77879-.2345.01373-.4684.02862-.7018.04727.1114.79283.1934 1.60173.2694 2.70001.0434.62864.3778 1.80315.1371 2.33811-.2345.5212-.2762-.45903-.7541 0-.0163.7066.6864 1.0094 1.097 1.5129.2897.3553.5096.7842.8224 1.169.8367 1.029 1.8056 2.1333 2.5367 3.3009 1.4802 2.3645 3.0543 4.6725 4.7302 6.9456.2781.3768.6193.7221.8912 1.1003.792 1.1008 1.5532 2.3074 2.4682 3.3696.5963.692 1.1306 1.4952 1.7821 2.0631 1.2245 1.0667 2.7592 1.9865 4.3875 2.6131.7166.2757 1.5404.5141 2.3311.8252 1.158.4557 2.3525 1.0641 3.496 1.5816 1.1938.5403 2.3379 1.1321 3.1537 1.9256.3357.3267.5979.8469.9594 1.3066.9229 1.1726 1.6031 2.9208 1.7139 4.8826.1326 2.3518-.8618 4.0174-1.8512 5.5015-1.2252 1.8377-2.4947 3.145-4.0446 4.6072-.5241.4946-1.0218 1.0443-1.577 1.4443-1.1498.8293-2.4921 1.4128-3.9074 2.063-1.3588.6246-2.9088 1.0605-4.4561 1.5813-.7526.2537-1.5869.4548-2.3994.619-1.9537.395-4.2097.8409-6.4441.8939-.714.0173-1.3896-.0109-2.1253-.0683-1.4584-.1141-2.9456-.7341-4.3875-1.238-1.4571-.5092-2.8981-.9513-4.0447-1.5819-2.4991-1.3733-4.5655-2.9118-6.4442-4.8136-.9709-.9832-1.6587-2.0895-2.4679-3.1636-.8555-1.1351-1.326-2.3698-1.9195-3.7132-.8707-1.9701-1.4325-4.0586-1.851-6.6019-.2177-1.3228-.435-2.4022-.4799-3.9885-.01-.3569.0694-.7759.0686-1.1003-.0092-3.8011-.3522-7.7158.3428-11.553.2019-.3164.0971.802.6855.5501.2816-.6069-.1834-1.2252-.2742-1.7879-.132-.8158-.0623-1.7748-.1371-2.682-.1637-1.9831-.11-4.0321.1405-5.9599-.2208.1656-.4393.3341-.6558.5052-.298 2.5716-.3117 5.3008.0354 7.724-.5042.8545-.5756 2.2244-.6855 3.5072-.2523 2.9407-.1637 5.3459-.1372 7.8396.0209 1.9702-.0608 3.851.2057 5.6389.1228.8237.2496 1.6559.4113 2.4756.1569.7955.4622 1.6045.5485 2.407.1671 1.5564-.0292 3.2-.0686 4.8138-.0766 3.1736-.1442 6.3551-.7529 9.1462z" fill="#221f20"/><path d="m20.6167 10.5003c.1854.5619.4453 1.1115.617 1.6504.1631.5124.0857 1.2852.6855 1.5129.5476-.1604.0695-.8779.0686-1.3065 1.246-1.1571 3.1489-1.6551 5.0045-2.2006.3967.0375.048.8229.5484.7564.431-.1719.2831-.6925.3428-1.0315.2442-1.38336.6838-3.12007 1.2311-4.7149-.2225.04615-.4439.09454-.6647.14526-.4876 1.44729-.8952 2.97567-1.1151 4.15705-2.1944.38911-3.9471 1.22119-5.6215 2.13179-.2688-.7312-.5087-1.447-.7541-2.20055-.1268-.38941-.2282-.80747-.3413-1.23326-.2103.10774-.4185.21893-.6262.33095.2048.6513.4022 1.32694.625 2.00256z" fill="#221f20"/><path d="m15.3382 62.9709c-.1265.6704-.2439 1.3561-.3519 2.0517.202.1606.4062.3191.6119.4757.3048-1.8527.6852-3.621.974-5.4153.1026-.6382.2631-1.2761.3428-1.9256.0657-.5344.2751-1.2247-.0686-1.719-.7426.1015-.4981 1.0655-.5484 1.5126-.1914 1.7034-.6401 3.3262-.9598 5.0199z" fill="#221f20"/><path d="m62.8463 37.9395c-.2106-.4438-.5784-.7636-.8912-1.1693-.2903-.3758-.4828-.8134-.754-1.1003-.7863-.8306-1.9454-1.4582-3.0849-1.9943-1.1531-.5422-2.3674-1.0568-3.5648-1.5815-1.2319-.5401-2.4951-.9046-3.6336-1.4441-2.1492-1.0187-3.5801-2.345-5.0046-4.0573-.595-.7155-1.1697-1.4972-1.714-2.2694-1.0995-1.5605-2.1862-3.1444-3.2903-4.6074-1.0109-1.3396-2.0304-3.0788-3.1535-4.745-.5926-.8789-1.4877-1.8806-2.1941-2.7508-.3518-.4341-1.1435-1.3788-1.2338-1.7879-.1488-.67596.0311-1.42067 0-2.13184-.081-1.84985-.2351-3.57335-.5482-5.15761-.1823-.92206-.2786-1.88682-.6856-2.681952-.4228-.23066-.9983-.591693-1.4396-.4126091-.9727.3948431-1.5279 1.3438411-2.0567 2.4068811-.9466 1.90317-1.8829 4.97566-2.2623 7.01433-2.1943.38914-3.947 1.2212-5.6215 2.1318-.2687-.7312-.5087-1.447-.7541-2.20056-.2362-.72494-.3796-1.54756-.6855-2.33811-.2119-.54757-.6027-1.10688-1.0283-1.78796-.3368-.53897-.699-1.47853-1.3711-1.44413-.8146.04153-1.5865 2.32179-1.7824 2.95703-1.1106 3.60033-1.5456 8.56413-.9598 12.65333-.5041.8544-.5755 2.2244-.6855 3.5071-.2522 2.9407-.1637 5.3459-.1371 7.8396.0208 1.9702-.0609 3.8511.2056 5.639.1229.8234.2497 1.656.4114 2.4757.1568.7954.4621 1.6041.5484 2.4069.1457 1.357.0154 2.7801-.0466 4.1919h.6219c.0128-.6787.0257-1.3647.0417-2.0603.2337.1257.3094.4568.4113.6877.1794.406.3542.89.5433 1.3726h.7204c-.1677-.3798-.3333-.7676-.5096-1.1663-.8706-1.9698-1.4325-4.0582-1.8509-6.6015-.2177-1.3229-.4351-2.4023-.4799-3.9886-.01-.3569.0694-.776.0685-1.1004-.0091-3.8011-.3522-7.7157.3428-11.553.202-.3163.0971.802.6855.5502.2817-.6069-.1834-1.2253-.2742-1.788-.1319-.8158-.0623-1.7748-.1371-2.682-.3885-4.7086.4339-9.79683 2.2623-12.72204.3828.3275.6798.77937.9598 1.2378.8021 1.31463 1.206 3.0665 1.7824 4.81374.1854.5619.4453 1.1115.617 1.6505.1631.5123.0857 1.2851.6855 1.5129.5476-.1605.0694-.878.0686-1.3066 1.2459-1.1571 3.1489-1.655 5.0044-2.2006.3968.0375.0481.8229.5485.7564.431-.1719.283-.6925.3428-1.03147.3927-2.22579 1.2916-5.36679 2.3308-7.35819.3531-.67679 1.3557-2.5427004 2.3309-1.719203.3647.308023.3496 1.342693.4798 2.063043.2754 1.51922.4205 2.54844.5485 4.40114.0434.62867.3779 1.80319.1371 2.33815-.2345.52123-.2762-.45904-.7541 0-.0163.70663.6864 1.00943 1.0968 1.51293.2897.3553.5096.7842.8227 1.169.8367 1.029 1.8056 2.1332 2.5364 3.3009 1.4802 2.3644 3.0546 4.6725 4.7305 6.9456.2778.3767.619.722.8912 1.1002.7917 1.1009 1.5529 2.3075 2.4682 3.3697.5959.6919 1.1307 1.4951 1.7821 2.063 1.2242 1.0668 2.7589 1.9865 4.3876 2.6132.7166.2757 1.54.5141 2.3307.8252 1.1583.4556 2.3525 1.0641 3.4963 1.5816 1.1938.5403 2.338 1.1321 3.1534 1.9256.3357.3267.5982.8469.9597 1.3066.9229 1.1726 1.6028 2.9208 1.7136 4.8826.0721 1.2744-.1885 2.3462-.5982 3.2979h.6557c.4289-1.1292.6422-2.4049.4911-3.9172-.1144-1.1451-.5364-2.6093-1.0281-3.6443z" fill="#221f20"/><path d="m60.6529 56.986c-.7351-1.6168-1.4501-3.2269-2.1254-4.8139-1.0945.8001-1.9484 1.8066-3.0846 2.5446-.5516.358-1.2143.6333-1.8515.9624-.6105.3164-1.2282.6969-1.8505.9629-.4124.1762-.8572.2153-1.3026.3437-.4216.1214-.8284.3446-1.2338.4813-1.9256.6489-4.1346 1.0937-6.17 1.513-2.0486.4219-5.0393.6369-7.541.275-1.1914-.1725-2.221-.6399-3.359-1.0313-1.1703-.4027-2.212-.6983-3.2221-1.1693-1.5324-.7152-2.9246-1.4742-4.1818-2.4067-.4122-.3058-.8241-.6325-1.2339-.9629-.7941-.6399-1.6485-1.3332-2.3309-2.063-.6995-.748-1.2894-1.6244-1.9195-2.4756-.6481-.8754-1.3248-1.7568-1.7824-2.6819-.3696-.7474-.6573-1.6533-.9598-2.3383-.102-.2309-.1777-.5619-.4113-.6876-.0614 2.6822-.0794 5.2364-.2057 7.7021-.1737 3.3928-1.1766 6.3265-1.851 9.1458-.2587 1.0814-.5572 2.1386-.8789 3.1685.591.5431 1.2011 1.0649 1.8293 1.5651.1077-.6953.2254-1.3813.3519-2.0517.3196-1.6937.7684-3.3165.9598-5.0199.0502-.4478-.1943-1.4114.5484-1.5129.3436.4942.1342 1.1849.0686 1.7189-.0797.6495-.24 1.2874-.3428 1.9257-.2888 1.7942-.6696 3.5626-.9741 5.4152 5.6752 4.311 12.7463 6.8699 20.4138 6.8699 10.3964 0 19.6967-4.7034 25.9057-12.103-.3846-1.1232-.7858-2.2215-1.2649-3.2761z" fill="#000"/></g><path d="m125.262 19.6424c-.124-1.7626-.836-2.9376-2.154-3.5251-1.335-.5875-2.652-.5875-3.97 0-1.317.5875-2.029 1.7625-2.118 3.5251.017 2.8841.017 5.7682.035 8.6524 0 1.2284 0 2.4568.018 3.6852-4.789-4.8425-10.041-9.0974-15.792-12.7827-1.014-.5875-1.958-.7834-2.8481-.5519-.1602.0178-.3027.0534-.4451.089-1.175.3561-1.994.997-2.4391 1.9405-.4628.9436-.6053 1.9762-.445 3.1156 1.1572 8.599 3.0443 17.0378 5.6263 25.3163.623 1.6557 1.673 2.5815 3.115 2.7951 1.46.2137 2.724-.1246 3.828-1.0504 1.104-.9079 1.442-2.2254.997-3.9345-1.549-4.9493-2.831-9.952-3.864-15.0082 4.807 4.1126 9.312 8.5456 13.513 13.3169 1.353 1.2818 2.849 1.5667 4.433.8546 1.585-.7122 2.457-1.9584 2.582-3.7743-.018-7.5486-.036-15.0972-.072-22.6636zm17.706-.9258c-1.068-.2671-2.118-.1424-3.133.3917s-1.656 1.353-1.923 2.4746c-.267 1.3531-.534 2.7239-.801 4.077-1.371 6.872-2.724 13.7441-4.077 20.6162-.214 1.1216-.071 2.172.409 3.1156.499.9435 1.318 1.5845 2.457 1.9405 1.086.2671 2.137.1247 3.134-.4094 1.014-.5163 1.655-1.3531 1.94-2.4747.534-2.7417 1.086-5.4834 1.62-8.2251 1.086-5.4834 2.172-10.9669 3.258-16.4503.214-1.1394.072-2.172-.427-3.1156-.498-.9435-1.317-1.6023-2.457-1.9405zm48.862 18.8359c-4.255-6.7297-7.638-13.8688-10.13-21.4352-.819-2.0118-2.137-2.9909-3.917-2.9375-1.798.0712-3.133 1.0504-4.024 2.9375l-4.628 11.8926c-2.724-3.5428-5.484-7.0501-8.279-10.5395-1.033-1.086-2.314-1.4421-3.828-1.0682-.908.1602-1.691.5697-2.35 1.2106-.641.6587-1.015 1.5489-1.104 2.6883-.391 8.599-.178 17.198.659 25.7792.125 1.1394.534 2.1186 1.246 2.9197.713.8011 1.674 1.1928 2.867 1.1928 1.086 0 2.047-.3917 2.884-1.1928s1.246-1.7625 1.246-2.9197c-.018-.1781-.018-.3383-.036-.5163-.017-.3205-.035-.6588-.053-.997-.018-.3205-.053-.6231-.125-.8902-.338-4.0057-.534-7.9937-.605-11.9816 1.709 2.2076 3.418 4.433 5.092 6.6762 1.193 1.4599 2.564 2.1008 4.095 1.9228 1.513-.1959 2.67-1.1572 3.436-2.902 1.139-2.9553 2.296-5.8928 3.436-8.8482 2.011 4.5577 4.361 8.9551 7.014 13.1745 1.015 1.442 2.261 2.0829 3.721 1.9049 1.46-.1602 2.599-.8189 3.436-1.994.819-1.1572.801-2.5102-.053-4.0769zm18.311-18.8359c-1.068-.2671-2.119-.1424-3.134.3917-1.014.5341-1.655 1.353-1.922 2.4746-.267 1.3531-.534 2.7239-.802 4.077-1.37 6.872-2.723 13.7441-4.076 20.6162-.214 1.1216-.072 2.172.409 3.1156.498.9435 1.317 1.5845 2.457 1.9405 1.086.2671 2.136.1247 3.133-.4094 1.015-.5163 1.656-1.3531 1.941-2.4747.534-2.7417 1.086-5.4834 1.62-8.2251 1.086-5.4834 2.172-10.9669 3.258-16.4503.214-1.1394.071-2.172-.427-3.1156-.499-.9435-1.318-1.6023-2.457-1.9405z" fill="url(#c)"/></svg>