<svg fill="none" height="14" viewBox="0 0 14 14" width="14" xmlns="http://www.w3.org/2000/svg"><path d="m6.94058 3.22007 3.84002 3.84001-5.26666 5.27332c-.24667.2466-.56002.4066-.90002.4666l-3.16.5267c-.04.0066-.07332.0067-.11332.0067-.17333 0-.346681-.0734-.473347-.2001-.153334-.1533-.226652-.3732-.193319-.5866l.526656-3.15996c.06-.34.22-.6534.46667-.90007zm5.59332-1.75342c-.5133-.519996-1.1933-.799963-1.92-.799963-.72665 0-1.40665.279967-1.91999.799963l-.80664.80665 3.84003 3.84.8066-.80664c.52-.51333.8-1.19325.8-1.91992s-.28-1.40675-.8-1.92009z" fill="#8c90a0"/></svg>