<svg width="111" height="110" viewBox="0 0 111 110" fill="none" xmlns="http://www.w3.org/2000/svg">
<g filter="url(#filter0_d_1049_3083)">
<path d="M30.5664 38C30.5664 26.9543 39.5207 18 50.5664 18H60.5664C71.6121 18 80.5664 26.9543 80.5664 38V48C80.5664 59.0457 71.6121 68 60.5664 68H50.5664C39.5207 68 30.5664 59.0457 30.5664 48V38Z" fill="#6534FF"/>
<path d="M30.5664 38C30.5664 26.9543 39.5207 18 50.5664 18H60.5664C71.6121 18 80.5664 26.9543 80.5664 38V48C80.5664 59.0457 71.6121 68 60.5664 68H50.5664C39.5207 68 30.5664 59.0457 30.5664 48V38Z" fill="white" fill-opacity="0.8"/>
<mask id="mask0_1049_3083" style="mask-type:alpha" maskUnits="userSpaceOnUse" x="36" y="23" width="39" height="40">
<path d="M36.5664 23.9755H74.5664V62.0246H36.5664V23.9755Z" fill="white"/>
</mask>
<g mask="url(#mask0_1049_3083)">
<path fill-rule="evenodd" clip-rule="evenodd" d="M49.3106 26.8464C48.6306 26.8464 48.1676 26.8276 47.7067 26.8504C46.8679 26.892 46.1688 27.2048 45.6688 27.9202C45.282 28.4737 44.9621 29.0636 44.6587 29.6621C44.1139 30.737 43.3125 31.5397 42.2364 32.0807C41.7618 32.3194 41.3051 32.5935 40.8427 32.8557C39.8755 33.4041 39.4215 34.2443 39.4311 35.3486C39.4372 36.0634 39.4312 36.7782 39.4423 37.4928C39.4546 38.2844 39.2524 39.0154 38.8516 39.6932C38.531 40.2353 38.2112 40.7781 37.8789 41.3131C37.1921 42.4186 37.1574 43.5203 37.8688 44.6291C38.0351 44.8881 38.1693 45.169 38.3486 45.418C39.1928 46.5907 39.5694 47.8867 39.4457 49.333C39.4075 49.7785 39.429 50.2295 39.4328 50.6778C39.4409 51.6338 39.771 52.4302 40.6025 52.9628C40.9202 53.1663 41.235 53.3851 41.5774 53.5377C43.1116 54.2214 44.2612 55.2842 44.9456 56.8359C45.0861 57.1545 45.2795 57.4503 45.4542 57.7535C46.0018 58.7032 46.8395 59.1411 47.9206 59.1406C48.6628 59.1404 49.4051 59.1386 50.1473 59.1313C50.9392 59.1236 51.6643 59.3502 52.3401 59.7482C52.8827 60.0677 53.4246 60.3889 53.9591 60.7217C55.0265 61.3865 56.0899 61.3949 57.1595 60.7304C57.5637 60.4795 57.9805 60.2483 58.3786 59.9883C59.2953 59.3897 60.2811 59.0653 61.3896 59.1266C61.9901 59.1597 62.5937 59.1391 63.1959 59.141C64.2938 59.1442 65.1431 58.7034 65.6923 57.7329C65.9543 57.2701 66.2291 56.8135 66.4674 56.3385C67.0075 55.2621 67.799 54.4503 68.8802 53.9121C69.3682 53.6693 69.8408 53.3936 70.3093 53.1142C71.0697 52.6611 71.5798 52.0351 71.6668 51.1138C71.7475 50.2598 71.6916 49.4059 71.6892 48.5523C71.6867 47.6865 71.9027 46.8936 72.3499 46.1573C72.6768 45.6189 72.9963 45.0761 73.3213 44.5365C73.923 43.5373 73.9532 42.529 73.3634 41.5153C73.1029 41.0677 72.8407 40.6205 72.5597 40.1858C71.9578 39.255 71.6237 38.2576 71.6888 37.1326C71.7244 36.518 71.7102 35.8996 71.7016 35.2832C71.6885 34.3462 71.364 33.5664 70.5531 33.0276C70.0039 32.6625 69.4266 32.3489 68.8414 32.0498C67.8095 31.5223 67.0354 30.7466 66.5048 29.7158C66.2423 29.206 65.9569 28.7072 65.6667 28.2123C65.2151 27.4423 64.5643 26.952 63.656 26.8689C63.3085 26.8371 62.9571 26.8489 62.6073 26.8427C61.852 26.829 61.0929 26.9052 60.3417 26.8026C59.4134 26.676 58.6175 26.2068 57.8879 25.668C56.3295 24.5171 54.8243 24.501 53.2658 25.6626C52.0353 26.5797 50.6611 27.0788 49.3106 26.8464ZM45.9864 59.4754C45.8668 59.3034 45.6919 59.2086 45.5051 59.1307C44.7013 58.1849 44.2119 57.044 43.5645 56.0011C43.1583 55.3467 42.5343 54.949 41.8767 54.5904C41.2385 54.2423 40.581 53.9263 39.997 53.4848C39.1484 52.8434 38.7116 51.9872 38.6788 50.9288C38.6632 50.4248 38.6388 49.9162 38.6863 49.4161C38.8133 48.082 38.4464 46.9039 37.6866 45.8174C37.3991 45.4062 37.154 44.9603 36.9325 44.5091C36.4313 43.4886 36.4539 42.459 36.9439 41.4346C37.2227 40.8515 37.5774 40.3132 37.9217 39.7698C38.4454 38.9433 38.7457 38.0664 38.6888 37.0722C38.6544 36.4714 38.6805 35.8673 38.6732 35.2648C38.6563 33.907 39.2603 32.9016 40.4093 32.2125C40.853 31.9463 41.3014 31.6845 41.7656 31.4574C42.7851 30.9588 43.5348 30.2106 44.0385 29.1898C44.3843 28.4886 44.7434 27.7906 45.2623 27.1899C45.8991 26.4527 46.7134 26.1178 47.6668 26.0904C48.1565 26.0764 48.6511 26.0456 49.136 26.0958C50.5042 26.2373 51.699 25.8302 52.8054 25.0561C53.1708 24.8006 53.5703 24.5906 53.9667 24.3838C55.0379 23.8247 56.1116 23.8528 57.1879 24.3868C57.7415 24.6614 58.2597 24.9944 58.7764 25.3275C59.6142 25.8674 60.5129 26.1443 61.5149 26.1007C62.1159 26.0744 62.7188 26.0918 63.3208 26.0865C64.6804 26.0745 65.6739 26.6962 66.3537 27.8495C66.6307 28.3195 66.9073 28.7916 67.1493 29.2801C67.6211 30.2327 68.33 30.931 69.2778 31.4049C69.8656 31.6988 70.4447 32.0114 70.9877 32.3853C71.9593 33.0544 72.448 33.981 72.4605 35.1587C72.4653 35.6211 72.4955 36.0872 72.451 36.5454C72.3197 37.8939 72.689 39.0879 73.4631 40.1823C73.7047 40.5238 73.9045 40.8968 74.104 41.2659C74.768 42.4945 74.7016 43.7088 74.0054 44.9018C73.6596 45.4942 73.3076 46.0827 72.9571 46.6722C72.6047 47.2648 72.4434 47.906 72.4513 48.5944C72.4595 49.295 72.4512 49.996 72.4632 50.6965C72.4863 52.0554 71.8849 53.0629 70.7425 53.7583C70.2528 54.0565 69.7488 54.3328 69.2401 54.5974C68.412 55.0282 67.7316 55.6038 67.294 56.4459C66.9587 57.0911 66.6066 57.7276 66.2617 58.3678C66.066 58.5043 65.9566 58.712 65.8217 58.8987C65.6441 58.9989 65.5087 59.1459 65.3786 59.299C64.6288 59.8023 63.7922 59.934 62.9083 59.9035C62.2801 59.8818 61.6506 59.8988 61.0216 59.8972C60.584 59.8959 60.1626 59.9768 59.7623 60.1527C58.5182 60.6996 57.4737 61.6328 56.1491 62.0246C55.9328 61.9628 55.7145 62.0109 55.497 62.0118C54.44 61.9898 53.5833 61.4521 52.7511 60.8951C51.7247 60.2082 50.6468 59.8059 49.3842 59.8844C48.4292 59.9439 47.4619 59.9689 46.5177 59.7205C46.3578 59.6013 46.1883 59.5033 45.9864 59.4754Z" fill="#6534FF"/>
</g>
<path fill-rule="evenodd" clip-rule="evenodd" d="M60.9385 46.9517C61.2788 46.9619 61.5079 46.68 61.4084 46.3313C60.8029 44.2098 60.1887 42.0908 59.5762 39.9713C59.4819 39.6448 59.233 39.5787 58.9475 39.6466C58.7142 39.7019 58.6527 39.9222 58.5921 40.1269C58.1993 41.4522 57.8062 42.7775 57.4125 44.1026C57.1977 44.8253 56.9729 45.5452 56.7702 46.2712C56.6867 46.5704 56.7503 46.8486 57.0966 46.935C57.3985 47.0104 57.6062 46.889 57.6875 46.5637C57.7652 46.2525 57.8824 45.9512 57.9606 45.64C58.0147 45.4255 58.126 45.3487 58.345 45.3544C58.834 45.3671 59.3239 45.3669 59.813 45.3546C60.0436 45.3489 60.1705 45.4101 60.2193 45.6593C60.2782 45.9595 60.3823 46.2513 60.4752 46.5441C60.5467 46.7693 60.6604 46.9567 60.9385 46.9517ZM49.9407 43.3088C49.9076 43.6566 50.0082 43.9852 50.1708 44.3038C50.4823 44.9144 50.7928 45.5258 51.0886 46.1442C51.3266 46.642 51.6866 46.9374 52.255 46.9568C52.8533 46.9773 53.2197 46.664 53.4653 46.1553C53.7875 45.4877 54.1229 44.8263 54.4369 44.155C54.7071 43.5773 54.7052 42.9898 54.4244 42.413C54.0755 41.6959 53.7309 40.9766 53.3648 40.2684C52.926 39.4199 51.707 39.3589 51.2308 40.1904C50.787 40.9656 50.4252 41.7881 50.0392 42.5956C49.936 42.8116 49.9183 43.0545 49.9407 43.3088ZM63.5517 43.165C63.5517 44.2296 63.5558 45.2942 63.5493 46.3587C63.5472 46.7055 63.67 46.9434 64.0412 46.9478C64.4648 46.9528 64.5291 46.631 64.536 46.3085C64.549 45.7064 64.5504 45.1036 64.5355 44.5017C64.5291 44.2445 64.6155 44.161 64.8716 44.1667C65.5291 44.1812 66.1875 44.1823 66.845 44.168C67.6278 44.1511 68.2224 43.5635 68.2463 42.779C68.2642 42.1913 68.2654 41.602 68.2459 41.0143C68.2195 40.2141 67.6019 39.6313 66.8035 39.6291C65.8517 39.6264 64.8996 39.6404 63.9481 39.6215C63.642 39.6154 63.5373 39.6889 63.5438 40.0135C63.5649 41.0636 63.5517 42.1145 63.5517 43.165ZM43.1286 43.1781C43.1286 44.2146 43.128 45.2511 43.1293 46.2878C43.1295 46.3993 43.1143 46.5203 43.1513 46.6203C43.2375 46.8532 43.4135 46.9744 43.6729 46.9505C43.9968 46.9207 44.0965 46.6817 44.1055 46.4212C44.1269 45.8057 44.1309 45.1884 44.1105 44.5728C44.1003 44.2673 44.1771 44.1514 44.5037 44.1641C45.1465 44.1891 45.7914 44.1831 46.4349 44.1673C47.1961 44.1488 47.7924 43.5692 47.8217 42.8079C47.8448 42.2065 47.8441 41.6028 47.8221 41.0013C47.7929 40.2031 47.1726 39.6308 46.3674 39.6289C45.4155 39.6268 44.4634 39.6429 43.5121 39.6204C43.1856 39.6128 43.1166 39.7221 43.1218 40.0264C43.1394 41.0767 43.1286 42.1275 43.1286 43.1781ZM49.3108 26.8464C50.6613 27.0788 52.0356 26.5798 53.266 25.6626C54.8245 24.5009 56.3297 24.5172 57.8881 25.6681C58.6177 26.2068 59.4135 26.6759 60.3419 26.8027C61.0932 26.9051 61.8522 26.8291 62.6075 26.8426C62.9573 26.8489 63.3087 26.8372 63.6562 26.8689C64.5645 26.952 65.2154 27.4423 65.667 28.2124C65.9572 28.7073 66.2425 29.2059 66.505 29.7159C67.0356 30.7466 67.8098 31.5223 68.8416 32.0498C69.4268 32.3489 70.0041 32.6626 70.5534 33.0276C71.3643 33.5664 71.6888 34.3463 71.7018 35.2831C71.7104 35.8997 71.7246 36.5179 71.689 37.1327C71.624 38.2576 71.958 39.2549 72.5599 40.1858C72.8409 40.6205 73.1032 41.0678 73.3636 41.5154C73.9534 42.529 73.9233 43.5372 73.3215 44.5365C72.9966 45.076 72.677 45.6189 72.3501 46.1572C71.903 46.8937 71.687 47.6865 71.6894 48.5523C71.6919 49.4058 71.7478 50.2599 71.6671 51.1139C71.5801 52.0351 71.0699 52.661 70.3096 53.1143C69.8411 53.3936 69.3684 53.6693 68.8804 53.9121C67.7993 54.4503 67.0077 55.2622 66.4677 56.3386C66.2294 56.8134 65.9546 57.2701 65.6925 57.733C65.1434 58.7033 64.2941 59.1441 63.1961 59.1409C62.5939 59.1392 61.9904 59.1598 61.3899 59.1266C60.2814 59.0653 59.2955 59.3896 58.3789 59.9882C57.9807 60.2483 57.5639 60.4794 57.1598 60.7305C56.09 61.3948 55.0268 61.3865 53.9593 60.7216C53.4249 60.3888 52.8829 60.0678 52.3403 59.7483C51.6645 59.3503 50.9395 59.1235 50.1475 59.1313C49.4054 59.1387 48.6631 59.1403 47.9209 59.1406C46.8398 59.141 46.002 58.7032 45.4545 57.7534C45.2797 57.4504 45.0863 57.1546 44.9458 56.8359C44.2614 55.2842 43.1119 54.2215 41.5776 53.5377C41.2351 53.3851 40.9204 53.1662 40.6028 52.9627C39.7712 52.4301 39.4412 51.6337 39.4331 50.6778C39.4292 50.2295 39.4078 49.7785 39.4459 49.3331C39.5697 47.8867 39.1931 46.5908 38.3488 45.418C38.1695 45.169 38.0353 44.8881 37.8691 44.6291C37.1576 43.5204 37.1923 42.4187 37.8792 41.313C38.2115 40.7782 38.5313 40.2353 38.8518 39.6933C39.2526 39.0154 39.4549 38.2843 39.4425 37.4928C39.4314 36.7782 39.4375 36.0634 39.4313 35.3487C39.4217 34.2443 39.8758 33.4041 40.843 32.8557C41.3054 32.5935 41.7621 32.3193 42.2365 32.0808C43.3127 31.5397 44.1142 30.7369 44.659 29.6621C44.9624 29.0635 45.2823 28.4737 45.669 27.9202C46.169 27.2048 46.8681 26.8919 47.7069 26.8504C48.1679 26.8277 48.6309 26.8464 49.3108 26.8464Z" fill="#FEFEFE"/>
<path fill-rule="evenodd" clip-rule="evenodd" d="M44.0757 41.8852C44.0757 42.2348 44.0823 42.5844 44.0732 42.9337C44.068 43.1356 44.116 43.2437 44.3504 43.2395C45.0068 43.2279 45.6636 43.2373 46.3201 43.2344C46.6784 43.2328 46.8684 43.0291 46.8804 42.689C46.8986 42.1723 46.9016 41.654 46.8814 41.1376C46.8678 40.785 46.6838 40.5701 46.2951 40.5747C45.6665 40.5822 45.0376 40.585 44.4092 40.5728C44.1497 40.5677 44.0622 40.6717 44.0726 40.9208C44.086 41.2417 44.0758 41.5637 44.0757 41.8852ZM43.1282 43.1781C43.1282 42.1275 43.1389 41.0767 43.1214 40.0265C43.1161 39.7222 43.1852 39.6128 43.5117 39.6205C44.4629 39.643 45.4151 39.6268 46.367 39.629C47.1722 39.6308 47.7925 40.2032 47.8216 41.0014C47.8437 41.6029 47.8444 42.2065 47.8213 42.808C47.7919 43.5692 47.1957 44.1488 46.4344 44.1674C45.791 44.1831 45.1461 44.1892 44.5032 44.1641C44.1767 44.1514 44.0999 44.2673 44.1101 44.5729C44.1305 45.1884 44.1265 45.8057 44.1051 46.4213C44.0961 46.6818 43.9964 46.9208 43.6725 46.9506C43.4131 46.9744 43.2371 46.8532 43.1509 46.6203C43.1139 46.5204 43.129 46.3992 43.1288 46.2878C43.1276 45.2512 43.1282 44.2147 43.1282 43.1781Z" fill="#6534FF"/>
<path fill-rule="evenodd" clip-rule="evenodd" d="M64.4988 41.9024C64.4988 42.2519 64.5079 42.6017 64.4955 42.9507C64.4875 43.1725 64.5762 43.2423 64.7906 43.2391C65.433 43.2295 66.0757 43.2345 66.7183 43.2357C67.0966 43.2364 67.294 43.0334 67.3051 42.6718C67.3208 42.1551 67.3262 41.6367 67.3027 41.1206C67.2866 40.7641 67.0849 40.5673 66.7009 40.5739C66.0865 40.5843 65.4713 40.5867 64.8571 40.5721C64.5821 40.5656 64.4806 40.6652 64.4947 40.9379C64.5113 41.2586 64.4986 41.5808 64.4988 41.9024ZM63.5511 43.1651C63.5511 42.1145 63.5643 41.0636 63.5432 40.0135C63.5368 39.689 63.6415 39.6155 63.9475 39.6216C64.8991 39.6404 65.8511 39.6264 66.803 39.6291C67.6013 39.6313 68.219 40.2141 68.2454 41.0143C68.2649 41.602 68.2637 42.1913 68.2458 42.779C68.2218 43.5635 67.6273 44.1511 66.8445 44.168C66.1869 44.1823 65.5286 44.1812 64.871 44.1667C64.6149 44.161 64.5285 44.2445 64.5349 44.5018C64.5498 45.1037 64.5484 45.7064 64.5355 46.3085C64.5285 46.631 64.4642 46.9528 64.0406 46.9478C63.6695 46.9435 63.5467 46.7055 63.5487 46.3587C63.5552 45.2942 63.5511 44.2296 63.5511 43.1651Z" fill="#6534FF"/>
<path fill-rule="evenodd" clip-rule="evenodd" d="M53.6586 43.2976C53.6314 43.1617 53.6305 43.0132 53.5725 42.892C53.2345 42.1856 52.8931 41.4804 52.5314 40.786C52.3739 40.4837 52.1256 40.4866 51.9667 40.7953C51.6212 41.4664 51.2974 42.149 50.9759 42.8322C50.8099 43.1849 50.8541 43.5423 51.0227 43.8842C51.3258 44.4989 51.6348 45.1107 51.9404 45.7243C52.0104 45.8647 52.0813 46.0143 52.2661 46.0061C52.4249 45.9991 52.4963 45.8693 52.561 45.7398C52.8802 45.1019 53.2029 44.4657 53.5221 43.8277C53.6045 43.663 53.6527 43.4882 53.6586 43.2976ZM49.9402 43.3087C49.9178 43.0545 49.9355 42.8116 50.0387 42.5956C50.4246 41.7881 50.7865 40.9655 51.2303 40.1904C51.7064 39.3588 52.9255 39.4199 53.3642 40.2683C53.7303 40.9765 54.0749 41.696 54.4239 42.4129C54.7047 42.9898 54.7066 43.5773 54.4363 44.1549C54.1223 44.8262 53.787 45.4877 53.4647 46.1552C53.2192 46.6639 52.8528 46.9773 52.2545 46.9568C51.6861 46.9373 51.3261 46.6419 51.088 46.1442C50.7923 45.5258 50.4819 44.9143 50.1702 44.3038C50.0077 43.9852 49.9072 43.6566 49.9402 43.3087Z" fill="#6534FF"/>
<path fill-rule="evenodd" clip-rule="evenodd" d="M59.1561 42.006C59.12 42.0069 59.084 42.0076 59.0478 42.0085C58.9192 42.4449 58.7798 42.8785 58.6649 43.3185C58.5711 43.6779 58.2188 44.1598 58.4632 44.3655C58.7017 44.5662 59.2341 44.4144 59.6373 44.4232C59.8126 44.427 59.8462 44.3685 59.7947 44.1984C59.5745 43.4699 59.3678 42.7372 59.1561 42.006ZM60.9383 46.9514C60.66 46.9567 60.5463 46.7692 60.4748 46.5442C60.3819 46.2513 60.2778 45.9594 60.2189 45.6593C60.17 45.4101 60.0432 45.3488 59.8126 45.3546C59.3235 45.3668 58.8336 45.3671 58.3445 45.3545C58.1256 45.3487 58.0142 45.4255 57.9602 45.64C57.8819 45.9511 57.7648 46.2525 57.687 46.5637C57.6058 46.8891 57.398 47.0104 57.0962 46.935C56.7499 46.8486 56.6862 46.5705 56.7698 46.2711C56.9726 45.5451 57.1972 44.8253 57.412 44.1025C57.8058 42.7774 58.1989 41.4523 58.5916 40.1268C58.6522 39.9223 58.7137 39.7019 58.9471 39.6466C59.2326 39.5788 59.4814 39.6447 59.5758 39.9712C60.1882 42.0908 60.8025 44.2098 61.408 46.3313C61.5075 46.68 61.2783 46.9618 60.9383 46.9514Z" fill="#6534FF"/>
<path fill-rule="evenodd" clip-rule="evenodd" d="M44.0758 41.8852C44.0759 41.5637 44.0859 41.2417 44.0726 40.9208C44.0622 40.6717 44.1497 40.5677 44.4093 40.5728C45.0377 40.585 45.6665 40.5821 46.2951 40.5747C46.6839 40.57 46.8678 40.785 46.8815 41.1376C46.9016 41.654 46.8986 42.1723 46.8804 42.6889C46.8685 43.0291 46.6785 43.2328 46.3202 43.2344C45.6637 43.2372 45.0068 43.2279 44.3505 43.2395C44.116 43.2437 44.068 43.1355 44.0732 42.9337C44.0823 42.5844 44.0758 42.2348 44.0758 41.8852Z" fill="#FEFEFE"/>
<path fill-rule="evenodd" clip-rule="evenodd" d="M64.4989 41.9023C64.4988 41.5808 64.5115 41.2586 64.4949 40.9379C64.4808 40.6652 64.5823 40.5655 64.8573 40.5721C65.4715 40.5866 66.0867 40.5843 66.7011 40.5738C67.0851 40.5673 67.2868 40.7641 67.3029 41.1205C67.3264 41.6367 67.321 42.1551 67.3053 42.6718C67.2942 43.0334 67.0968 43.2363 66.7185 43.2357C66.0759 43.2345 65.4332 43.2294 64.7908 43.239C64.5764 43.2422 64.4877 43.1724 64.4957 42.9507C64.5081 42.6017 64.499 42.2519 64.4989 41.9023Z" fill="#FEFEFE"/>
<path fill-rule="evenodd" clip-rule="evenodd" d="M53.6592 43.2977C53.6532 43.4882 53.605 43.663 53.5226 43.8278C53.2035 44.4657 52.8807 45.1019 52.5615 45.7399C52.4968 45.8694 52.4255 45.9992 52.2666 46.0061C52.0818 46.0144 52.0109 45.8648 51.9409 45.7243C51.6353 45.1107 51.3263 44.4989 51.0232 43.8842C50.8546 43.5423 50.8104 43.1849 50.9764 42.8322C51.2979 42.149 51.6217 41.4665 51.9672 40.7953C52.1261 40.4866 52.3744 40.4837 52.5319 40.7861C52.8937 41.4804 53.235 42.1857 53.573 42.892C53.631 43.0132 53.6319 43.1617 53.6592 43.2977Z" fill="#FEFEFE"/>
<path fill-rule="evenodd" clip-rule="evenodd" d="M59.1566 42.006C59.3683 42.7371 59.5749 43.4699 59.7952 44.1984C59.8467 44.3685 59.8131 44.427 59.6378 44.4231C59.2346 44.4144 58.7022 44.5662 58.4637 44.3655C58.2193 44.1598 58.5716 43.6779 58.6654 43.3185C58.7803 42.8785 58.9196 42.4448 59.0483 42.0084C59.0845 42.0076 59.1205 42.0068 59.1566 42.006Z" fill="#FEFEFE"/>
</g>
<defs>
<filter id="filter0_d_1049_3083" x="0.566406" y="0" width="110" height="110" filterUnits="userSpaceOnUse" color-interpolation-filters="sRGB">
<feFlood flood-opacity="0" result="BackgroundImageFix"/>
<feColorMatrix in="SourceAlpha" type="matrix" values="0 0 0 0 0 0 0 0 0 0 0 0 0 0 0 0 0 0 127 0" result="hardAlpha"/>
<feOffset dy="12"/>
<feGaussianBlur stdDeviation="15"/>
<feColorMatrix type="matrix" values="0 0 0 0 0.0784314 0 0 0 0 0.156863 0 0 0 0 0.313726 0 0 0 0.05 0"/>
<feBlend mode="normal" in2="BackgroundImageFix" result="effect1_dropShadow_1049_3083"/>
<feBlend mode="normal" in="SourceGraphic" in2="effect1_dropShadow_1049_3083" result="shape"/>
</filter>
</defs>
</svg>
