<svg fill="none" height="36" viewBox="0 0 50 50" width="36" xmlns="http://www.w3.org/2000/svg" xmlns:xlink="http://www.w3.org/1999/xlink"><filter id="a" color-interpolation-filters="sRGB" filterUnits="userSpaceOnUse" height="110" width="110" x="-30" y="-18"><feFlood flood-opacity="0" result="BackgroundImageFix"/><feColorMatrix in="SourceAlpha" result="hardAlpha" type="matrix" values="0 0 0 0 0 0 0 0 0 0 0 0 0 0 0 0 0 0 127 0"/><feOffset dy="12"/><feGaussianBlur stdDeviation="15"/><feColorMatrix type="matrix" values="0 0 0 0 0.0784314 0 0 0 0 0.156863 0 0 0 0 0.313726 0 0 0 0.05 0"/><feBlend in2="BackgroundImageFix" mode="normal" result="effect1_dropShadow_1098_30517"/><feBlend in="SourceGraphic" in2="effect1_dropShadow_1098_30517" mode="normal" result="shape"/></filter><clipPath id="b"><path d="m0 0h50v50h-50z"/></clipPath><mask id="c" height="40" maskUnits="userSpaceOnUse" width="38" x="6" y="5"><path d="m6 5.9754h38v38.0491h-38z" fill="#fff"/></mask><g clip-path="url(#b)"><g filter="url(#a)"><path d="m0 20c0-11.0457 8.9543-20 20-20h10c11.0457 0 20 8.9543 20 20v10c0 11.0457-8.9543 20-20 20h-10c-11.0457 0-20-8.9543-20-20z" fill="#6534ff"/><path d="m0 20c0-11.0457 8.9543-20 20-20h10c11.0457 0 20 8.9543 20 20v10c0 11.0457-8.9543 20-20 20h-10c-11.0457 0-20-8.9543-20-20z" fill="#fff" fill-opacity=".8"/><g clip-rule="evenodd" fill-rule="evenodd" mask="url(#c)"><path d="m18.7439 8.84629c-.6799 0-1.143-.0188-1.6039.004-.8387.0416-1.5379.3545-2.0379 1.0699-.3868.55341-.7067 1.14331-1.0101 1.74181-.5447 1.0749-1.3462 1.8776-2.4223 2.4187-.4746.2386-.9313.5127-1.3937.7749-.96719.5484-1.4212 1.3886-1.4116 2.493.0061.7147.0001 1.4295.0112 2.1441.0123.7916-.1899 1.5227-.5907 2.2005-.3206.542-.6403 1.0849-.9727 1.6198-.6868 1.1056-.72149 2.2073-.01009 3.3161.1663.2589.30049.5398.47979.7888.8442 1.1728 1.22081 2.4687 1.09711 3.9151-.0381.4454-.01671.8965-.01281 1.3448.008.9559.33811 1.7523 1.1696 2.2849.3177.2035.6325.4223.9749.5749 1.5342.6837 2.6838 1.7465 3.3682 3.2982.1405.3187.3339.6145.5086.9176.5476.9497 1.3854 1.3876 2.4664 1.3872.7422-.0003 1.4845-.002 2.2267-.0094.7919-.0077 1.517.219 2.1928.617.5426.3195 1.0845.6406 1.619.9734 1.0674.6648 2.1308.6732 3.2004.0088.4042-.251.821-.4821 1.2191-.7422.9167-.5986 1.9026-.923 3.011-.8617.6005.0332 1.2041.0126 1.8063.0144 1.0979.0032 1.9472-.4376 2.4965-1.408.2619-.4629.5368-.9195.775-1.3944.5401-1.0764 1.3316-1.8883 2.4128-2.4264.488-.2429.9607-.5185 1.4291-.7979.7604-.4532 1.2705-1.0792 1.3575-2.0004.0807-.854.0248-1.708.0224-2.5616-.0024-.8658.2135-1.6586.6607-2.395.3269-.5384.6465-1.0812.9714-1.6207.6017-.9993.6319-2.0076.0421-3.0212-.2605-.4477-.5227-.8948-.8037-1.3296-.6019-.9308-.936-1.9281-.8709-3.0531.0356-.6147.0214-1.2331.0128-1.8495-.0131-.9369-.3376-1.7168-1.1485-2.2555-.5492-.3652-1.1265-.6788-1.7117-.9779-1.0318-.5275-1.806-1.3032-2.3366-2.3339-.2625-.5099-.5479-1.0086-.8381-1.5035-.4516-.77011-1.1024-1.26041-2.0107-1.34351-.3475-.0317-.6989-.02-1.0487-.0262-.7553-.0136-1.5143.0625-2.2656-.04-.9283-.1267-1.7242-.5958-2.4538-1.1346-1.5584-1.1509-3.0636-1.1671-4.6221-.0054-1.2305.9171-2.6047 1.4161-3.9552 1.1837zm-3.3242 32.62901c-.1196-.172-.2945-.2668-.4812-.3446-.8039-.9459-1.2933-2.0867-1.9407-3.1297-.4061-.6544-1.0302-1.052-1.6878-1.4107-.6382-.3481-1.2957-.6641-1.8797-1.1056-.8486-.6414-1.2854-1.4976-1.3182-2.556-.0156-.5039-.03999-1.0126.00761-1.5126.127-1.3342-.24001-2.5123-.99981-3.5988-.2875-.4112-.5326-.857-.7541-1.3083-.5012-1.0204-.47859-2.0501.01141-3.0745.2788-.5831.63359-1.1214.97779-1.6648.5237-.8265.824-1.7033.7671-2.6975-.0344-.6009-.0082-1.205-.0156-1.8075-.0168-1.3577.5871-2.3631 1.7361-3.0523.4437-.2661.8921-.5279 1.3563-.755 1.0195-.4987 1.7692-1.2468 2.2729-2.2676.3458-.7012.705-1.39921 1.2239-2.00001.6367-.7372 1.451-1.072 2.4044-1.0994.4897-.0141.9844-.0449 1.4692.0053 1.3682.1415 2.563-.2656 3.6695-1.0397.3653-.2555.7649-.4654 1.1612-.6723 1.0712-.559 2.1449-.5309 3.2212.0031.5536.2746 1.0718.6076 1.5885.9406.8378.5399 1.7366.8169 2.7385.7732.6011-.0262 1.2039-.0088 1.8059-.0141 1.3596-.012 2.3532.6097 3.0329 1.7629.277.47001.5536.94211.7956 1.43061.4718.9526 1.1807 1.6509 2.1285 2.1249.5878.2939 1.1669.6064 1.7099.9803.9716.6692 1.4603 1.5958 1.4728 2.7735.0048.4624.035.9284-.0095 1.3866-.1313 1.3486.238 2.5426 1.0121 3.637.2416.3414.4414.7144.6409 1.0835.664 1.2286.5976 2.443-.0986 3.6359-.3458.5924-.6977 1.181-1.0483 1.7704-.3524.5926-.5137 1.2338-.5058 1.9223.0082.7006-.0001 1.4015.0119 2.102.0231 1.3589-.5783 2.3665-1.7207 3.0619-.4897.2981-.9937.5745-1.5024.8391-.8281.4307-1.5085 1.0063-1.9461 1.8485-.3352.6452-.6874 1.2816-1.0323 1.9218-.1957.1365-.3051.3443-.44.5309-.1776.1003-.313.2473-.4431.4004-.7498.5032-1.5864.635-2.4703.6044-.6282-.0217-1.2577-.0047-1.8867-.0063-.4375-.0012-.859.0797-1.2593.2555-1.2441.5469-2.2886 1.4801-3.6132 1.8719-.2163-.0617-.4346-.0136-.6521-.0128-1.057-.0219-1.9137-.5596-2.7459-1.1167-1.0264-.6869-2.1043-1.0891-3.3669-1.0107-.955.0595-1.9223.0846-2.8665-.1639-.1599-.1192-.3294-.2172-.5313-.2451z" fill="#6534ff"/><path d="m30.372 28.9516c.3403.0102.5694-.2716.47-.6203-.6055-2.1216-1.2198-4.2405-1.8322-6.3601-.0944-.3265-.3432-.3925-.6287-.3247-.2334.0554-.2949.2757-.3555.4803-.3927 1.3253-.7859 2.6506-1.1796 3.9757-.2148.7227-.4395 1.4426-.6422 2.1686-.0836.2993-.0199.5774.3264.6639.3018.0753.5096-.046.5908-.3714.0778-.3112.1949-.6125.2732-.9236.054-.2146.1654-.2914.3843-.2856.4891.0127.979.0124 1.4681.0001.2306-.0057.3574.0555.4062.3047.059.3002.1631.5921.256.8848.0715.2252.1851.4127.4632.4076zm-10.9977-3.6429c-.0331.3478.0675.6765.23.9951.3116.6105.6221 1.222.9178 1.8403.238.4978.5981.7932 1.1665.8127.5982.0205.9647-.2929 1.2102-.8016.3223-.6675.6576-1.3289.9716-2.0003.2702-.5776.2684-1.1651-.0124-1.742-.349-.717-.6936-1.4364-1.0597-2.1446-.4387-.8484-1.6578-.9095-2.1339-.078-.4438.7752-.8057 1.5978-1.1917 2.4053-.1032.216-.1208.4589-.0984.7131zm13.611-.1437c0 1.0645.0041 2.1291-.0025 3.1937-.002.3467.1208.5846.4919.5891.4236.0049.4879-.3169.4949-.6393.0129-.6022.0144-1.2049-.0006-1.8068-.0064-.2573.08-.3407.3361-.3351.6576.0146 1.3159.0156 1.9735.0013.7828-.0169 1.3773-.6045 1.4013-1.389.0179-.5877.0191-1.177-.0004-1.7647-.0264-.8002-.6441-1.383-1.4424-1.3852-.9519-.0026-1.9039.0113-2.8554-.0075-.3061-.0062-.4108.0673-.4043.3919.021 1.0502.0079 2.101.0079 3.1516zm-20.4232.013c0 1.0365-.0006 2.0731.0008 3.1097.0002.1115-.0151.2325.0219.3325.0863.2329.2623.3541.5217.3303.3238-.0298.4236-.2689.4326-.5293.0213-.6156.0254-1.2329.0049-1.8484-.0101-.3056.0667-.4214.3932-.4088.6429.0251 1.2878.019 1.9313.0033.7612-.0186 1.3574-.5982 1.3868-1.3594.0231-.6015.0224-1.2051.0004-1.8067-.0293-.7981-.6495-1.3705-1.4548-1.3723-.9518-.0021-1.9039.0139-2.8553-.0085-.3264-.0077-.3954.1017-.3903.406.0177 1.0502.0068 2.101.0068 3.1516zm6.1823-16.33171c1.3505.2324 2.7247-.2666 3.9552-1.1838 1.5584-1.1616 3.0637-1.1454 4.6221.0055.7296.5387 1.5254 1.0079 2.4538 1.1346.7512.1025 1.5103.0264 2.2656.04.3498.0063.7012-.0055 1.0487.0263.9083.0831 1.5591.5733 2.0107 1.34341.2902.4949.5756.9936.838 1.5035.5307 1.0307 1.3048 1.8065 2.3367 2.3339.5852.2992 1.1625.6128 1.7117.9778.8109.5389 1.1354 1.3187 1.1484 2.2556.0087.6165.0229 1.2348-.0127 1.8495-.0651 1.1249.269 2.1223.8708 3.0532.2811.4346.5433.8819.8038 1.3295.5897 1.0137.5596 2.0218-.0421 3.0211-.325.5396-.6445 1.0824-.9714 1.6208-.4472.7364-.6632 1.5293-.6607 2.3951.0024.8535.0583 1.7075-.0224 2.5615-.087.9212-.5971 1.5472-1.3575 2.0004-.4685.2793-.9411.555-1.4291.7978-1.0812.5382-1.8727 1.3501-2.4128 2.4265-.2382.4749-.5131.9316-.7751 1.3944-.5492.9704-1.3985 1.4112-2.4964 1.408-.6022-.0018-1.2058.0188-1.8063-.0144-1.1085-.0612-2.0943.2631-3.011.8617-.3981.26-.8149.4911-1.2191.7422-1.0697.6644-2.133.656-3.2004-.0088-.5345-.3328-1.0764-.6539-1.619-.9734-.6758-.398-1.4009-.6247-2.1929-.6169-.7421.0073-1.4844.009-2.2266.0092-1.0811.0005-1.9188-.4374-2.4664-1.3871-.1747-.3031-.3681-.5989-.5086-.9176-.6844-1.5516-1.834-2.6144-3.3682-3.2982-.3425-.1526-.6572-.3714-.9749-.575-.83151-.5325-1.16161-1.3289-1.16971-2.2849-.0038-.4483-.0253-.8992.0129-1.3447.1237-1.4464-.2529-2.7423-1.0971-3.9151-.1793-.249-.3135-.5298-.4798-.7889-.7114-1.1087-.6768-2.2104.0101-3.3161.3323-.5348.6521-1.0776.9727-1.6197.4008-.6779.603-1.4089.5907-2.2005-.0111-.7145-.0051-1.4294-.0112-2.1441-.0096-1.1043.4444-1.9445 1.41161-2.493.4624-.2622.9191-.5363 1.3936-.7749 1.0762-.541 1.8776-1.3438 2.4224-2.4186.3034-.5986.6233-1.1885 1.0101-1.74201.5-.7154 1.1991-1.0283 2.0378-1.0697.461-.0228.924-.0041 1.604-.0041z" fill="#fefefe"/><g fill="#6534ff"><path d="m13.5095 23.8852c0 .3495.0066.6992-.0025 1.0485-.0052.2018.0428.31.2772.3058.6564-.0116 1.3132-.0023 1.9697-.0052.3583-.0016.5483-.2053.5603-.5454.0182-.5167.0212-1.0349.001-1.5513-.0136-.3526-.1976-.5676-.5863-.563-.6286.0075-1.2575.0104-1.8859-.0018-.2595-.0052-.347.0989-.3366.3479.0134.321.0032.6429.0031.9645zm-.9475 1.2929c0-1.0507.0107-2.1014-.0068-3.1517-.0053-.3043.0638-.4137.3903-.406.9512.0225 1.9034.0063 2.8553.0085.8052.0018 1.4255.5742 1.4546 1.3724.0221.6015.0228 1.2052-.0003 1.8066-.0294.7613-.6256 1.3408-1.3869 1.3594-.6434.0158-1.2883.0218-1.9312-.0033-.3265-.0127-.4033.1032-.3931.4088.0204.6155.0164 1.2328-.005 1.8484-.009.2605-.1087.4995-.4326.5293-.2594.0238-.4354-.0974-.5216-.3303-.037-.0999-.0219-.221-.0221-.3325-.0012-1.0366-.0006-2.0731-.0006-3.1096z"/><path d="m33.9326 23.9023c0 .3495.0091.6993-.0033 1.0484-.008.2217.0807.2915.2951.2883.6424-.0096 1.2851-.0045 1.9277-.0034.3783.0007.5757-.2022.5868-.5638.0157-.5168.0211-1.0351-.0024-1.5513-.0161-.3564-.2178-.5532-.6018-.5467-.6144.0105-1.2296.0128-1.8438-.0017-.275-.0066-.3765.0931-.3624.3657.0166.3207.0039.643.0041.9645zm-.9477 1.2627c0-1.0506.0132-2.1014-.0079-3.1516-.0064-.3245.0983-.398.4043-.3919.9516.0188 1.9036.0049 2.8555.0076.7983.0021 1.416.5849 1.4424 1.3851.0195.5878.0183 1.177.0004 1.7647-.024.7845-.6185 1.3722-1.4013 1.3891-.6576.0143-1.3159.0132-1.9735-.0014-.2561-.0056-.3425.0778-.3361.3351.0149.6019.0135 1.2047.0006 1.8068-.007.3224-.0713.6442-.4949.6393-.3711-.0044-.4939-.2423-.4919-.5891.0065-1.0645.0024-2.1292.0024-3.1937z"/><path d="m23.0924 25.2976c-.0272-.1359-.0281-.2844-.0861-.4056-.338-.7064-.6794-1.4116-1.0411-2.106-.1575-.3023-.4058-.2994-.5647.0093-.3455.6711-.6693 1.3537-.9908 2.0369-.166.3527-.1218.7101.0468 1.052.3031.6147.6121 1.2265.9177 1.8401.07.1404.1409.29.3257.2818.1588-.007.2302-.1368.2949-.2663.3192-.6379.6419-1.2741.9611-1.9121.0824-.1647.1306-.3395.1365-.5301zm-3.7184.0111c-.0224-.2542-.0047-.4971.0985-.7131.3859-.8075.7478-1.6301 1.1916-2.4052.4761-.8316 1.6952-.7705 2.1339.0779.3661.7082.7107 1.4277 1.0597 2.1446.2808.5769.2827 1.1644.0124 1.742-.314.6713-.6493 1.3328-.9716 2.0003-.2455.5087-.6119.8221-1.2102.8016-.5684-.0195-.9284-.3149-1.1665-.8126-.2957-.6184-.6061-1.2299-.9178-1.8404-.1625-.3186-.263-.6472-.23-.9951z"/><path d="m28.5899 24.006c-.0361.0008-.0721.0016-.1083.0024-.1286.4365-.268.8701-.3829 1.3101-.0938.3594-.4461.8413-.2017 1.047.2385.2007.7709.0489 1.1741.0576.1753.0039.2089-.0546.1574-.2247-.2202-.7285-.4269-1.4613-.6386-2.1924zm1.7822 4.9454c-.2783.0053-.392-.1822-.4635-.4073-.0929-.2928-.197-.5847-.2559-.8849-.0489-.2492-.1757-.3104-.4063-.3047-.4891.0123-.979.0126-1.4681-.0001-.2189-.0057-.3303.0711-.3843.2856-.0783.3111-.1954.6124-.2732.9236-.0812.3254-.289.4467-.5908.3714-.3463-.0864-.41-.3645-.3264-.6639.2028-.726.4274-1.4459.6422-2.1686.3938-1.3251.7869-2.6503 1.1796-3.9757.0606-.2046.1221-.4249.3555-.4803.2855-.0678.5343-.0018.6287.3247.6124 2.1196 1.2267 4.2385 1.8322 6.3601.0995.3487-.1297.6305-.4697.6201z"/></g><path d="m13.5093 23.8852c.0001-.3216.0102-.6435-.0032-.9645-.0103-.249.0772-.3531.3367-.3479.6284.0121 1.2573.0093 1.8858.0018.3888-.0046.5727.2104.5864.5629.0201.5164.0172 1.0347-.0011 1.5514-.0119.3401-.2018.5438-.5601.5454-.6566.0029-1.3134-.0065-1.9697.0051-.2345.0042-.2826-.1039-.2774-.3058.0092-.3493.0026-.6989.0026-1.0484z" fill="#fefefe"/><path d="m33.9324 23.9023c0-.3216.0126-.6438-.0039-.9645-.0141-.2726.0874-.3723.3623-.3658.6143.0146 1.2294.0122 1.8439.0018.3839-.0065.5856.1903.6018.5467.0235.5162.018 1.0345.0023 1.5513-.0111.3615-.2084.5645-.5867.5638-.6426-.0012-1.2853-.0062-1.9278.0034-.2144.0032-.303-.0666-.2951-.2883.0125-.3491.0033-.6989.0032-1.0484z" fill="#fefefe"/><path d="m23.0927 25.2976c-.0059.1906-.0541.3654-.1366.5301-.3191.638-.6418 1.2741-.961 1.9121-.0647.1295-.1361.2593-.2949.2663-.1848.0082-.2557-.1414-.3257-.2819-.3056-.6135-.6146-1.2253-.9177-1.84-.1686-.3419-.2128-.6993-.0468-1.0521.3215-.6832.6453-1.3657.9908-2.0369.1588-.3086.4072-.3116.5647-.0092.3617.6944.703 1.3996 1.0411 2.1059.058.1212.0589.2698.0861.4057z" fill="#fefefe"/><path d="m28.5899 24.006c.2117.7311.4184 1.4639.6386 2.1924.0515.1701.0179.2286-.1574.2247-.4032-.0087-.9356.1431-1.1741-.0576-.2444-.2057.1079-.6876.2017-1.047.1149-.44.2542-.8737.3829-1.3101.0362-.0008.0722-.0016.1083-.0024z" fill="#fefefe"/></g></g></g></svg>