<svg width="36" height="36" viewBox="0 0 50 50" fill="none" xmlns="http://www.w3.org/2000/svg">
<g clip-path="url(#clip0_1098_30517)">
<g filter="url(#filter0_d_1098_30517)">
<path d="M0 20C0 8.9543 8.9543 0 20 0H30C41.0457 0 50 8.9543 50 20V30C50 41.0457 41.0457 50 30 50H20C8.9543 50 0 41.0457 0 30V20Z" fill="#6534FF"/>
<path d="M0 20C0 8.9543 8.9543 0 20 0H30C41.0457 0 50 8.9543 50 20V30C50 41.0457 41.0457 50 30 50H20C8.9543 50 0 41.0457 0 30V20Z" fill="white" fill-opacity="0.8"/>
<mask id="mask0_1098_30517" style="mask-type:alpha" maskUnits="userSpaceOnUse" x="6" y="5" width="38" height="40">
<path d="M6 5.9754H44V44.0245H6V5.9754Z" fill="white"/>
</mask>
<g mask="url(#mask0_1098_30517)">
<path fill-rule="evenodd" clip-rule="evenodd" d="M18.7439 8.84629C18.064 8.84629 17.6009 8.82749 17.14 8.85029C16.3013 8.89189 15.6021 9.20479 15.1021 9.92019C14.7153 10.4736 14.3954 11.0635 14.092 11.662C13.5473 12.7369 12.7458 13.5396 11.6697 14.0807C11.1951 14.3193 10.7384 14.5934 10.276 14.8556C9.30881 15.404 8.8548 16.2442 8.8644 17.3486C8.8705 18.0633 8.8645 18.7781 8.8756 19.4927C8.8879 20.2843 8.6857 21.0154 8.2849 21.6932C7.9643 22.2352 7.6446 22.7781 7.3122 23.313C6.6254 24.4186 6.59071 25.5203 7.30211 26.6291C7.46841 26.888 7.6026 27.1689 7.7819 27.4179C8.6261 28.5907 9.00271 29.8866 8.87901 31.333C8.84091 31.7784 8.8623 32.2295 8.8662 32.6778C8.8742 33.6337 9.20431 34.4301 10.0358 34.9627C10.3535 35.1662 10.6683 35.385 11.0107 35.5376C12.5449 36.2213 13.6945 37.2841 14.3789 38.8358C14.5194 39.1545 14.7128 39.4503 14.8875 39.7534C15.4351 40.7031 16.2729 41.141 17.3539 41.1406C18.0961 41.1403 18.8384 41.1386 19.5806 41.1312C20.3725 41.1235 21.0976 41.3502 21.7734 41.7482C22.316 42.0677 22.8579 42.3888 23.3924 42.7216C24.4598 43.3864 25.5232 43.3948 26.5928 42.7304C26.997 42.4794 27.4138 42.2483 27.8119 41.9882C28.7286 41.3896 29.7145 41.0652 30.8229 41.1265C31.4234 41.1597 32.027 41.1391 32.6292 41.1409C33.7271 41.1441 34.5764 40.7033 35.1257 39.7329C35.3876 39.27 35.6625 38.8134 35.9007 38.3385C36.4408 37.2621 37.2323 36.4502 38.3135 35.9121C38.8015 35.6692 39.2742 35.3936 39.7426 35.1142C40.503 34.661 41.0131 34.035 41.1001 33.1138C41.1808 32.2598 41.1249 31.4058 41.1225 30.5522C41.1201 29.6864 41.336 28.8936 41.7832 28.1572C42.1101 27.6188 42.4297 27.076 42.7546 26.5365C43.3563 25.5372 43.3865 24.5289 42.7967 23.5153C42.5362 23.0676 42.274 22.6205 41.993 22.1857C41.3911 21.2549 41.057 20.2576 41.1221 19.1326C41.1577 18.5179 41.1435 17.8995 41.1349 17.2831C41.1218 16.3462 40.7973 15.5663 39.9864 15.0276C39.4372 14.6624 38.8599 14.3488 38.2747 14.0497C37.2429 13.5222 36.4687 12.7465 35.9381 11.7158C35.6756 11.2059 35.3902 10.7072 35.1 10.2123C34.6484 9.44219 33.9976 8.95189 33.0893 8.86879C32.7418 8.83709 32.3904 8.84879 32.0406 8.84259C31.2853 8.82899 30.5263 8.90509 29.775 8.80259C28.8467 8.67589 28.0508 8.20679 27.3212 7.66799C25.7628 6.51709 24.2576 6.50089 22.6991 7.66259C21.4686 8.57969 20.0944 9.07869 18.7439 8.84629ZM15.4197 41.4753C15.3001 41.3033 15.1252 41.2085 14.9385 41.1307C14.1346 40.1848 13.6452 39.044 12.9978 38.001C12.5917 37.3466 11.9676 36.949 11.31 36.5903C10.6718 36.2422 10.0143 35.9262 9.4303 35.4847C8.5817 34.8433 8.1449 33.9871 8.1121 32.9287C8.0965 32.4248 8.07211 31.9161 8.11971 31.4161C8.24671 30.0819 7.8797 28.9038 7.1199 27.8173C6.8324 27.4061 6.5873 26.9603 6.3658 26.509C5.8646 25.4886 5.88721 24.4589 6.37721 23.4345C6.65601 22.8514 7.0108 22.3131 7.355 21.7697C7.8787 20.9432 8.179 20.0664 8.1221 19.0722C8.0877 18.4713 8.1139 17.8672 8.1065 17.2647C8.0897 15.907 8.6936 14.9016 9.8426 14.2124C10.2863 13.9463 10.7347 13.6845 11.1989 13.4574C12.2184 12.9587 12.9681 12.2106 13.4718 11.1898C13.8176 10.4886 14.1768 9.79059 14.6957 9.18979C15.3324 8.45259 16.1467 8.11779 17.1001 8.09039C17.5898 8.07629 18.0845 8.04549 18.5693 8.09569C19.9375 8.23719 21.1323 7.83009 22.2388 7.05599C22.6041 6.80049 23.0037 6.59059 23.4 6.38369C24.4712 5.82469 25.5449 5.85279 26.6212 6.38679C27.1748 6.66139 27.693 6.99439 28.2097 7.32739C29.0475 7.86729 29.9463 8.14429 30.9482 8.10059C31.5493 8.07439 32.1521 8.09179 32.7541 8.08649C34.1137 8.07449 35.1073 8.69619 35.787 9.84939C36.064 10.3194 36.3406 10.7915 36.5826 11.28C37.0544 12.2326 37.7633 12.9309 38.7111 13.4049C39.2989 13.6988 39.878 14.0113 40.421 14.3852C41.3926 15.0544 41.8813 15.981 41.8938 17.1587C41.8986 17.6211 41.9288 18.0871 41.8843 18.5453C41.753 19.8939 42.1223 21.0879 42.8964 22.1823C43.138 22.5237 43.3378 22.8967 43.5373 23.2658C44.2013 24.4944 44.1349 25.7088 43.4387 26.9017C43.0929 27.4941 42.741 28.0827 42.3904 28.6721C42.038 29.2647 41.8767 29.9059 41.8846 30.5944C41.8928 31.295 41.8845 31.9959 41.8965 32.6964C41.9196 34.0553 41.3182 35.0629 40.1758 35.7583C39.6861 36.0564 39.1821 36.3328 38.6734 36.5974C37.8453 37.0281 37.1649 37.6037 36.7273 38.4459C36.3921 39.0911 36.0399 39.7275 35.695 40.3677C35.4993 40.5042 35.3899 40.712 35.255 40.8986C35.0774 40.9989 34.942 41.1459 34.8119 41.299C34.0621 41.8022 33.2255 41.934 32.3416 41.9034C31.7134 41.8817 31.0839 41.8987 30.4549 41.8971C30.0174 41.8959 29.5959 41.9768 29.1956 42.1526C27.9515 42.6995 26.907 43.6327 25.5824 44.0245C25.3661 43.9628 25.1478 44.0109 24.9303 44.0117C23.8733 43.9898 23.0166 43.4521 22.1844 42.895C21.158 42.2081 20.0801 41.8059 18.8175 41.8843C17.8625 41.9438 16.8952 41.9689 15.951 41.7204C15.7911 41.6012 15.6216 41.5032 15.4197 41.4753Z" fill="#6534FF"/>
<path fill-rule="evenodd" clip-rule="evenodd" d="M30.372 28.9516C30.7123 28.9618 30.9414 28.68 30.842 28.3313C30.2365 26.2097 29.6222 24.0908 29.0098 21.9712C28.9154 21.6447 28.6666 21.5787 28.3811 21.6465C28.1477 21.7019 28.0862 21.9222 28.0256 22.1268C27.6329 23.4521 27.2397 24.7774 26.846 26.1025C26.6312 26.8252 26.4065 27.5451 26.2038 28.2711C26.1202 28.5704 26.1839 28.8485 26.5302 28.935C26.832 29.0103 27.0398 28.889 27.121 28.5636C27.1988 28.2524 27.3159 27.9511 27.3942 27.64C27.4482 27.4254 27.5596 27.3486 27.7785 27.3544C28.2676 27.3671 28.7575 27.3668 29.2466 27.3545C29.4772 27.3488 29.604 27.41 29.6528 27.6592C29.7118 27.9594 29.8159 28.2513 29.9088 28.544C29.9803 28.7692 30.0939 28.9567 30.372 28.9516ZM19.3743 25.3087C19.3412 25.6565 19.4418 25.9852 19.6043 26.3038C19.9159 26.9143 20.2264 27.5258 20.5221 28.1441C20.7601 28.6419 21.1202 28.9373 21.6886 28.9568C22.2868 28.9773 22.6533 28.6639 22.8988 28.1552C23.2211 27.4877 23.5564 26.8263 23.8704 26.1549C24.1406 25.5773 24.1388 24.9898 23.858 24.4129C23.509 23.6959 23.1644 22.9765 22.7983 22.2683C22.3596 21.4199 21.1405 21.3588 20.6644 22.1903C20.2206 22.9655 19.8587 23.7881 19.4727 24.5956C19.3695 24.8116 19.3519 25.0545 19.3743 25.3087ZM32.9853 25.165C32.9853 26.2295 32.9894 27.2941 32.9828 28.3587C32.9808 28.7054 33.1036 28.9433 33.4747 28.9478C33.8983 28.9527 33.9626 28.6309 33.9696 28.3085C33.9825 27.7063 33.984 27.1036 33.969 26.5017C33.9626 26.2444 34.049 26.161 34.3051 26.1666C34.9627 26.1812 35.621 26.1822 36.2786 26.1679C37.0614 26.151 37.6559 25.5634 37.6799 24.7789C37.6978 24.1912 37.699 23.6019 37.6795 23.0142C37.6531 22.214 37.0354 21.6312 36.2371 21.629C35.2852 21.6264 34.3332 21.6403 33.3817 21.6215C33.0756 21.6153 32.9709 21.6888 32.9774 22.0134C32.9984 23.0636 32.9853 24.1144 32.9853 25.165ZM12.5621 25.178C12.5621 26.2145 12.5615 27.2511 12.5629 28.2877C12.5631 28.3992 12.5478 28.5202 12.5848 28.6202C12.6711 28.8531 12.8471 28.9743 13.1065 28.9505C13.4303 28.9207 13.5301 28.6816 13.5391 28.4212C13.5604 27.8056 13.5645 27.1883 13.544 26.5728C13.5339 26.2672 13.6107 26.1514 13.9372 26.164C14.5801 26.1891 15.225 26.183 15.8685 26.1673C16.6297 26.1487 17.2259 25.5691 17.2553 24.8079C17.2784 24.2064 17.2777 23.6028 17.2557 23.0012C17.2264 22.2031 16.6062 21.6307 15.8009 21.6289C14.8491 21.6268 13.897 21.6428 12.9456 21.6204C12.6192 21.6127 12.5502 21.7221 12.5553 22.0264C12.573 23.0766 12.5621 24.1274 12.5621 25.178ZM18.7444 8.84629C20.0949 9.07869 21.4691 8.57969 22.6996 7.66249C24.258 6.50089 25.7633 6.51709 27.3217 7.66799C28.0513 8.20669 28.8471 8.67589 29.7755 8.80259C30.5267 8.90509 31.2858 8.82899 32.0411 8.84259C32.3909 8.84889 32.7423 8.83709 33.0898 8.86889C33.9981 8.95199 34.6489 9.44219 35.1005 10.2123C35.3907 10.7072 35.6761 11.2059 35.9385 11.7158C36.4692 12.7465 37.2433 13.5223 38.2752 14.0497C38.8604 14.3489 39.4377 14.6625 39.9869 15.0275C40.7978 15.5664 41.1223 16.3462 41.1353 17.2831C41.144 17.8996 41.1582 18.5179 41.1226 19.1326C41.0575 20.2575 41.3916 21.2549 41.9934 22.1858C42.2745 22.6204 42.5367 23.0677 42.7972 23.5153C43.3869 24.529 43.3568 25.5371 42.7551 26.5364C42.4301 27.076 42.1106 27.6188 41.7837 28.1572C41.3365 28.8936 41.1205 29.6865 41.123 30.5523C41.1254 31.4058 41.1813 32.2598 41.1006 33.1138C41.0136 34.035 40.5035 34.661 39.7431 35.1142C39.2746 35.3935 38.802 35.6692 38.314 35.912C37.2328 36.4502 36.4413 37.2621 35.9012 38.3385C35.663 38.8134 35.3881 39.2701 35.1261 39.7329C34.5769 40.7033 33.7276 41.1441 32.6297 41.1409C32.0275 41.1391 31.4239 41.1597 30.8234 41.1265C29.7149 41.0653 28.7291 41.3896 27.8124 41.9882C27.4143 42.2482 26.9975 42.4793 26.5933 42.7304C25.5236 43.3948 24.4603 43.3864 23.3929 42.7216C22.8584 42.3888 22.3165 42.0677 21.7739 41.7482C21.0981 41.3502 20.373 41.1235 19.581 41.1313C18.8389 41.1386 18.0966 41.1403 17.3544 41.1405C16.2733 41.141 15.4356 40.7031 14.888 39.7534C14.7133 39.4503 14.5199 39.1545 14.3794 38.8358C13.695 37.2842 12.5454 36.2214 11.0112 35.5376C10.6687 35.385 10.354 35.1662 10.0363 34.9626C9.20479 34.4301 8.87469 33.6337 8.86659 32.6777C8.86279 32.2294 8.84129 31.7785 8.87949 31.333C9.00319 29.8866 8.62659 28.5907 7.78239 27.4179C7.60309 27.1689 7.46889 26.8881 7.30259 26.629C6.59119 25.5203 6.62579 24.4186 7.31269 23.3129C7.64499 22.7781 7.96479 22.2353 8.28539 21.6932C8.68619 21.0153 8.88839 20.2843 8.87609 19.4927C8.86499 18.7782 8.87099 18.0633 8.86489 17.3486C8.85529 16.2443 9.30929 15.4041 10.2765 14.8556C10.7389 14.5934 11.1956 14.3193 11.6701 14.0807C12.7463 13.5397 13.5477 12.7369 14.0925 11.6621C14.3959 11.0635 14.7158 10.4736 15.1026 9.92009C15.6026 9.20469 16.3017 8.89179 17.1404 8.85039C17.6014 8.82759 18.0644 8.84629 18.7444 8.84629Z" fill="#FEFEFE"/>
<path fill-rule="evenodd" clip-rule="evenodd" d="M13.5095 23.8852C13.5095 24.2347 13.5161 24.5844 13.507 24.9337C13.5018 25.1355 13.5498 25.2437 13.7842 25.2395C14.4406 25.2279 15.0974 25.2372 15.7539 25.2343C16.1122 25.2327 16.3022 25.029 16.3142 24.6889C16.3324 24.1722 16.3354 23.654 16.3152 23.1376C16.3016 22.785 16.1176 22.57 15.7289 22.5746C15.1003 22.5821 14.4714 22.585 13.843 22.5728C13.5835 22.5676 13.496 22.6717 13.5064 22.9207C13.5198 23.2417 13.5096 23.5636 13.5095 23.8852ZM12.562 25.1781C12.562 24.1274 12.5727 23.0767 12.5552 22.0264C12.5499 21.7221 12.619 21.6127 12.9455 21.6204C13.8967 21.6429 14.8489 21.6267 15.8008 21.6289C16.606 21.6307 17.2263 22.2031 17.2554 23.0013C17.2775 23.6028 17.2782 24.2065 17.2551 24.8079C17.2257 25.5692 16.6295 26.1487 15.8682 26.1673C15.2248 26.1831 14.5799 26.1891 13.937 26.164C13.6105 26.1513 13.5337 26.2672 13.5439 26.5728C13.5643 27.1883 13.5603 27.8056 13.5389 28.4212C13.5299 28.6817 13.4302 28.9207 13.1063 28.9505C12.8469 28.9743 12.6709 28.8531 12.5847 28.6202C12.5477 28.5203 12.5628 28.3992 12.5626 28.2877C12.5614 27.2511 12.562 26.2146 12.562 25.1781Z" fill="#6534FF"/>
<path fill-rule="evenodd" clip-rule="evenodd" d="M33.9326 23.9023C33.9326 24.2518 33.9417 24.6016 33.9293 24.9507C33.9213 25.1724 34.01 25.2422 34.2244 25.239C34.8668 25.2294 35.5095 25.2345 36.1521 25.2356C36.5304 25.2363 36.7278 25.0334 36.7389 24.6718C36.7546 24.155 36.76 23.6367 36.7365 23.1205C36.7204 22.7641 36.5187 22.5673 36.1347 22.5738C35.5203 22.5843 34.9051 22.5866 34.2909 22.5721C34.0159 22.5655 33.9144 22.6652 33.9285 22.9378C33.9451 23.2585 33.9324 23.5808 33.9326 23.9023ZM32.9849 25.165C32.9849 24.1144 32.9981 23.0636 32.977 22.0134C32.9706 21.6889 33.0753 21.6154 33.3813 21.6215C34.3329 21.6403 35.2849 21.6264 36.2368 21.6291C37.0351 21.6312 37.6528 22.214 37.6792 23.0142C37.6987 23.602 37.6975 24.1912 37.6796 24.7789C37.6556 25.5634 37.0611 26.1511 36.2783 26.168C35.6207 26.1823 34.9624 26.1812 34.3048 26.1666C34.0487 26.161 33.9623 26.2444 33.9687 26.5017C33.9836 27.1036 33.9822 27.7064 33.9693 28.3085C33.9623 28.6309 33.898 28.9527 33.4744 28.9478C33.1033 28.9434 32.9805 28.7055 32.9825 28.3587C32.989 27.2942 32.9849 26.2295 32.9849 25.165Z" fill="#6534FF"/>
<path fill-rule="evenodd" clip-rule="evenodd" d="M23.0924 25.2976C23.0652 25.1617 23.0643 25.0132 23.0063 24.892C22.6683 24.1856 22.3269 23.4804 21.9652 22.786C21.8077 22.4837 21.5594 22.4866 21.4005 22.7953C21.055 23.4664 20.7312 24.149 20.4097 24.8322C20.2437 25.1849 20.2879 25.5423 20.4565 25.8842C20.7596 26.4989 21.0686 27.1107 21.3742 27.7243C21.4442 27.8647 21.5151 28.0143 21.6999 28.0061C21.8587 27.9991 21.9301 27.8693 21.9948 27.7398C22.314 27.1019 22.6367 26.4657 22.9559 25.8277C23.0383 25.663 23.0865 25.4882 23.0924 25.2976ZM19.374 25.3087C19.3516 25.0545 19.3693 24.8116 19.4725 24.5956C19.8584 23.7881 20.2203 22.9655 20.6641 22.1904C21.1402 21.3588 22.3593 21.4199 22.798 22.2683C23.1641 22.9765 23.5087 23.696 23.8577 24.4129C24.1385 24.9898 24.1404 25.5773 23.8701 26.1549C23.5561 26.8262 23.2208 27.4877 22.8985 28.1552C22.653 28.6639 22.2866 28.9773 21.6883 28.9568C21.1199 28.9373 20.7599 28.6419 20.5218 28.1442C20.2261 27.5258 19.9157 26.9143 19.604 26.3038C19.4415 25.9852 19.341 25.6566 19.374 25.3087Z" fill="#6534FF"/>
<path fill-rule="evenodd" clip-rule="evenodd" d="M28.5899 24.006C28.5538 24.0068 28.5178 24.0076 28.4816 24.0084C28.353 24.4449 28.2136 24.8785 28.0987 25.3185C28.0049 25.6779 27.6526 26.1598 27.897 26.3655C28.1355 26.5662 28.6679 26.4144 29.0711 26.4231C29.2464 26.427 29.28 26.3685 29.2285 26.1984C29.0083 25.4699 28.8016 24.7371 28.5899 24.006ZM30.3721 28.9514C30.0938 28.9567 29.9801 28.7692 29.9086 28.5441C29.8157 28.2513 29.7116 27.9594 29.6527 27.6592C29.6038 27.41 29.477 27.3488 29.2464 27.3545C28.7573 27.3668 28.2674 27.3671 27.7783 27.3544C27.5594 27.3487 27.448 27.4255 27.394 27.64C27.3157 27.9511 27.1986 28.2524 27.1208 28.5636C27.0396 28.889 26.8318 29.0103 26.53 28.935C26.1837 28.8486 26.12 28.5705 26.2036 28.2711C26.4064 27.5451 26.631 26.8252 26.8458 26.1025C27.2396 24.7774 27.6327 23.4522 28.0254 22.1268C28.086 21.9222 28.1475 21.7019 28.3809 21.6465C28.6664 21.5787 28.9152 21.6447 29.0096 21.9712C29.622 24.0908 30.2363 26.2097 30.8418 28.3313C30.9413 28.68 30.7121 28.9618 30.3721 28.9514Z" fill="#6534FF"/>
<path fill-rule="evenodd" clip-rule="evenodd" d="M13.5093 23.8852C13.5094 23.5636 13.5195 23.2417 13.5061 22.9207C13.4958 22.6717 13.5833 22.5676 13.8428 22.5728C14.4712 22.5849 15.1001 22.5821 15.7286 22.5746C16.1174 22.57 16.3013 22.785 16.315 23.1375C16.3351 23.6539 16.3322 24.1722 16.3139 24.6889C16.302 25.029 16.1121 25.2327 15.7538 25.2343C15.0972 25.2372 14.4404 25.2278 13.7841 25.2394C13.5496 25.2436 13.5015 25.1355 13.5067 24.9336C13.5159 24.5843 13.5093 24.2347 13.5093 23.8852Z" fill="#FEFEFE"/>
<path fill-rule="evenodd" clip-rule="evenodd" d="M33.9324 23.9023C33.9324 23.5807 33.945 23.2585 33.9285 22.9378C33.9144 22.6652 34.0159 22.5655 34.2908 22.572C34.9051 22.5866 35.5202 22.5842 36.1347 22.5738C36.5186 22.5673 36.7203 22.7641 36.7365 23.1205C36.76 23.6367 36.7545 24.155 36.7388 24.6718C36.7277 25.0333 36.5304 25.2363 36.1521 25.2356C35.5095 25.2344 34.8668 25.2294 34.2243 25.239C34.0099 25.2422 33.9213 25.1724 33.9292 24.9507C33.9417 24.6016 33.9325 24.2518 33.9324 23.9023Z" fill="#FEFEFE"/>
<path fill-rule="evenodd" clip-rule="evenodd" d="M23.0927 25.2976C23.0868 25.4882 23.0386 25.663 22.9561 25.8277C22.637 26.4657 22.3143 27.1018 21.9951 27.7398C21.9304 27.8693 21.859 27.9991 21.7002 28.0061C21.5154 28.0143 21.4445 27.8647 21.3745 27.7242C21.0689 27.1107 20.7599 26.4989 20.4568 25.8842C20.2882 25.5423 20.244 25.1849 20.41 24.8321C20.7315 24.1489 21.0553 23.4664 21.4008 22.7952C21.5596 22.4866 21.808 22.4836 21.9655 22.786C22.3272 23.4804 22.6685 24.1856 23.0066 24.8919C23.0646 25.0131 23.0655 25.1617 23.0927 25.2976Z" fill="#FEFEFE"/>
<path fill-rule="evenodd" clip-rule="evenodd" d="M28.5899 24.006C28.8016 24.7371 29.0083 25.4699 29.2285 26.1984C29.28 26.3685 29.2464 26.427 29.0711 26.4231C28.6679 26.4144 28.1355 26.5662 27.897 26.3655C27.6526 26.1598 28.0049 25.6779 28.0987 25.3185C28.2136 24.8785 28.3529 24.4448 28.4816 24.0084C28.5178 24.0076 28.5538 24.0068 28.5899 24.006Z" fill="#FEFEFE"/>
</g>
</g>
</g>
<defs>
<filter id="filter0_d_1098_30517" x="-30" y="-18" width="110" height="110" filterUnits="userSpaceOnUse" color-interpolation-filters="sRGB">
<feFlood flood-opacity="0" result="BackgroundImageFix"/>
<feColorMatrix in="SourceAlpha" type="matrix" values="0 0 0 0 0 0 0 0 0 0 0 0 0 0 0 0 0 0 127 0" result="hardAlpha"/>
<feOffset dy="12"/>
<feGaussianBlur stdDeviation="15"/>
<feColorMatrix type="matrix" values="0 0 0 0 0.0784314 0 0 0 0 0.156863 0 0 0 0 0.313726 0 0 0 0.05 0"/>
<feBlend mode="normal" in2="BackgroundImageFix" result="effect1_dropShadow_1098_30517"/>
<feBlend mode="normal" in="SourceGraphic" in2="effect1_dropShadow_1098_30517" result="shape"/>
</filter>
<clipPath id="clip0_1098_30517">
<rect width="50" height="50" fill="white"/>
</clipPath>
</defs>
</svg>
