<svg width="18" height="18" viewBox="0 0 18 18" fill="none" xmlns="http://www.w3.org/2000/svg">
<path fill-rule="evenodd" clip-rule="evenodd" d="M2 8C2 4.691 4.691 2 8 2C11.309 2 14 4.691 14 8C14 11.309 11.309 14 8 14C4.691 14 2 11.309 2 8ZM17.707 16.293L14.312 12.897C15.365 11.543 16 9.846 16 8C16 3.589 12.411 0 8 0C3.589 0 0 3.589 0 8C0 12.411 3.589 16 8 16C9.846 16 11.543 15.365 12.897 14.312L16.293 17.707C16.488 17.902 16.744 18 17 18C17.256 18 17.512 17.902 17.707 17.707C18.098 17.316 18.098 16.684 17.707 16.293Z" fill="url(#paint0_linear_2580_52836)"/>
<defs>
<linearGradient id="paint0_linear_2580_52836" x1="2.17837" y1="-22.125" x2="23.7282" y2="-13.7003" gradientUnits="userSpaceOnUse">
<stop stop-color="#4368EA"/>
<stop offset="1" stop-color="#C490DD"/>
</linearGradient>
</defs>
</svg>
