<svg fill="none" height="16" viewBox="0 0 17 16" width="17" xmlns="http://www.w3.org/2000/svg"><path d="m5.74967.916626c-1.31666 0-2.41914.882504-2.78081 2.083334h-1.80252c-.459999 0-.833332.3725-.833332.83333 0 .46084.373333.83334.833332.83334h1.80252c.36167 1.20083 1.46415 2.08333 2.78081 2.08333 1.60834 0 2.91667-1.30833 2.91667-2.91667 0-1.60833-1.30833-2.916664-2.91667-2.916664zm0 4.166664c-.68916 0-1.25-.56083-1.25-1.25 0-.68916.56084-1.25 1.25-1.25.68917 0 1.25.56084 1.25 1.25 0 .68917-.56083 1.25-1.25 1.25zm4.58333-1.25c0-.46083.3733-.83333.8333-.83333h5c.46 0 .8334.3725.8334.83333 0 .46084-.3734.83334-.8334.83334h-5c-.46 0-.8333-.3725-.8333-.83334zm5.8333 7.50001h-1.8025c-.3616-1.2008-1.4641-2.08334-2.7808-2.08334-1.60833 0-2.91666 1.30834-2.91666 2.91664 0 1.6084 1.30833 2.9167 2.91666 2.9167 1.3167 0 2.4192-.8825 2.7808-2.0833h1.8025c.46 0 .8334-.3725.8334-.8334 0-.4608-.3734-.8333-.8334-.8333zm-4.5833 2.0833c-.6892 0-1.25-.5608-1.25-1.25 0-.6891.5608-1.25 1.25-1.25s1.25.5609 1.25 1.25c0 .6892-.5608 1.25-1.25 1.25zm-4.58333-1.25c0 .4609-.37333.8334-.83333.8334h-5c-.459999 0-.833332-.3725-.833332-.8334 0-.4608.373333-.8333.833332-.8333h5c.46 0 .83333.3725.83333.8333z" fill="#ccc7c7"/></svg>