<svg fill="none" height="18" viewBox="0 0 17 18" width="17" xmlns="http://www.w3.org/2000/svg"><path d="m16.8888 4.20833c0 .46084-.3733.83334-.8333.83334h-15c-.459999 0-.833332-.3725-.833332-.83334 0-.46083.373333-.83333.833332-.83333h2.96585c.35917 0 .67665-.2284.79081-.57007l.26332-.79c.2275-.68166.86336-1.13993 1.58086-1.13993h3.79916c.7184 0 1.3542.45829 1.5808 1.13912l.2634.79163c.1133.34.4316.56925.7908.56925h2.965c.46 0 .8333.3725.8333.83333zm-2.25 2.52503-.5083 7.66664c-.1083 1.5333-1.3917 2.725-2.9167 2.725h-5.31663c-1.525 0-2.80834-1.1917-2.91667-2.7167l-.50832-7.67494c-.00833-.10834.03334-.2251.10834-.30843.08333-.08334.19166-.13326.30832-.13326h11.33336c.1166 0 .225.04992.3083.13326.075.08333.1167.20009.1083.30843zm-6.91663 2.47497c0-.45833-.375-.83333-.83334-.83333-.45833 0-.83333.375-.83333.83333v4.16667c0 .4583.375.8333.83333.8333.45834 0 .83334-.375.83334-.8333zm3.33333 0c0-.45833-.375-.83333-.8333-.83333-.45837 0-.83337.375-.83337.83333v4.16667c0 .4583.375.8333.83337.8333.4583 0 .8333-.375.8333-.8333z" fill="#ccc7c7"/></svg>