<svg fill="none" height="20" viewBox="0 0 20 20" width="20" xmlns="http://www.w3.org/2000/svg"><path d="m18.3333 5.20833c0 .46084-.3733.83334-.8333.83334h-15.00004c-.46 0-.83333-.3725-.83333-.83334 0-.46083.37333-.83333.83333-.83333h2.96585c.35917 0 .67665-.2284.79081-.57007l.26332-.79c.2275-.68166.86336-1.13993 1.58086-1.13993h3.7992c.7183 0 1.3541.45829 1.5808 1.13912l.2633.79163c.1133.34.4317.56925.7909.56925h2.965c.46 0 .8333.3725.8333.83333zm-2.25 2.52503-.5083 7.66664c-.1084 1.5333-1.3917 2.725-2.9167 2.725h-5.31668c-1.525 0-2.80833-1.1917-2.91666-2.7167l-.50832-7.67494c-.00834-.10834.03333-.2251.10833-.30843.08334-.08334.19167-.13326.30833-.13326h11.3333c.1167 0 .225.04992.3083.13326.075.08333.1167.20009.1084.30843zm-6.91667 2.47494c0-.4583-.375-.8333-.83334-.8333-.45833 0-.83333.375-.83333.8333v4.1667c0 .4583.375.8333.83333.8333.45834 0 .83334-.375.83334-.8333zm3.33337 0c0-.4583-.375-.8333-.8334-.8333-.4583 0-.8333.375-.8333.8333v4.1667c0 .4583.375.8333.8333.8333.4584 0 .8334-.375.8334-.8333z" fill="#eb5757" fill-opacity=".8"/></svg>