<svg fill="none" height="16" viewBox="0 0 16 16" width="16" xmlns="http://www.w3.org/2000/svg"><path d="m5.21189 14c5.66031 0 8.75751-4.61811 8.75751-8.61615 0-.12992 0-.25984-.006-.38976.6002-.4252 1.1225-.9626 1.5366-1.57086-.5522.24212-1.1464.40157-1.7707.47834.6363-.37204 1.1225-.9685 1.3566-1.67716-.5943.34842-1.2546.59645-1.9569.73228-.5642-.59055-1.3625-.95669-2.2448-.95669-1.69872 0-3.0793 1.35826-3.0793 3.02952 0 .23623.03005.46654.07805.69095-2.55701-.12402-4.82593-1.33464-6.34453-3.16535-.26411.44881-.41417.9685-.41417 1.52362 0 1.05118.54622 1.97834 1.36855 2.52163-.5042-.01771-.97839-.15352-1.39256-.37793v.04133c0 1.46457 1.06242 2.6929 2.46699 2.97049-.25811.07084-.52821.10626-.81033.10626-.19808 0-.39015-.01771-.57623-.05313.39016 1.20471 1.53061 2.07881 2.87515 2.10241-1.05642.8149-2.38295 1.2992-3.82352 1.2992-.246106 0-.492204-.0118-.7323-.0414 1.35654.8504 2.97719 1.3524 4.71189 1.3524z" fill="#1f3e4f"/></svg>