<svg width="16" height="16" viewBox="0 0 16 16" fill="none" xmlns="http://www.w3.org/2000/svg">
<path d="M8 9.12501C7.70163 9.12501 7.41548 9.00648 7.2045 8.7955C6.99353 8.58453 6.875 8.29838 6.875 8.00001C6.875 7.70164 6.99353 7.41549 7.2045 7.20451C7.41548 6.99354 7.70163 6.87501 8 6.87501C8.29837 6.87501 8.58452 6.99354 8.7955 7.20451C9.00647 7.41549 9.125 7.70164 9.125 8.00001C9.125 8.29838 9.00647 8.58453 8.7955 8.7955C8.58452 9.00648 8.29837 9.12501 8 9.12501ZM7.604 11.3705C7.73525 11.528 7.86725 11.681 8 11.8273C8.13275 11.681 8.26475 11.5288 8.396 11.3705C8.13203 11.3761 7.86797 11.3761 7.604 11.3705ZM6.10775 11.2768C5.5318 11.2168 4.95965 11.1247 4.394 11.0008C4.33775 11.2633 4.295 11.5183 4.2665 11.7628C4.124 12.95 4.32275 13.6715 4.625 13.8455C4.92725 14.0203 5.651 13.8313 6.60875 13.115C6.806 12.9673 7.00475 12.803 7.20425 12.6238C6.81387 12.1956 6.4478 11.7459 6.10775 11.2768ZM11.606 11.0008C11.0683 11.1208 10.4937 11.2138 9.89225 11.2768C9.5522 11.7459 9.18613 12.1956 8.79575 12.6238C8.99525 12.8038 9.194 12.9673 9.39125 13.115C10.349 13.8313 11.0728 14.0203 11.375 13.8455C11.6772 13.6715 11.8752 12.95 11.7343 11.7628C11.7033 11.507 11.6608 11.2527 11.6068 11.0008H11.606ZM12.6935 10.7105C13.1262 12.6898 12.899 14.2655 11.9375 14.8205C10.976 15.3755 9.49775 14.7845 8 13.4203C6.50225 14.7845 5.024 15.3748 4.0625 14.8198C3.101 14.2648 2.87375 12.6898 3.30575 10.7098C1.37525 10.0955 0.125 9.11001 0.125 8.00001C0.125 6.89001 1.37525 5.90526 3.30575 5.28951C2.87375 3.31026 3.101 1.73451 4.0625 1.17951C5.024 0.624509 6.50225 1.21551 8 2.57976C9.49775 1.21551 10.976 0.625259 11.9375 1.18026C12.899 1.73526 13.1263 3.31026 12.6943 5.29026C14.6248 5.90451 15.875 6.89001 15.875 8.00001C15.875 9.11001 14.6248 10.0948 12.6943 10.7105H12.6935ZM7.2035 3.37626C7.01277 3.20361 6.81432 3.0397 6.60875 2.88501C5.651 2.16876 4.92725 1.97976 4.625 2.15451C4.32275 2.32851 4.12475 3.05001 4.26575 4.23726C4.29575 4.48251 4.33775 4.73676 4.39325 4.99926C4.95915 4.87531 5.53154 4.78316 6.10775 4.72326C6.464 4.23351 6.8315 3.78276 7.20425 3.37626H7.2035ZM9.89225 4.72326C10.4937 4.78626 11.0683 4.88001 11.606 4.99926C11.6623 4.73676 11.705 4.48176 11.7335 4.23726C11.876 3.05001 11.6772 2.32851 11.375 2.15451C11.0728 1.97976 10.349 2.16876 9.39125 2.88501C9.18543 3.03968 8.98673 3.2036 8.79575 3.37626C9.1685 3.78276 9.536 4.23351 9.89225 4.72326ZM8.396 4.62951C8.26475 4.47201 8.13275 4.31901 8 4.17276C7.86725 4.31901 7.73525 4.47126 7.604 4.62951C7.86797 4.62391 8.13203 4.62391 8.396 4.62951ZM5.279 10.028C5.14217 9.80234 5.01014 9.57378 4.883 9.34251C4.81175 9.53526 4.74575 9.72501 4.68575 9.91326C4.8785 9.95526 5.0765 9.99351 5.27825 10.028H5.279ZM6.728 10.2035C7.57483 10.2664 8.42517 10.2664 9.272 10.2035C9.7499 9.50147 10.1751 8.76495 10.544 8.00001C10.1751 7.23507 9.7499 6.49855 9.272 5.79651C8.42517 5.73361 7.57483 5.73361 6.728 5.79651C6.2501 6.49855 5.82493 7.23507 5.456 8.00001C5.82493 8.76495 6.2501 9.50147 6.728 10.2035ZM11.117 6.65751C11.1883 6.46476 11.2543 6.27501 11.3143 6.08676C11.1176 6.04409 10.9201 6.00583 10.7218 5.97201C10.8583 6.19769 10.9901 6.42624 11.117 6.65751ZM3.5975 6.37776C3.3425 6.46026 3.101 6.55026 2.8745 6.64776C1.77575 7.11876 1.25 7.65126 1.25 8.00001C1.25 8.34876 1.775 8.88126 2.8745 9.35226C3.101 9.44976 3.3425 9.53976 3.5975 9.62226C3.764 9.09726 3.97025 8.55276 4.21625 8.00001C3.97987 7.47124 3.77329 6.92964 3.5975 6.37776ZM4.685 6.08676C4.74575 6.27426 4.81175 6.46476 4.883 6.65676C5.01015 6.42574 5.14218 6.19744 5.279 5.97201C5.0765 6.00651 4.8785 6.04476 4.68575 6.08676H4.685ZM12.4025 9.62226C12.6575 9.53976 12.899 9.44976 13.1255 9.35226C14.2242 8.88126 14.75 8.34876 14.75 8.00001C14.75 7.65126 14.225 7.11876 13.1255 6.64776C12.8887 6.54688 12.6475 6.45679 12.4025 6.37776C12.236 6.90276 12.0297 7.44726 11.7838 8.00001C12.0297 8.55276 12.236 9.09651 12.4025 9.62226ZM11.315 9.91326C11.2543 9.72576 11.1883 9.53526 11.117 9.34326C10.9899 9.57428 10.8578 9.80258 10.721 10.028C10.9235 9.99351 11.1215 9.95526 11.3143 9.91326H11.315Z" fill="white"/>
</svg>
